<svg xmlns="http://www.w3.org/2000/svg" width="864.559" height="680.402" viewBox="0 0 864.559 680.402">
  <g id="Group_13" data-name="Group 13" transform="translate(-85.72 -336.39)">
    <g id="Group_5" data-name="Group 5">
      <rect id="Rectangle_34" data-name="Rectangle 34" width="172" height="250" transform="translate(139 774)" fill="#fff"/>
      <g id="Rectangle_30" data-name="Rectangle 30" transform="translate(183 696)" fill="#fff" stroke="#111" stroke-width="4">
        <rect width="39" height="98" rx="19.5" stroke="none"/>
        <rect x="-2" y="-2" width="43" height="102" rx="21.5" fill="none"/>
      </g>
      <g id="Rectangle_32" data-name="Rectangle 32" transform="translate(270 744)" fill="#fff" stroke="#111" stroke-width="4">
        <rect width="39" height="77" rx="19.5" stroke="none"/>
        <rect x="-2" y="-2" width="43" height="81" rx="21.5" fill="none"/>
      </g>
      <g id="Rectangle_31" data-name="Rectangle 31" transform="translate(226 711)" fill="#fff" stroke="#111" stroke-width="4">
        <rect width="40" height="98" rx="20" stroke="none"/>
        <rect x="-2" y="-2" width="44" height="102" rx="22" fill="none"/>
      </g>
      <g id="Rectangle_33" data-name="Rectangle 33" transform="translate(139 615)" fill="#fff" stroke="#111" stroke-width="4">
        <rect width="39" height="179" rx="19.5" stroke="none"/>
        <rect x="-2" y="-2" width="43" height="183" rx="21.5" fill="none"/>
      </g>
      <path id="Path_97" data-name="Path 97" d="M4445.281,1476.393a47.271,47.271,0,0,0-14.133-34.565,50.542,50.542,0,0,0-34.9-14.83v-41.531s.155-3.846,7.136-6.959,15.944-1.041,20.789-5.491,10.508-6.767,10.188-21.224-12.078-17.851-15.6-18.709-25.7-1.593-41.322,9.669-24.544,31.472-25.33,34.322,0,99.318,0,99.318" transform="translate(-4215 -612)" fill="#fff"/>
      <path id="Path_94" data-name="Path 94" d="M4445.281,1476.393a47.271,47.271,0,0,0-14.133-34.565,50.542,50.542,0,0,0-34.9-14.83v-41.531s.155-3.846,7.136-6.959,15.944-1.041,20.789-5.491,10.508-6.767,10.188-21.224-12.078-17.851-15.6-18.709-25.7-1.593-41.322,9.669-24.544,31.472-25.33,34.322,0,259.717,0,259.717" transform="translate(-4215 -612)" fill="none" stroke="#111" stroke-width="4"/>
      <path id="Path_95" data-name="Path 95" d="M4527.216,1636.792V1375.407" transform="translate(-4216 -612)" fill="none" stroke="#111" stroke-linecap="round" stroke-width="4"/>
      <path id="Path_96" data-name="Path 96" d="M4394.637,1335.529s2.855,8.09,10.823,7.513,8.22-9.864,8.22-9.864" transform="translate(-4215 -612)" fill="none" stroke="#111" stroke-linecap="round" stroke-width="4"/>
    </g>
    <g id="Group_6" data-name="Group 6" transform="translate(316 -1)">
      <rect id="Rectangle_34-2" data-name="Rectangle 34" width="172" height="250" transform="translate(139 774)" fill="#fff"/>
      <g id="Rectangle_30-2" data-name="Rectangle 30" transform="translate(183 696)" fill="#fff" stroke="#111" stroke-width="4">
        <rect width="39" height="98" rx="19.5" stroke="none"/>
        <rect x="-2" y="-2" width="43" height="102" rx="21.5" fill="none"/>
      </g>
      <g id="Rectangle_32-2" data-name="Rectangle 32" transform="translate(270 744)" fill="#fff" stroke="#111" stroke-width="4">
        <rect width="39" height="77" rx="19.5" stroke="none"/>
        <rect x="-2" y="-2" width="43" height="81" rx="21.5" fill="none"/>
      </g>
      <g id="Rectangle_31-2" data-name="Rectangle 31" transform="translate(226 711)" fill="#fff" stroke="#111" stroke-width="4">
        <rect width="40" height="98" rx="20" stroke="none"/>
        <rect x="-2" y="-2" width="44" height="102" rx="22" fill="none"/>
      </g>
      <g id="Rectangle_33-2" data-name="Rectangle 33" transform="translate(139 615)" fill="#fff" stroke="#111" stroke-width="4">
        <rect width="39" height="179" rx="19.5" stroke="none"/>
        <rect x="-2" y="-2" width="43" height="183" rx="21.5" fill="none"/>
      </g>
      <path id="Path_97-2" data-name="Path 97" d="M4445.281,1476.393a47.271,47.271,0,0,0-14.133-34.565,50.542,50.542,0,0,0-34.9-14.83v-41.531s.155-3.846,7.136-6.959,15.944-1.041,20.789-5.491,10.508-6.767,10.188-21.224-12.078-17.851-15.6-18.709-25.7-1.593-41.322,9.669-24.544,31.472-25.33,34.322,0,99.318,0,99.318" transform="translate(-4215 -612)" fill="#fff"/>
      <path id="Path_94-2" data-name="Path 94" d="M4445.281,1476.393a47.271,47.271,0,0,0-14.133-34.565,50.542,50.542,0,0,0-34.9-14.83v-41.531s.155-3.846,7.136-6.959,15.944-1.041,20.789-5.491,10.508-6.767,10.188-21.224-12.078-17.851-15.6-18.709-25.7-1.593-41.322,9.669-24.544,31.472-25.33,34.322,0,259.717,0,259.717" transform="translate(-4215 -612)" fill="none" stroke="#111" stroke-width="4"/>
      <path id="Path_95-2" data-name="Path 95" d="M4527.216,1636.792V1375.407" transform="translate(-4216 -612)" fill="none" stroke="#111" stroke-linecap="round" stroke-width="4"/>
      <path id="Path_96-2" data-name="Path 96" d="M4394.637,1335.529s2.855,8.09,10.823,7.513,8.22-9.864,8.22-9.864" transform="translate(-4215 -612)" fill="none" stroke="#111" stroke-linecap="round" stroke-width="4"/>
    </g>
    <g id="Group_7" data-name="Group 7" transform="translate(630 -1)">
      <rect id="Rectangle_34-3" data-name="Rectangle 34" width="172" height="250" transform="translate(139 774)" fill="#fff"/>
      <g id="Rectangle_30-3" data-name="Rectangle 30" transform="translate(183 696)" fill="#fff" stroke="#111" stroke-width="4">
        <rect width="39" height="98" rx="19.5" stroke="none"/>
        <rect x="-2" y="-2" width="43" height="102" rx="21.5" fill="none"/>
      </g>
      <g id="Rectangle_32-3" data-name="Rectangle 32" transform="translate(270 744)" fill="#fff" stroke="#111" stroke-width="4">
        <rect width="39" height="77" rx="19.5" stroke="none"/>
        <rect x="-2" y="-2" width="43" height="81" rx="21.5" fill="none"/>
      </g>
      <g id="Rectangle_31-3" data-name="Rectangle 31" transform="translate(226 711)" fill="#fff" stroke="#111" stroke-width="4">
        <rect width="40" height="98" rx="20" stroke="none"/>
        <rect x="-2" y="-2" width="44" height="102" rx="22" fill="none"/>
      </g>
      <g id="Rectangle_33-3" data-name="Rectangle 33" transform="translate(139 615)" fill="#fff" stroke="#111" stroke-width="4">
        <rect width="39" height="179" rx="19.5" stroke="none"/>
        <rect x="-2" y="-2" width="43" height="183" rx="21.5" fill="none"/>
      </g>
      <path id="Path_97-3" data-name="Path 97" d="M4445.281,1476.393a47.271,47.271,0,0,0-14.133-34.565,50.542,50.542,0,0,0-34.9-14.83v-41.531s.155-3.846,7.136-6.959,15.944-1.041,20.789-5.491,10.508-6.767,10.188-21.224-12.078-17.851-15.6-18.709-25.7-1.593-41.322,9.669-24.544,31.472-25.33,34.322,0,99.318,0,99.318" transform="translate(-4215 -612)" fill="#fff"/>
      <path id="Path_94-3" data-name="Path 94" d="M4445.281,1476.393a47.271,47.271,0,0,0-14.133-34.565,50.542,50.542,0,0,0-34.9-14.83v-41.531s.155-3.846,7.136-6.959,15.944-1.041,20.789-5.491,10.508-6.767,10.188-21.224-12.078-17.851-15.6-18.709-25.7-1.593-41.322,9.669-24.544,31.472-25.33,34.322,0,259.717,0,259.717" transform="translate(-4215 -612)" fill="none" stroke="#111" stroke-width="4"/>
      <path id="Path_95-3" data-name="Path 95" d="M4527.216,1636.792V1375.407" transform="translate(-4216 -612)" fill="none" stroke="#111" stroke-linecap="round" stroke-width="4"/>
      <path id="Path_96-3" data-name="Path 96" d="M4394.637,1335.529s2.855,8.09,10.823,7.513,8.22-9.864,8.22-9.864" transform="translate(-4215 -612)" fill="none" stroke="#111" stroke-linecap="round" stroke-width="4"/>
    </g>
    <g id="Group_12" data-name="Group 12">
      <path id="Path_100" data-name="Path 100" d="M5145.583,1114.453V980.67a28.02,28.02,0,0,0-21.854-19.394c-17.841-3.377-21.828,4.1-21.828,4.1L4979.293,1120.33a43.335,43.335,0,0,0,0,36.063c8.833,19.434,31.168,23.672,31.168,23.672s133.813,1.322,135.465,0,16.387-11.489,17.206-27.232-17.206-36.787-17.206-36.787Z" transform="translate(-4214 -613)" fill="#fff"/>
      <path id="Path_98" data-name="Path 98" d="M5064.434,1167.855a54.7,54.7,0,0,1,34.927-13.556c21.688-.493,32.428,13.556,32.428,13.556" transform="translate(-4215 -612)" fill="none" stroke="#111" stroke-linecap="round" stroke-width="4"/>
      <path id="Path_99" data-name="Path 99" d="M5098.111,1099.147s37.5,4.44,51.087,17.947,14.751,20,13.933,35.74-15.554,25.91-17.206,27.232-135.465,0-135.465,0-22.335-4.238-31.168-23.672a43.335,43.335,0,0,1,0-36.063L5101.9,965.381s3.987-7.481,21.828-4.1a28.02,28.02,0,0,1,21.854,19.394v133.783" transform="translate(-4215 -612)" fill="none" stroke="#111" stroke-width="4"/>
    </g>
    <g id="Group_11" data-name="Group 11">
      <path id="Path_102" data-name="Path 102" d="M4630.022,1051.879s24.185-37.895,62.052-37.741,58.879,37.694,62.484,37.741,28.248-38.609,64.077-37.741,61.018,37.741,61.018,37.741-51.8,76.274-125.1,75.343S4630.022,1051.879,4630.022,1051.879Z" transform="translate(-4215 -612)" fill="#ec96aa" stroke="#111" stroke-linecap="round" stroke-width="4"/>
      <path id="Path_101" data-name="Path 101" d="M4660.3,1057.83s31.609,19.179,94.189,19.249,93.833-19.249,93.833-19.249" transform="translate(-4215 -612)" fill="none" stroke="#111" stroke-linecap="round" stroke-width="4"/>
    </g>
    <g id="Group_10" data-name="Group 10">
      <g id="Path_103" data-name="Path 103" transform="translate(-4215 -612)" fill="#fff" stroke-linecap="round">
        <path d="M 4436.99755859375 1137.5703125 C 4436.99609375 1137.5703125 4436.9951171875 1137.5703125 4436.99365234375 1137.5703125 C 4427.24365234375 1137.5703125 4417.4228515625 1136.61962890625 4407.8046875 1134.744873046875 C 4399.06494140625 1133.041259765625 4390.29638671875 1130.536743164062 4381.74365234375 1127.301025390625 C 4367.35498046875 1121.857421875 4353.30322265625 1114.270385742188 4339.978515625 1104.750610351562 C 4328.13232421875 1096.287109375 4319.06103515625 1087.826782226562 4313.537109375 1082.219848632812 C 4307.53076171875 1076.122802734375 4304.36669921875 1072.073974609375 4304.23486328125 1071.904663085938 L 4303.2666015625 1070.660034179688 L 4304.2509765625 1069.42822265625 C 4304.3876953125 1069.25732421875 4307.66650390625 1065.171752929688 4313.85791015625 1059.006591796875 C 4319.55322265625 1053.335815429688 4328.888671875 1044.773193359375 4341.0234375 1036.183715820312 C 4354.67236328125 1026.522338867188 4369.01171875 1018.793273925781 4383.6435546875 1013.211242675781 C 4392.34130859375 1009.893127441406 4401.23974609375 1007.306640625 4410.0927734375 1005.523620605469 C 4419.8359375 1003.561279296875 4429.76318359375 1002.524291992188 4439.59912109375 1002.441467285156 C 4440.0224609375 1002.437927246094 4440.4345703125 1002.436218261719 4440.8583984375 1002.436218261719 C 4450.61181640625 1002.436218261719 4460.45263671875 1003.406677246094 4470.10791015625 1005.320617675781 C 4478.8798828125 1007.059631347656 4487.6943359375 1009.616027832031 4496.306640625 1012.918884277344 C 4510.79296875 1018.474670410156 4524.98095703125 1026.217895507812 4538.4755859375 1035.933349609375 C 4550.4716796875 1044.570068359375 4559.69287109375 1053.203247070312 4565.31640625 1058.924682617188 C 4571.4296875 1065.144897460938 4574.6640625 1069.274047851562 4574.798828125 1069.44677734375 L 4575.76416015625 1070.684936523438 L 4574.791015625 1071.916748046875 C 4574.6611328125 1072.080810546875 4571.54638671875 1076.003540039062 4565.58251953125 1081.938720703125 C 4560.10009765625 1087.395141601562 4551.0712890625 1095.646606445312 4539.1943359375 1103.970581054688 C 4525.83935546875 1113.330200195312 4511.673828125 1120.8759765625 4497.09130859375 1126.398559570312 C 4488.4267578125 1129.679931640625 4479.5166015625 1132.274169921875 4470.60888671875 1134.109008789062 C 4460.8076171875 1136.127807617188 4450.76806640625 1137.276611328125 4440.7685546875 1137.523681640625 C 4439.5166015625 1137.554565429688 4438.24755859375 1137.5703125 4436.99755859375 1137.5703125 Z" stroke="none"/>
        <path d="M 4436.99365234375 1135.5703125 C 4438.228515625 1135.5703125 4439.4697265625 1135.55517578125 4440.71923828125 1135.524291992188 C 4523.58837890625 1133.47705078125 4573.2216796875 1070.676635742188 4573.2216796875 1070.676635742188 C 4573.2216796875 1070.676635742188 4521.56982421875 1004.436218261719 4440.8583984375 1004.436218261719 C 4440.4423828125 1004.436218261719 4440.033203125 1004.437927246094 4439.61572265625 1004.44140625 C 4358.1875 1005.126892089844 4305.8134765625 1070.676635742188 4305.8134765625 1070.676635742188 C 4305.8134765625 1070.676635742188 4356.2939453125 1135.56982421875 4436.99365234375 1135.5703125 M 4436.998046875 1139.5703125 L 4436.998046875 1135.5703125 L 4436.99658203125 1139.5703125 C 4427.115234375 1139.5703125 4417.166015625 1138.607177734375 4407.421875 1136.707885742188 C 4398.57177734375 1134.982788085938 4389.6943359375 1132.447143554688 4381.0361328125 1129.171630859375 C 4366.48583984375 1123.6669921875 4352.28076171875 1115.998046875 4338.81591796875 1106.3779296875 C 4333.53369140625 1102.604125976562 4328.35302734375 1098.5166015625 4323.41796875 1094.228759765625 C 4319.46826171875 1090.797119140625 4315.66455078125 1087.22900390625 4312.1123046875 1083.623413085938 C 4306.02490234375 1077.444091796875 4302.791015625 1073.305786132812 4302.65625 1073.132568359375 L 4300.7197265625 1070.6435546875 L 4302.6884765625 1068.1796875 C 4302.828125 1068.005249023438 4306.17578125 1063.833740234375 4312.44677734375 1057.58935546875 C 4316.10693359375 1053.944580078125 4320.0205078125 1050.335327148438 4324.07763671875 1046.861572265625 C 4329.1474609375 1042.521118164062 4334.4599609375 1038.37939453125 4339.8681640625 1034.55126953125 C 4353.65380859375 1024.79296875 4368.14208984375 1016.984436035156 4382.9306640625 1011.342590332031 C 4391.7314453125 1007.985168457031 4400.7373046875 1005.367797851562 4409.69775390625 1003.56298828125 C 4419.5654296875 1001.575622558594 4429.6201171875 1000.525451660156 4439.58203125 1000.441589355469 C 4440.01318359375 1000.43798828125 4440.4306640625 1000.436218261719 4440.8583984375 1000.436218261719 C 4450.7421875 1000.436218261719 4460.7138671875 1001.419494628906 4470.49658203125 1003.358825683594 C 4479.3798828125 1005.119873046875 4488.3046875 1007.708068847656 4497.0224609375 1011.051513671875 C 4511.669921875 1016.6689453125 4526.009765625 1024.494262695312 4539.64404296875 1034.310180664062 C 4544.99169921875 1038.160278320312 4550.24365234375 1042.330322265625 4555.25341796875 1046.704711914062 C 4559.2626953125 1050.205200195312 4563.1279296875 1053.844848632812 4566.74267578125 1057.522705078125 C 4572.935546875 1063.82373046875 4576.23828125 1068.04052734375 4576.3759765625 1068.216918945312 L 4578.30712890625 1070.693237304688 L 4576.35986328125 1073.156860351562 C 4576.22705078125 1073.324829101562 4573.04052734375 1077.338012695312 4566.9931640625 1083.356323242188 C 4561.455078125 1088.868041992188 4552.3359375 1097.20263671875 4540.34228515625 1105.6083984375 C 4526.85107421875 1115.063354492188 4512.53759765625 1122.6875 4497.7998046875 1128.268920898438 C 4489.0361328125 1131.587768554688 4480.0234375 1134.211669921875 4471.01220703125 1136.06787109375 C 4461.0947265625 1138.110595703125 4450.93603515625 1139.273071289062 4440.81787109375 1139.523071289062 C 4439.5478515625 1139.554443359375 4438.2626953125 1139.5703125 4436.998046875 1139.5703125 Z" stroke="none" fill="#111"/>
      </g>
      <g id="Ellipse_34" data-name="Ellipse 34" transform="translate(180 414)" fill="#48cb8c" stroke="#111" stroke-width="4">
        <ellipse cx="45" cy="44.5" rx="45" ry="44.5" stroke="none"/>
        <ellipse cx="45" cy="44.5" rx="47" ry="46.5" fill="none"/>
      </g>
      <circle id="Ellipse_35" data-name="Ellipse 35" cx="24" cy="24" r="24" transform="translate(201 435)" fill="#111"/>
      <path id="Path_109" data-name="Path 109" d="M4439.189,1025.221v22.106" transform="translate(1226.463 -3980.916) rotate(90)" fill="none" stroke="#111" stroke-linecap="round" stroke-width="4"/>
      <path id="Path_110" data-name="Path 110" d="M4439.189,1025.221v22.106" transform="translate(1293.463 -3980.916) rotate(90)" fill="none" stroke="#111" stroke-linecap="round" stroke-width="4"/>
      <g id="Group_8" data-name="Group 8">
        <path id="Path_104" data-name="Path 104" d="M4439.189,1025.221v22.106" transform="translate(-4215 -612)" fill="none" stroke="#111" stroke-linecap="round" stroke-width="4"/>
        <path id="Path_105" data-name="Path 105" d="M4439.189,1025.221v22.106" transform="matrix(0.848, 0.53, -0.53, 0.848, -2974.315, -2802.948)" fill="none" stroke="#111" stroke-linecap="round" stroke-width="4"/>
        <path id="Path_106" data-name="Path 106" d="M0,22.107V0" transform="matrix(-0.848, 0.53, -0.53, -0.848, 213.047, 437.648)" fill="none" stroke="#111" stroke-linecap="round" stroke-width="4"/>
        <path id="Path_107" data-name="Path 107" d="M0,22.107V0" transform="matrix(-0.485, 0.875, -0.875, -0.485, 203.857, 446.633)" fill="none" stroke="#111" stroke-linecap="round" stroke-width="4"/>
        <path id="Path_108" data-name="Path 108" d="M0,0V22.107" transform="matrix(0.485, 0.875, -0.875, 0.485, 263.857, 435.915)" fill="none" stroke="#111" stroke-linecap="round" stroke-width="4"/>
      </g>
      <g id="Group_9" data-name="Group 9" transform="translate(184.522 470.221)">
        <path id="Path_104-2" data-name="Path 104" d="M4439.189,1047.327v-22.106" transform="translate(-4399.522 -1013.915)" fill="none" stroke="#111" stroke-linecap="round" stroke-width="4"/>
        <path id="Path_105-2" data-name="Path 105" d="M0,22.106V0" transform="matrix(0.848, -0.53, 0.53, 0.848, 50.81, 8.985)" fill="none" stroke="#111" stroke-linecap="round" stroke-width="4"/>
        <path id="Path_106-2" data-name="Path 106" d="M0,0V22.107" transform="matrix(-0.848, -0.53, 0.53, -0.848, 16.81, 27.732)" fill="none" stroke="#111" stroke-linecap="round" stroke-width="4"/>
        <path id="Path_107-2" data-name="Path 107" d="M0,0V22.107" transform="matrix(-0.485, -0.875, 0.875, -0.485, 0, 10.718)" fill="none" stroke="#111" stroke-linecap="round" stroke-width="4"/>
        <path id="Path_108-2" data-name="Path 108" d="M0,22.107V0" transform="matrix(0.485, -0.875, 0.875, 0.485, 60, 0)" fill="none" stroke="#111" stroke-linecap="round" stroke-width="4"/>
      </g>
    </g>
  </g>
</svg>
