<svg xmlns="http://www.w3.org/2000/svg" width="322.525" height="563" viewBox="0 0 322.525 281">
  <g id="Group_19" data-name="Group 19" transform="translate(-351.475 -221)">
    <g id="Group_17" data-name="Group 17" transform="translate(40 -104)">
      <g id="Ellipse_36" data-name="Ellipse 36" transform="translate(374 339)" fill="#fff" stroke="#111" stroke-width="4">
        <circle cx="128" cy="128" r="128" stroke="none"/>
        <circle cx="128" cy="128" r="130" fill="none"/>
      </g>
      <path id="Path_118" data-name="Path 118" d="M5905,1219.543h-54.272l-59.9-148.371,5.225-18.192,17.3-10.278,172.86-.011,14.932,9.186,4.755,11.773v4.645l9.285,9.037v11.729l-5.912,3.138v12.469l-3.373,4.288h-8.524l-4.01-4.288v-7.944l-8.662-2.571H5973.53l7.45,11.85-2.726,5.986-5.723,2.692-5.829-2.692-11.938-17.835H5853.727Z" transform="translate(-5474 -612)" fill="#fff"/>
      <path id="Path_111" data-name="Path 111" d="M5883.427,1026.232s.317,8.819,9.357,8.607,8.958-8.607,8.958-8.607" transform="translate(-5474 -612)" fill="none" stroke="#111" stroke-linecap="round" stroke-width="4"/>
      <path id="Path_112" data-name="Path 112" d="M5883.427,1026.232s.317,8.819,9.357,8.607,8.958-8.607,8.958-8.607" transform="translate(-5405 -612)" fill="none" stroke="#111" stroke-linecap="round" stroke-width="4"/>
      <path id="Path_113" data-name="Path 113" d="M5850.676,1218.838l-59.657-145.531a22.128,22.128,0,0,1,4.751-19.625c7.9-9.346,16.341-10.921,16.341-10.921s169.038-.474,172.954,0a29.291,29.291,0,0,1,14.323,7.764c4.05,4.092,6.485,11,6.485,13.94,0,6.372-1.16,10.564-5.837,12.179s-9.875-3.883-11.127-5.706-1.076-8.051-2.582-8.7-14.657-.584-14.657-.584" transform="translate(-5474 -612)" fill="none" stroke="#111" stroke-linecap="round" stroke-width="4"/>
      <path id="Path_114" data-name="Path 114" d="M6005.872,1066.7s9.319,2.73,9.695,11.136,0,10.284,0,10.284-.7,4.93-8.127,4.58-8.68-5-9.246-5.684-.824-9.181-.824-9.181h-26.135" transform="translate(-5474 -612)" fill="none" stroke="#111" stroke-linecap="round" stroke-width="4"/>
      <path id="Path_115" data-name="Path 115" d="M5905.29,1219.245s-54.31-121.662-51.513-125.221,133.432,0,133.432,0,5.836,2.858,6.214,3.347,0,6.6,0,6.6,1.088,6.18,9.1,6.045,8.247-7,8.247-7v-9.769" transform="translate(-5474 -612)" fill="none" stroke="#111" stroke-linecap="round" stroke-width="4"/>
      <path id="Path_116" data-name="Path 116" d="M5955.832,1095.175l10.012,15.859s3.3,6.35,9.659,2.81,5.032-8.869,5.032-8.869l-6.715-10.605" transform="translate(-5474 -612)" fill="none" stroke="#111" stroke-linecap="round" stroke-width="4"/>
      <path id="Path_117" data-name="Path 117" d="M5970.422,1057.165v24.617" transform="translate(-5474 -612)" fill="none" stroke="#111" stroke-linecap="round" stroke-width="4"/>
    </g>
  </g>
</svg>
