<svg width="581" height="178" viewBox="0 0 581 178" fill="none" xmlns="http://www.w3.org/2000/svg">
<g clip-path="url(#clip0)">
<path d="M247.15 42.2702H247L239.43 83.6102H229.05L219.34 33.1602H227.6L234.35 72.0502H234.48L241.71 33.1602H252.45L259.61 72.0502H259.75L266.75 33.1602H274.75L264.83 83.6102H254.31L247.15 42.2702Z" fill="#008DC9"/>
<path d="M289.43 45.8105C296.65 45.8105 304.99 49.8105 304.99 64.9605C304.99 80.5805 296.65 84.1905 289.43 84.1905C282.21 84.1905 273.8 80.5805 273.8 65.0005C273.8 49.7905 282.2 45.8105 289.43 45.8105ZM289.43 77.8105C294.93 77.8105 296.17 71.1605 296.17 64.9405C296.17 58.7205 294.93 52.1505 289.43 52.1505C283.93 52.1505 282.61 58.7305 282.61 64.9405C282.61 71.1505 283.92 77.8305 289.43 77.8305V77.8105Z" fill="#008DC9"/>
<path d="M310.28 52.5305C310.31 50.4804 310.219 48.4302 310.01 46.3905H317.72C317.79 48.6305 318 50.9405 318 53.1805H318.13C319.13 50.2905 321.85 45.8105 327.13 45.8105C327.619 45.8402 328.104 45.9138 328.58 46.0305V54.4105C327.798 54.174 326.986 54.0528 326.17 54.0505C322.66 54.0505 318.8 56.2905 318.8 63.2305V83.6105H310.26L310.28 52.5305Z" fill="#008DC9"/>
<path d="M334 29.4004H342.54V83.6104H334V29.4004Z" fill="#008DC9"/>
<path d="M378.14 29.4004V77.2504C378.1 79.3739 378.19 81.4979 378.41 83.6104H370.41C370.208 81.6905 370.115 79.7608 370.13 77.8304H369.92C368.55 81.0104 366 84.1904 360.49 84.1904C351.68 84.1904 348.03 75.3704 348.03 65.0404C348.03 52.8904 352.64 45.8104 360.29 45.8104C362.239 45.7412 364.163 46.2731 365.8 47.3338C367.436 48.3946 368.707 49.933 369.44 51.7404H369.58V29.4004H378.14ZM362.85 77.6204C367.85 77.6204 369.6 71.9004 369.6 64.8904C369.6 57.6604 367.67 52.3904 362.99 52.3904C358.31 52.3904 356.59 57.2304 356.59 64.6804C356.59 73.2804 357.9 77.6204 362.85 77.6204Z" fill="#008DC9"/>
<path d="M406.26 33.1602H415.08V53.6902H429.32V33.1602H438.14V83.6102H429.32V61.3502H415.08V83.6102H406.26V33.1602Z" fill="#008DC9"/>
<path d="M470.84 81.8105C467.518 83.3567 463.903 84.1684 460.24 84.1905C448.81 84.1905 443.85 75.5905 443.85 65.5405C443.85 54.4105 449.43 45.8105 458.45 45.8105C466.09 45.8105 472.63 50.5105 472.63 65.6905V67.4205H452.11C452.11 73.7805 454.52 77.6205 461.11 77.6205C466.34 77.6205 468.82 75.9505 470.41 74.7205L470.84 81.8105ZM464.37 61.8105C464.37 55.2305 462.3 51.9005 458.45 51.9005C453.97 51.9005 452.11 56.9005 452.11 61.8105H464.37Z" fill="#008DC9"/>
<path d="M480.27 48.5599C483.727 46.7326 487.581 45.788 491.49 45.8099C502.49 45.8099 505.05 51.4499 505.05 60.8099V76.9999C505.061 79.1987 505.224 81.394 505.54 83.5699H497.82C497.445 81.931 497.284 80.2504 497.34 78.5699H497.21C495.07 81.5699 492.38 84.1999 487.29 84.1999C481.78 84.1999 476.69 80.1999 476.69 73.2899C476.69 63.1699 484.54 60.6399 495.35 60.6399H497.07V59.2599C497.07 55.5699 495.35 52.1699 490.46 52.1699C486.91 52.2561 483.491 53.5308 480.75 55.7899L480.27 48.5599ZM497.07 65.3999H496.31C489.01 65.3999 484.68 66.9899 484.68 72.3999C484.68 75.7999 486.81 78.1099 490.11 78.1099C495.21 78.1099 497.11 74.1099 497.11 67.4799L497.07 65.3999Z" fill="#008DC9"/>
<path d="M513.45 29.4004H522V83.6104H513.46L513.45 29.4004Z" fill="#008DC9"/>
<path d="M532.66 38.73L541.2 36V46.39H548.29V53H541.2V72.3C541.2 76.3 542.57 77.43 545.05 77.43C546.181 77.4494 547.298 77.1737 548.29 76.63V83C546.506 83.851 544.547 84.2722 542.57 84.23C536.24 84.23 532.66 81.23 532.66 73.39V53H527V46.39H532.64L532.66 38.73Z" fill="#008DC9"/>
<path d="M552.69 29.4004H561.23V51.1604H561.44C562.95 48.8404 564.95 45.8104 570.25 45.8104C578.25 45.8104 580.71 52.1004 580.71 59.6204V83.6204H572.17V61.2804C572.17 55.5704 570.8 53.1804 567.29 53.1804C562.81 53.1804 561.23 57.1804 561.23 61.9304V83.6104H552.69V29.4004Z" fill="#008DC9"/>
<path d="M238.13 97C248.13 97 257.27 104.81 257.27 123C257.27 141.19 248.12 148.94 238.13 148.94C228.14 148.94 219 141.14 219 123C219 104.86 228.15 97 238.13 97ZM238.13 141.82C243.71 141.82 248.18 136.82 248.18 122.96C248.18 109.1 243.71 104.09 238.13 104.09C232.55 104.09 228.13 109.09 228.13 122.96C228.13 136.83 232.56 141.86 238.13 141.86V141.82Z" fill="#008DC9"/>
<path d="M263 117.14C263.025 115.086 262.935 113.033 262.73 110.99H270.44C270.51 113.24 270.71 115.55 270.71 117.79H270.85C271.85 114.9 274.57 110.42 279.85 110.42C280.335 110.45 280.817 110.521 281.29 110.63V119C280.513 118.763 279.704 118.641 278.89 118.64C275.37 118.64 271.52 120.88 271.52 127.82V148.2H263V117.14Z" fill="#008DC9"/>
<path d="M286.63 154C289.791 155.939 293.395 157.037 297.1 157.19C305.1 157.19 306.46 151.33 306.46 145.47V141.93H306.32C304.95 144.82 302.54 148.22 296.96 148.22C291.96 148.22 284.57 144.75 284.57 129.72C284.57 119.45 288.08 110.42 297.37 110.42C302.54 110.42 304.95 113.53 306.74 116.78H307C307 114.78 307.21 112.95 307.28 110.99H315C314.86 112.99 314.72 114.9 314.72 116.85V144.32C314.72 155.96 311.35 164.32 298.34 164.32C294.17 164.292 290.039 163.506 286.15 162L286.63 154ZM299.91 141.64C305.28 141.64 307.41 137.64 307.41 129.14C307.41 121.33 304.59 117.14 300.53 117.21C296.05 117.29 294.33 121.62 294.33 129.21C294.33 138 297 141.64 299.91 141.64Z" fill="#008DC9"/>
<path d="M324 113.16C327.462 111.342 331.319 110.401 335.23 110.42C346.23 110.42 348.79 116.06 348.79 125.42V141.68C348.797 143.882 348.958 146.081 349.27 148.26H341.56C341.179 146.602 341.018 144.901 341.08 143.2H340.94C338.81 146.2 336.12 148.84 331.03 148.84C325.52 148.84 320.43 144.84 320.43 137.93C320.43 127.81 328.27 125.28 339.08 125.28H340.8V123.9C340.8 120.22 339.08 116.82 334.19 116.82C330.644 116.908 327.23 118.179 324.49 120.43L324 113.16ZM340.75 130H340C332.7 130 328.36 131.59 328.36 137C328.36 140.39 330.5 142.71 333.8 142.71C338.89 142.71 340.75 138.71 340.75 132.08V130Z" fill="#008DC9"/>
<path d="M357.34 117.14C357.365 115.086 357.275 113.033 357.07 110.99H365.07C365.13 112.87 365.34 114.82 365.34 116.71H365.48C366.72 114.46 369.13 110.42 374.91 110.42C382.96 110.42 385.37 116.71 385.37 124.22V148.22H376.84V125.89C376.84 120.18 375.46 117.79 371.95 117.79C367.47 117.79 365.89 121.79 365.89 126.54V148.22H357.35L357.34 117.14Z" fill="#008DC9"/>
<path d="M393.06 95.1602H401.87V104H393.06V95.1602ZM393.19 110.99H401.73V148.22H393.19V110.99Z" fill="#008DC9"/>
<path d="M409.68 140.49L424.82 117.79H410.16V111H433.36V118.67L418.49 141.44H433.84V148.23H409.68V140.49Z" fill="#008DC9"/>
<path d="M441.92 113.16C445.382 111.341 449.239 110.4 453.15 110.42C464.15 110.42 466.71 116.06 466.71 125.42V141.68C466.717 143.882 466.878 146.081 467.19 148.26H459.48C459.094 146.603 458.933 144.901 459 143.2H458.86C456.72 146.2 454.04 148.84 448.95 148.84C443.44 148.84 438.34 144.84 438.34 137.93C438.34 127.81 446.19 125.28 457 125.28H458.72V123.9C458.72 120.22 457 116.82 452.11 116.82C448.564 116.908 445.15 118.179 442.41 120.43L441.92 113.16ZM458.72 130H458C450.7 130 446.37 131.59 446.37 137C446.37 140.39 448.5 142.71 451.81 142.71C456.9 142.71 458.81 138.71 458.81 132.08L458.72 130Z" fill="#008DC9"/>
<path d="M476.52 103.331L485.06 100.591V111.001H492.15V117.581H485.06V136.881C485.06 140.881 486.44 142.011 488.92 142.011C490.047 142.033 491.16 141.761 492.15 141.221V147.581C490.369 148.432 488.413 148.853 486.44 148.811C480.1 148.811 476.52 145.811 476.52 137.971V117.571H470.88V111.001H476.52V103.331Z" fill="#008DC9"/>
<path d="M498 95.1602H506.81V104H498V95.1602ZM499.1 111H507.64V148.23H499.1V111Z" fill="#008DC9"/>
<path d="M529.81 110.42C537.04 110.42 545.36 114.42 545.36 129.57C545.36 145.19 537.04 148.8 529.81 148.8C522.58 148.8 514.18 145.19 514.18 129.57C514.18 114.39 522.58 110.42 529.81 110.42ZM529.81 142.42C535.31 142.42 536.55 135.77 536.55 129.55C536.55 123.33 535.31 116.76 529.81 116.76C524.31 116.76 523 123.35 523 129.57C523 135.79 524.3 142.44 529.81 142.44V142.42Z" fill="#008DC9"/>
<path d="M552.799 117.14C552.827 115.086 552.733 113.033 552.52 110.99H560.52C560.59 112.87 560.799 114.82 560.799 116.71H560.94C562.17 114.46 564.579 110.42 570.359 110.42C578.419 110.42 580.83 116.71 580.83 124.22V148.22H572.299V125.89C572.299 120.18 570.92 117.79 567.4 117.79C562.93 117.79 561.4 121.79 561.4 126.54V148.22H552.799V117.14Z" fill="#008DC9"/>
<path d="M164 27.5807C167.86 32.1807 174.61 34.8907 178.56 39.5007C175.73 25.8707 165.21 14.7407 152.77 12.0807C158.84 16.6507 160.15 23.0007 164 27.5807ZM14.48 62.1307C23.05 43.4807 35.84 47.4307 41.25 29.6607C38.25 35.1107 24.25 37.4107 17.74 51.3807C21.05 43.0807 19.39 30.3807 24.99 23.5307C8.25 35.8807 15.38 55.8607 14.48 62.1307ZM30 106.861C31.54 114.121 27 124.601 34.2 134.621C26.76 126.281 11 124.161 4.58 111.481C12.58 142.481 33.58 136.081 42.97 142.811C35.21 131.661 41.56 124.251 30 106.861ZM27.59 126.311C23 109.001 31.18 103.001 24.93 86.4007C24.28 95.7607 18.04 100.321 22.25 117.401C14.82 102.941 3.33 97.5407 0 87.6007C0.23 114.781 22.07 118.811 27.59 126.311ZM61.13 155.311C54.7 146.411 59.13 141.381 41.03 125.221C44.85 131.121 40.91 138.541 53.09 150.081C41.17 143.081 24.73 146.081 16.8 136.671C30.42 162.741 54.35 152.101 61.13 155.341V155.311ZM148.55 150.081C160.73 138.541 156.79 131.081 160.61 125.221C142.55 141.381 146.94 146.411 140.51 155.311C147.29 152.071 171.22 162.711 184.83 136.671C176.91 146.091 160.47 143.081 148.55 150.111V150.081ZM167.44 134.591C174.61 124.591 170.1 114.091 171.64 106.831C160.08 124.221 166.43 131.631 158.64 142.831C168.08 136.101 189 142.481 197.03 111.501C190.62 124.161 174.88 126.281 167.44 134.621V134.591ZM138.58 156.541C132.13 154.804 125.505 153.798 118.83 153.541C112.689 153.393 106.577 154.432 100.83 156.601C95.0825 154.433 88.9709 153.394 82.83 153.541C76.1551 153.798 69.5302 154.804 63.08 156.541C52.21 159.431 42.82 161.671 34.63 157.541C42.48 164.541 51.63 166.991 64.86 165.541C75.86 164.361 84.77 158.851 95.15 158.931H95.56C89.0332 162.198 83.2154 166.721 78.44 172.241L83.44 172.911C83.44 172.911 88.71 162.321 100.83 159.561C112.95 162.321 118.22 172.911 118.22 172.911L123.22 172.241C118.435 166.749 112.618 162.251 106.1 159.001H106.51C116.89 158.921 125.78 164.431 136.79 165.611C150.02 167.041 159.18 164.551 167.03 157.611C158.84 161.701 149.45 159.461 138.58 156.571V156.541ZM25.67 67.6307C21.19 76.2307 14.23 78.2007 15 96.0007C11.22 80.1807 2.24 74.3207 2.35 64.2307C-3.89 90.5307 12.79 93.6507 17.07 104.671C16.44 88.8807 26.52 85.6907 25.67 67.6307ZM31.93 47.3307C30.37 49.5107 29.28 50.4407 25.12 53.8707C18.8731 58.8235 14.5798 65.8267 13 73.6407C13.43 64.0007 7.47 50.1507 11.43 40.0507C-3.9 61.7007 12.31 74.6707 12.88 82.5107C16.86 67.4207 26 67.3007 31.93 47.3307ZM188.63 73.6407C187.049 65.8297 182.76 58.8281 176.52 53.8707C172.36 50.4407 171.27 49.5107 169.71 47.3307C175.64 67.3307 184.78 67.4207 188.71 82.5107C189.28 74.6707 205.49 61.7007 190.15 40.0507C194.15 50.1507 188.2 64.0007 188.63 73.6407ZM201.63 87.6407C198.3 97.5807 186.81 102.981 179.38 117.481C183.59 100.361 177.38 95.8007 176.7 86.4807C170.45 103.101 178.7 109.071 174.04 126.391C179.57 118.811 201.41 114.781 201.64 87.6007L201.63 87.6407ZM176 67.6307C175.15 85.6907 185.24 88.8807 184.6 104.631C188.89 93.6307 205.6 90.4907 199.32 64.1907C199.44 74.2807 190.46 80.1907 186.71 95.9107C187.41 78.2007 180.45 76.2307 176 67.6307ZM37.66 27.6307C41.53 23.0307 42.84 16.7007 48.9 12.1307C36.46 14.7907 25.9 25.9207 23.11 39.5507C27 34.8907 33.76 32.1807 37.62 27.5807L37.66 27.6307ZM160.43 29.7107C165.84 47.4807 178.63 43.5307 187.19 62.1807C186.3 55.9107 193.43 35.9307 176.69 23.5807C182.29 30.4407 180.63 43.1307 183.94 51.4307C177.41 37.4107 163.44 35.1107 160.39 29.6607L160.43 29.7107ZM117 39.7507C113.72 38.4051 110.283 37.4811 106.77 37.0007C106.77 37.7507 106.77 38.5207 106.77 39.2807C109.997 39.7543 113.154 40.6207 116.17 41.8607C116.578 41.2165 116.86 40.5004 117 39.7507ZM114.41 17.7507L115.09 17.1407L113.79 16.5907L110.37 16.5207L109.48 17.1407L107.48 16.9707V17.4607C108.659 17.5242 109.834 17.6477 111 17.8307L112.67 17.6807L114.41 17.7507ZM107.78 91.5007C107.78 90.9207 107.01 90.3507 105.87 89.8107H105.66C105.66 90.2807 105.66 92.6007 105.59 93.7307C107 93.1007 107.78 92.4207 107.78 91.5007ZM68.16 48.0007C68.2321 47.5787 68.3289 47.1613 68.45 46.7507C67.9908 46.8541 67.5206 46.9011 67.05 46.8907L68.16 48.0007ZM100.89 148.601C118.731 148.536 135.87 141.638 148.782 129.325C161.693 117.012 169.397 100.22 170.307 82.4015C171.218 64.5831 165.267 47.0931 153.677 33.5279C142.088 19.9627 125.742 11.3536 108 9.4707C108 9.6007 108 9.7407 107.92 9.8707C107.78 10.5507 107.65 11.1607 107.55 11.7007C122.866 13.2058 137.205 19.9112 148.18 30.7007L140.48 38.4007L140.77 37.0407L139.77 36.6007L138.39 36.5207L138.68 35.6307L137.75 32.4807L135.83 30.3707L129.83 27.2007L129.31 27.7507L128.22 28.0707C130.271 31.0452 131.379 34.5679 131.4 38.1807C131.4 38.6507 131.4 39.1007 131.4 39.5507L134.4 43.3007L133 43.6207L133.93 45.0207L131.3 47.6407L130.24 45.6407C129.738 47.028 129.066 48.348 128.24 49.5707L128.83 50.1107L120.72 58.2207C120.23 57.7507 119.72 57.3007 119.2 56.8707C118.42 57.2307 117.63 57.5607 116.82 57.8707L117.51 58.4107L117.1 58.8207L116.1 59.3507L115.75 60.3507L115.16 59.7607L113.45 60.3307L113.92 61.0807L115.1 60.7707L115.87 60.8307L115.93 60.4107L116.52 60.1107L116.7 59.7607L117.76 59.4607H118.59C118.75 59.6007 118.92 59.7507 119.07 59.9007L115.81 63.0007L115.57 62.6607L112.21 63.2107L111.46 63.9607L110.73 64.0507L112.81 62.0507L112.07 61.6807L110.12 64.2807L110.69 64.2207V65.2207L111.4 65.5007L111.54 66.5007L110.37 66.2707L109.15 66.4907L106.15 64.9807C106.15 64.9807 105.99 72.9007 105.91 76.8807C112.91 79.2207 120.26 82.6007 120.26 91.4807C120.287 93.3393 119.843 95.1744 118.968 96.8147C118.094 98.455 116.818 99.847 115.26 100.861L115.11 100.961L114.89 101.111C112.07 102.971 108.45 103.971 105.31 104.951L105.22 111.171C110.22 113.651 116.27 117.261 115.71 127.591C115.64 130.131 114.65 130.831 113.8 131.061C110.847 131.797 107.836 132.276 104.8 132.491C104.8 133.291 104.8 134.051 104.8 134.761C117.833 133.864 130.139 128.429 139.58 119.401L147.68 127.501C135.159 139.567 118.457 146.325 101.068 146.36C83.6793 146.396 66.9501 139.706 54.38 127.691L62.48 119.591C71.8223 128.442 83.9355 133.794 96.77 134.741C96.77 134.041 96.77 133.281 96.77 132.471C84.5278 131.538 72.9771 126.43 64.05 118.001L66.21 115.831L69.21 116.171L70.79 114.471L74.93 114.611L75.54 113.181L75.39 112.571C81.5124 117.264 88.8092 120.181 96.48 121.001C96.48 120.121 96.48 119.351 96.48 118.721C87.9867 117.768 80.023 114.116 73.76 108.301L81.87 100.191C83.8471 101.955 86.0578 103.439 88.44 104.601C88.6056 103.854 88.882 103.136 89.26 102.471C87.1654 101.438 85.2181 100.129 83.47 98.5807L91.6 90.4607C92.9013 91.5017 94.3684 92.3164 95.94 92.8707C95.94 92.0707 95.94 91.2207 95.94 90.4307C94.9837 90.0148 94.0833 89.4807 93.26 88.8407L95.55 86.5507C94.75 86.3107 93.93 86.0507 93.13 85.7707L91.59 87.3107C90.8107 86.4434 90.1576 85.4705 89.65 84.4207C88.2601 83.8185 86.9223 83.1027 85.65 82.2807C83.2838 80.8553 81.3359 78.8304 80.0031 76.4107C78.6704 73.9911 78.0001 71.2625 78.06 68.5007C77.9233 64.729 79.0807 61.024 81.34 58.0007L73.26 49.9207C79.2037 44.2275 86.7621 40.5112 94.9 39.2807C94.9 38.5007 94.9 37.7307 94.85 37.0007C86.1248 38.2643 78.0149 42.2301 71.66 48.3407L70.29 47.0007C69.98 47.5507 69.62 48.2407 69.2 49.1107L70.06 49.9807C62.8613 57.6214 58.7745 67.6744 58.6 78.1707H47.13C47.3137 64.613 52.6269 51.6282 62 41.8307L65.64 45.4807C65.8132 45.4905 65.9868 45.4905 66.16 45.4807C66.8828 45.4192 67.5863 45.2153 68.23 44.8807L63.6 40.2507C66.0607 37.8779 68.7392 35.7418 71.6 33.8707C71.7568 33.3 71.9472 32.739 72.17 32.1907C72.7103 31.3762 73.2944 30.5917 73.92 29.8407C69.575 32.23 65.5667 35.1859 62 38.6307L53.9 30.5307C64.7583 19.9129 78.893 13.2861 94 11.7307C93.94 11.4507 93.9 11.2307 93.9 11.2307C93.8 10.7007 93.68 10.1107 93.57 9.4907C75.8116 11.3761 59.4522 19.9993 47.8608 33.5844C36.2694 47.1695 30.3285 64.6822 31.2615 82.516C32.1945 100.35 39.9305 117.147 52.8762 129.448C65.8219 141.75 82.9918 148.619 100.85 148.641L100.89 148.601ZM116 100.451V100.391V100.451ZM149.78 32.3307C161.596 44.6853 168.265 61.0758 168.43 78.1707H156.92C156.818 69.6593 154.765 61.2847 150.92 53.6907L151.02 53.4907L151.81 53.9107L152 53.3007L150 49.7107L147.57 46.3507L144.69 44.0007C143.69 42.7807 142.69 41.6007 141.62 40.4607L149.78 32.3307ZM135.13 47.0007L137.88 47.1207L138.54 47.9107L138.21 49.0807L142 51.4807L142.75 51.3907L147.65 56.9907L149.65 56.2907C152.848 63.1475 154.552 70.6055 154.65 78.1707H143.19C143.141 75.2345 142.782 72.3117 142.12 69.4507L142.65 68.7407L143.36 65.1507L142.82 61.2907L141.44 56.8507L138.24 52.1707L139.02 52.5807L139.41 52.1907L136.84 50.4507L136.67 51.0207L139.24 54.6907L140.69 57.6907L141.69 60.6907L142.02 62.6907L142.55 66.0707L141.55 66.1407C141.55 66.1407 140.44 64.0707 140.1 63.2207L140.61 62.4507L139.61 61.0507V59.6507L138.91 58.7707L138.04 58.8807C137.73 58.3007 137.4 57.7307 137.04 57.1707L137.66 57.4807L137.82 57.3207L137.49 56.6007L138.24 56.1807L137.9 55.7607L136.79 56.1807L137.2 54.4407L136.54 54.0607L135.95 55.4507C134.702 53.5767 133.308 51.8045 131.78 50.1507L135.13 47.0007ZM132.83 73.8707L134.89 72.7507L136.99 72.4307L137.45 71.4307L138.62 70.7307L139.07 69.7307L139.43 68.0407C139.6 68.6307 139.75 69.2407 139.89 69.8507L138.78 73.1607V74.2807L140.39 72.1307C140.736 74.1129 140.926 76.1189 140.96 78.1307H130.96L130.73 77.2607L131.9 76.3307L132.13 75.7707L132.64 75.3907L134 75.2507L134.14 74.6507L132.83 73.8707ZM119.07 66.0007L120.07 65.7607V65.5207L119.07 64.8307L119.42 62.6707L120.65 61.4407C121.419 62.3174 122.13 63.2426 122.78 64.2107L122.35 65.5407L121.23 64.7407L120.38 64.9707L120.8 65.7607H121.22L120.75 66.9307L120.43 66.4607L119.07 66.0007ZM123.46 104.071L120.98 103.371L120.24 103.641L118.84 102.571L117.52 102.101C118.17 101.631 118.8 101.101 119.41 100.621L121.41 102.061L122.97 102.881L123.74 103.651L123.46 104.071ZM122.2 59.8507L130.31 51.7407C132.206 53.8078 133.882 56.0667 135.31 58.4807L134.31 58.7607L134.36 60.5707L137.36 62.4907C138.112 64.1511 138.746 65.8619 139.26 67.6107L138.73 68.3907L137.63 69.0907L137.36 70.7707L136.61 71.1907L135.98 71.9307L135.35 71.7007H134.23L134.88 70.8207L135.35 68.5307L136.09 68.0707L134 65.9207L132.37 66.4707L132 68.0007L131 69.1107L129.93 68.2307L129.55 67.2907L130.16 66.9107L130.5 67.5307L131 67.3407L130.78 66.3407H130.07L130.02 66.7607L129.55 66.8507L127 63.8607L126.14 63.2107L126.47 62.8507L127.23 62.5907L126.53 62.3107C126.53 62.3107 125.64 62.5107 125.53 62.5107L126.04 63.1507H124.76C123.991 61.9879 123.135 60.8847 122.2 59.8507ZM126.33 103.001L125.23 101.901L126.07 100.811L127.13 98.6507L126.72 98.0507L127.42 96.4507L127.34 95.0107L126.92 93.5207L125.92 93.1707L125.55 94.0107L124.95 93.8507C125.873 92.528 126.676 91.1258 127.35 89.6607L128.35 89.2207L128.93 88.4407L129.21 88.7607L129.91 87.9207L129.35 87.2207L129.86 87.0807L130.8 87.4607H132.57L133.64 86.9007L136.44 86.1607L135.91 85.2307L135.73 84.1007L137.23 84.7607L137.79 84.4307L137.51 83.2707L135.7 84.0007L133.7 83.5807L132.16 80.4307H140.93C140.553 90.1851 136.615 99.4633 129.86 106.511L128.66 105.301L129.18 103.691L128.24 100.141L126.33 103.001ZM127.88 125.371L128.96 123.051L128.54 122.051L130.13 120.651V119.811L128.77 118.961L129.89 116.731L131.57 114.531L129.89 112.721H128.63L127.85 111.451C128.52 110.891 129.19 110.321 129.85 109.721L137.96 117.831C134.904 120.729 131.521 123.263 127.88 125.381V125.371ZM138 114.671L138.9 113.671L138.05 109.231L137.47 109.001L137.83 108.251L135.91 107.651L135.54 109.231L135.35 111.231L134.95 111.601L131.45 108.101C138.629 100.632 142.808 90.7829 143.19 80.4307H154.66C154.281 93.8267 148.893 106.594 139.56 116.211L138 114.671ZM141.16 117.821C150.917 107.779 156.546 94.4372 156.93 80.4407H168.39C168.008 97.4783 161.175 113.736 149.27 125.931L141.16 117.821ZM72.16 106.711C71.33 105.851 70.54 104.961 69.78 104.031L70.13 101.131L68.92 98.3507L68.62 94.0007L67.26 91.3607L67.54 89.7207L65.9 86.5707L64.47 85.8507L65.05 84.1807L64.46 82.8607L65.05 81.3507H66.62L67.17 80.4407H69.85L70.26 81.2307L69.76 84.0007L69.44 84.4707L70.44 86.6607L69.78 87.0207L69.32 86.4407L69.12 86.6607L69.58 87.9607L70.37 89.4807H70.74L71 88.0007L70.62 87.5007V86.5807L70.5 84.6807L71 81.3407L70.46 80.4407H72.38C72.7511 87.2464 75.5505 93.6933 80.27 98.6107L72.16 106.711ZM64.56 84.3007L63.48 86.0007H61.62L61.47 85.8907C61.1545 84.0891 60.9608 82.2683 60.89 80.4407H64.34L63.51 83.2007L64.56 84.3007ZM68.33 76.4307L68.54 74.1507L69.9 73.3607L72.33 73.7907L72.7 74.2307C72.4805 75.5332 72.3568 76.8501 72.33 78.1707H69.58L68.33 76.4307ZM80 85.0007L80.57 84.7107L82 85.8407L81.35 86.3707L83.04 87.4907L83 86.2907L83.9 84.8007L84.84 85.8007L85.84 87.1807L84 87.5607L84.79 89.1407L86 88.5007L85.88 88.0007L86.78 87.3907L87.31 84.8907C87.9655 86.357 88.8536 87.7077 89.94 88.8907L81.84 96.9907C77.868 92.8335 75.3732 87.4855 74.74 81.7707L76.4 83.5407H77.96L80 85.0007ZM71.66 51.5407L79.76 59.6507C78.0627 61.5176 76.6171 63.5986 75.46 65.8407H74.9L73.76 66.1907H73.36L72.15 67.3207L73.68 67.0007L75.06 66.6507L74.82 67.1807L73.61 67.9207H73L71.22 69.2807L69.5 69.1407L67.01 73.7807L67.5 74.7107L66.15 76.2107L65.94 78.2107H60.86C61.0196 68.2873 64.8699 58.7791 71.66 51.5407ZM61.19 112.691L63.76 114.201L64.29 114.561L62.43 116.421C61.5633 115.521 60.7233 114.591 59.91 113.631L61.19 112.691ZM58.62 80.4407C58.62 81.5507 58.76 82.6607 58.88 83.7507L57.48 84.0707L57.19 85.4907L54.27 89.2107L54.34 94.3207L51.34 95.3207H49.7C48.1463 90.5035 47.2844 85.4902 47.14 80.4307L58.62 80.4407ZM47.3 95.2607L46.63 95.1307L46 94.4207L42.78 94.1407L43.78 95.4907L40.78 94.9307L41.56 94.2107L40.83 93.4907L38.68 94.4307L37.91 95.8507L38.21 99.1207L40.69 105.001L41.88 106.861L42.56 107.111L40.69 103.561L40.28 101.751L40.7 101.311L40.44 100.311L41.57 100.461L43.3 103.081L43.73 103.251V101.341L44.43 101.751L44.58 102.751L46.4 103.231L47.16 102.691L47.42 102.871V104.261L48.22 105.261L49.22 105.481L51.34 109.071L52.63 109.431L53.03 107.751C55.2639 111.442 57.9146 114.865 60.93 117.951L52.83 126.051C40.7909 113.871 33.8463 97.5607 33.41 80.4407H44.88C45.0156 85.4671 45.8296 90.4522 47.3 95.2607ZM52.3 32.1307L60.4 40.2307C50.6026 50.4533 45.0489 64.0125 44.86 78.1707H33.4C33.5702 60.9793 40.3151 44.5053 52.25 32.1307H52.3ZM135.3 27.9507L134.61 26.8307L133.11 26.0807L131.94 26.9707L133.44 27.7707L135.05 29.0007L135.3 27.9507ZM128.29 60.3007V61.1807L130.29 60.5907L130.9 59.3807L129.53 57.5807L130.26 56.4807L132.11 57.8007L132.45 57.5307L132.08 57.2707L131.66 56.4707L132.42 56.0307L131.68 55.0307L129.94 55.9107L129.36 57.0007L129.01 57.9507L129.78 59.2407L129.5 59.8407L128.29 60.3007ZM45.39 111.721L45.54 111.201L44.54 108.961L43.32 108.511L45.39 111.721ZM92.27 68.6407C92.27 70.5607 93.44 71.9207 95.57 73.0907C95.57 73.0907 95.57 72.7607 95.57 72.2307L94.23 70.8907L94.94 69.6007L95.52 69.4407C95.52 67.2007 95.43 64.6907 95.42 64.3307H95.32C93.34 65.4307 92.27 66.7507 92.27 68.6407Z" fill="#008DC9"/>
<path d="M105.07 118.32C108.67 120.14 111.99 122.66 113.38 127.43C113.99 119.53 109.56 116.11 105.17 113.8C105.17 113.81 105.07 118.33 105.07 118.32Z" fill="#008DC9"/>
<path d="M129 38.2005C129 31.0305 123.8 23.0705 111.05 20.2605C109.764 20.0279 108.465 19.8776 107.16 19.8105C107.16 20.8905 107.08 23.3705 107.08 23.3705C107.08 24.1505 107 27.0205 106.98 27.6405C107.804 27.6976 108.622 27.8112 109.43 27.9805C116.84 29.7505 119.49 33.9805 119.49 38.2005C119.49 45.0105 113.67 47.5805 106.49 49.5205L104.12 50.1405C101.95 50.6805 99.7202 51.2005 97.5102 51.7905C96.7202 52.0005 95.9402 52.2305 95.1602 52.4605C87.2302 54.8805 80.4102 58.7005 80.4102 68.4605C80.4102 78.2206 88.1902 81.8005 95.7802 84.1405C95.7335 81.3472 95.6802 78.5406 95.6202 75.7206C92.2702 74.1506 89.9102 72.0805 89.9102 68.6005C89.9102 65.1205 92.0602 63.1405 95.3502 61.6005C96.0802 61.2705 96.8602 60.9706 97.6902 60.6906C99.5802 60.0506 101.69 59.5005 103.94 58.9605L106.31 58.3905C117 55.8905 129 52.5406 129 38.2005Z" fill="#008DC9"/>
<path d="M90.5596 106.67C90.5596 110.59 93.4596 112.67 96.3496 114.34C96.3496 113.68 96.2296 107.61 96.2296 107.51C96.2896 106.3 97.4596 105.57 98.4096 105.12C99.9081 104.457 101.44 103.873 103 103.37C103.86 103.07 104.59 102.78 105.41 102.54C111.21 100.79 117.92 98.5402 117.92 91.5402C117.92 84.5402 112.17 81.5402 105.92 79.4102C105.92 81.6602 105.81 84.9502 105.76 87.2202C108.42 88.2202 110.18 89.5302 110.18 91.5402C110.18 94.0702 107.48 95.5402 105.57 96.2602C104.77 96.5702 103.57 96.9702 103.22 97.0802C101.68 97.5602 100.02 98.0802 98.4696 98.6802C97.6682 98.9693 96.8836 99.3032 96.1196 99.6802C93.3596 101.06 90.5496 103.09 90.5596 106.67Z" fill="#008DC9"/>
<path d="M94.4903 20.9297C92.083 21.6868 89.7419 22.64 87.4903 23.7797C84.9903 24.6097 81.4904 24.7797 77.8204 28.7197C76.633 30.0844 75.5213 31.5132 74.4903 32.9997C73.3903 34.5797 73.3403 37.1197 72.4903 38.4897C71.3303 40.4897 71.6104 41.5997 71.6104 41.5997V41.6597C71.3953 42.592 70.9323 43.4488 70.2703 44.1397C69.7211 44.8266 69.0029 45.3591 68.186 45.6852C67.3692 46.0112 66.4817 46.1196 65.6104 45.9997C67.2704 46.8297 69.6104 45.6697 69.6104 45.6697C69.2558 46.7525 68.962 47.8542 68.7304 48.9697C70.5904 44.7597 72.3004 43.2197 72.8304 42.7897C73.6304 42.9697 75.2904 42.8997 78.3704 41.1297C81.8504 39.1297 87.0803 35.8797 88.5603 33.8197C90.1211 31.7069 92.2608 30.0918 94.7204 29.1697C94.6104 25.9997 94.5503 23.2597 94.4903 20.9297ZM79.8103 34.0797L78.0004 34.4697L80.1604 30.9997L82.6804 31.0797L79.8103 34.0797Z" fill="#008DC9"/>
<path d="M101.68 106.18C101.34 106.3 100.47 106.67 99.9196 106.86C99.3696 107.05 98.5996 107.37 98.5996 107.57C98.5996 107.77 99.1596 137.98 99.1596 138.65C99.1596 144.9 102.34 144.94 102.34 138.65C102.34 138.2 102.98 105.75 102.98 105.75C102.98 105.75 102.22 106 101.68 106.18Z" fill="#008DC9"/>
<path d="M98.3802 96.16C99.3802 95.82 100.38 95.52 101.28 95.23L103.21 94.63C103.21 92.72 103.79 66.3 103.89 61.5C101.811 61.9815 99.7577 62.5723 97.7402 63.27C97.8102 66.87 98.3302 93.28 98.3802 96.16Z" fill="#008DC9"/>
<path d="M101 -5C92.0598 -5 95.8598 8.26 96.5698 12.58C96.5698 12.79 97.2898 42.58 97.4298 49.37C98.7898 49.01 100.14 48.68 101.43 48.37L104.13 47.69C104.26 41.12 104.92 12.69 104.94 12.54C105.53 7.91 110.21 -5 101 -5Z" fill="#008DC9"/>
</g>
<defs>
<clipPath id="clip0">
<path d="M0 0H580.82V177.96H0V0Z" fill="white"/>
</clipPath>
</defs>
</svg>
