<svg width="280" height="220" viewBox="0 0 280 220" fill="none" xmlns="http://www.w3.org/2000/svg">
<path d="M161.847 133.493C161.862 136.711 161.897 139.929 161.888 143.147C161.875 147.472 162.06 151.773 163.398 155.932C165.237 161.657 168.166 166.753 172.381 171.063C174.532 173.264 177.161 174.844 179.809 176.342C187.188 180.52 195.173 183.034 203.478 184.53C207.941 185.334 212.432 186.016 216.932 186.567C226.773 187.775 234.074 193.018 239.866 200.728C241.737 203.217 243.283 205.912 244.599 208.731C246.067 211.88 246.734 215.273 247.467 218.643C247.631 219.397 247.366 219.727 246.595 219.681C246.194 219.656 245.79 219.679 245.387 219.679C174.962 219.679 104.535 219.679 34.11 219.679C33.428 219.679 32.7441 219.679 32.0434 219.679C31.8664 218.641 32.2708 217.847 32.5335 217.053C34.3802 211.461 36.8735 206.165 40.1028 201.238C43.1328 196.615 47.2361 193.192 52.122 190.639C58.0124 187.56 64.2773 185.477 70.6092 183.571C77.5953 181.467 84.6075 179.449 91.5879 177.328C94.8955 176.324 98.0336 174.878 101.064 173.218C105.963 170.532 108.689 166.151 110.153 160.96C111.698 155.483 111.885 149.867 111.398 144.205C111.078 140.486 110.798 136.759 110.865 133.017C111.542 132.937 111.92 133.403 112.276 133.841C116.651 139.223 122.01 143.168 128.717 145.161C129.157 145.292 129.565 145.508 129.956 145.754C134.188 147.75 138.718 148.087 143.246 147.726C148.641 147.293 153.862 145.957 158.864 143.779C160.543 143.048 161.227 142.066 161.156 140.251C161.076 138.196 160.971 136.124 161.256 134.065C161.357 133.776 161.493 133.519 161.847 133.493Z" fill="#41B49F"/>
<path d="M101.617 97.4835C102.4 98.1152 103.436 97.9474 103.844 97.981C105.538 98.1189 107.235 98.2344 108.931 98.3611C110.541 98.3891 111.866 99.0767 113.178 99.973C117.307 102.794 121.507 105.513 125.635 108.336C126.773 109.115 127.616 109.052 128.715 108.247C131.896 105.916 135.232 103.883 139.417 104.093C142.255 104.237 144.804 105.34 147.184 106.726C148.779 107.654 149.908 107.458 151.117 106.234C154.388 102.921 157.936 99.904 161.359 96.7548C164.823 93.5683 168.254 90.3409 171.822 87.2662C172.243 86.9028 172.631 86.4164 173.298 86.5059C173.559 88.237 173.978 89.944 174.032 91.7049C174.047 92.1987 174.338 92.4037 174.778 92.4764C174.168 93.6187 173.026 94.2374 172.118 95.0647C166.271 100.407 160.498 105.83 154.567 111.081C153.762 111.795 153.447 112.447 153.905 113.462C154.742 115.32 154.723 117.381 155.2 119.47C156.402 119.029 157.339 118.278 158.336 117.663C162.442 115.127 166.582 112.646 170.706 110.142C171.278 109.793 171.82 109.277 172.595 109.572C172.787 110.569 172.433 111.472 172.158 112.404C171.712 113.906 171.327 115.427 170.917 116.938C166.755 119.696 162.46 122.241 158.103 124.669C156.328 125.659 155.541 126.782 155.409 128.94C154.954 136.457 150.299 141.511 142.464 143.507C137.712 144.718 133.146 144.021 128.954 141.256C126.686 139.761 125.07 137.827 124.446 135.2C124.092 133.705 123.238 132.82 121.96 132.127C117.065 129.477 112.259 126.669 107.381 123.987C106.684 123.603 106.119 122.988 105.312 122.804C104.511 120.255 103.477 117.776 102.987 115.132C103.956 114.745 104.625 115.427 105.342 115.837C110.474 118.768 115.615 121.678 120.734 124.636C121.174 124.889 121.599 125.204 122.506 125.299C122.018 123.577 122.379 121.889 122.072 120.232C121.757 118.537 121.96 116.878 122.48 115.309C122.933 113.945 122.577 113.228 121.423 112.49C114.901 108.31 108.45 104.019 102.029 99.686C101.391 99.2556 100.534 98.9854 100.439 98.0183C100.657 97.6344 100.873 97.2505 101.091 96.8667C101.188 97.0306 101.352 97.2692 101.617 97.4835Z" fill="#F6F6F6"/>
<path d="M173.298 86.5039C169.506 89.9327 165.701 93.3484 161.924 96.7939C158.018 100.359 154.121 103.936 150.26 107.548C149.619 108.148 149.181 108.289 148.373 107.799C146.455 106.638 144.4 105.742 142.257 105.058C139.07 104.041 136.02 104.41 133.098 105.962C131.423 106.853 129.766 107.799 128.324 109.037C127.513 109.732 126.93 109.678 126.08 109.102C121.511 106.01 116.892 102.994 112.311 99.917C111.256 99.2089 110.185 98.5959 108.929 98.3573C112.024 98.4691 115.121 98.5083 118.205 98.2716C132.906 97.1424 146.414 92.7409 158.102 83.4814C161.814 80.5409 165.028 77.1178 167.669 73.1692C168.051 72.5971 168.475 72.0474 168.578 71.3374C170.915 75.8544 172.312 80.6807 173.294 85.6431C173.35 85.9207 173.3 86.217 173.298 86.5039Z" fill="#9D6B73"/>
<path d="M105.316 122.803C105.588 122.36 105.886 122.602 106.183 122.768C111.939 126.005 117.687 129.251 123.457 132.465C124.07 132.806 124.398 133.239 124.536 133.902C124.767 135.029 125.126 136.112 125.652 137.148C126.155 138.138 126.768 139.054 127.64 139.72C130.415 141.838 133.38 143.419 137.026 143.549C141.765 143.719 145.984 142.517 149.681 139.52C153.058 136.785 154.809 133.138 154.967 128.914C155.057 126.504 155.974 125.284 158.012 124.192C161.955 122.078 165.725 119.641 169.577 117.356C169.976 117.12 170.32 116.591 170.917 116.937C170.414 118.202 169.931 119.477 169.4 120.733C167.594 125.013 165.25 128.979 162.378 132.631C162.17 132.896 162.021 133.207 161.845 133.498C161.758 133.628 161.67 133.76 161.583 133.893C158.801 137.798 155.143 140.717 151.026 143.068C146.14 145.86 140.854 147.173 135.211 147.084C133.234 147.052 131.363 146.612 129.53 145.932C128.141 145.418 126.744 144.932 125.367 144.388C120.034 142.276 115.785 138.73 112.17 134.357C111.771 133.874 111.411 133.352 110.856 133.021C110.558 132.469 110.308 131.888 109.956 131.375C108.111 128.675 106.652 125.774 105.316 122.803Z" fill="#9D6B73"/>
<path d="M100.441 98.0162C100.777 98.5137 101.319 98.7486 101.794 99.0616C108.558 103.525 115.326 107.98 122.094 112.439C122.43 112.661 122.76 112.892 123.102 113.103C123.507 113.354 123.615 113.626 123.369 114.094C122.366 115.998 122.355 118.056 122.486 120.139C122.611 122.129 122.64 124.125 123.121 126.469C120.976 125.254 119.191 124.246 117.41 123.231C113.018 120.724 108.629 118.21 104.235 115.71C103.838 115.484 103.406 115.322 102.99 115.13C102.823 114.854 102.552 114.789 102.258 114.765C100.333 114.614 98.9392 113.529 97.8211 112.089C95.5943 109.223 94.4986 105.962 94.6291 102.313C94.6421 101.97 94.6663 101.622 94.7278 101.285C95.3335 97.9771 97.2714 96.8702 100.441 98.0162Z" fill="#9D6B73"/>
<path d="M172.596 109.569C169.398 111.261 166.402 113.289 163.297 115.136C160.781 116.632 158.307 118.193 155.812 119.723C155.526 119.898 155.275 120.174 154.779 120.066C154.632 118.985 154.489 117.865 154.328 116.751C154.148 115.499 153.918 114.241 153.313 113.125C152.856 112.284 153.115 111.794 153.754 111.226C156.328 108.936 158.869 106.612 161.411 104.29C165.14 100.882 168.861 97.4682 172.579 94.0469C173.25 93.4301 173.893 92.7853 174.78 92.4741C177.619 91.7791 179.349 92.6382 180.374 95.2488C181.885 99.1024 180.635 104.89 177.657 107.741C176.537 108.813 175.283 109.566 173.639 109.167C173.179 109.055 172.858 109.219 172.596 109.569Z" fill="#9D6B73"/>
<path d="M129.533 145.927C131.801 146.134 134.02 146.673 136.333 146.622C141.897 146.499 147.016 144.962 151.77 142.115C154.936 140.218 157.669 137.805 160.204 135.14C160.63 134.693 160.969 134.132 161.586 133.888C161.59 136.359 161.54 138.831 161.624 141.299C161.665 142.51 161.232 143.229 160.15 143.721C156.749 145.262 153.255 146.544 149.591 147.26C146.401 147.884 143.192 148.555 139.909 148.318C137.179 148.121 134.449 147.88 131.81 147.068C130.985 146.813 130.167 146.553 129.533 145.927Z" fill="#318BA1"/>
<path d="M102.26 88.7454C103.812 82.4972 106.516 71.9539 114.758 62.6478C116.167 61.0583 117.743 59.6347 119.316 58.1216C113.31 60.0502 107.435 59.8397 101.764 57.1377C96.047 54.4133 92.1431 49.9802 90.0244 44.0023C86.454 33.9303 90.7176 22.5782 100.135 17.0531C109.348 11.6491 121.274 13.5834 128.437 21.5534C135.077 28.9419 137.373 42.3568 127.457 53.0101C127.735 53.2188 127.986 53.0511 128.244 52.9542C139.873 48.5025 150.223 50.8392 159.417 58.9452C163.342 62.4056 166.299 66.6375 168.583 71.339C168.902 72.3676 168.28 73.1018 167.765 73.8509C163.433 80.1717 157.708 84.9533 151.17 88.8385C141.357 94.6655 130.647 97.6359 119.372 98.6943C114.031 99.1956 108.526 98.8154 108.526 98.8154C105.346 98.6403 102.632 98.3048 100.538 97.9806C101.039 94.0208 101.738 90.8455 102.26 88.7454Z" fill="black"/>
</svg>
