<svg width="280" height="220" viewBox="0 0 280 220" fill="none" xmlns="http://www.w3.org/2000/svg">
<path d="M56.326 206.478C56.271 205.086 57.2998 203.959 58.6767 203.429C59.6741 203.046 60.7082 202.911 61.7762 202.87C63.3534 202.81 64.9333 202.775 66.5079 202.682C67.4463 202.626 68.4018 202.493 69.2762 202.071C70.6374 201.414 71.5157 200.325 72.0576 198.942C72.1701 198.654 72.3036 198.365 72.322 198.047C72.4712 197.872 72.6701 197.906 72.8625 197.919C73.8913 197.987 74.9215 198.008 75.9503 198.073C77.4699 198.17 78.9934 198.198 80.513 198.313C81.2277 198.366 81.9476 198.335 82.661 198.427C82.8508 198.45 83.0562 198.412 83.2015 198.584C82.602 200.328 82.0026 202.072 81.4044 203.818C81.1007 204.704 80.8036 205.593 80.5026 206.479C72.4437 206.478 64.3848 206.478 56.326 206.478Z" fill="#E7E6E1"/>
<path d="M63.5222 139.97C62.1217 141.678 60.7055 143.375 59.1623 144.956C58.394 145.742 57.5759 146.496 56.5013 146.888C55.6859 147.185 54.4463 146.885 53.9948 146.267C53.6453 145.788 53.6466 145.25 53.7697 144.723C54.0838 143.371 54.8717 142.257 55.644 141.138C55.6846 141.079 55.7212 141.015 55.7565 140.952C55.7605 140.944 55.7474 140.927 55.7304 140.881C55.2199 141.064 54.7343 141.321 54.199 141.44C53.6479 141.563 53.2723 141.423 53 140.95C53 140.86 53 140.771 53 140.681C53.5851 139.939 54.3757 139.42 55.0707 138.797C55.9896 137.973 56.9686 137.212 57.7775 136.271C57.9934 136.217 58.1492 136.35 58.3089 136.452C59.9646 137.513 61.6178 138.58 63.2709 139.647C63.3861 139.72 63.555 139.772 63.5222 139.97Z" fill="#5E4046"/>
<path d="M63.5223 139.97C62.0249 138.995 60.5288 138.019 59.0302 137.048C58.6179 136.781 58.1964 136.529 57.7788 136.271C57.5655 136.042 57.1074 135.995 57.0799 135.701C57.0524 135.414 57.4294 135.21 57.6257 134.969C62.9097 128.477 67.4621 121.488 71.6859 114.276C73.5065 111.166 75.233 108.006 76.7827 104.755C77.424 103.41 77.852 101.967 78.5314 100.638C80.3664 97.0452 81.9672 93.3266 84.2369 89.9641C86.4424 86.6971 89.2067 84.0583 92.797 82.3607C95.5182 81.074 98.3716 80.3764 101.406 80.5583C103.187 80.6657 104.806 81.2861 106.4 82.0361C109.803 83.6382 112.513 86.0387 114.847 88.9693C119.425 94.718 122.805 101.12 125.523 107.91C127.388 112.567 128.844 117.353 130.108 122.201C130.989 125.577 131.682 128.994 132.343 132.417C132.589 133.69 132.682 134.987 132.815 136.278C132.874 136.846 132.406 136.706 132.17 136.881C132.094 137.011 131.958 137.038 131.83 137.075C129.947 137.604 128.067 138.134 126.186 138.668C126.031 138.711 125.874 138.786 125.708 138.706C125.104 138.872 124.502 139.042 123.898 139.203C123.756 139.241 123.597 139.358 123.548 139.058C123.035 135.824 122.026 132.727 120.949 129.647C118.945 123.922 116.928 118.201 114.464 112.652C114.191 112.036 113.98 111.384 113.569 110.834C113.447 110.854 113.42 110.759 113.387 110.679C112.624 108.781 111.548 107.052 110.454 105.338C109.302 103.535 108.065 101.787 106.678 100.154C105.971 99.3214 105.243 98.5085 104.561 97.9313C105.616 99.1525 106.611 100.66 107.502 102.232C109.283 105.375 110.635 108.692 111.433 112.222C111.767 113.697 111.999 115.189 111.984 116.709C111.981 116.929 112.017 117.167 111.787 117.319C111.107 117.548 110.395 117.48 109.699 117.532C107.536 117.694 105.37 117.786 103.213 118.028C102.471 118.111 101.729 118.183 100.976 118.172C99.7198 118.155 98.4685 118.315 97.2146 118.389C96.0797 118.456 94.9462 118.539 93.8127 118.62C92.2316 118.732 90.6505 118.845 89.0693 118.944C87.9803 119.012 86.8913 119.101 85.8023 119.163C84.6832 119.226 83.5641 119.308 82.4463 119.391C81.7905 119.439 81.1335 119.488 80.4764 119.518C80.284 119.527 80.085 119.532 79.9057 119.436C79.6465 119.138 79.746 118.782 79.7722 118.45C79.8874 116.944 79.9973 115.438 80.1125 113.933C80.2526 112.114 80.3795 110.295 80.5288 108.477C80.6047 107.543 80.6518 106.607 80.8102 105.776C80.8167 105.621 80.712 105.666 80.7722 105.667C80.7722 105.671 80.8141 105.688 80.8114 105.706C80.6989 106.505 80.5405 107.295 80.3678 108.083C79.4673 112.207 78.5249 116.321 77.5641 120.431C76.801 123.696 76.0497 126.964 75.2787 130.227C75.2238 130.463 75.0864 130.663 75.0262 130.895C74.1427 132.205 73.1701 133.448 72.1688 134.668C70.7081 136.447 69.1963 138.184 67.5249 139.771C67.0275 140.244 66.4882 140.673 65.9882 141.145C65.7827 141.338 65.6348 141.337 65.4084 141.184C64.7867 140.766 64.1505 140.374 63.5223 139.97Z" fill="#41B39E"/>
<path d="M79.8744 119.373C81.2317 119.37 82.5798 119.226 83.9306 119.126C84.4646 119.087 85.0013 119.057 85.5353 119.025C87.2448 118.924 88.9515 118.798 90.6597 118.678C91.6243 118.612 92.5916 118.553 93.5562 118.482C95.2185 118.359 96.8808 118.212 98.5457 118.146C99.5012 118.108 100.451 117.983 101.42 118.04C102.229 118.087 103.054 117.938 103.864 117.829C104.794 117.703 105.729 117.656 106.662 117.588C108.235 117.473 109.813 117.401 111.389 117.304C111.551 117.294 111.709 117.236 111.869 117.201C111.887 117.22 111.904 117.24 111.923 117.26C112.033 117.677 111.908 118.089 111.885 118.502C111.828 119.455 111.733 120.405 111.73 121.36C111.725 122.898 111.996 124.389 112.48 125.845C111.722 129.299 110.153 132.457 108.859 135.714C106.595 141.406 104.271 147.075 101.968 152.753C101.915 152.886 101.818 153.006 101.898 153.159C101.975 153.35 101.868 153.511 101.801 153.672C99.6426 158.911 97.5523 164.178 95.3953 169.418C95.339 169.554 95.3023 169.706 95.157 169.786C94.7264 170.409 94.5366 171.14 94.2578 171.83C90.8023 180.36 87.3586 188.894 83.9123 197.427C83.7854 197.741 83.6414 198.051 83.5367 198.372C83.4751 198.559 83.3573 198.586 83.2002 198.585C81.1335 198.49 79.0668 198.399 77 198.297C75.4398 198.221 73.8809 198.131 72.3207 198.047C71.2474 197.987 70.1754 197.911 69.1021 197.877C68.6937 197.864 68.6793 197.717 68.7749 197.385C69.4189 195.161 70.0537 192.933 70.6794 190.704C72.6388 183.729 74.5943 176.751 76.5511 169.775C77.7029 165.669 78.9293 161.587 80.1728 157.508C80.2212 157.35 80.2657 157.199 80.2513 157.034C80.2788 156.367 80.5379 155.753 80.7159 155.123C81.8023 151.293 82.8796 147.461 83.9751 143.634C84.8403 140.613 85.7134 137.593 86.5655 134.568C86.6388 134.309 86.7107 134.05 86.818 133.826C86.8481 133.749 86.7473 133.779 86.8076 133.784C86.8167 133.786 86.8167 133.8 86.8049 133.828C86.2578 135.206 85.572 136.52 84.9555 137.867C83.7395 140.519 82.5157 143.168 81.2893 145.814C80.5092 147.498 79.7094 149.172 78.9516 150.865C78.8848 151.013 78.8442 151.223 78.6021 151.204C78.4686 150.826 78.5275 150.436 78.5459 150.053C78.6192 148.517 78.6741 146.979 78.8024 145.449C79.1113 141.782 79.1348 138.108 79.1689 134.431C79.1924 131.919 79.3011 129.409 79.3587 126.897C79.3796 125.973 79.3848 125.045 79.4464 124.119C79.3312 123.678 79.3508 123.227 79.3914 122.784C79.483 121.791 79.5157 120.791 79.6506 119.801C79.6715 119.635 79.6257 119.423 79.8744 119.373Z" fill="#363C3F"/>
<path d="M127.32 186.776C126.637 187.562 126.09 188.447 125.472 189.28C125.081 189.808 125.093 189.812 124.551 189.449C115.648 183.498 106.745 177.546 97.8415 171.594C97.7184 171.512 97.6032 171.422 97.4841 171.334C97.6176 170.687 98.0299 170.177 98.331 169.614C99.2956 167.808 100.271 166.007 101.242 164.204C102.475 161.915 103.692 159.615 104.941 157.335C105.091 157.059 105.22 156.773 105.368 156.495C105.444 156.354 105.492 156.185 105.674 156.13C108.128 158.066 110.582 160.002 113.035 161.937C115.7 164.041 118.365 166.144 121.03 168.249C123.378 170.105 125.726 171.962 128.073 173.82C129.708 175.113 131.341 176.409 132.976 177.702C133.15 177.841 133.343 177.958 133.451 178.164C133.5 178.35 133.381 178.474 133.286 178.608C131.426 181.227 129.526 183.817 127.662 186.433C127.569 186.566 127.483 186.71 127.32 186.776Z" fill="#363C3F"/>
<path d="M89.1321 67.6054C90.1569 65.9562 92.5627 64.6957 95.4671 65.7363C94.2093 64.3515 93.5653 62.7978 93.6308 61.0007C93.6962 59.2049 94.4121 57.6905 95.7302 56.4667C97.9003 54.4497 101.412 54.2756 103.852 56.0636C106.241 57.8136 107.091 61.1303 105.861 63.8502C105.382 64.9104 104.661 65.7664 103.724 66.4418C102.801 67.1067 101.758 67.4863 100.635 67.5936C99.4972 67.7036 98.3886 67.5099 97.3022 67.0583C98.2983 68.413 98.7223 69.879 98.3716 71.5282C98.0155 71.8188 97.5954 71.6905 97.2158 71.6551C94.5797 71.4038 92.2394 70.4143 90.1923 68.7442C89.7905 68.4156 89.3729 68.0884 89.1321 67.6054Z" fill="black"/>
<path d="M127.32 186.776C127.985 185.7 128.779 184.717 129.508 183.687C130.815 181.84 132.136 180.004 133.453 178.162C135.17 179.471 136.883 180.786 138.608 182.085C138.819 182.243 138.852 182.378 138.773 182.611C138.163 184.417 137.556 186.225 136.962 188.036C135.989 190.997 135.032 193.962 134.057 196.921C133.544 198.477 133.004 200.025 132.48 201.577C132.11 202.678 131.725 203.775 131.395 204.887C131.297 205.22 131.154 205.23 130.926 205.112C129.957 204.611 129.409 203.79 129.22 202.734C128.985 201.428 129.238 200.172 129.574 198.904C130.043 197.137 130.641 195.408 131.042 193.62C131.667 190.827 130.395 188.572 128.09 187.212C127.835 187.063 127.53 187.002 127.32 186.776Z" fill="#E7E6E1"/>
<path d="M105.674 156.131C104.33 158.644 102.984 161.156 101.64 163.669C100.675 165.471 99.7171 167.276 98.7472 169.076C98.3376 169.835 97.9056 170.582 97.4828 171.336C96.708 170.819 95.9318 170.301 95.1569 169.784C95.6255 168.419 96.2289 167.106 96.7669 165.767C97.9986 162.702 99.2341 159.639 100.475 156.577C100.938 155.433 101.423 154.296 101.898 153.156C102.883 153.921 103.87 154.686 104.855 155.454C105.133 155.673 105.4 155.904 105.674 156.131Z" fill="black"/>
<path d="M125.707 138.704C127.269 138.253 128.831 137.799 130.395 137.352C130.983 137.185 131.577 137.037 132.169 136.88C132.455 138.28 132.775 139.669 133.341 140.991C133.699 141.826 134.137 142.626 134.443 143.485C134.621 143.983 134.708 144.485 134.703 145.015C134.697 145.693 134.375 146.146 133.792 146.434C132.78 146.932 131.387 146.626 130.456 145.752C129.405 144.765 128.621 143.601 128.052 142.283C128.03 142.232 128.034 142.161 127.925 142.156C127.688 142.634 127.487 143.144 127.179 143.598C126.951 143.935 126.42 144.173 126.101 144.064C125.666 143.915 125.59 143.564 125.618 143.161C125.679 142.241 125.751 141.321 125.793 140.4C125.819 139.833 125.824 139.265 125.707 138.704Z" fill="#5E4046"/>
<path d="M89.1321 67.605C91.136 69.6809 93.5692 70.9505 96.4043 71.4401C97.0496 71.5513 97.7106 71.6076 98.3703 71.5264C97.9815 73.5003 96.3716 75.0984 94.3467 75.4963C92.3729 75.8838 90.1347 74.9518 89.0234 73.1691C87.9685 71.4754 87.9894 69.2319 89.1321 67.605Z" fill="#5E4046"/>
<path d="M111.869 117.199C111.92 113.773 111.03 110.54 109.817 107.381C108.743 104.584 107.37 101.939 105.618 99.5016C105.132 98.8262 104.616 98.1718 104.145 97.4624C104.408 97.6784 104.69 97.876 104.932 98.1116C107.264 100.384 109.108 103.034 110.86 105.759C111.505 106.763 112.085 107.805 112.662 108.848C113.014 109.485 113.349 110.134 113.567 110.834C113.612 112.935 113.514 115.03 113.386 117.126C112.898 117.411 112.391 117.437 111.869 117.237V117.199Z" fill="#318AA0"/>
<path d="M111.869 117.237C112.377 117.22 112.885 117.224 113.386 117.126C113.374 118.482 113.238 119.831 113.153 121.184C113.052 122.757 112.794 124.304 112.479 125.843C112.043 125.347 112.005 124.707 111.875 124.109C111.468 122.242 111.582 120.362 111.76 118.478C111.799 118.066 111.861 117.653 111.869 117.237Z" fill="black"/>
<g opacity="0.6">
<path opacity="0.6" d="M221.09 76.0465C220.711 76.2847 220.316 76.4994 219.96 76.7677C219.688 76.9732 219.519 76.9182 219.28 76.7101C217.659 75.303 216.263 73.6879 214.926 72.0177C214.414 71.379 213.892 70.7468 213.471 70.0413C213.286 69.6957 213.175 69.3266 213.086 68.9444C212.01 64.3358 210.921 59.7285 209.907 55.1055C209.802 54.6303 209.704 54.1513 209.664 53.6631C209.626 53.6094 209.551 53.6906 209.604 53.667C209.626 53.6565 209.664 53.6892 209.668 53.7167C209.777 54.3659 209.87 55.0178 209.907 55.6735C210.023 57.7351 210.217 59.79 210.349 61.8502C210.365 62.0858 210.405 62.3411 210.126 62.4785C209.273 62.6264 208.429 62.4497 207.579 62.4052C206.446 62.345 205.314 62.2363 204.181 62.1787C202.569 62.0976 200.962 61.9523 199.352 61.8568C198.206 61.7887 197.064 61.6643 195.909 61.6814C195.064 61.6944 194.214 61.5361 193.366 61.4536C192.057 61.3267 190.736 61.3463 189.434 61.1526C189.085 61.0819 189.011 60.8332 189.003 60.5178C188.968 59.0924 189.277 57.7233 189.675 56.3699C190.437 53.7783 191.592 51.3738 193.138 49.1579C193.29 48.9393 193.481 48.7534 193.589 48.5793C192.349 49.8633 191.242 51.3293 190.238 52.8751C189.471 54.0557 188.753 55.2652 188.164 56.5453C188.115 56.6539 188.086 56.7756 187.951 56.8149C187.408 57.6932 187.053 58.6591 186.664 59.6068C184.979 63.7049 183.48 67.8724 182.128 72.0936C181.797 73.129 181.553 74.1918 181.391 75.2677C181.344 75.5818 181.23 75.5884 180.985 75.5112C180.645 75.4051 180.311 75.2625 179.949 75.235C179.638 75.2886 179.363 75.1525 179.081 75.0701C178.123 74.7913 177.155 74.5413 176.193 74.2755C175.992 74.2193 175.789 74.1696 175.638 74.0086C175.318 73.934 175.22 73.7887 175.247 73.413C175.433 70.9169 176.043 68.502 176.594 66.0766C177.714 61.146 179.248 56.3489 181.369 51.7534C183.196 47.7953 185.413 44.0767 188.383 40.8568C190.255 38.828 192.545 37.4301 195.253 36.8634C196.951 36.5087 198.647 36.8045 200.289 37.3686C203.536 38.4864 205.938 40.6356 207.704 43.5191C209.447 46.366 210.85 49.3869 212.162 52.4576C212.971 54.3529 213.994 56.1526 215.019 57.9458C217.285 61.9117 219.723 65.7664 222.417 69.4549C223.299 70.663 224.197 71.862 225.184 72.9889C225.366 73.197 225.338 73.3083 225.117 73.4313C225.028 73.4811 224.952 73.5543 224.87 73.6172C224.583 74.0295 224.109 74.1852 223.715 74.4431C222.978 74.9248 222.253 75.4261 221.495 75.8776C221.367 75.9496 221.251 76.0504 221.09 76.0465Z" fill="#41B39E"/>
<path opacity="0.6" d="M189.291 61.0253C191.074 61.1523 192.859 61.2478 194.638 61.414C196.534 61.5907 198.439 61.5855 200.332 61.7714C202.098 61.9455 203.87 62.0004 205.638 62.1261C207.139 62.2321 208.637 62.3905 210.143 62.4049C210.366 62.4271 210.437 62.5803 210.451 62.774C210.515 63.6012 210.548 64.4297 210.615 65.2557C210.622 65.3604 210.603 65.4625 210.526 65.5449C210.612 68.8918 210.681 72.2399 210.735 75.5881C210.773 77.9585 210.992 80.325 211.121 82.6941C211.138 83.0043 211.183 83.321 211.061 83.6247C210.912 83.5292 210.861 83.3668 210.793 83.2202C209.316 80.0148 207.836 76.8106 206.349 73.6077C206.12 73.113 205.862 72.6313 205.722 72.1784C206.105 73.2307 206.382 74.3917 206.721 75.5331C207.516 78.2137 208.277 80.9035 209.033 83.5946C209.337 84.6744 209.647 85.7529 209.934 86.8367C209.976 86.9938 210.048 87.1496 209.975 87.3171C210.239 88.4323 210.629 89.5108 210.944 90.6116C211.747 93.4126 212.544 96.215 213.341 99.0173C214.374 102.649 215.406 106.282 216.434 109.916C216.811 111.248 217.164 112.584 217.55 113.913C217.643 114.235 217.624 114.369 217.247 114.372C216.59 114.377 215.931 114.423 215.274 114.452C215.061 114.617 214.803 114.653 214.55 114.655C212.964 114.66 211.386 114.85 209.8 114.847C209.515 114.847 209.234 114.879 208.951 114.909C208.657 114.94 208.353 114.998 208.081 114.812C207.85 114.842 207.823 114.653 207.765 114.511C206.637 111.724 205.511 108.936 204.386 106.149C203.026 102.783 201.666 99.4178 200.303 96.0527C200.26 95.9466 200.238 95.8118 200.081 95.8053C199.391 94.2267 198.765 92.622 198.104 91.033C197.352 89.2215 196.68 87.3773 195.884 85.5828C195.773 85.3315 195.591 85.0828 195.68 84.7752C195.438 83.8184 194.994 82.9375 194.626 82.0278C192.918 77.7988 191.185 73.5789 189.485 69.3459C189.142 68.4925 188.835 67.6169 188.688 66.6994C188.814 66.0698 188.977 65.4494 189.078 64.8119C189.232 63.8342 189.095 62.8722 189.023 61.9049C189.002 61.6222 188.941 61.3394 189.075 61.0672C189.136 60.9887 189.212 60.9952 189.291 61.0253Z" fill="#363C3F"/>
<path opacity="0.6" d="M198.662 96.7387C195.871 98.6117 193.083 100.487 190.291 102.356C187.108 104.487 183.918 106.608 180.739 108.746C180.437 108.951 180.273 109.002 180.047 108.639C179.701 108.085 179.281 107.579 178.894 107.053C178.624 106.918 178.493 106.652 178.328 106.426C177.204 104.875 176.091 103.316 174.98 101.756C174.886 101.622 174.767 101.498 174.815 101.312C175.305 100.762 175.922 100.363 176.492 99.9114C181.959 95.579 187.435 91.2583 192.91 86.935C192.992 86.8709 193.079 86.8146 193.164 86.7544C193.421 86.8696 193.503 87.1287 193.617 87.346C194.795 89.596 196.043 91.8094 197.215 94.062C197.684 94.9599 198.197 95.8368 198.662 96.7387Z" fill="#363C3F"/>
<path opacity="0.6" d="M208.079 114.809C210.212 114.714 212.344 114.618 214.476 114.526C214.744 114.515 215.001 114.401 215.274 114.45C215.371 115.772 216.808 117.206 218.13 117.415C219.201 117.584 220.273 117.53 221.342 117.596C222.388 117.66 223.455 117.643 224.446 118.106C225.071 118.399 225.541 118.813 225.749 119.488C225.87 119.878 225.785 120.009 225.376 120.009C220.315 120.011 215.253 120.004 210.192 120.021C209.781 120.022 209.729 119.759 209.642 119.512C209.238 118.344 208.852 117.169 208.462 115.996C208.331 115.601 208.206 115.204 208.079 114.809Z" fill="#E7E6E1"/>
<path opacity="0.6" d="M174.815 101.311C175.938 102.884 177.062 104.457 178.184 106.033C178.424 106.371 178.657 106.712 178.894 107.053C177.503 107.633 176.575 108.618 176.318 110.13C176.171 110.985 176.435 111.809 176.667 112.625C177.053 113.981 177.595 115.31 177.674 116.728C177.725 117.631 177.509 118.516 176.628 119.055C176.382 119.206 176.229 119.258 176.111 118.898C174.638 114.392 173.154 109.888 171.671 105.385C171.564 105.059 171.452 104.735 171.319 104.418C171.208 104.155 171.261 103.995 171.501 103.818C172.616 102.996 173.713 102.15 174.815 101.311Z" fill="#E7E6E1"/>
<path opacity="0.6" d="M198.662 96.7387C198.212 96.3971 198.066 95.8552 197.815 95.3932C196.248 92.5228 194.712 89.634 193.164 86.7518C194.002 86.0921 194.841 85.4312 195.679 84.7715C197.12 88.3094 198.561 91.8474 200.003 95.3853C200.058 95.5188 200.164 95.6419 200.079 95.8002C199.607 96.1144 199.134 96.4272 198.662 96.7387Z" fill="black"/>
<path opacity="0.6" d="M198.459 31.8448C197.958 31.1878 197.929 30.375 197.763 29.6171C197.624 28.9862 197.498 28.3331 197.636 27.6708C197.685 27.4326 197.695 27.1734 197.958 27.0805C198.239 26.9823 198.485 27.0844 198.676 27.3148C198.704 27.3488 198.746 27.371 198.822 27.4299C198.943 27.1171 199.058 26.82 199.176 26.5229C199.328 26.142 199.534 25.7977 199.878 25.5595C200.327 25.2493 200.717 25.3828 200.876 25.9011C200.92 26.0425 200.916 26.1983 201.026 26.3409C201.274 26.1538 201.524 25.9666 201.773 25.7794C202.416 25.2951 203.13 24.9718 203.926 24.8475C204.85 24.7022 205.861 25.3841 205.427 26.5595C205.179 27.2323 204.769 27.7925 204.294 28.3148C203.787 29.2545 202.892 29.5163 201.935 29.6053C201.345 29.6603 200.743 29.659 200.151 29.5477C199.99 29.5176 199.824 29.532 199.661 29.532C199.369 29.532 199.219 29.6629 199.221 29.9653C199.222 30.2637 199.236 30.5621 199.208 30.8592C199.158 31.371 198.884 31.7244 198.459 31.8448Z" fill="black"/>
<path opacity="0.6" d="M221.09 76.046C222.323 75.1926 223.582 74.3811 224.87 73.6128C225.647 74.4858 226.579 75.1861 227.46 75.9426C227.562 76.0303 227.671 76.1088 227.765 76.2044C227.923 76.3641 228.094 76.5277 227.939 76.7842C227.794 77.0251 227.557 77.0853 227.317 77.0251C226.946 76.9308 226.584 76.7882 226.122 76.635C226.48 77.0735 226.734 77.491 226.974 77.9177C227.196 78.3078 227.389 78.707 227.511 79.1429C227.749 79.9884 227.266 80.6088 226.389 80.6599C225.76 80.6978 225.231 80.4963 224.785 80.1062C223.401 78.8942 222.226 77.4858 221.09 76.046Z" fill="#5E4046"/>
<path opacity="0.6" d="M175.636 74.0039C177.079 74.3887 178.53 74.75 179.947 75.2303C179.822 75.8193 179.845 76.4083 179.912 77.0052C179.963 77.4633 179.949 77.9293 179.951 78.3913C179.952 78.5759 179.837 78.7054 179.657 78.7356C179.394 78.7787 179.13 78.7434 178.981 78.4973C178.797 78.1924 178.586 77.8992 178.479 77.5052C178.223 77.7853 178.144 78.1217 177.964 78.3992C177.42 79.2421 176.871 80.0824 175.832 80.4018C175.509 80.5012 175.178 80.5025 174.859 80.4253C174.047 80.2277 173.761 79.4986 174.081 78.5484C174.281 77.9515 174.575 77.3992 174.827 76.8259C175.223 75.9214 175.466 74.9738 175.636 74.0039Z" fill="#5E4046"/>
<path opacity="0.6" d="M198.459 31.845C199.037 31.4746 199.141 30.9183 199.105 30.2848C199.054 29.383 199.092 29.3346 200.003 29.4144C200.569 29.4642 201.132 29.5021 201.698 29.5008C202.744 29.4982 203.599 29.0806 204.295 28.3149C204.4 28.6395 204.507 28.9641 204.607 29.2901C205.069 30.7979 204.119 32.5806 202.628 33.1997C201.086 33.8398 199.308 33.2639 198.459 31.845Z" fill="#5E4046"/>
<path opacity="0.6" d="M209.976 87.3155C209.65 86.2003 209.317 85.089 209.001 83.9712C208.673 82.8155 208.367 81.6532 208.044 80.4974C207.697 79.2566 207.345 78.0158 206.986 76.7775C206.552 75.2776 206.107 73.7802 205.672 72.2789C205.632 72.1401 205.543 72.0053 205.607 71.7671C205.882 72.3417 206.137 72.8561 206.378 73.3783C207.897 76.6676 209.412 79.9582 210.937 83.2448C210.994 83.3691 211.02 83.4961 211.062 83.6218C211.081 84.9647 210.753 86.2068 209.976 87.3155Z" fill="black"/>
<path opacity="0.6" d="M210.526 65.5437C210.459 64.6523 210.39 63.7597 210.329 62.867C210.318 62.6877 210.345 62.5031 210.145 62.4037C210.239 62.329 210.252 62.223 210.238 62.1183C210.108 61.1445 210.175 60.155 209.997 59.1851C209.9 58.655 209.973 58.1183 209.907 57.5791C209.756 56.3854 209.702 55.1786 209.613 53.977C209.602 53.8186 209.612 53.6589 209.685 53.4888C209.836 54.1485 209.988 54.8081 210.134 55.4691C210.532 57.2545 210.92 59.0437 211.327 60.8264C211.98 63.6838 212.646 66.5385 213.308 69.3932C213.358 69.6104 213.484 69.8081 213.469 70.0411C212.755 69.1654 212.167 68.2021 211.565 67.2492C211.21 66.6864 210.872 66.1118 210.526 65.5437Z" fill="#318AA0"/>
<path opacity="0.6" d="M189.291 61.0255C189.231 61.0333 189.17 61.0412 189.109 61.049C188.738 61.2532 188.391 61.1891 188.061 60.9522C187.994 59.5739 187.926 58.1956 187.95 56.8148C188.577 55.2284 189.489 53.803 190.428 52.3894C191.353 50.9954 192.356 49.6656 193.545 48.4849C193.647 48.3842 193.725 48.2415 193.888 48.2192C193.976 48.2899 193.929 48.3501 193.88 48.4077C192.294 50.3226 191.193 52.5098 190.306 54.8148C189.731 56.3069 189.346 57.8501 189.14 59.4339C189.083 59.8606 189.128 60.3003 189.115 60.7336C189.111 60.8789 189.212 60.9417 189.291 61.0255Z" fill="#318AA0"/>
<path opacity="0.6" d="M188.061 60.9517C188.411 60.9844 188.76 61.0158 189.109 61.0485C189.166 61.7736 189.257 62.4988 189.27 63.2252C189.29 64.4137 189.259 65.6022 188.687 66.6951C188.222 64.809 188.166 62.8784 188.061 60.9517Z" fill="black"/>
</g>
<path d="M78.602 151.201C78.9423 150.809 79.064 150.304 79.276 149.85C81.1975 145.733 83.102 141.608 85.0117 137.486C85.6334 136.146 86.2564 134.807 86.8795 133.466C86.9148 133.477 86.9502 133.489 86.9855 133.499C86.8376 134.021 86.6923 134.544 86.543 135.066C85.2145 139.746 83.8873 144.427 82.5549 149.108C81.8167 151.698 81.0692 154.287 80.3258 156.876C80.3101 156.931 80.2761 156.979 80.2499 157.03C79.0929 155.261 78.5837 153.305 78.602 151.201Z" fill="black"/>
<path d="M79.8743 119.374C79.7042 119.73 79.7304 120.128 79.7107 120.497C79.6505 121.605 79.4542 122.709 79.5235 123.825C79.5301 123.926 79.5314 124.036 79.445 124.117C79.0314 124.553 78.8324 125.121 78.5235 125.621C77.4136 127.417 76.2905 129.204 75.0222 130.895C75.1243 130.019 75.3887 129.179 75.5877 128.325C76.4974 124.412 77.4267 120.502 78.3272 116.586C78.9986 113.671 79.6387 110.751 80.2905 107.832C80.462 107.068 80.623 106.301 80.8219 105.54C80.8939 106.121 80.8023 106.701 80.7395 107.265C80.678 107.812 80.6727 108.363 80.6138 108.91C80.4607 110.345 80.4267 111.793 80.3167 113.232C80.1845 114.982 80.0209 116.73 79.8796 118.478C79.856 118.773 79.8756 119.074 79.8743 119.374Z" fill="#3189A0"/>
</svg>
