<svg width="280" height="220" viewBox="0 0 280 220" fill="none" xmlns="http://www.w3.org/2000/svg">
<path d="M91.3772 31.1555C93.0574 29.2333 95.0874 27.7592 97.297 26.5147C97.5796 26.3554 97.881 26.2273 98.1839 26.1102C100.764 25.1233 103.142 26.1227 104.177 28.6743C104.824 30.2701 105.084 31.9597 105.212 33.6712C105.264 34.3598 105.255 35.0578 105.562 35.7011C106.031 36.0478 106.018 36.5678 105.946 37.0394C105.712 38.5697 105.751 40.1187 105.586 41.6553C105.161 42.3861 104.889 43.1122 104.85 44.0179C104.802 45.1156 104.61 46.2836 103.766 47.1628C103.457 47.5938 102.987 47.6875 102.509 47.8077C99.3894 48.601 98.1496 51.7662 99.9001 54.4583C100.098 54.7643 100.348 55.036 100.334 55.4327C99.8204 57.2237 98.6946 58.6932 97.7561 60.2578C97.2861 61.0417 97.2939 61.4758 98.2011 61.9724C100.967 63.4871 103.41 65.4327 105.44 67.8687C109.781 72.3284 111.368 77.8391 111.644 83.4528C112.206 81.3135 112.794 78.7417 112.987 76.0683C113.271 72.1645 112.614 68.4512 111.237 64.8284C110.89 63.9165 110.419 63.0514 110.225 62.0832C110.011 61.443 110.376 61.0167 110.746 60.5654C111.85 59.2194 112.965 57.8843 114.113 56.5773C117.174 52.8202 120.454 49.2568 123.679 45.6419C128.512 40.2218 133.732 35.1843 138.829 30.025C139.28 29.5674 139.691 29.0131 140.456 29.0943C143.287 26.3929 146.056 23.6243 149.077 21.1305C151.657 19.0006 154.285 16.9331 157.197 15.2685C159.009 14.2332 160.886 13.3666 162.989 13.073C164.413 12.8731 165.745 13.0792 167.01 13.7476C168.907 14.7501 169.557 16.3038 168.879 18.3588C168.186 20.4653 167.055 22.3563 165.904 24.2364C162.105 30.445 157.505 36.0619 153.011 41.7568C151.774 43.3245 150.502 44.8642 149.251 46.4195C149.085 46.6256 148.951 46.8536 148.951 47.2112C150.144 46.2649 151.342 45.3217 152.53 44.3708C158.709 39.427 165.078 34.7486 171.768 30.5169C174.145 29.0131 176.592 27.6249 179.163 26.4709C180.928 25.6792 182.772 25.2061 184.688 25.0047C186.74 24.7876 188.436 25.5809 189.905 26.9331C190.891 27.842 190.719 29.0006 190.452 30.1296C190.235 31.0525 189.726 31.852 189.193 32.628C187.803 34.6534 186.118 36.4273 184.459 38.223C179.449 43.6384 174.448 49.0616 169.426 54.4645C166.292 57.8374 163.245 61.2853 160.302 64.8253C159.939 65.261 159.594 65.7122 159.166 66.251C159.793 66.3244 160.103 65.9683 160.447 65.7403C166.203 61.9318 172.233 58.6057 178.458 55.6419C184.421 52.8015 190.494 50.2203 196.926 48.59C199.228 48.006 201.559 47.6906 203.936 47.7593C205.001 47.7905 206.044 47.9467 206.999 48.4714C208.525 49.3083 209.087 50.5482 208.719 52.2456C208.397 53.7259 207.577 54.9345 206.629 56.0698C204.63 58.4636 202.226 60.428 199.791 62.3409C194.376 66.5961 188.904 70.781 183.469 75.0127C179.541 78.0686 175.814 81.3572 172.197 84.7723C171.963 84.994 171.756 85.2423 171.523 85.4922C171.637 85.5328 171.721 85.5968 171.77 85.5765C176.226 83.776 180.705 82.0256 185.127 80.147C189.407 78.3294 193.708 76.5883 198.238 75.4874C202.313 74.4959 206.414 73.5808 210.602 73.2732C213.692 73.0468 216.796 73.1186 219.77 74.2351C220.661 74.5692 221.454 75.0346 222.106 75.7482C223.041 76.7757 223.194 77.7579 222.541 78.9837C221.973 80.0502 221.08 80.8357 220.19 81.6118C217.81 83.687 215.071 85.2314 212.385 86.8538C211.409 87.4425 210.407 87.9875 209.417 88.5512C209.146 88.8401 208.828 88.7792 208.514 88.659C207.81 88.3888 207.168 88.5481 206.518 88.8698C205.205 89.5194 204.916 89.3804 204.426 87.9453C203.47 85.1471 200.46 83.7698 197.819 84.9238C194.485 86.3807 193.762 90.7983 196.456 93.253C197.719 94.4054 197.672 94.8504 196.169 95.6296C192.088 97.7471 188.045 99.9363 183.987 102.094C183.339 102.438 182.672 102.736 181.982 102.981C180.21 104.065 178.245 104.747 176.385 105.647C174.049 106.777 171.795 108.077 169.377 109.04C168.355 109.493 167.358 110.002 166.326 110.436C165.4 110.825 164.48 111.218 163.453 111.236C162.233 111 161.776 109.877 161.078 109.088C156.037 103.389 151.282 97.4504 146.385 91.629C144.082 88.8916 141.769 86.148 139.285 83.5762C137.684 81.9194 135.931 80.4063 133.827 79.3132C130.559 77.6127 126.491 79.7004 125.106 82.1005C123.318 85.197 123.323 88.3654 124.507 91.6305C125.034 93.0875 125.595 94.5303 126.385 95.8685C126.668 96.3479 126.885 96.8086 126.557 97.3489C126.201 97.7252 125.715 97.8298 125.245 97.9579C123.548 98.4232 121.911 99.0182 120.397 99.9441C119.318 100.603 118.865 100.458 118.22 99.3633C116.708 96.7961 114.555 95.3876 111.493 95.5437C108.613 95.6905 106.11 97.886 105.425 100.904C104.794 103.686 106.168 106.807 108.61 108.119C109.475 108.583 110.361 108.971 111.36 109.084C112.725 109.238 112.995 109.576 112.742 110.93C112.107 114.321 112.578 117.563 113.871 120.733C116.162 126.345 122.385 130.556 128.45 130.62C131.19 130.649 133.799 130.196 136.257 128.95C136.804 128.673 137.369 128.381 137.976 128.834C138.382 129.238 138.317 129.749 138.189 130.205C137.146 133.932 136.691 137.727 136.81 141.595C136.818 141.837 136.773 142.079 136.716 142.313C134.882 144.573 132.288 145.628 129.717 146.725C129.438 146.843 129.162 146.782 128.896 146.654C127.937 147.054 126.968 147.433 126.021 147.861C125.529 148.085 125.436 148.631 125.269 149.075C124.507 151.097 123.885 153.166 123.337 155.255C121.009 164.12 119.285 173.11 117.856 182.159C117.324 185.533 116.94 188.927 116.468 192.307C116.446 192.462 116.387 192.61 116.346 192.763C115.792 192.798 115.372 192.51 114.93 192.328C96.104 184.54 77.2781 176.756 58.407 169.079C57.1375 168.563 56.9189 168.855 57.8011 167.34C61.1444 161.6 64.5329 155.886 67.8605 150.135C70.3293 145.866 72.7404 141.564 74.9406 137.146C77.2376 132.536 79.0802 127.76 80.2826 122.739C81.2929 118.526 81.107 114.354 80.1123 110.168C78.8022 104.658 77.0954 99.2571 75.7103 93.7683C74.4845 88.9135 73.3384 84.0353 72.6981 79.0633C71.9627 73.3481 72.3812 67.6844 73.7381 62.0864C74.0067 60.9792 74.2551 59.869 74.5143 58.7603C74.0677 58.2341 74.2956 57.6844 74.4705 57.1441C75.3887 54.3146 76.449 51.5429 77.8684 48.9195C78.6617 47.4548 79.1426 47.258 80.7214 47.8077C86.4678 49.8127 92.4031 46.5319 93.6586 40.5763C94.2801 37.6328 93.5805 34.9266 91.752 32.5234C91.4521 32.1268 90.9353 31.7692 91.3772 31.1555Z" fill="#F9B3B4"/>
<path d="M136.249 142.45C136.253 141.515 136.284 140.578 136.254 139.644C136.151 136.442 136.759 133.342 137.578 130.271C137.692 129.843 137.877 129.421 137.713 128.964C137.383 128.423 137.678 127.938 137.856 127.45C138.645 125.302 139.674 123.266 140.851 121.312C141.306 120.559 141.251 119.961 140.761 119.301C137.753 115.245 134.78 111.164 131.958 106.977C130.092 104.21 128.229 101.437 126.598 98.5183C126.348 98.0717 126.12 97.6532 126.474 97.1645C125.153 95.0408 124.191 92.7641 123.507 90.3578C122.603 87.1816 123.053 84.1866 124.828 81.4648C126.665 78.651 130.937 77.0067 134.196 78.8602C135.476 79.5879 136.662 80.4046 137.774 81.3836C140.778 84.0351 143.178 87.2253 145.842 90.1813C149.249 93.9602 152.33 98.0062 155.6 101.897C157.352 103.982 159.188 105.997 160.967 108.061C161.788 109.013 162.552 110.016 163.465 110.886C165.236 111.428 166.023 113.081 167.157 114.296C168.901 116.164 170.602 118.08 172.285 120.008C173.075 120.914 173.842 121.827 174.254 122.396C173.442 121.072 172.853 119.113 172.044 117.252C171.039 114.938 170.155 112.575 169.17 110.253C168.943 109.721 168.721 109.176 169.265 108.682C169.427 108.437 169.658 108.292 169.925 108.17C173.059 106.744 176.065 105.053 179.232 103.695C180.088 103.328 180.931 102.934 181.781 102.552C182.399 102.753 182.583 103.306 182.831 103.821C184.602 107.48 187.635 109.255 191.706 109.006C192.179 108.976 192.607 108.937 192.855 109.441C194.302 114.04 195.116 118.753 195.547 123.554C195.986 128.44 195.934 133.32 195.661 138.205C195.561 139.99 195.25 141.759 195.227 143.551C195.847 144.832 195.399 146.123 195.204 147.386C194.217 153.762 192.691 160.008 190.453 166.066C190.065 167.118 190.153 168.003 190.663 168.973C192.294 172.073 193.74 175.268 195.428 178.339C195.775 178.972 196.2 179.609 196.014 180.405C195.866 180.95 196.239 181.337 196.451 181.759C199.516 187.875 202.599 193.984 205.664 200.101C205.894 200.558 206.27 200.981 206.173 201.654C204.243 201.817 202.308 201.984 200.372 202.143C196.401 202.473 192.43 202.805 188.459 203.125C183.069 203.559 177.678 203.98 172.288 204.412C168.276 204.734 164.263 205.057 160.252 205.393C155.634 205.778 151.018 206.18 146.401 206.573C146.32 206.579 146.239 206.589 146.157 206.595C144.908 206.676 144.907 206.676 144.577 205.408C143.02 199.421 141.468 193.435 139.905 187.449C139.764 186.91 139.665 186.378 139.152 185.972C136.84 184.147 135.217 181.754 133.821 179.203C131.395 174.768 129.88 170.015 128.94 165.065C128.278 161.576 127.945 158.053 128.015 154.507C128.044 153.099 128.026 151.66 128.443 150.28C129.218 149.391 130.996 149.145 132.35 149.776C133.704 150.406 134.814 151.389 135.717 152.538C137.589 154.924 140.016 156.59 142.788 158.313C142.047 156.968 141.259 155.973 140.661 154.866C138.842 151.5 137.096 148.105 136.185 144.349C136.021 143.693 135.982 143.075 136.249 142.45Z" fill="#F8CECE"/>
<path d="M100.042 55.5385C99.0225 54.4658 98.4712 53.2337 98.5352 51.7081C98.6258 49.5438 100.047 47.7309 102.153 47.2499C102.587 47.1515 103.028 47.0875 103.467 47.0079C104.08 46.7955 104.691 46.5597 105.539 46.972C105.014 45.0372 104.561 43.3086 105.1 41.5331C105 39.5672 105.264 37.6309 105.565 35.6993C107.202 28.3085 113.47 22.256 120.925 21.0521C128.771 19.7841 135.183 22.3341 140.094 28.6083C140.219 28.7676 140.341 28.9316 140.462 29.094C136.607 33.0056 132.709 36.8767 128.909 40.8398C124.235 45.7134 119.736 50.7493 115.375 55.9071C115.088 56.2475 114.838 56.6285 114.41 56.8221C113.896 57.2344 113.509 56.858 113.09 56.6207C111.363 55.64 110.214 54.0114 108.74 52.7309C107.978 56.5364 104.527 58.1853 101.263 57.0064C100.59 56.7628 99.9828 56.4146 100.042 55.5385Z" fill="white"/>
<path d="M91.3773 31.1557C92.8388 32.7469 93.8976 34.5442 94.2848 36.7023C95.57 43.8822 89.8829 48.89 84.6252 48.9728C83.1012 48.9962 81.6239 48.8635 80.1998 48.2623C79.1333 47.8126 79.0849 47.8532 78.5149 48.9212C77.1064 51.5524 76.0352 54.3257 75.0874 57.1505C74.9062 57.6908 74.7094 58.2264 74.5205 58.7636C70.3215 57.7049 67.8715 52.8142 70.217 48.6339C71.2054 46.871 72.7294 45.7826 74.6766 45.2751C75.0264 45.1845 75.4122 45.2111 75.7417 44.9269C74.7626 43.4137 74.0646 41.8053 73.796 39.9846C73.1589 35.6904 75.6011 30.9277 80.0062 29.1273C83.5821 27.6672 87.019 28.0295 90.2124 30.2687C90.609 30.5498 90.9884 30.8606 91.3773 31.1557Z" fill="white"/>
<path d="M196.012 180.405C195.702 180.245 195.567 179.951 195.419 179.657C193.533 175.916 191.648 172.175 189.741 168.442C189.424 167.823 189.36 167.271 189.618 166.591C191.718 161.022 193.236 155.293 194.251 149.429C194.549 147.708 194.855 145.991 195.018 144.25C195.04 144.012 195.153 143.784 195.224 143.553C198.864 143.78 201.862 148.431 198.669 152.555C198.703 152.793 198.912 152.852 199.082 152.941C204.017 155.511 206.807 159.529 207.282 165.105C207.925 172.668 202.53 179.019 196.133 180.401C196.095 180.409 196.053 180.404 196.012 180.405Z" fill="white"/>
<path d="M192.855 109.443C191.651 109.554 190.463 109.755 189.235 109.508C185.308 108.718 182.855 106.385 181.779 102.555C186.824 99.9034 191.868 97.2504 196.917 94.5974C196.967 94.1539 196.565 94.0945 196.334 93.9087C194.531 92.4659 193.861 90.5592 194.329 88.359C194.787 86.2119 196.155 84.7488 198.299 84.1179C201.033 83.3137 204.076 84.9377 204.969 87.6517C205.105 88.0639 205.219 88.484 205.38 89.0258C206.687 87.8297 207.997 87.483 209.417 88.5573C209.685 88.9633 209.983 89.3553 210.093 89.8425C210.36 91.0386 209.735 92.2675 208.616 92.7594C207.532 93.2357 206.297 92.9156 205.56 91.9521C205.396 91.7366 205.272 91.4899 205.086 91.1854C203.736 94.2772 201.395 95.4437 198.095 94.8847C198.088 95.3703 198.417 95.6373 198.6 95.9574C201.27 100.631 199.331 106.64 194.429 108.843C193.917 109.07 193.38 109.243 192.855 109.443Z" fill="white"/>
<path d="M136.249 142.451C136.915 144.673 137.456 146.929 138.409 149.062C139.825 152.234 141.402 155.308 143.475 158.11C143.714 158.431 144.017 158.72 144.081 159.214C143.551 159.334 143.119 159.073 142.711 158.861C139.974 157.437 137.541 155.608 135.553 153.236C134.733 152.259 133.817 151.406 132.795 150.657C131.68 149.837 130.411 149.962 129.148 150.101C128.907 150.127 128.674 150.221 128.439 150.283C128.357 149.437 128.639 148.641 128.79 147.827C128.863 147.435 128.966 147.057 128.899 146.656C129.03 146.561 129.148 146.436 129.293 146.373C131.749 145.308 134.048 143.965 136.249 142.451Z" fill="#C1B2C3"/>
<path d="M126.473 97.1632C128.976 101.554 131.763 105.764 134.678 109.887C136.982 113.144 139.34 116.364 141.698 119.582C142.007 120.005 142.09 120.358 141.819 120.799C140.325 123.235 139.082 125.794 138.056 128.461C137.986 128.645 137.828 128.797 137.711 128.962C137.449 129.072 137.174 129.159 136.924 129.295C133.926 130.928 130.689 131.447 127.341 131.155C123.84 130.85 120.698 129.521 118.02 127.235C114.945 124.61 112.961 121.311 112.196 117.31C111.794 115.211 111.727 113.11 112.133 111.005C112.164 110.845 112.221 110.689 112.244 110.528C112.356 109.765 112.314 109.701 111.526 109.651C109.603 109.527 108.009 108.728 106.68 107.354C104.721 105.327 104.122 102.127 105.22 99.5118C106.38 96.7463 108.976 94.988 111.877 94.9552C115.07 94.9193 117.285 96.4434 118.751 99.1916C119.182 99.999 119.173 100.013 119.975 99.5258C121.988 98.3109 124.127 97.4521 126.473 97.1632Z" fill="#F6F6F6"/>
<path d="M104.934 68.0828C105.497 68.1452 105.678 67.6768 105.948 67.3457C107.277 65.7186 108.593 64.0837 109.922 62.4565C110.098 62.2395 110.311 62.0521 110.506 61.8491C115.003 69.8223 114.168 80.0613 111.09 85.9482C111.168 79.1228 109.605 73.05 104.934 68.0828Z" fill="#C49FB0"/>
<path d="M169.263 108.682C169.694 110.43 170.548 112.013 171.209 113.671C172.563 117.069 173.992 120.436 175.386 123.818C175.444 123.957 175.563 124.099 175.433 124.281C175.061 124.224 174.983 123.864 174.779 123.637C173.148 121.827 171.506 120.027 169.897 118.198C167.753 115.761 165.492 113.428 163.465 110.887C165.035 110.433 166.485 109.679 167.992 109.068C168.406 108.899 168.795 108.662 169.263 108.682Z" fill="#C1B2C3"/>
<path d="M101.301 115.475C103.326 115.464 104.916 116.984 104.925 118.94C104.934 120.88 103.301 122.561 101.391 122.58C99.4066 122.599 97.8404 121.039 97.8295 119.029C97.817 116.895 99.1942 115.486 101.301 115.475Z" fill="#F6F6F6"/>
</svg>
