<svg width="155" height="163" viewBox="0 0 155 163" fill="none" xmlns="http://www.w3.org/2000/svg">
<path d="M77.1913 2.03542C72.6123 2.03542 71.7764 5.74374 71.7764 5.74374V15.0746C71.7764 15.0746 63.642 15.4275 56.4149 17.6116C49.1878 19.7957 42.867 23.811 42.867 23.811L38.1805 17.6116C38.1805 17.6116 36.6279 15.9937 34.3265 15.9937C33.3851 15.9937 32.3188 16.2644 31.1817 17.0271C27.2654 19.6546 28.9997 23.811 28.9997 23.811L34.1804 31.0257C34.1804 31.0257 28.081 35.2636 23.6427 41.3984C19.2043 47.5333 16.263 55.1566 16.263 55.1566L7.14759 52.8614C7.14759 52.8614 6.89749 52.8038 6.50674 52.8038C5.40879 52.8038 3.20248 53.259 2.32986 56.7275C1.14672 61.4303 3.82599 63.1841 3.82599 63.1841L12.364 66.0175C12.364 66.0175 11.0937 73.0655 11.0937 80.5925C11.0937 88.1195 12.364 96.1251 12.364 96.1251L4.61937 99.0014C4.61937 99.0014 1.54737 100.347 2.37839 105.522C2.96129 109.151 5.33401 109.693 6.69989 109.693C7.28229 109.693 7.68195 109.595 7.68195 109.595L16.263 107.732C16.263 107.732 18.6036 114.159 23.0662 120.156C27.5288 126.153 34.1136 131.721 34.1136 131.721L29.3172 138.518C29.3172 138.518 26.9479 141.629 30.1794 144.799C31.5636 146.157 33.0211 146.545 34.2354 146.545C35.8563 146.545 37.0439 145.853 37.0439 145.853L42.7709 138.518C42.7709 138.518 48.6837 142.559 55.886 144.799C63.0883 147.04 71.5792 147.48 71.5792 147.48V157.016C71.5792 157.016 71.6932 160.965 77.2453 160.965C77.3657 160.965 77.4895 160.963 77.6153 160.959C83.5315 160.779 82.9604 156.257 82.9604 156.257V147.48C82.9604 147.48 90.9958 147.374 98.1689 145.134C105.342 142.893 111.652 138.518 111.652 138.518L116.912 145.134C116.912 145.134 118.376 146.525 120.515 146.525C121.584 146.525 122.822 146.177 124.13 145.134C128.054 142.004 125.865 138.518 125.865 138.518L120.887 131.556C120.887 131.556 126.637 127.01 131.083 120.941C135.529 114.872 138.669 107.282 138.669 107.282L146.833 109.896C146.833 109.896 146.888 109.9 146.988 109.9C147.799 109.9 151.557 109.665 152.705 105.387C153.995 100.583 150.188 98.9611 150.188 98.9611L143.02 96.5731C143.02 96.5731 144.192 87.4077 144.03 79.7867C143.869 72.1657 142.375 66.0889 142.375 66.0889L150.188 63.431C150.188 63.431 153.297 62.4959 152.705 57.9065C152.113 53.3171 147.725 52.8663 147.725 52.8663L138.047 54.5208C138.047 54.5208 134.961 46.8589 130.688 40.9456C126.415 35.0323 120.953 30.8675 120.953 30.8675L126.145 23.772C126.145 23.772 127.672 20.5165 124.682 17.6116C123.386 16.3529 121.856 15.9964 120.538 15.9965C118.813 15.9966 117.45 16.6068 117.45 16.6068L111.7 24.1123C111.7 24.1123 105.996 19.7859 98.6859 17.6116C91.3756 15.4373 82.5756 15.0746 82.5756 15.0746V5.10258C82.5756 5.10258 81.8684 2.06374 77.2433 2.03554C77.226 2.03542 77.2087 2.03542 77.1913 2.03542ZM77.1913 0C77.2126 0 77.2339 0 77.2557 0.000124232C80.3371 0.0190075 82.126 1.17735 83.0838 2.14586C84.1877 3.26183 84.4997 4.41905 84.5512 4.63969L84.6041 4.86803V5.10258V13.1642C85.5283 13.2355 86.7352 13.3442 88.1234 13.5059C92.3711 14.0004 96.1191 14.7252 99.2624 15.6602C101.451 16.3112 104.909 17.5777 108.947 19.9139C109.862 20.4426 110.643 20.9325 111.266 21.3398L115.842 15.3662L116.155 14.958L116.624 14.7481C116.803 14.6676 118.441 13.9612 120.538 13.9611C122.698 13.9609 124.619 14.7176 126.093 16.1494C128.152 18.1504 128.573 20.3238 128.563 21.7948C128.553 23.3412 128.076 24.4349 127.981 24.6384L127.897 24.8173L127.78 24.9767L123.726 30.5166C124.254 30.9699 124.893 31.5362 125.603 32.2017C127.401 33.887 130.028 36.5649 132.33 39.7507C134.17 42.2958 136.006 45.4244 137.789 49.05C138.415 50.3228 138.92 51.4264 139.281 52.245L147.385 50.8598L147.657 50.8132L147.932 50.8414C148.089 50.8576 149.51 51.0245 151.017 51.9078C151.942 52.4505 152.718 53.1516 153.322 53.9917C154.069 55.0298 154.538 56.2589 154.717 57.6454C155.119 60.7679 154.112 62.6772 153.196 63.7291C152.226 64.8429 151.141 65.2603 150.824 65.3639L144.738 67.4346C145.208 69.8494 145.945 74.4113 146.058 79.7435C146.182 85.5583 145.559 92.1403 145.227 95.1635L150.828 97.0294L150.905 97.0553L150.981 97.0875C151.22 97.1893 152.465 97.7649 153.523 99.1122C154.176 99.9436 154.62 100.893 154.84 101.933C155.102 103.166 155.042 104.507 154.664 105.917C154.029 108.282 152.633 110.063 150.627 111.068C149.066 111.851 147.562 111.935 146.988 111.935C146.839 111.935 146.739 111.93 146.703 111.927L146.454 111.911L146.216 111.835L139.787 109.776C139.426 110.566 138.942 111.588 138.353 112.755C136.523 116.38 134.627 119.54 132.718 122.147C131.401 123.944 129.117 126.766 125.713 130.002C124.915 130.76 124.204 131.401 123.631 131.902L127.514 137.331L127.549 137.381L127.582 137.433C127.721 137.655 128.419 138.847 128.496 140.561C128.543 141.617 128.344 142.647 127.904 143.62C127.387 144.765 126.541 145.811 125.392 146.727C123.868 147.943 122.226 148.56 120.515 148.56C117.651 148.56 115.727 146.811 115.518 146.612L115.415 146.514L115.327 146.403L111.21 141.225C110.52 141.653 109.629 142.185 108.583 142.767C105.179 144.657 101.878 146.107 98.7716 147.077C95.6699 148.046 92.0749 148.751 88.0867 149.171C86.8788 149.299 85.8224 149.379 84.989 149.43V156.167C85.0355 156.789 85.0558 158.834 83.5631 160.586C82.9451 161.312 82.1517 161.884 81.2058 162.287C80.2019 162.715 79.0143 162.953 77.6767 162.993C77.5321 162.998 77.387 163 77.2453 163C73.528 163 71.6317 161.474 70.6952 160.195C69.6513 158.768 69.5592 157.345 69.5517 157.074L69.5507 157.045V157.016V149.368C68.6603 149.289 67.5039 149.17 66.1747 148.999C62.0473 148.466 58.3835 147.707 55.2852 146.743C53.1453 146.077 49.739 144.82 45.6627 142.609C44.7019 142.087 43.8823 141.61 43.238 141.22L38.6406 147.108L38.3999 147.417L38.0622 147.614C37.8923 147.713 36.3417 148.58 34.2354 148.58C32.2049 148.58 30.3121 147.776 28.7615 146.254C27.7834 145.295 27.1054 144.232 26.7473 143.094C26.4452 142.136 26.3734 141.144 26.5339 140.146C26.7766 138.632 27.4753 137.594 27.6764 137.321L31.4026 132.041C30.7261 131.43 29.8461 130.615 28.8521 129.65C25.85 126.732 23.3559 123.948 21.4408 121.374C20.116 119.594 18.1256 116.624 16.167 112.586C15.694 111.611 15.3127 110.758 15.0244 110.084L8.12619 111.581C7.95483 111.62 7.417 111.729 6.69989 111.729C5.34837 111.729 4.09689 111.351 3.08015 110.635C2.38483 110.145 1.80441 109.504 1.35472 108.73C0.881272 107.914 0.551935 106.944 0.375629 105.846C0.147321 104.424 0.151779 103.103 0.389 101.919C0.594031 100.897 0.970416 99.975 1.50825 99.1792C2.45367 97.779 3.58976 97.2315 3.80816 97.136L3.86115 97.1127L3.91513 97.0926L10.121 94.7877C9.74613 92.0182 9.06517 86.2182 9.06517 80.5925C9.06517 75.1436 9.70354 70.0023 10.0874 67.4058L3.18911 65.1165L2.93851 65.0334L2.71763 64.8888C2.52994 64.7661 1.55777 64.0812 0.827291 62.6446C0.410296 61.824 0.147321 60.9104 0.0467869 59.929C-0.0715762 58.7782 0.0349011 57.5336 0.363247 56.2294C0.868891 54.2197 1.81926 52.7243 3.18861 51.7847C4.41335 50.9447 5.66879 50.7684 6.50674 50.7684C7.08221 50.7684 7.4898 50.852 7.60123 50.8776L7.62153 50.8822L7.64134 50.8873L15.0611 52.7555C15.4082 51.9513 15.8797 50.8984 16.4626 49.6908C18.2272 46.0361 20.0903 42.8439 22.0009 40.2027C23.3277 38.369 25.6603 35.5234 29.2399 32.3798C30.0486 31.6698 30.7766 31.0712 31.3734 30.5982L27.354 25.0009L27.2183 24.812L27.1287 24.5972C27.0663 24.4481 26.523 23.0895 26.5953 21.3209C26.6399 20.2301 26.9053 19.2024 27.3837 18.2664C27.9721 17.1153 28.8709 16.129 30.0541 15.3351C31.416 14.4215 32.8532 13.9583 34.3265 13.9583C37.402 13.9583 39.4216 15.9704 39.6415 16.1998L39.7247 16.2861L39.7965 16.3815L43.39 21.135C44.0784 20.7423 44.9649 20.2542 46.0059 19.719C48.3464 18.5155 51.9508 16.8349 55.83 15.6627C58.9372 14.7236 62.547 13.9972 66.559 13.5038C67.81 13.3498 68.8985 13.2444 69.7478 13.1734V5.74374V5.5164L69.7979 5.29477C69.8508 5.05885 70.1693 3.81926 71.2177 2.5752C72.2077 1.40047 74.048 0 77.1913 0Z" fill="#111111"/>
</svg>
