<svg xmlns="http://www.w3.org/2000/svg" width="902.024" height="674.243" viewBox="0 0 902.024 674.243">
  <g id="Group_4" data-name="Group 4" transform="translate(-65 -208)">
    <path id="Path_76" data-name="Path 76" d="M2630.032,1141l31.233,26.388-21.183,27.2,6.344,5.181" transform="translate(-1697 -612)" fill="none" stroke="#111" stroke-linecap="round" stroke-width="4"/>
    <path id="Path_80" data-name="Path 80" d="M2096.628,1388.917l36.713,23.615-26.618,25.892,8.845,6.008" transform="translate(-1697 -612)" fill="none" stroke="#111" stroke-linecap="round" stroke-width="4"/>
    <g id="Path_43" data-name="Path 43" transform="translate(-2079.391 -291)" fill="#ec96aa">
      <path d="M 2225.704833984375 987.2650146484375 L 2223.439697265625 987.2650146484375 L 2156.29833984375 987.2650146484375 L 2154.054931640625 987.2650146484375 L 2154.3115234375 985.0363159179688 L 2162.629150390625 912.7713012695312 L 2162.8330078125 911 L 2164.615966796875 911 L 2214.41796875 911 L 2216.183837890625 911 L 2216.402587890625 912.7522583007812 L 2225.42431640625 985.0172729492188 L 2225.704833984375 987.2650146484375 Z" stroke="none"/>
      <path d="M 2164.615966796875 913 L 2156.29833984375 985.2650146484375 L 2223.439697265625 985.2650146484375 L 2214.41796875 913 L 2164.615966796875 913 M 2161.050048828125 909 L 2164.615966796875 909 L 2214.41796875 909 L 2217.94970703125 909 L 2218.38720703125 912.5044555664062 L 2227.408935546875 984.7694702148438 L 2227.97021484375 989.2650146484375 L 2223.439697265625 989.2650146484375 L 2156.29833984375 989.2650146484375 L 2151.8115234375 989.2650146484375 L 2152.324462890625 984.8076171875 L 2160.64208984375 912.5426025390625 L 2161.050048828125 909 Z" stroke="none" fill="#111"/>
    </g>
    <path id="Path_4" data-name="Path 4" d="M175.129,517.706v46.225L164.948,568.4" transform="translate(168.003 321.208)" fill="none" stroke="#111" stroke-linecap="round" stroke-width="4"/>
    <path id="Path_52" data-name="Path 52" d="M175.129,517.706v46.225L164.948,568.4" transform="translate(526.003 -149.792)" fill="none" stroke="#111" stroke-linecap="round" stroke-width="4"/>
    <path id="Path_44" data-name="Path 44" d="M164.948,517.706v46.225l10.181,4.469" transform="translate(204.003 321.208)" fill="none" stroke="#111" stroke-linecap="round" stroke-width="4"/>
    <path id="Path_53" data-name="Path 53" d="M164.948,517.706v46.225l10.181,4.469" transform="translate(562.003 -149.792)" fill="none" stroke="#111" stroke-linecap="round" stroke-width="4"/>
    <path id="Path_50" data-name="Path 50" d="M176.956,517.706v67.115l-12.008,6.488" transform="translate(710.176 73.208)" fill="none" stroke="#111" stroke-linecap="round" stroke-width="4"/>
    <path id="Path_51" data-name="Path 51" d="M164.948,517.706v67.115l12.008,6.488" transform="translate(751.176 73.208)" fill="none" stroke="#111" stroke-linecap="round" stroke-width="4"/>
    <g id="Path_39" data-name="Path 39" transform="translate(-1697 -612)" fill="#d42e56">
      <path d="M 2229.02978515625 1021.297668457031 L 2226.843505859375 1021.297668457031 L 2156.29833984375 1021.297668457031 L 2154.127197265625 1021.297668457031 L 2154.30517578125 1019.1337890625 L 2163.044677734375 912.8361206054688 L 2163.195556640625 911 L 2165.037841796875 911 L 2217.364501953125 911 L 2219.194091796875 911 L 2219.356689453125 912.8223876953125 L 2228.835693359375 1019.119995117188 L 2229.02978515625 1021.297668457031 Z" stroke="none"/>
      <path d="M 2165.037841796875 913 L 2156.29833984375 1019.297668457031 L 2226.843505859375 1019.297668457031 L 2217.364501953125 913 L 2165.037841796875 913 M 2161.353271484375 909 L 2165.037841796875 909 L 2217.364501953125 909 L 2221.023681640625 909 L 2221.3486328125 912.6447143554688 L 2230.82763671875 1018.9423828125 L 2231.216064453125 1023.297668457031 L 2226.843505859375 1023.297668457031 L 2156.29833984375 1023.297668457031 L 2151.9560546875 1023.297668457031 L 2152.311767578125 1018.969909667969 L 2161.05126953125 912.6722412109375 L 2161.353271484375 909 Z" stroke="none" fill="#111"/>
    </g>
    <g id="Path_42" data-name="Path 42" transform="translate(-1534.391 -202)" fill="#ec96aa">
      <path d="M 2225.709228515625 986.15625 L 2223.439697265625 986.15625 L 2156.29833984375 986.15625 L 2154.051025390625 986.15625 L 2154.311767578125 983.924072265625 L 2162.62939453125 912.767822265625 L 2162.836181640625 911 L 2164.615966796875 911 L 2214.41796875 911 L 2216.180419921875 911 L 2216.402099609375 912.7484130859375 L 2225.423828125 983.9046630859375 L 2225.709228515625 986.15625 Z" stroke="none"/>
      <path d="M 2164.615966796875 913 L 2156.29833984375 984.15625 L 2223.439697265625 984.15625 L 2214.41796875 913 L 2164.615966796875 913 M 2161.056396484375 909 L 2164.615966796875 909 L 2214.41796875 909 L 2217.94287109375 909 L 2218.38623046875 912.4968872070312 L 2227.407958984375 983.6531372070312 L 2227.978759765625 988.15625 L 2223.439697265625 988.15625 L 2156.29833984375 988.15625 L 2151.803466796875 988.15625 L 2152.325439453125 983.6918334960938 L 2160.64306640625 912.5355834960938 L 2161.056396484375 909 Z" stroke="none" fill="#111"/>
    </g>
    <g id="Path_40" data-name="Path 40" transform="translate(-1294 -384)" fill="#d42e56">
      <path d="M 2237.25048828125 988.896240234375 L 2234.944091796875 988.896240234375 L 2156.29833984375 988.896240234375 L 2154.017333984375 988.896240234375 L 2154.3154296875 986.6348266601562 L 2164.058349609375 912.7385864257812 L 2164.28759765625 911 L 2166.041259765625 911 L 2224.37646484375 911 L 2226.11083984375 911 L 2226.3564453125 912.7168579101562 L 2236.924072265625 986.6130981445312 L 2237.25048828125 988.896240234375 Z" stroke="none"/>
      <path d="M 2166.041259765625 913 L 2156.29833984375 986.896240234375 L 2234.944091796875 986.896240234375 L 2224.37646484375 913 L 2166.041259765625 913 M 2162.533935546875 909 L 2166.041259765625 909 L 2224.37646484375 909 L 2227.84521484375 909 L 2228.336181640625 912.4337158203125 L 2238.90380859375 986.3299560546875 L 2239.556884765625 990.896240234375 L 2234.944091796875 990.896240234375 L 2156.29833984375 990.896240234375 L 2151.736328125 990.896240234375 L 2152.332763671875 986.3734130859375 L 2162.07568359375 912.4771728515625 L 2162.533935546875 909 Z" stroke="none" fill="#111"/>
    </g>
    <g id="Path_41" data-name="Path 41" transform="translate(-1851 -140)" fill="#d42e56">
      <path d="M 2259.9892578125 989.9095458984375 L 2257.593017578125 989.9095458984375 L 2156.29833984375 989.9095458984375 L 2153.935546875 989.9095458984375 L 2154.325927734375 987.5791015625 L 2166.874755859375 912.6695556640625 L 2167.154296875 911 L 2168.84716796875 911 L 2243.98193359375 911 L 2245.6513671875 911 L 2245.94970703125 912.6424560546875 L 2259.560791015625 987.552001953125 L 2259.9892578125 989.9095458984375 Z" stroke="none"/>
      <path d="M 2168.84716796875 913 L 2156.29833984375 987.9095458984375 L 2257.593017578125 987.9095458984375 L 2243.98193359375 913 L 2168.84716796875 913 M 2165.46142578125 909 L 2168.84716796875 909 L 2243.98193359375 909 L 2247.320556640625 909 L 2247.91748046875 912.284912109375 L 2261.528564453125 987.1944580078125 L 2262.38525390625 991.9095458984375 L 2257.593017578125 991.9095458984375 L 2156.29833984375 991.9095458984375 L 2151.572509765625 991.9095458984375 L 2152.353271484375 987.2486572265625 L 2164.902099609375 912.339111328125 L 2165.46142578125 909 Z" stroke="none" fill="#111"/>
    </g>
    <g id="Rectangle_16" data-name="Rectangle 16" transform="translate(221 327)" fill="#ec96aa" stroke="#111" stroke-width="4">
      <rect width="54" height="62" stroke="none"/>
      <rect x="-2" y="-2" width="58" height="66" fill="none"/>
    </g>
    <g id="Rectangle_17" data-name="Rectangle 17" transform="translate(689 334)" fill="#ec96aa" stroke="#111" stroke-width="4">
      <rect width="51" height="52" stroke="none"/>
      <rect x="-2" y="-2" width="55" height="56" fill="none"/>
    </g>
    <g id="Rectangle_15" data-name="Rectangle 15" transform="translate(69 539)" fill="#fff" stroke="#111" stroke-width="4">
      <rect width="83" height="83" stroke="none"/>
      <rect x="-2" y="-2" width="87" height="87" fill="none"/>
    </g>
    <g id="Ellipse_11" data-name="Ellipse 11" transform="translate(285 690)" fill="#fff" stroke="#111" stroke-width="4">
      <ellipse cx="71.5" cy="48" rx="71.5" ry="48" stroke="none"/>
      <ellipse cx="71.5" cy="48" rx="73.5" ry="50" fill="none"/>
    </g>
    <g id="Ellipse_12" data-name="Ellipse 12" transform="translate(607 623)" fill="#fff" stroke="#111" stroke-width="4">
      <ellipse cx="48" cy="47.5" rx="48" ry="47.5" stroke="none"/>
      <ellipse cx="48" cy="47.5" rx="50" ry="49.5" fill="none"/>
    </g>
    <g id="Ellipse_13" data-name="Ellipse 13" transform="translate(858 453)" fill="#fff" stroke="#111" stroke-width="4">
      <ellipse cx="44" cy="43.5" rx="44" ry="43.5" stroke="none"/>
      <ellipse cx="44" cy="43.5" rx="46" ry="45.5" fill="none"/>
    </g>
    <g id="Ellipse_14" data-name="Ellipse 14" transform="translate(676 263)" fill="#fff" stroke="#111" stroke-width="4">
      <circle cx="38" cy="38" r="38" stroke="none"/>
      <circle cx="38" cy="38" r="40" fill="none"/>
    </g>
    <g id="Ellipse_16" data-name="Ellipse 16" transform="translate(209 257)" fill="#fff" stroke="#111" stroke-width="4">
      <circle cx="39" cy="39" r="39" stroke="none"/>
      <circle cx="39" cy="39" r="41" fill="none"/>
    </g>
    <g id="Ellipse_15" data-name="Ellipse 15" transform="translate(454 222)" fill="#fff" stroke="#111" stroke-width="4">
      <circle cx="41" cy="41" r="41" stroke="none"/>
      <circle cx="41" cy="41" r="43" fill="none"/>
    </g>
    <path id="Path_46" data-name="Path 46" d="M175.129,517.706v56.9l-10.181,5.5" transform="translate(-77.997 180.208)" fill="none" stroke="#111" stroke-linecap="round" stroke-width="4"/>
    <path id="Path_55" data-name="Path 55" d="M175.129,517.706v64.836l-10.181,6.268" transform="translate(310.003 -108.49)" fill="none" stroke="#111" stroke-linecap="round" stroke-width="4"/>
    <path id="Path_57" data-name="Path 57" d="M175.129,517.706v57.438L164.948,580.7" transform="translate(61.003 -123.49)" fill="none" stroke="#111" stroke-linecap="round" stroke-width="4"/>
    <path id="Path_58" data-name="Path 58" d="M164.948,517.706v57.438l10.181,5.553" transform="translate(97.003 -123.49)" fill="none" stroke="#111" stroke-linecap="round" stroke-width="4"/>
    <path id="Path_48" data-name="Path 48" d="M175.129,517.706v56.9l-10.181,5.5" transform="translate(467.003 268.208)" fill="none" stroke="#111" stroke-linecap="round" stroke-width="4"/>
    <path id="Path_45" data-name="Path 45" d="M164.948,517.706v56.9l10.181,5.5" transform="translate(-41.997 180.208)" fill="none" stroke="#111" stroke-linecap="round" stroke-width="4"/>
    <path id="Path_54" data-name="Path 54" d="M164.948,517.706v64.836l10.181,6.268" transform="translate(338.738 -108.49)" fill="none" stroke="#111" stroke-linecap="round" stroke-width="4"/>
    <path id="Path_47" data-name="Path 47" d="M164.948,517.706v56.9l10.181,5.5" transform="translate(503.003 268.208)" fill="none" stroke="#111" stroke-linecap="round" stroke-width="4"/>
    <rect id="Rectangle_10" data-name="Rectangle 10" width="5" height="8" rx="2.5" transform="translate(105 563)" fill="#111"/>
    <rect id="Rectangle_18" data-name="Rectangle 18" width="5" height="8" rx="2.5" transform="translate(130 563)" fill="#111"/>
    <rect id="Rectangle_19" data-name="Rectangle 19" width="5" height="8" rx="2.5" transform="translate(346 707)" fill="#111"/>
    <rect id="Rectangle_20" data-name="Rectangle 20" width="5" height="8" rx="2.5" transform="translate(371 707)" fill="#111"/>
    <rect id="Rectangle_21" data-name="Rectangle 21" width="5" height="8" rx="2.5" transform="translate(640 647)" fill="#111"/>
    <rect id="Rectangle_22" data-name="Rectangle 22" width="5" height="8" rx="2.5" transform="translate(665 647)" fill="#111"/>
    <rect id="Rectangle_23" data-name="Rectangle 23" width="5" height="8" rx="2.5" transform="translate(870 479)" fill="#111"/>
    <rect id="Rectangle_24" data-name="Rectangle 24" width="5" height="8" rx="2.5" transform="translate(900 479)" fill="#111"/>
    <rect id="Rectangle_25" data-name="Rectangle 25" width="5" height="8" rx="2.5" transform="translate(684 282)" fill="#111"/>
    <rect id="Rectangle_26" data-name="Rectangle 26" width="5" height="8" rx="2.5" transform="translate(722 282)" fill="#111"/>
    <rect id="Rectangle_27" data-name="Rectangle 27" width="5" height="8" rx="2.5" transform="translate(241 290)" fill="#111"/>
    <rect id="Rectangle_28" data-name="Rectangle 28" width="5" height="8" rx="2.5" transform="translate(267 290)" fill="#111"/>
    <path id="Path_59" data-name="Path 59" d="M1794.961,1188.857l20.551,8.69" transform="translate(-1697 -612)" fill="none" stroke="#111" stroke-linecap="round" stroke-width="4"/>
    <path id="Path_60" data-name="Path 60" d="M2034.768,1354.185s5.85-2.956,6.05-11.568-4.953-11.757-4.953-11.757" transform="translate(-1697 -612)" fill="none" stroke="#111" stroke-linecap="round" stroke-width="4"/>
    <path id="Path_61" data-name="Path 61" d="M2041.01,1341.191a45.245,45.245,0,0,0,16.6,3.966c8.808.2,17.9-3.338,17.9-3.338" transform="translate(-1697 -612)" fill="none" stroke="#111" stroke-linecap="round" stroke-width="4"/>
    <path id="Path_62" data-name="Path 62" d="M2341.336,1275.9s1.311,3.281,7.735,3.247,7.68-3.247,7.68-3.247" transform="translate(-1697 -612)" fill="none" stroke="#111" stroke-linecap="round" stroke-width="4"/>
    <path id="Path_63" data-name="Path 63" d="M2564.382,1108.5s10.166,7.952,19.992,7.952,19.312-7.952,19.312-7.952" transform="translate(-1697 -612)" fill="none" stroke="#111" stroke-linecap="round" stroke-width="4"/>
    <path id="Path_64" data-name="Path 64" d="M2564.382,1108.5s11.336,7.952,22.292,7.952,21.534-7.952,21.534-7.952" transform="translate(-2091.983 -853)" fill="none" stroke="#111" stroke-linecap="round" stroke-width="4"/>
    <path id="Path_65" data-name="Path 65" d="M2395.315,899.869s.2,7.194,7.087,7.164,6.12-7.164,6.12-7.164" transform="translate(-1697 -612)" fill="none" stroke="#111" stroke-linecap="round" stroke-width="4"/>
    <path id="Path_66" data-name="Path 66" d="M2395.315,899.869s.241,8.7,8.569,8.663,7.4-8.663,7.4-8.663" transform="translate(-2147 -597)" fill="none" stroke="#111" stroke-linecap="round" stroke-width="4"/>
    <path id="Path_67" data-name="Path 67" d="M1932.776,900.348l11.3-5.178" transform="translate(-1697 -612)" fill="none" stroke="#111" stroke-linecap="round" stroke-width="4"/>
    <path id="Path_68" data-name="Path 68" d="M2395.315,899.869s.091,3.3,3.249,3.284,2.806-3.284,2.806-3.284" transform="translate(-1915 -661)" fill="none" stroke="#111" stroke-linecap="round" stroke-width="4"/>
    <path id="Path_69" data-name="Path 69" d="M2395.315,899.869s.091,3.3,3.249,3.284,2.806-3.284,2.806-3.284" transform="translate(-1893 -661)" fill="none" stroke="#111" stroke-linecap="round" stroke-width="4"/>
    <path id="Path_70" data-name="Path 70" d="M1914.513,939l-20.02,38.453-28.131-13.528L1850.2,969.2" transform="translate(-1697 -612)" fill="none" stroke="#111" stroke-linecap="round" stroke-width="4"/>
    <path id="Path_71" data-name="Path 71" d="M1974.939,939l19.828,16.022-19.828,24.139,6.607,6.077" transform="translate(-1697 -612)" fill="none" stroke="#111" stroke-linecap="round" stroke-width="4"/>
    <path id="Path_72" data-name="Path 72" d="M2218.8,913l-18.838,37.487,2.634-57.632-11.007,4.166" transform="translate(-1697 -612)" fill="none" stroke="#111" stroke-linecap="round" stroke-width="4"/>
    <path id="Path_73" data-name="Path 73" d="M2163.088,914.8l8.571,40.894,16.1-16.853,4.253,8.592" transform="translate(-1697 -612)" fill="none" stroke="#111" stroke-linecap="round" stroke-width="4"/>
    <path id="Path_74" data-name="Path 74" d="M2348.681,940.86l13.925,17.533,18.757-13.37" transform="translate(-1697 -612)" fill="none" stroke="#111" stroke-linecap="round" stroke-width="4"/>
    <path id="Path_75" data-name="Path 75" d="M2438.778,943.207a70.367,70.367,0,0,1,11.349,8.279c4.6,4.384,6.814,7.79,7.046,9.256s0,15.511,0,15.511" transform="translate(-1697 -612)" fill="none" stroke="#111" stroke-linecap="round" stroke-width="4"/>
    <path id="Path_77" data-name="Path 77" d="M2564.382,1146.271l-38.562-55.51-28.829-30.2" transform="translate(-1697 -612)" fill="none" stroke="#111" stroke-linecap="round" stroke-width="4"/>
    <g id="Ellipse_17" data-name="Ellipse 17" transform="translate(691 732)" fill="#d42e56" stroke="#111" stroke-linecap="round" stroke-width="4">
      <circle cx="19.5" cy="19.5" r="19.5" stroke="none"/>
      <circle cx="19.5" cy="19.5" r="21.5" fill="none"/>
    </g>
    <path id="Path_78" data-name="Path 78" d="M2381.361,1322.388l49.534,22.965,5.092,37.865" transform="translate(-1697 -612)" fill="none" stroke="#111" stroke-linecap="round" stroke-width="4"/>
    <path id="Path_79" data-name="Path 79" d="M2323.785,1323l-35.3,29.127,26.611,31.934-8.584,8.194" transform="translate(-1697 -612)" fill="none" stroke="#111" stroke-linecap="round" stroke-width="4"/>
    <path id="Path_81" data-name="Path 81" d="M1958.624,1403.259s15.087-9.1,15.559-8.255-2.776,42.283,0,40.968,34.362-46.156,34.362-46.156" transform="translate(-1697 -612)" fill="none" stroke="#111" stroke-linecap="round" stroke-width="4"/>
    <path id="Path_82" data-name="Path 82" d="M1778.539,1234.612l10.912,37.078,31.482-10.69,12.061,5.789" transform="translate(-1697 -612)" fill="none" stroke="#111" stroke-linecap="round" stroke-width="4"/>
    <path id="Path_83" data-name="Path 83" d="M1832.993,1234.612l-10.912,37.078L1790.6,1261l-12.061,5.789" transform="translate(-1694 -613)" fill="none" stroke="#111" stroke-linecap="round" stroke-width="4"/>
    <path id="Path_84" data-name="Path 84" d="M1855.229,985.239,1874,879.305" transform="translate(-1697 -612)" fill="none" stroke="#111" stroke-linecap="round" stroke-width="4"/>
    <g id="Path_85" data-name="Path 85" transform="translate(-1697 -612)" fill="#d62e52" stroke-linecap="round">
      <path d="M 1866.455932617188 923.9898071289062 L 1863.984375 922.0932006835938 C 1863.896362304688 922.0255737304688 1855.076416015625 915.2567749023438 1846.372924804688 908.5540771484375 C 1841.260131835938 904.6166381835938 1837.18701171875 901.471923828125 1834.266723632812 899.2071533203125 C 1832.530395507812 897.860595703125 1831.186401367188 896.8132934570312 1830.272094726562 896.0943603515625 C 1829.775634765625 895.7039794921875 1829.393798828125 895.40087890625 1829.13720703125 895.1935424804688 C 1828.99267578125 895.0767211914062 1828.883911132812 894.9871826171875 1828.804809570312 894.9197387695312 C 1828.745239257812 894.8689575195312 1828.698120117188 894.8271484375 1828.65673828125 894.7881469726562 C 1827.9501953125 894.1231689453125 1827.978637695312 893.3282470703125 1828.023681640625 893.0173950195312 C 1828.126831054688 892.3059692382812 1828.596313476562 891.7147216796875 1829.279418945312 891.4357299804688 C 1829.333374023438 891.4136962890625 1829.393676757812 891.39111328125 1829.469116210938 891.3646850585938 C 1829.568725585938 891.3298950195312 1829.704467773438 891.2849731445312 1829.884155273438 891.2275390625 C 1830.204467773438 891.125 1830.67724609375 890.9783935546875 1831.289428710938 890.791748046875 C 1832.448486328125 890.4383544921875 1834.108520507812 889.9407958984375 1836.223754882812 889.3128051757812 C 1840.229125976562 888.1236572265625 1845.68994140625 886.5197143554688 1851.205932617188 884.9124145507812 C 1857.028686523438 883.2156982421875 1862.400634765625 881.6641235351562 1866.332275390625 880.5433959960938 C 1873.542602539062 878.4881591796875 1873.716552734375 878.4881591796875 1874.09765625 878.4881591796875 C 1874.537719726562 878.4881591796875 1874.955322265625 878.62646484375 1875.30517578125 878.8881225585938 C 1875.66015625 879.153564453125 1876.233276367188 879.7658081054688 1876.083862304688 880.8841552734375 C 1876.06884765625 880.9969482421875 1876.046020507812 881.1365966796875 1876.012084960938 881.3236694335938 C 1875.955322265625 881.63671875 1875.868774414062 882.0744018554688 1875.74755859375 882.6615600585938 C 1875.529541015625 883.7175903320312 1875.198486328125 885.2584228515625 1874.763671875 887.2412109375 C 1874.033447265625 890.5712890625 1872.9990234375 895.2008666992188 1871.689331054688 901.0012817382812 C 1869.460205078125 910.8734130859375 1867.17431640625 920.8534545898438 1867.151489257812 920.953125 L 1866.455932617188 923.9898071289062 Z" stroke="none"/>
      <path d="M 1874.09765625 880.4881591796875 C 1873.3134765625 880.4881591796875 1830.027709960938 893.1343994140625 1830.003051757812 893.3042602539062 C 1829.978271484375 893.4752197265625 1865.202026367188 920.5065307617188 1865.202026367188 920.5065307617188 C 1865.202026367188 920.5065307617188 1874.33056640625 880.6566772460938 1874.107421875 880.4898071289062 C 1874.10595703125 880.4887084960938 1874.102783203125 880.4881591796875 1874.09765625 880.4881591796875 M 1874.09765625 876.4881591796875 C 1874.9716796875 876.4881591796875 1875.802612304688 876.7635498046875 1876.500366210938 877.2845458984375 C 1877.0712890625 877.7114868164062 1878.361572265625 878.9387817382812 1878.066284179688 881.1489868164062 C 1878.046997070312 881.2933349609375 1878.01953125 881.4622192382812 1877.97998046875 881.6806030273438 C 1877.920288085938 882.0096435546875 1877.830688476562 882.4628295898438 1877.706176757812 883.06591796875 C 1877.486572265625 884.1299438476562 1877.15380859375 885.6788330078125 1876.71728515625 887.6696166992188 C 1875.986083984375 891.0037231445312 1874.950805664062 895.6373291015625 1873.64013671875 901.4417724609375 C 1871.410400390625 911.31689453125 1869.123901367188 921.2999877929688 1869.10107421875 921.3997192382812 L 1867.709838867188 927.47314453125 L 1862.766845703125 923.6798095703125 C 1862.6787109375 923.6122436523438 1853.857421875 916.8423461914062 1845.152709960938 910.138671875 C 1840.0380859375 906.1998901367188 1835.963134765625 903.0537109375 1833.041137695312 900.78759765625 C 1831.30126953125 899.4382934570312 1829.95361328125 898.38818359375 1829.035888671875 897.66650390625 C 1828.525390625 897.2650756835938 1828.147338867188 896.9650268554688 1827.880249023438 896.7490844726562 C 1827.719848632812 896.6195678710938 1827.6015625 896.5220336914062 1827.5078125 896.4421997070312 C 1827.422485351562 896.3695068359375 1827.35205078125 896.3067016601562 1827.286010742188 896.2445678710938 C 1826.306884765625 895.322998046875 1825.854248046875 894.0421752929688 1826.04443359375 892.73046875 C 1826.250366210938 891.3101196289062 1827.177001953125 890.1339721679688 1828.523315429688 889.5841674804688 C 1828.609619140625 889.5488891601562 1828.700317382812 889.5148315429688 1828.808837890625 889.4768676757812 C 1828.927001953125 889.4354858398438 1829.074951171875 889.3865356445312 1829.274536132812 889.3226928710938 C 1829.608154296875 889.2158813476562 1830.076416015625 889.0706787109375 1830.7060546875 888.8787231445312 C 1831.869873046875 888.5238647460938 1833.53466796875 888.02490234375 1835.654541015625 887.3955078125 C 1839.662963867188 886.2054443359375 1845.127319335938 884.6005249023438 1850.646484375 882.9922485351562 C 1856.472778320312 881.2944946289062 1861.848754882812 879.7417602539062 1865.784057617188 878.6200561523438 C 1873.26318359375 876.4881591796875 1873.406860351562 876.4881591796875 1874.09765625 876.4881591796875 Z" stroke="none" fill="#111"/>
    </g>
    <g id="Path_86" data-name="Path 86" transform="translate(692 242)" fill="#d72c58" stroke-linecap="round">
      <path d="M 44.32278823852539 24.14343643188477 L 42.342529296875 24.14343643188477 L 1.038328289985657 24.14343643188477 L -0.9999516606330872 24.14343643188477 L -0.9613116979598999 22.10552787780762 C -0.9573116898536682 21.89466667175293 -0.8303316831588745 16.88296699523926 2.045388221740723 11.79826736450195 C 3.758248329162598 8.76967716217041 6.087298393249512 6.337057113647461 8.967838287353516 4.567987442016602 C 12.51253795623779 2.391017198562622 16.87271881103516 1.242797255516052 21.92726898193359 1.155207276344299 C 22.12509918212891 1.151777267456055 22.32455825805664 1.150037288665771 22.52009773254395 1.150037288665771 C 29.1551685333252 1.150037288665771 34.45671844482422 3.106637239456177 38.2774772644043 6.965487480163574 C 44.36155700683594 13.11019706726074 44.3460693359375 21.79650688171387 44.34243011474609 22.16326713562012 L 44.32278823852539 24.14343643188477 Z" stroke="none"/>
      <path d="M 22.52009582519531 3.150041580200195 C 22.3364429473877 3.150041580200195 22.14898872375488 3.151664733886719 21.96191787719727 3.1549072265625 C 1.391597747802734 3.511346817016602 1.038330078125 22.14343643188477 1.038330078125 22.14343643188477 L 42.342529296875 22.14343643188477 C 42.342529296875 22.14343643188477 42.53089141845703 3.150041580200195 22.52009582519531 3.150041580200195 M 22.52009773254395 -0.8499622344970703 C 26.26637840270996 -0.8499622344970703 29.67605972290039 -0.2499732971191406 32.65443801879883 0.9333572387695312 C 35.35073852539062 2.004608154296875 37.72075653076172 3.560657501220703 39.69868850708008 5.558298110961914 C 41.26778793334961 7.143037796020508 42.59439849853516 9.011297225952148 43.64164733886719 11.11117744445801 C 44.45890808105469 12.74988746643066 45.10792922973633 14.53225708007812 45.57069778442383 16.40875625610352 C 46.34518814086914 19.54931640625 46.34490966796875 21.92280769348145 46.34232711791992 22.18310737609863 L 46.30305862426758 26.14343643188477 L 42.342529296875 26.14343643188477 L 1.038330078125 26.14343643188477 L -3.038230895996094 26.14343643188477 L -2.960952758789062 22.06760787963867 C -2.957992553710938 21.91133689880371 -2.920040130615234 20.48171615600586 -2.505622863769531 18.43339729309082 C -1.951511383056641 15.6945972442627 -1.00604248046875 13.13096714019775 0.3045196533203125 10.81369686126709 C 2.186046600341797 7.486867904663086 4.748668670654297 4.812107086181641 7.921176910400391 2.863727569580078 C 11.77485847473145 0.4969978332519531 16.47552871704102 -0.7506217956542969 21.89261817932129 -0.8444919586181641 C 22.10220909118652 -0.8481235504150391 22.31330871582031 -0.8499622344970703 22.52009773254395 -0.8499622344970703 Z" stroke="none" fill="#111"/>
    </g>
    <path id="Path_87" data-name="Path 87" d="M2387.76,877.827h62.646" transform="translate(-1695.924 -612)" fill="none" stroke="#111" stroke-linecap="round" stroke-width="4"/>
  </g>
</svg>
