<svg width="145" height="145" viewBox="0 0 145 145" fill="none" xmlns="http://www.w3.org/2000/svg">
<path d="M96.6667 137.569C82.7967 142.714 67.6463 143.299 53.4213 139.236C39.1962 135.174 26.6391 126.677 17.5781 114.983C8.51715 103.289 3.42532 89.0079 3.04393 74.2191C2.66255 59.4302 7.01154 44.9057 15.4577 32.7601C23.9039 20.6145 36.0064 11.4818 50.0031 6.69172C63.9999 1.90161 79.1602 1.70414 93.277 6.12805C107.394 10.552 119.73 19.3663 128.49 31.2878C137.249 43.2093 141.975 57.6156 141.979 72.4093C141.979 74.4696 141.889 76.5116 141.713 78.5235" stroke="black" stroke-width="2.5" stroke-linecap="round" stroke-linejoin="round"/>
<path d="M4.06607 60.3268H40.8236C43.2042 60.3258 45.5617 60.7937 47.7614 61.7038C49.9612 62.614 51.9601 63.9486 53.644 65.6314L60.4167 72.4041C63.6866 75.6731 65.5836 80.068 65.7195 84.6897C65.8554 89.3113 64.2199 93.8102 61.1477 97.2656L52.9129 106.527C49.9634 109.845 48.3339 114.129 48.3334 118.569V137.57" stroke="black" stroke-width="2.5" stroke-linecap="round" stroke-linejoin="round"/>
<path d="M122.41 24.0768H87.3685C83.7633 24.0768 80.3056 25.509 77.7563 28.0584C75.207 30.6077 73.7748 34.0653 73.7748 37.6706C73.7748 41.2759 75.207 44.7335 77.7563 47.2828C80.3056 49.8322 83.7633 51.2643 87.3685 51.2643H89.9785C92.9659 51.2599 95.908 51.9939 98.5431 53.4011C101.178 54.8083 103.425 56.845 105.083 59.33L111.928 69.6008" stroke="black" stroke-width="2.5" stroke-linecap="round" stroke-linejoin="round"/>
<path d="M141.979 105.639C141.979 120.744 117.812 141.889 117.812 141.889C117.812 141.889 93.6458 120.744 93.6458 105.639C93.6458 99.23 96.192 93.0831 100.724 88.551C105.256 84.0188 111.403 81.4727 117.812 81.4727C124.222 81.4727 130.369 84.0188 134.901 88.551C139.433 93.0831 141.979 99.23 141.979 105.639Z" fill="#EC96AA" stroke="black" stroke-width="2.5" stroke-linecap="round" stroke-linejoin="round"/>
<path d="M117.812 104.129C118.011 104.128 118.208 104.167 118.391 104.242C118.575 104.318 118.742 104.429 118.882 104.57C119.023 104.71 119.134 104.877 119.21 105.06C119.285 105.244 119.324 105.441 119.323 105.639" stroke="black" stroke-width="2.5" stroke-linecap="round" stroke-linejoin="round"/>
<path d="M116.302 105.639C116.301 105.441 116.34 105.244 116.415 105.06C116.491 104.877 116.602 104.71 116.743 104.57C116.883 104.429 117.05 104.318 117.234 104.242C117.417 104.167 117.614 104.128 117.813 104.129" stroke="black" stroke-width="2.5" stroke-linecap="round" stroke-linejoin="round"/>
<path d="M117.812 107.15C117.412 107.15 117.028 106.991 116.744 106.707C116.461 106.424 116.302 106.04 116.302 105.639" stroke="black" stroke-width="2.5" stroke-linecap="round" stroke-linejoin="round"/>
<path d="M119.323 105.639C119.323 106.04 119.164 106.424 118.881 106.707C118.597 106.991 118.213 107.15 117.812 107.15" stroke="black" stroke-width="2.5" stroke-linecap="round" stroke-linejoin="round"/>
</svg>
