<svg width="24" height="24" viewBox="0 0 24 24" fill="none" xmlns="http://www.w3.org/2000/svg">
<path d="M23.1192 19.9998L13.7722 2.1498C13.6028 1.82654 13.3481 1.55579 13.0359 1.36689C12.7236 1.17799 12.3656 1.07813 12.0007 1.07812C11.6357 1.07813 11.2777 1.17799 10.9654 1.36689C10.6532 1.55579 10.3986 1.82654 10.2292 2.1498L0.881162 19.9998C0.721483 20.3046 0.643166 20.6455 0.653785 20.9895C0.664403 21.3335 0.763598 21.6689 0.941777 21.9633C1.11996 22.2577 1.37109 22.5012 1.67089 22.6702C1.9707 22.8391 2.30903 22.9279 2.65316 22.9278H21.3472C21.6913 22.9279 22.0296 22.8391 22.3294 22.6702C22.6292 22.5012 22.8804 22.2577 23.0585 21.9633C23.2367 21.6689 23.3359 21.3335 23.3465 20.9895C23.3572 20.6455 23.2788 20.3046 23.1192 19.9998ZM11.0002 8.4228C11.0002 8.15758 11.1055 7.90323 11.2931 7.71569C11.4806 7.52816 11.7349 7.4228 12.0002 7.4228C12.2654 7.4228 12.5197 7.52816 12.7073 7.71569C12.8948 7.90323 13.0002 8.15758 13.0002 8.4228V14.4228C13.0002 14.688 12.8948 14.9424 12.7073 15.1299C12.5197 15.3174 12.2654 15.4228 12.0002 15.4228C11.7349 15.4228 11.4806 15.3174 11.2931 15.1299C11.1055 14.9424 11.0002 14.688 11.0002 14.4228V8.4228ZM12.0502 19.9328H12.0222C11.6278 19.9315 11.2492 19.7778 10.9655 19.5039C10.6819 19.2299 10.5151 18.8569 10.5002 18.4628C10.493 18.2668 10.5249 18.0713 10.5941 17.8878C10.6633 17.7043 10.7683 17.5364 10.9031 17.394C11.038 17.2515 11.1998 17.1374 11.3792 17.0582C11.5587 16.979 11.7521 16.9364 11.9482 16.9328H11.9762C12.3704 16.9333 12.7493 17.0862 13.0333 17.3597C13.3174 17.6331 13.4847 18.0058 13.5002 18.3998C13.5079 18.5962 13.4763 18.7922 13.4072 18.9763C13.3382 19.1604 13.233 19.3287 13.0979 19.4716C12.9628 19.6144 12.8005 19.7288 12.6206 19.808C12.4407 19.8872 12.2467 19.9296 12.0502 19.9328Z" fill="#D82037"/>
</svg>
