<svg width="145" height="145" viewBox="0 0 145 145" fill="none" xmlns="http://www.w3.org/2000/svg">
<path d="M78.5417 33.2292C86.8835 33.2292 93.6458 26.4668 93.6458 18.125C93.6458 9.7832 86.8835 3.02084 78.5417 3.02084C70.1999 3.02084 63.4375 9.7832 63.4375 18.125C63.4375 26.4668 70.1999 33.2292 78.5417 33.2292Z" stroke="black" stroke-width="2.5" stroke-linecap="round" stroke-linejoin="round"/>
<path d="M81.5625 132.917V102.708" stroke="black" stroke-width="2.5" stroke-linecap="round" stroke-linejoin="round"/>
<path d="M52.9251 82.5352L59.003 67.4613C59.1547 67.0335 59.4123 66.651 59.7516 66.3496C60.091 66.0482 60.5012 65.8377 60.9439 65.7375C61.3866 65.6374 61.8475 65.651 62.2835 65.777C62.7196 65.9031 63.1166 66.1375 63.4376 66.4583V132.917C63.4376 135.32 64.3924 137.625 66.092 139.325C67.7915 141.024 70.0966 141.979 72.5001 141.979C74.9036 141.979 77.2087 141.024 78.9083 139.325C80.6078 137.625 81.5626 135.32 81.5626 132.917C81.5626 135.32 82.5174 137.625 84.217 139.325C85.9165 141.024 88.2216 141.979 90.6251 141.979C93.0286 141.979 95.3337 141.024 97.0333 139.325C98.7328 137.625 99.6876 135.32 99.6876 132.917V96.6667C99.6876 99.0702 100.642 101.375 102.342 103.075C104.042 104.774 106.347 105.729 108.75 105.729C111.154 105.729 113.459 104.774 115.158 103.075C116.858 101.375 117.813 99.0702 117.813 96.6667V63.4375C117.813 58.6305 115.903 54.0203 112.504 50.6212C109.105 47.2221 104.495 45.3125 99.6876 45.3125H60.9364C57.2384 45.3122 53.6288 46.443 50.592 48.5532C47.5552 50.6634 45.2366 53.652 43.9472 57.1179L35.7124 76.9044" stroke="black" stroke-width="2.5" stroke-linecap="round" stroke-linejoin="round"/>
<path d="M27.1875 141.979V96.6667C27.1875 94.2631 28.1423 91.9581 29.8418 90.2585C31.5414 88.559 33.8465 87.6042 36.25 87.6042V87.6042C38.6535 87.6042 40.9586 88.559 42.6582 90.2585C44.3577 91.9581 45.3125 94.2631 45.3125 96.6667V99.6875" stroke="#00CE86" stroke-width="2.5" stroke-linecap="round" stroke-linejoin="round"/>
</svg>
