<svg width="24" height="24" viewBox="0 0 24 24" fill="none" xmlns="http://www.w3.org/2000/svg">
<g clip-path="url(#clip0)">
<path d="M21.5 5C21.5 4.46957 21.2893 3.96086 20.9142 3.58579C20.5391 3.21071 20.0304 3 19.5 3H16.75C16.6837 3 16.6201 3.02634 16.5732 3.07322C16.5263 3.12011 16.5 3.1837 16.5 3.25V4.75C16.5 4.8163 16.5263 4.87989 16.5732 4.92678C16.6201 4.97366 16.6837 5 16.75 5H19C19.1326 5 19.2598 5.05268 19.3536 5.14645C19.4473 5.24021 19.5 5.36739 19.5 5.5V13.607C19.5 13.6733 19.4737 13.7369 19.4268 13.7838C19.3799 13.8307 19.3163 13.857 19.25 13.857H17.45C17.1156 13.8703 16.7942 13.9899 16.5324 14.1983C16.2705 14.4067 16.082 14.6931 15.994 15.016L15.968 15.094C15.9506 15.1466 15.9162 15.1919 15.8703 15.2229C15.8243 15.2538 15.7694 15.2686 15.7141 15.265C15.6588 15.2613 15.6063 15.2394 15.5649 15.2026C15.5234 15.1659 15.4953 15.1164 15.485 15.062L14.516 9.935C14.4721 9.58782 14.3195 9.26343 14.0801 9.0082C13.8407 8.75298 13.5267 8.58 13.183 8.514C12.8169 8.47903 12.4502 8.57497 12.1481 8.78479C11.846 8.9946 11.6281 9.3047 11.533 9.66L10.371 13.173C10.3548 13.2208 10.3246 13.2627 10.2843 13.2931C10.244 13.3235 10.1954 13.341 10.145 13.3434C10.0946 13.3458 10.0446 13.3329 10.0016 13.3064C9.9586 13.2799 9.92458 13.2411 9.904 13.195L9.393 12.035C9.28733 11.7626 9.10617 11.526 8.87077 11.353C8.63537 11.1799 8.3555 11.0776 8.064 11.058C7.76687 11.0526 7.47476 11.1351 7.22441 11.2952C6.97406 11.4554 6.77665 11.686 6.657 11.958L5.782 13.721C5.76132 13.7627 5.72939 13.7979 5.68981 13.8224C5.65023 13.847 5.60458 13.86 5.558 13.86H4.75C4.6837 13.86 4.62011 13.8337 4.57322 13.7868C4.52634 13.7399 4.5 13.6763 4.5 13.61V5.5C4.5 5.36739 4.55268 5.24021 4.64645 5.14645C4.74021 5.05268 4.86739 5 5 5H7.25C7.3163 5 7.37989 4.97366 7.42678 4.92678C7.47366 4.87989 7.5 4.8163 7.5 4.75V3.25C7.5 3.1837 7.47366 3.12011 7.42678 3.07322C7.37989 3.02634 7.3163 3 7.25 3H4.5C3.96957 3 3.46086 3.21071 3.08579 3.58579C2.71071 3.96086 2.5 4.46957 2.5 5V22C2.5 22.5304 2.71071 23.0391 3.08579 23.4142C3.46086 23.7893 3.96957 24 4.5 24H19.5C20.0304 24 20.5391 23.7893 20.9142 23.4142C21.2893 23.0391 21.5 22.5304 21.5 22V5ZM19 22H5C4.86739 22 4.74021 21.9473 4.64645 21.8536C4.55268 21.7598 4.5 21.6326 4.5 21.5V16.106C4.5 16.0397 4.52634 15.9761 4.57322 15.9292C4.62011 15.8823 4.6837 15.856 4.75 15.856H6.05C6.33714 15.8497 6.61655 15.7617 6.85547 15.6023C7.09439 15.4429 7.28293 15.2187 7.399 14.956L7.98 13.786L8.844 15.745C8.96052 16.0472 9.17053 16.3043 9.44341 16.4788C9.7163 16.6533 10.0378 16.736 10.361 16.715C10.6705 16.674 10.9611 16.543 11.1967 16.3382C11.4323 16.1333 11.6024 15.8638 11.686 15.563L12.566 12.904C12.5834 12.8514 12.6178 12.8061 12.6637 12.7751C12.7097 12.7442 12.7646 12.7294 12.8199 12.733C12.8752 12.7367 12.9277 12.7586 12.9691 12.7954C13.0106 12.8321 13.0387 12.8816 13.049 12.936L14.018 18.063C14.0616 18.4104 14.214 18.7351 14.4535 18.9906C14.6929 19.246 15.0071 19.4191 15.351 19.485C15.415 19.4938 15.4794 19.4981 15.544 19.498C15.878 19.4838 16.1989 19.3641 16.4605 19.156C16.7221 18.9479 16.911 18.6622 17 18.34L17.766 16.027C17.7824 15.9777 17.8138 15.9348 17.8557 15.9041C17.8976 15.8735 17.9481 15.8567 18 15.856H19.25C19.3163 15.856 19.3799 15.8823 19.4268 15.9292C19.4737 15.9761 19.5 16.0397 19.5 16.106V21.5C19.5 21.6326 19.4473 21.7598 19.3536 21.8536C19.2598 21.9473 19.1326 22 19 22Z" fill="black"/>
<path d="M10 6.50005H14C14.2652 6.50005 14.5196 6.39469 14.7071 6.20715C14.8947 6.01962 15 5.76526 15 5.50005V3.00005C14.9988 2.53741 14.8909 2.08128 14.6847 1.66712C14.4786 1.25296 14.1797 0.891913 13.8113 0.612044C13.4429 0.332175 13.015 0.14102 12.5607 0.0534363C12.1064 -0.0341477 11.6381 -0.0158021 11.192 0.107047C10.5503 0.294372 9.98796 0.687629 9.59182 1.22617C9.19569 1.76471 8.98773 2.41862 9.00003 3.08705V5.50005C9.00003 5.76526 9.10538 6.01962 9.29292 6.20715C9.48046 6.39469 9.73481 6.50005 10 6.50005ZM12 2.00005C12.1484 2.00005 12.2934 2.04403 12.4167 2.12645C12.54 2.20886 12.6362 2.32599 12.6929 2.46303C12.7497 2.60008 12.7646 2.75088 12.7356 2.89636C12.7067 3.04185 12.6352 3.17549 12.5304 3.28038C12.4255 3.38527 12.2918 3.4567 12.1463 3.48564C12.0009 3.51458 11.8501 3.49972 11.713 3.44296C11.576 3.38619 11.4588 3.29006 11.3764 3.16672C11.294 3.04339 11.25 2.89838 11.25 2.75005C11.25 2.55113 11.329 2.36037 11.4697 2.21972C11.6103 2.07906 11.8011 2.00005 12 2.00005Z" fill="black"/>
</g>
<defs>
<clipPath id="clip0">
<path d="M0 0H24V24H0V0Z" fill="white"/>
</clipPath>
</defs>
</svg>
