<svg width="145" height="145" viewBox="0 0 145 145" fill="none" xmlns="http://www.w3.org/2000/svg">
<path d="M135.938 39.2708V111.771C135.928 114.973 134.652 118.04 132.388 120.304C130.124 122.568 127.056 123.845 123.854 123.854H81.5625C78.3608 123.845 75.2929 122.568 73.0289 120.304C70.7649 118.04 69.4887 114.973 69.4792 111.771V39.2708" stroke="black" stroke-width="2.5" stroke-linecap="round" stroke-linejoin="round"/>
<path d="M141.979 36.25C141.979 37.0512 141.661 37.8195 141.094 38.386C140.528 38.9526 139.76 39.2708 138.958 39.2708H66.4583C65.6572 39.2708 64.8888 38.9526 64.3223 38.386C63.7558 37.8195 63.4375 37.0512 63.4375 36.25V30.2083C63.4375 27.8048 64.3923 25.4997 66.0918 23.8002C67.7914 22.1006 70.0965 21.1458 72.5 21.1458H132.917C135.32 21.1458 137.625 22.1006 139.325 23.8002C141.024 25.4997 141.979 27.8048 141.979 30.2083V36.25Z" stroke="black" stroke-width="2.5" stroke-linecap="round" stroke-linejoin="round"/>
<path d="M135.937 99.6875H96.6666C95.8655 99.6875 95.0971 99.3692 94.5306 98.8027C93.9641 98.2362 93.6458 97.4678 93.6458 96.6667V60.4167C93.6458 59.6155 93.9641 58.8471 94.5306 58.2806C95.0971 57.7141 95.8655 57.3958 96.6666 57.3958H135.937V99.6875Z" fill="#D5F5FD" stroke="black" stroke-width="2.5" stroke-linecap="round" stroke-linejoin="round"/>
<path d="M51.3542 114.792C51.3542 117.195 50.3994 119.5 48.6998 121.2C47.0003 122.899 44.6952 123.854 42.2917 123.854H12.0833C9.67982 123.854 7.37474 122.899 5.67519 121.2C3.97564 119.5 3.02084 117.195 3.02084 114.792C3.02084 112.388 3.97564 110.083 5.67519 108.384C7.37474 106.684 9.67982 105.729 12.0833 105.729H42.2917C44.6952 105.729 47.0003 106.684 48.6998 108.384C50.3994 110.083 51.3542 112.388 51.3542 114.792Z" fill="#EC96AA" stroke="black" stroke-width="2.5" stroke-linecap="round" stroke-linejoin="round"/>
<path d="M27.1875 105.729V123.854" stroke="black" stroke-width="2.5" stroke-linecap="round" stroke-linejoin="round"/>
<path d="M54.977 63.0717C56.676 64.7712 57.6304 67.0759 57.6304 69.4789C57.6304 71.882 56.676 74.1866 54.977 75.8861L33.5895 97.2676C31.8803 98.9184 29.5911 99.8318 27.215 99.8112C24.8388 99.7905 22.5658 98.8374 20.8855 97.1572C19.2053 95.4769 18.2522 93.2039 18.2315 90.8278C18.2109 88.4516 19.1243 86.1624 20.7752 84.4532L42.1385 63.0717C42.9804 62.2269 43.9809 61.5565 45.0824 61.0991C46.184 60.6417 47.365 60.4062 48.5578 60.4062C49.7505 60.4062 50.9315 60.6417 52.0331 61.0991C53.1347 61.5565 54.1351 62.2269 54.977 63.0717Z" fill="#D42E56" stroke="black" stroke-width="2.5" stroke-linecap="round" stroke-linejoin="round"/>
<path d="M31.4591 73.7508L44.2735 86.5652" stroke="black" stroke-width="2.5" stroke-linecap="round" stroke-linejoin="round"/>
</svg>
