<svg width="145" height="145" viewBox="0 0 145 145" fill="none" xmlns="http://www.w3.org/2000/svg">
<path d="M87.6013 60.4172C87.6013 60.4172 129.76 81.5631 135.935 84.5839C140.937 87.0368 140.466 102.709 129.893 102.709C121.839 102.709 93.1415 82.2941 85.4142 69.8906" fill="#D5F5FD"/>
<path d="M87.6013 60.4172C87.6013 60.4172 129.76 81.5631 135.935 84.5839C140.937 87.0368 140.466 102.709 129.893 102.709C121.839 102.709 93.1415 82.2941 85.4142 69.8906" stroke="black" stroke-width="2.5" stroke-linecap="round" stroke-linejoin="round"/>
<path d="M57.3971 60.4172C57.3971 60.4172 15.2323 81.5631 9.06373 84.5839C4.06123 87.0368 4.53248 102.709 15.1054 102.709C23.1589 102.709 51.8508 82.2941 59.5841 69.8906" fill="#D5F5FD"/>
<path d="M57.3971 60.4172C57.3971 60.4172 15.2323 81.5631 9.06373 84.5839C4.06123 87.0368 4.53248 102.709 15.1054 102.709C23.1589 102.709 51.8508 82.2941 59.5841 69.8906" stroke="black" stroke-width="2.5" stroke-linecap="round" stroke-linejoin="round"/>
<path d="M78.542 79.3124V132.92C78.542 136.255 75.8354 141.983 72.5004 141.983C69.1653 141.983 66.4587 136.255 66.4587 132.92V79.3064" fill="#6AC7FA"/>
<path d="M78.542 79.3124V132.92C78.542 136.255 75.8354 141.983 72.5004 141.983C69.1653 141.983 66.4587 136.255 66.4587 132.92V79.3064" stroke="black" stroke-width="2.5" stroke-linecap="round" stroke-linejoin="round"/>
<path d="M87.6045 60.4167C87.6045 68.7602 80.8439 81.5625 72.5003 81.5625C64.1568 81.5625 57.3962 68.7542 57.3962 60.4167C57.3962 56.4108 58.9875 52.569 61.8201 49.7364C64.6527 46.9038 68.4945 45.3125 72.5003 45.3125C76.5062 45.3125 80.348 46.9038 83.1806 49.7364C86.0132 52.569 87.6045 56.4108 87.6045 60.4167Z" fill="#6AC7FA" stroke="black" stroke-width="2.5" stroke-linecap="round" stroke-linejoin="round"/>
<path d="M66.4587 46.629V39.2703" stroke="black" stroke-width="2.5" stroke-linecap="round" stroke-linejoin="round"/>
<path d="M78.5413 46.629V39.2703" stroke="black" stroke-width="2.5" stroke-linecap="round" stroke-linejoin="round"/>
<path d="M66.4587 39.2714C66.4587 37.6691 67.0952 36.1323 68.2282 34.9993C69.3613 33.8663 70.898 33.2297 72.5004 33.2297C74.1027 33.2297 75.6394 33.8663 76.7725 34.9993C77.9055 36.1323 78.542 37.6691 78.542 39.2714" stroke="black" stroke-width="2.5" stroke-linecap="round" stroke-linejoin="round"/>
<path d="M72.5 33.2286V3.02026" stroke="black" stroke-width="2.5" stroke-linecap="round" stroke-linejoin="round"/>
<path d="M66.4587 99.6875H78.542" stroke="black" stroke-width="2.5" stroke-linecap="round" stroke-linejoin="round"/>
<path d="M66.4587 117.812H78.542" stroke="black" stroke-width="2.5" stroke-linecap="round" stroke-linejoin="round"/>
<path d="M93.6462 42.2911C93.6462 42.2911 99.6878 12.0828 138.959 12.0828" stroke="black" stroke-width="2.5" stroke-linecap="round" stroke-linejoin="round"/>
<path d="M51.3538 42.2911C51.3538 42.2911 45.3122 12.0828 6.04132 12.0828" stroke="black" stroke-width="2.5" stroke-linecap="round" stroke-linejoin="round"/>
<path d="M54.3162 102.708L24.1079 123.854" stroke="black" stroke-width="2.5" stroke-linecap="round" stroke-linejoin="round"/>
<path d="M54.312 120.833L36.3441 133.412" stroke="black" stroke-width="2.5" stroke-linecap="round" stroke-linejoin="round"/>
<path d="M96.6079 102.708L126.816 123.854" stroke="black" stroke-width="2.5" stroke-linecap="round" stroke-linejoin="round"/>
<path d="M96.6079 120.833L114.576 133.412" stroke="black" stroke-width="2.5" stroke-linecap="round" stroke-linejoin="round"/>
</svg>
