<svg width="24" height="24" viewBox="0 0 24 24" fill="none" xmlns="http://www.w3.org/2000/svg">
<g clip-path="url(#clip0)">
<path d="M5 13.5C6.10457 13.5 7 12.6046 7 11.5C7 10.3954 6.10457 9.5 5 9.5C3.89543 9.5 3 10.3954 3 11.5C3 12.6046 3.89543 13.5 5 13.5Z" fill="black"/>
<path d="M9 13.4999H19.667C19.8275 13.4999 19.9847 13.4535 20.1195 13.3663C20.2543 13.2791 20.361 13.1549 20.4268 13.0084C20.4926 12.862 20.5147 12.6997 20.4905 12.541C20.4662 12.3823 20.3966 12.234 20.29 12.1139C18.233 9.79991 14.1 8.37191 9.309 8.50991C9.09243 8.51615 8.88682 8.60653 8.73578 8.76186C8.58475 8.91719 8.50017 9.12526 8.5 9.34191V12.9999C8.5 13.1325 8.55268 13.2597 8.64645 13.3535C8.74021 13.4472 8.86739 13.4999 9 13.4999Z" fill="black"/>
<path d="M23 7.75C22.7348 7.75 22.4804 7.85536 22.2929 8.04289C22.1054 8.23043 22 8.48478 22 8.75V14.25C22 14.3826 21.9473 14.5098 21.8536 14.6036C21.7598 14.6973 21.6326 14.75 21.5 14.75H2.5C2.36739 14.75 2.24021 14.6973 2.14645 14.6036C2.05268 14.5098 2 14.3826 2 14.25V5.75C2 5.48478 1.89464 5.23043 1.70711 5.04289C1.51957 4.85536 1.26522 4.75 1 4.75C0.734784 4.75 0.48043 4.85536 0.292893 5.04289C0.105357 5.23043 0 5.48478 0 5.75L0 18.25C0 18.5152 0.105357 18.7696 0.292893 18.9571C0.48043 19.1446 0.734784 19.25 1 19.25C1.26522 19.25 1.51957 19.1446 1.70711 18.9571C1.89464 18.7696 2 18.5152 2 18.25V17.25C2 17.1174 2.05268 16.9902 2.14645 16.8964C2.24021 16.8027 2.36739 16.75 2.5 16.75H21.5C21.6326 16.75 21.7598 16.8027 21.8536 16.8964C21.9473 16.9902 22 17.1174 22 17.25V18.25C22 18.5152 22.1054 18.7696 22.2929 18.9571C22.4804 19.1446 22.7348 19.25 23 19.25C23.2652 19.25 23.5196 19.1446 23.7071 18.9571C23.8946 18.7696 24 18.5152 24 18.25V8.75C24 8.48478 23.8946 8.23043 23.7071 8.04289C23.5196 7.85536 23.2652 7.75 23 7.75Z" fill="black"/>
</g>
<defs>
<clipPath id="clip0">
<path d="M0 0H24V24H0V0Z" fill="white"/>
</clipPath>
</defs>
</svg>
