<svg width="24" height="24" viewBox="0 0 24 24" fill="none" xmlns="http://www.w3.org/2000/svg">
<path d="M19.5263 4C20.065 4 20.5916 4.16128 21.0395 4.46346C21.4874 4.76563 21.8365 5.19512 22.0427 5.69762C22.2488 6.20012 22.3028 6.75305 22.1977 7.2865C22.0926 7.81995 21.8332 8.30995 21.4523 8.69454C21.0713 9.07914 20.586 9.34105 20.0577 9.44716C19.5293 9.55327 18.9817 9.49881 18.484 9.29067C17.9863 9.08253 17.5609 8.73005 17.2617 8.27782C16.9624 7.82558 16.8026 7.2939 16.8026 6.75C16.8036 6.02095 17.0909 5.32204 17.6014 4.80653C18.112 4.29101 18.8042 4.00097 19.5263 4ZM4.63158 4C5.17027 4 5.69687 4.16128 6.14478 4.46346C6.59268 4.76563 6.94179 5.19512 7.14793 5.69762C7.35408 6.20012 7.40802 6.75305 7.30293 7.2865C7.19783 7.81995 6.93843 8.30995 6.55751 8.69454C6.1766 9.07914 5.69129 9.34105 5.16294 9.44716C4.6346 9.55327 4.08696 9.49881 3.58927 9.29067C3.09158 9.08253 2.6662 8.73005 2.36692 8.27782C2.06764 7.82558 1.90789 7.2939 1.90789 6.75C1.90886 6.02095 2.19612 5.32204 2.7067 4.80653C3.21729 4.29101 3.90951 4.00097 4.63158 4ZM8.26316 16.2222C8.26316 16.3843 8.19939 16.5397 8.08588 16.6543C7.97237 16.7689 7.81842 16.8333 7.6579 16.8333H7.21363C7.0653 16.8322 6.92171 16.8861 6.81014 16.9847C6.69856 17.0834 6.62676 17.2201 6.60837 17.3687L6.13505 21.1881C6.11639 21.3365 6.04447 21.4728 5.93292 21.5713C5.82137 21.6697 5.67794 21.7234 5.52979 21.7222H3.72368C3.57554 21.7234 3.4321 21.6697 3.32055 21.5713C3.209 21.4728 3.13708 21.3365 3.11842 21.1881L2.64511 17.3687C2.62672 17.2201 2.55492 17.0834 2.44334 16.9847C2.33176 16.8861 2.18817 16.8322 2.03984 16.8333H1.60526C1.44474 16.8333 1.29079 16.7689 1.17728 16.6543C1.06377 16.5397 1 16.3843 1 16.2222V14.3889C1 13.4164 1.38261 12.4838 2.06366 11.7962C2.74472 11.1085 3.66842 10.7222 4.63158 10.7222C5.59473 10.7222 6.51844 11.1085 7.19949 11.7962C7.88055 12.4838 8.26316 13.4164 8.26316 14.3889V16.2222ZM23.1579 16.2222C23.1579 16.3843 23.0941 16.5397 22.9806 16.6543C22.8671 16.7689 22.7132 16.8333 22.5526 16.8333H22.1084C21.96 16.8322 21.8165 16.8861 21.7049 16.9847C21.5933 17.0834 21.5215 17.2201 21.5031 17.3687L21.0298 21.1881C21.0111 21.3365 20.9392 21.4728 20.8277 21.5713C20.7161 21.6697 20.5727 21.7234 20.4245 21.7222H18.6087C18.4606 21.7234 18.3172 21.6697 18.2056 21.5713C18.0941 21.4728 18.0221 21.3365 18.0035 21.1881L17.5302 17.3687C17.5118 17.2201 17.44 17.0834 17.3284 16.9847C17.2168 16.8861 17.0732 16.8322 16.9249 16.8333H16.5C16.3395 16.8333 16.1855 16.7689 16.072 16.6543C15.9585 16.5397 15.8947 16.3843 15.8947 16.2222V14.3889C15.8947 13.4164 16.2773 12.4838 16.9584 11.7962C17.6395 11.1085 18.5632 10.7222 19.5263 10.7222C20.4895 10.7222 21.4132 11.1085 22.0942 11.7962C22.7753 12.4838 23.1579 13.4164 23.1579 14.3889V16.2222Z" fill="black"/>
</svg>
