<svg width="24" height="24" viewBox="0 0 24 24" fill="none" xmlns="http://www.w3.org/2000/svg">
<path d="M13.75 7.2439C13.75 6.77977 13.5656 6.33465 13.2374 6.00646C12.9092 5.67827 12.4641 5.4939 12 5.4939C11.5359 5.4939 11.0908 5.67827 10.7626 6.00646C10.4344 6.33465 10.25 6.77977 10.25 7.2439V8.7439C10.25 8.8102 10.2763 8.87379 10.3232 8.92067C10.3701 8.96756 10.4337 8.9939 10.5 8.9939H13.5C13.5663 8.9939 13.6299 8.96756 13.6768 8.92067C13.7237 8.87379 13.75 8.8102 13.75 8.7439V7.2439Z" fill="#008DC9"/>
<path d="M24 1.9531C23.9968 1.43597 23.7893 0.941072 23.4227 0.576337C23.0561 0.211601 22.5601 0.00662178 22.043 0.00610352H1.959C1.44144 0.00901112 0.946087 0.21672 0.581238 0.583818C0.216389 0.950915 0.0117275 1.44754 0.012 1.9651L0 9.3061C0.0262416 12.7325 1.2136 16.0487 3.36812 18.7131C5.52264 21.3774 8.51697 23.2324 11.862 23.9751C11.9259 23.9879 11.9909 23.9943 12.056 23.9941C12.1232 23.9938 12.1902 23.9868 12.256 23.9731C15.5943 23.2009 18.5721 21.3196 20.703 18.6363C22.8339 15.9531 23.992 12.6266 23.988 9.2001L24 1.9531ZM7.5 15.4941V9.9941C7.5 9.72889 7.60536 9.47453 7.79289 9.287C7.98043 9.09946 8.23478 8.9941 8.5 8.9941H8.75V7.2441C8.75 6.38215 9.09241 5.5555 9.7019 4.94601C10.3114 4.33651 11.138 3.9941 12 3.9941C12.862 3.9941 13.6886 4.33651 14.2981 4.94601C14.9076 5.5555 15.25 6.38215 15.25 7.2441V8.9941H15.5C15.7652 8.9941 16.0196 9.09946 16.2071 9.287C16.3946 9.47453 16.5 9.72889 16.5 9.9941V15.4941C16.5 15.7593 16.3946 16.0137 16.2071 16.2012C16.0196 16.3887 15.7652 16.4941 15.5 16.4941H8.5C8.23478 16.4941 7.98043 16.3887 7.79289 16.2012C7.60536 16.0137 7.5 15.7593 7.5 15.4941Z" fill="#008DC9"/>
<path d="M12 14.4939C12.6904 14.4939 13.25 13.9343 13.25 13.2439C13.25 12.5535 12.6904 11.9939 12 11.9939C11.3096 11.9939 10.75 12.5535 10.75 13.2439C10.75 13.9343 11.3096 14.4939 12 14.4939Z" fill="#008DC9"/>
</svg>
