<svg width="145" height="145" viewBox="0 0 145 145" fill="none" xmlns="http://www.w3.org/2000/svg">
<path d="M46.5633 72.8068L52.9735 79.217" stroke="#D42E56" stroke-width="2.5" stroke-linecap="round" stroke-linejoin="round"/>
<path d="M33.7484 85.6218L40.1525 92.0259" stroke="#D42E56" stroke-width="2.5" stroke-linecap="round" stroke-linejoin="round"/>
<path d="M3.02084 141.98L29.4773 115.523" stroke="black" stroke-width="2.5" stroke-linecap="round" stroke-linejoin="round"/>
<path d="M92.3058 52.6915L116.195 28.8027" stroke="black" stroke-width="2.5" stroke-linecap="round" stroke-linejoin="round"/>
<path d="M58.1249 39.8724C56.0129 37.7599 54.5748 35.0685 53.9923 32.1387C53.4099 29.2089 53.7092 26.1722 54.8525 23.4125C55.9958 20.6528 57.9318 18.2941 60.4156 16.6346C62.8993 14.9751 65.8194 14.0894 68.8066 14.0894C71.7937 14.0894 74.7138 14.9751 77.1976 16.6346C79.6814 18.2941 81.6173 20.6528 82.7606 23.4125C83.9039 26.1722 84.2033 29.2089 83.6208 32.1387C83.0383 35.0685 81.6002 37.7599 79.4882 39.8724" stroke="black" stroke-width="2.5" stroke-linecap="round" stroke-linejoin="round"/>
<path d="M105.127 86.8737C107.24 88.9857 109.931 90.4238 112.861 91.0063C115.791 91.5888 118.828 91.2894 121.587 90.1461C124.347 89.0028 126.706 87.0669 128.365 84.5831C130.025 82.0993 130.91 79.1792 130.91 76.1921C130.91 73.2049 130.025 70.2848 128.365 67.8011C126.706 65.3173 124.347 63.3813 121.587 62.238C118.828 61.0947 115.791 60.7954 112.861 61.3778C109.931 61.9603 107.24 63.3984 105.127 65.5104" stroke="black" stroke-width="2.5" stroke-linecap="round" stroke-linejoin="round"/>
<path fill-rule="evenodd" clip-rule="evenodd" d="M80.3725 38.9911C80.1381 38.7567 79.8201 38.625 79.4886 38.625C79.1571 38.625 78.8391 38.7567 78.6047 38.9912L28.5994 89.0025C26.7526 90.7882 25.2793 92.9234 24.2654 95.2839C23.2499 97.6477 22.7155 100.19 22.6931 102.763C22.6708 105.335 23.161 107.887 24.1352 110.268C25.1094 112.649 26.548 114.812 28.3672 116.631C30.1864 118.45 32.3496 119.889 34.7307 120.863C37.1119 121.837 39.6631 122.328 42.2357 122.305C44.8083 122.283 47.3507 121.748 49.7146 120.733C52.075 119.719 54.2103 118.246 55.996 116.399L85.8029 86.5957C85.8352 86.5693 85.8665 86.541 85.8966 86.5109C85.9267 86.4808 85.9549 86.4495 85.9813 86.4173L106.007 66.3937C106.242 66.1593 106.373 65.8414 106.373 65.5098C106.373 65.1783 106.242 64.8603 106.007 64.6259L80.3725 38.9911ZM85.0083 83.8548L103.356 65.5097L79.4887 41.6428L61.1436 59.9901L85.0083 83.8548ZM59.376 61.758L30.3597 90.7778L30.3441 90.7931C28.7324 92.3497 27.4468 94.2118 26.5624 96.2706C25.678 98.3294 25.2125 100.544 25.193 102.784C25.1735 105.025 25.6005 107.247 26.449 109.321C27.2975 111.395 28.5505 113.279 30.135 114.863C31.7194 116.448 33.6035 117.701 35.6774 118.549C37.7513 119.398 39.9734 119.825 42.214 119.805C44.4547 119.786 46.669 119.32 48.7278 118.436C50.7866 117.552 52.6487 116.266 54.2054 114.654L54.2207 114.639L83.2405 85.6225L59.376 61.758Z" fill="black"/>
<path d="M126.875 33.2291C135.217 33.2291 141.979 26.4668 141.979 18.125C141.979 9.78318 135.217 3.02081 126.875 3.02081C118.533 3.02081 111.771 9.78318 111.771 18.125C111.771 26.4668 118.533 33.2291 126.875 33.2291Z" stroke="black" stroke-width="2.5" stroke-linecap="round" stroke-linejoin="round"/>
</svg>
