<svg width="145" height="145" viewBox="0 0 145 145" fill="none" xmlns="http://www.w3.org/2000/svg">
<path d="M81.5598 86.2361H138.871C139.284 86.2353 139.692 86.3191 140.071 86.4821C140.449 86.6451 140.791 86.884 141.074 87.184C141.357 87.484 141.575 87.8387 141.716 88.2264C141.857 88.6141 141.917 89.0265 141.892 89.4382C141.075 103.282 135 116.29 124.91 125.802C114.819 135.315 101.475 140.612 87.6076 140.611H57.3992C43.5268 140.613 30.1781 135.313 20.0854 125.795C9.99283 116.278 3.91957 103.263 3.10881 89.414C3.08406 89.0023 3.14388 88.5899 3.28457 88.2022C3.42526 87.8146 3.64385 87.4598 3.92686 87.1598C4.20988 86.8598 4.55132 86.6209 4.93016 86.4579C5.309 86.2949 5.71721 86.2112 6.12964 86.2119H39.2682" stroke="black" stroke-width="2.5" stroke-linecap="round" stroke-linejoin="round"/>
<path d="M104.337 12.9042L109.774 7.46673C111.517 5.91684 113.672 4.90452 115.977 4.55194C118.283 4.19937 120.641 4.52162 122.768 5.47979C124.894 6.43796 126.698 7.99111 127.961 9.95178C129.225 11.9124 129.893 14.1968 129.887 16.5292V86.238" stroke="black" stroke-width="2.5" stroke-linecap="round" stroke-linejoin="round"/>
<path d="M104.338 33.1523C105.691 31.8281 106.767 30.2488 107.506 28.5057C108.244 26.7626 108.63 24.8904 108.64 22.9974C108.65 21.1044 108.285 19.2281 107.566 17.4771C106.846 15.7262 105.786 14.1352 104.448 12.7964C103.11 11.4577 101.519 10.3975 99.7682 9.67745C98.0175 8.95735 96.1413 8.59157 94.2483 8.60126C92.3552 8.61095 90.4829 8.99593 88.7396 9.73391C86.9963 10.4719 85.4167 11.5482 84.0921 12.9007L82.8535 14.1392C82.2872 14.7057 81.9691 15.4739 81.9691 16.2749C81.9691 17.076 82.2872 17.8442 82.8535 18.4107L98.8277 34.3909C99.1083 34.6722 99.4417 34.8954 99.8087 35.0477C100.176 35.2 100.569 35.2784 100.966 35.2784C101.364 35.2784 101.757 35.2 102.124 35.0477C102.491 34.8954 102.825 34.6722 103.105 34.3909L104.338 33.1523Z" stroke="black" stroke-width="2.5" stroke-linecap="round" stroke-linejoin="round"/>
<path d="M81.5625 80.1935C81.5625 78.5912 80.926 77.0545 79.7929 75.9214C78.6599 74.7884 77.1232 74.1519 75.5208 74.1519H45.3125C43.7102 74.1519 42.1734 74.7884 41.0404 75.9214C39.9074 77.0545 39.2708 78.5912 39.2708 80.1935V113.423C39.2708 114.224 39.5891 114.992 40.1556 115.559C40.7221 116.125 41.4905 116.444 42.2917 116.444H78.5417C79.3428 116.444 80.1112 116.125 80.6777 115.559C81.2442 114.992 81.5625 114.224 81.5625 113.423V80.1935Z" fill="#EC96AA" stroke="black" stroke-width="2.5" stroke-linecap="round" stroke-linejoin="round"/>
</svg>
