<svg width="145" height="145" viewBox="0 0 145 145" fill="none" xmlns="http://www.w3.org/2000/svg">
<path d="M34.3315 83.0671C34.6966 83.4215 35.1298 83.6982 35.6049 83.8804C36.08 84.0627 36.5871 84.1467 37.0955 84.1274C37.604 84.1081 38.1033 83.986 38.5632 83.7683C39.0231 83.5506 39.4341 83.242 39.7714 82.861C40.1086 82.48 40.3651 82.0345 40.5254 81.5516C40.6856 81.0687 40.7463 80.5583 40.7037 80.0512C40.6612 79.5442 40.5162 79.051 40.2777 78.6016C40.0391 78.1521 39.7119 77.7557 39.3159 77.4363L28.7671 65.9571C28.4843 65.6505 28.1409 65.4058 27.7588 65.2384C27.3767 65.071 26.964 64.9846 26.5468 64.9846C26.1296 64.9846 25.717 65.071 25.3348 65.2384C24.9527 65.4058 24.6094 65.6505 24.3265 65.9571L13.675 77.4544C13.2898 77.7795 12.9739 78.1787 12.7461 78.6283C12.5184 79.0779 12.3834 79.5688 12.3492 80.0717C12.315 80.5746 12.3823 81.0792 12.5472 81.5555C12.712 82.0318 12.971 82.4701 13.3087 82.8443C13.6464 83.2185 14.0559 83.5209 14.5129 83.7336C14.9698 83.9462 15.4649 84.0648 15.9687 84.0822C16.4724 84.0996 16.9745 84.0155 17.445 83.8349C17.9156 83.6543 18.345 83.3809 18.7078 83.0309L8.5638 95.8573C7.86838 96.5696 7.48438 97.5289 7.49627 98.5243C7.50817 99.5196 7.91499 100.47 8.62723 101.165C9.33948 101.86 10.2988 102.244 11.2942 102.232C12.2895 102.221 13.2394 101.814 13.9348 101.102L5.88129 111.372C5.34518 111.896 4.97781 112.568 4.82639 113.302C4.67497 114.035 4.7464 114.798 5.03151 115.491C5.31662 116.184 5.8024 116.776 6.42643 117.191C7.05047 117.605 7.78427 117.824 8.53359 117.819H44.5721C45.3166 117.818 46.0442 117.596 46.6624 117.181C47.2806 116.766 47.7616 116.177 48.0445 115.489C48.3273 114.8 48.3992 114.043 48.2511 113.313C48.1029 112.583 47.7414 111.914 47.2123 111.39L39.3582 101.168C40.0672 101.869 41.0257 102.26 42.0228 102.254C43.0198 102.248 43.9738 101.847 44.6748 101.138C45.3759 100.429 45.7665 99.4702 45.7609 98.4732C45.7552 97.4761 45.3537 96.5221 44.6446 95.8211L34.3315 83.0671Z" fill="#00CE86" stroke="black" stroke-width="2.5" stroke-linecap="round" stroke-linejoin="round"/>
<path d="M27.1875 117.812V130.675" stroke="black" stroke-width="2.5" stroke-linecap="round" stroke-linejoin="round"/>
<path d="M124.963 46.8171C125.328 47.1715 125.761 47.4482 126.236 47.6304C126.711 47.8127 127.218 47.8967 127.727 47.8774C128.235 47.8581 128.734 47.736 129.194 47.5183C129.654 47.3006 130.065 46.992 130.402 46.611C130.74 46.23 130.996 45.7845 131.156 45.3016C131.317 44.8187 131.377 44.3083 131.335 43.8012C131.292 43.2942 131.147 42.801 130.909 42.3516C130.67 41.9021 130.343 41.5057 129.947 41.1863L119.398 29.7071C119.115 29.4005 118.772 29.1558 118.39 28.9884C118.008 28.821 117.595 28.7346 117.178 28.7346C116.761 28.7346 116.348 28.821 115.966 28.9884C115.584 29.1558 115.24 29.4005 114.958 29.7071L104.306 41.2044C103.921 41.5295 103.605 41.9287 103.377 42.3783C103.149 42.8279 103.014 43.3188 102.98 43.8217C102.946 44.3246 103.013 44.8292 103.178 45.3055C103.343 45.7818 103.602 46.2201 103.94 46.5943C104.277 46.9685 104.687 47.2709 105.144 47.4836C105.601 47.6962 106.096 47.8148 106.6 47.8322C107.103 47.8496 107.606 47.7655 108.076 47.5849C108.547 47.4043 108.976 47.1309 109.339 46.7809L99.1949 59.6073C98.4995 60.3196 98.1155 61.2789 98.1274 62.2743C98.1393 63.2696 98.5461 64.2195 99.2583 64.9149C99.9706 65.6104 100.93 65.9944 101.925 65.9825C102.921 65.9706 103.871 65.5637 104.566 64.8515L96.5124 75.1525C95.9868 75.6777 95.6286 76.347 95.4833 77.0757C95.3379 77.8043 95.4118 78.5598 95.6957 79.2465C95.9795 79.9332 96.4606 80.5203 97.078 80.9336C97.6955 81.347 98.4216 81.568 99.1647 81.5688H135.203C135.948 81.568 136.675 81.3461 137.293 80.9313C137.912 80.5164 138.393 79.9273 138.676 79.2386C138.958 78.5499 139.03 77.7927 138.882 77.0631C138.734 76.3335 138.373 75.6643 137.843 75.1405L129.989 64.918C130.698 65.619 131.657 66.0096 132.654 66.004C133.651 65.9983 134.605 65.5968 135.306 64.8877C136.007 64.1787 136.398 63.2202 136.392 62.2232C136.386 61.2261 135.985 60.2721 135.276 59.5711L124.963 46.8171Z" fill="#00CE86" stroke="black" stroke-width="2.5" stroke-linecap="round" stroke-linejoin="round"/>
<path d="M117.812 81.5625V93.6519" stroke="black" stroke-width="2.5" stroke-linecap="round" stroke-linejoin="round"/>
<path d="M4.53125 3.02075C4.93184 3.02075 5.31602 3.17988 5.59928 3.46314C5.88253 3.7464 6.04167 4.13058 6.04167 4.53117" stroke="#6AC7FA" stroke-width="2.5" stroke-linecap="round" stroke-linejoin="round"/>
<path d="M3.02083 4.53117C3.02083 4.13058 3.17997 3.7464 3.46322 3.46314C3.74648 3.17988 4.13066 3.02075 4.53125 3.02075" stroke="#6AC7FA" stroke-width="2.5" stroke-linecap="round" stroke-linejoin="round"/>
<path d="M4.53125 6.04167C4.13066 6.04167 3.74648 5.88253 3.46322 5.59928C3.17997 5.31602 3.02083 4.93184 3.02083 4.53125" stroke="#6AC7FA" stroke-width="2.5" stroke-linecap="round" stroke-linejoin="round"/>
<path d="M6.04167 4.53125C6.04167 4.93184 5.88253 5.31602 5.59928 5.59928C5.31602 5.88253 4.93184 6.04167 4.53125 6.04167" stroke="#6AC7FA" stroke-width="2.5" stroke-linecap="round" stroke-linejoin="round"/>
<path d="M21.1458 27.1875C21.5464 27.1875 21.9306 27.3466 22.2139 27.6299C22.4971 27.9131 22.6562 28.2973 22.6562 28.6979" stroke="#6AC7FA" stroke-width="2.5" stroke-linecap="round" stroke-linejoin="round"/>
<path d="M19.6354 28.6979C19.6354 28.2973 19.7946 27.9131 20.0778 27.6299C20.3611 27.3466 20.7452 27.1875 21.1458 27.1875" stroke="#6AC7FA" stroke-width="2.5" stroke-linecap="round" stroke-linejoin="round"/>
<path d="M21.1458 30.2084C20.7452 30.2084 20.3611 30.0493 20.0778 29.766C19.7946 29.4828 19.6354 29.0986 19.6354 28.698" stroke="#6AC7FA" stroke-width="2.5" stroke-linecap="round" stroke-linejoin="round"/>
<path d="M22.6562 28.698C22.6562 29.0986 22.4971 29.4828 22.2139 29.766C21.9306 30.0493 21.5464 30.2084 21.1458 30.2084" stroke="#6AC7FA" stroke-width="2.5" stroke-linecap="round" stroke-linejoin="round"/>
<path d="M58.9062 9.0625C59.3068 9.0625 59.691 9.22163 59.9743 9.50489C60.2575 9.78815 60.4167 10.1723 60.4167 10.5729" stroke="#6AC7FA" stroke-width="2.5" stroke-linecap="round" stroke-linejoin="round"/>
<path d="M57.3958 10.5729C57.3958 10.1723 57.555 9.78815 57.8382 9.50489C58.1215 9.22163 58.5057 9.0625 58.9062 9.0625" stroke="#6AC7FA" stroke-width="2.5" stroke-linecap="round" stroke-linejoin="round"/>
<path d="M58.9062 12.0834C58.5057 12.0834 58.1215 11.9243 57.8382 11.641C57.555 11.3578 57.3958 10.9736 57.3958 10.573" stroke="#6AC7FA" stroke-width="2.5" stroke-linecap="round" stroke-linejoin="round"/>
<path d="M60.4167 10.573C60.4167 10.9736 60.2575 11.3578 59.9743 11.641C59.691 11.9243 59.3068 12.0834 58.9062 12.0834" stroke="#6AC7FA" stroke-width="2.5" stroke-linecap="round" stroke-linejoin="round"/>
<path d="M86.0938 27.1875C86.4943 27.1875 86.8785 27.3466 87.1618 27.6299C87.445 27.9131 87.6042 28.2973 87.6042 28.6979" stroke="#6AC7FA" stroke-width="2.5" stroke-linecap="round" stroke-linejoin="round"/>
<path d="M84.5833 28.6979C84.5833 28.2973 84.7425 27.9131 85.0257 27.6299C85.309 27.3466 85.6932 27.1875 86.0938 27.1875" stroke="#6AC7FA" stroke-width="2.5" stroke-linecap="round" stroke-linejoin="round"/>
<path d="M86.0938 30.2084C85.6932 30.2084 85.309 30.0493 85.0257 29.766C84.7425 29.4828 84.5833 29.0986 84.5833 28.698" stroke="#6AC7FA" stroke-width="2.5" stroke-linecap="round" stroke-linejoin="round"/>
<path d="M87.6042 28.698C87.6042 29.0986 87.445 29.4828 87.1618 29.766C86.8785 30.0493 86.4943 30.2084 86.0938 30.2084" stroke="#6AC7FA" stroke-width="2.5" stroke-linecap="round" stroke-linejoin="round"/>
<path d="M140.469 21.1458C140.869 21.1458 141.254 21.3049 141.537 21.5881C141.82 21.8714 141.979 22.2556 141.979 22.6562" stroke="#6AC7FA" stroke-width="2.5" stroke-linecap="round" stroke-linejoin="round"/>
<path d="M138.958 22.6562C138.958 22.2556 139.117 21.8714 139.401 21.5881C139.684 21.3049 140.068 21.1458 140.469 21.1458" stroke="#6AC7FA" stroke-width="2.5" stroke-linecap="round" stroke-linejoin="round"/>
<path d="M140.469 24.1667C140.068 24.1667 139.684 24.0075 139.401 23.7243C139.117 23.441 138.958 23.0568 138.958 22.6562" stroke="#6AC7FA" stroke-width="2.5" stroke-linecap="round" stroke-linejoin="round"/>
<path d="M141.979 22.6562C141.979 23.0568 141.82 23.441 141.537 23.7243C141.254 24.0075 140.869 24.1667 140.469 24.1667" stroke="#6AC7FA" stroke-width="2.5" stroke-linecap="round" stroke-linejoin="round"/>
<path d="M46.8229 42.2917C47.2235 42.2917 47.6077 42.4509 47.8909 42.7341C48.1742 43.0174 48.3333 43.4016 48.3333 43.8022" stroke="#6AC7FA" stroke-width="2.5" stroke-linecap="round" stroke-linejoin="round"/>
<path d="M45.3125 43.8022C45.3125 43.4016 45.4716 43.0174 45.7549 42.7341C46.0381 42.4509 46.4223 42.2917 46.8229 42.2917" stroke="#6AC7FA" stroke-width="2.5" stroke-linecap="round" stroke-linejoin="round"/>
<path d="M46.8229 45.3124C46.4223 45.3124 46.0381 45.1533 45.7549 44.87C45.4716 44.5868 45.3125 44.2026 45.3125 43.802" stroke="#6AC7FA" stroke-width="2.5" stroke-linecap="round" stroke-linejoin="round"/>
<path d="M48.3333 43.802C48.3333 44.2026 48.1742 44.5868 47.8909 44.87C47.6077 45.1533 47.2235 45.3124 46.8229 45.3124" stroke="#6AC7FA" stroke-width="2.5" stroke-linecap="round" stroke-linejoin="round"/>
<path d="M4.53125 61.927C4.93184 61.927 5.31602 62.0861 5.59928 62.3694C5.88253 62.6526 6.04167 63.0368 6.04167 63.4374" stroke="#6AC7FA" stroke-width="2.5" stroke-linecap="round" stroke-linejoin="round"/>
<path d="M3.02083 63.4374C3.02083 63.0368 3.17997 62.6526 3.46322 62.3694C3.74648 62.0861 4.13066 61.927 4.53125 61.927" stroke="#6AC7FA" stroke-width="2.5" stroke-linecap="round" stroke-linejoin="round"/>
<path d="M4.53125 64.9479C4.13066 64.9479 3.74648 64.7888 3.46322 64.5055C3.17997 64.2223 3.02083 63.8381 3.02083 63.4375" stroke="#6AC7FA" stroke-width="2.5" stroke-linecap="round" stroke-linejoin="round"/>
<path d="M6.04167 63.4375C6.04167 63.8381 5.88253 64.2223 5.59928 64.5055C5.31602 64.7888 4.93184 64.9479 4.53125 64.9479" stroke="#6AC7FA" stroke-width="2.5" stroke-linecap="round" stroke-linejoin="round"/>
<path d="M70.9896 66.4583C71.3902 66.4583 71.7744 66.6174 72.0576 66.9006C72.3409 67.1839 72.5 67.5681 72.5 67.9687" stroke="#6AC7FA" stroke-width="2.5" stroke-linecap="round" stroke-linejoin="round"/>
<path d="M69.4792 67.9687C69.4792 67.5681 69.6383 67.1839 69.9216 66.9006C70.2048 66.6174 70.589 66.4583 70.9896 66.4583" stroke="#6AC7FA" stroke-width="2.5" stroke-linecap="round" stroke-linejoin="round"/>
<path d="M70.9896 69.4792C70.589 69.4792 70.2048 69.32 69.9216 69.0368C69.6383 68.7535 69.4792 68.3693 69.4792 67.9688" stroke="#6AC7FA" stroke-width="2.5" stroke-linecap="round" stroke-linejoin="round"/>
<path d="M72.5 67.9688C72.5 68.3693 72.3409 68.7535 72.0576 69.0368C71.7744 69.32 71.3902 69.4792 70.9896 69.4792" stroke="#6AC7FA" stroke-width="2.5" stroke-linecap="round" stroke-linejoin="round"/>
<path d="M107.24 3.02075C107.64 3.02075 108.024 3.17988 108.308 3.46314C108.591 3.7464 108.75 4.13058 108.75 4.53117" stroke="#6AC7FA" stroke-width="2.5" stroke-linecap="round" stroke-linejoin="round"/>
<path d="M105.729 4.53117C105.729 4.13058 105.888 3.7464 106.172 3.46314C106.455 3.17988 106.839 3.02075 107.24 3.02075" stroke="#6AC7FA" stroke-width="2.5" stroke-linecap="round" stroke-linejoin="round"/>
<path d="M107.24 6.04167C106.839 6.04167 106.455 5.88253 106.172 5.59928C105.888 5.31602 105.729 4.93184 105.729 4.53125" stroke="#6AC7FA" stroke-width="2.5" stroke-linecap="round" stroke-linejoin="round"/>
<path d="M108.75 4.53125C108.75 4.93184 108.591 5.31602 108.308 5.59928C108.024 5.88253 107.64 6.04167 107.24 6.04167" stroke="#6AC7FA" stroke-width="2.5" stroke-linecap="round" stroke-linejoin="round"/>
<path d="M3.02083 137.657L7.25 135.953C24.1151 129.206 42.6951 128.027 60.2777 132.588L85.9729 139.234C104.621 144.07 124.357 142.443 141.961 134.618V134.618" stroke="black" stroke-width="2.5" stroke-linecap="round" stroke-linejoin="round"/>
<path d="M141.976 98.4861C132.547 94.7158 122.393 93.1097 112.26 93.7863C102.128 94.4628 92.2767 97.4047 83.4327 102.395L72.4127 108.612C69.3963 110.311 66.2558 111.779 63.0179 113.004" stroke="black" stroke-width="2.5" stroke-linecap="round" stroke-linejoin="round"/>
</svg>
