<svg width="24" height="24" viewBox="0 0 24 24" fill="none" xmlns="http://www.w3.org/2000/svg">
<path d="M11 16.985C15.1421 16.985 18.5 13.6271 18.5 9.48498C18.5 5.34285 15.1421 1.98499 11 1.98499C6.85786 1.98499 3.5 5.34285 3.5 9.48498C3.5 13.6271 6.85786 16.985 11 16.985Z" stroke="black" stroke-width="1.5" stroke-linecap="round" stroke-linejoin="round"/>
<path d="M18.425 2.06104C20.3941 4.03027 21.5002 6.70107 21.5001 9.48589C21.5 12.2707 20.3937 14.9414 18.4245 16.9105C16.4552 18.8796 13.7844 19.9858 10.9996 19.9857C8.21478 19.9856 5.54405 18.8793 3.57495 16.91" stroke="black" stroke-width="1.5" stroke-linecap="round" stroke-linejoin="round"/>
<path d="M19.4851 1L18.425 2.061" stroke="black" stroke-width="1.5" stroke-linecap="round" stroke-linejoin="round"/>
<path d="M3.57501 16.91L2.51501 17.971" stroke="black" stroke-width="1.5" stroke-linecap="round" stroke-linejoin="round"/>
<path d="M11 19.985V22.985" stroke="black" stroke-width="1.5" stroke-linecap="round" stroke-linejoin="round"/>
<path d="M5 22.985H17" stroke="black" stroke-width="1.5" stroke-linecap="round" stroke-linejoin="round"/>
<path d="M4.12402 6.48499H5.75002C6.14785 6.48499 6.52938 6.64302 6.81068 6.92432C7.09199 7.20563 7.25002 7.58716 7.25002 7.98499V9.61399C7.24993 9.811 7.28866 10.0061 7.36398 10.1882C7.43931 10.3702 7.54976 10.5356 7.68902 10.675L8.84402 11.83C9.04111 12.0269 9.17946 12.2748 9.24358 12.5459C9.30769 12.817 9.29503 13.1007 9.20702 13.365L8.89802 14.291C8.80143 14.5802 8.61899 14.8331 8.37502 15.016L7.15902 15.928" stroke="black" stroke-width="1.5" stroke-linecap="round" stroke-linejoin="round"/>
<path d="M13.4 2.37903C12.993 2.70403 12.559 3.04103 12.174 3.33803C11.8615 3.5787 11.6564 3.93276 11.603 4.32355C11.5497 4.71434 11.6524 5.11042 11.889 5.42603L12.8 6.63503C12.9397 6.82132 13.1208 6.97253 13.3291 7.07667C13.5374 7.18081 13.7671 7.23503 14 7.23503H14.879C15.2766 7.23538 15.6579 7.39364 15.939 7.67503L17.094 8.83003C17.2741 9.0101 17.4972 9.1413 17.7422 9.21129C17.9871 9.28127 18.2458 9.28772 18.494 9.23003" stroke="black" stroke-width="1.5" stroke-linecap="round" stroke-linejoin="round"/>
</svg>
