<svg width="244" height="220" viewBox="0 0 244 220" fill="none" xmlns="http://www.w3.org/2000/svg">
<path d="M241.413 288.388L220.157 312.995L219.763 313.451L95.1572 294.416V152.284H241.096L241.413 288.388Z" fill="#1D4E83"/>
<path d="M107.577 205.902L107.482 207.168L132.863 209.071L132.958 207.806L107.577 205.902Z" fill="#E6E6E6"/>
<path d="M169.758 211.613L169.667 212.879L196.317 214.782L196.408 213.517L169.758 211.613Z" fill="#E6E6E6"/>
<path d="M219.878 191.943L94.8783 184.328L94.8013 185.595L151.949 189.076L152.921 303.342L154.19 303.331L153.219 189.153L219.801 193.209L219.878 191.943Z" fill="#E6E6E6"/>
<path d="M103.723 155.139H92.3018V147.525L122.759 141.814L124.662 138.007L243.951 141.18V151.967L220.157 160.653L204.611 160.215C204.611 160.215 181.134 179.885 153.215 177.982C125.297 176.078 103.723 155.139 103.723 155.139Z" fill="#E6E6E6"/>
<path d="M207.466 147.842L200.804 152.601L182.143 152.151C182.143 152.157 182.136 152.151 182.136 152.151H182.105L180.683 152.119H180.677L179.497 152.087L175.772 151.998L175.461 151.992L172.168 151.916L172.048 151.91L167.955 151.814L167.689 151.808L164.662 151.732L164.173 151.726L160.62 151.637L159.478 151.611L153.088 151.459L151.477 151.421L134.497 151.015C134.497 151.015 122.397 151.618 121.826 148.102C121.813 148.016 121.806 147.929 121.807 147.842C121.807 145.844 123.913 145.418 125.906 145.469C127.09 145.513 128.267 145.67 129.421 145.939L134.294 146.059L137.333 146.129L146.87 146.364L155.024 146.561L157.911 146.637L162.041 146.738L163.678 146.776L169.757 146.922L172.6 146.992L178.602 147.138L207.466 147.842Z" fill="#CCCCCC"/>
<path d="M171.934 151.015C172.635 151.015 173.203 150.447 173.203 149.746C173.203 149.045 172.635 148.477 171.934 148.477C171.233 148.477 170.665 149.045 170.665 149.746C170.665 150.447 171.233 151.015 171.934 151.015Z" fill="#3F3D56"/>
<path d="M172.569 146.573C179.227 146.573 184.624 146.005 184.624 145.304C184.624 144.603 179.227 144.035 172.569 144.035C165.91 144.035 160.513 144.603 160.513 145.304C160.513 146.005 165.91 146.573 172.569 146.573Z" fill="#CCCCCC"/>
<path d="M165.023 129.176L175.543 131.74L174.341 136.672L159.248 132.993L159.336 132.634C159.631 131.421 160.397 130.376 161.463 129.727C162.53 129.079 163.81 128.88 165.023 129.176Z" fill="#3F3D56"/>
<path d="M161.05 133.156L166.698 134.004L166.67 134.187C166.577 134.804 166.243 135.359 165.741 135.73C165.239 136.101 164.61 136.257 163.993 136.165L163 136.016C162.383 135.923 161.828 135.589 161.457 135.087C161.086 134.585 160.93 133.956 161.022 133.338L161.05 133.156L161.05 133.156Z" fill="#3F3D56"/>
<path opacity="0.2" d="M174.341 135.403L166.451 133.48C166.215 133.961 165.832 134.355 165.357 134.605C164.882 134.854 164.34 134.946 163.81 134.868L163.182 134.774C162.565 134.68 162.004 134.361 161.608 133.878C161.212 133.396 161.008 132.784 161.036 132.16L159.693 131.832C159.497 132.199 159.348 132.589 159.248 132.993L161.036 133.429C161.008 134.053 161.212 134.665 161.608 135.147C162.004 135.63 162.565 135.949 163.182 136.043L163.81 136.137C164.34 136.215 164.882 136.123 165.357 135.874C165.832 135.624 166.215 135.23 166.451 134.749L174.341 136.672L175.543 131.74L175.251 131.669L174.341 135.403Z" fill="black"/>
<path d="M173.011 145.939C172.382 145.939 171.759 145.811 171.181 145.563C170.603 145.314 170.082 144.951 169.649 144.494C169.216 144.038 168.881 143.498 168.663 142.908C168.445 142.318 168.35 141.69 168.383 141.062L169.078 127.855L177.644 127.538V141.305C177.644 141.914 177.525 142.516 177.292 143.078C177.059 143.641 176.718 144.151 176.287 144.582C175.857 145.012 175.346 145.353 174.784 145.586C174.222 145.819 173.619 145.939 173.011 145.939Z" fill="#3F3D56"/>
<path d="M177.01 127.856H169.295C170.633 125.826 169.799 123.746 167.926 121.643C167.818 121.521 167.748 121.371 167.724 121.21C167.7 121.05 167.723 120.885 167.79 120.737C167.857 120.589 167.965 120.464 168.101 120.376C168.238 120.288 168.397 120.241 168.559 120.241H171.499C174.543 120.241 177.01 123.082 177.01 126.587V127.856Z" fill="#3F3D56"/>
<path opacity="0.2" d="M170.464 121.643C170.357 121.521 170.287 121.371 170.263 121.21C170.238 121.05 170.261 120.885 170.328 120.737C170.395 120.589 170.503 120.464 170.64 120.376C170.776 120.288 170.935 120.241 171.098 120.241H168.559C168.397 120.241 168.238 120.288 168.101 120.376C167.965 120.464 167.857 120.589 167.79 120.737C167.723 120.885 167.7 121.05 167.724 121.21C167.748 121.371 167.818 121.521 167.926 121.643C169.799 123.746 170.633 125.826 169.295 127.856H171.833C173.171 125.826 172.337 123.746 170.464 121.643Z" fill="black"/>
<path d="M133.854 135.334L143.612 138.783C143.612 138.783 166.824 140.635 163.813 146.539C160.801 152.444 140.934 148.629 140.934 148.629L131.525 142.097L133.854 135.334Z" fill="#FFB8B8"/>
<path d="M148.457 144.036C147.808 144.037 147.184 144.287 146.714 144.735C146.244 145.184 145.964 145.795 145.932 146.444C145.79 146.314 145.629 146.206 145.455 146.124C145.934 145.798 146.288 145.318 146.457 144.763C146.627 144.209 146.602 143.613 146.387 143.075C146.172 142.537 145.78 142.088 145.275 141.803C144.771 141.517 144.184 141.413 143.612 141.507C143.04 141.6 142.517 141.886 142.129 142.317C141.742 142.748 141.513 143.299 141.481 143.878C141.449 144.457 141.615 145.029 141.952 145.5C142.29 145.972 142.778 146.314 143.336 146.47C143.119 146.677 142.955 146.933 142.855 147.215C142.756 147.498 142.725 147.8 142.765 148.097C142.804 148.395 142.914 148.678 143.084 148.925C143.254 149.171 143.48 149.375 143.744 149.517C144.007 149.66 144.301 149.738 144.6 149.746C144.9 149.754 145.197 149.691 145.468 149.562C145.738 149.433 145.974 149.241 146.157 149.004C146.34 148.766 146.463 148.489 146.518 148.194C146.792 148.521 147.143 148.774 147.541 148.929C147.938 149.084 148.368 149.136 148.79 149.081C149.213 149.026 149.615 148.865 149.959 148.613C150.303 148.361 150.578 148.026 150.758 147.64C150.938 147.253 151.018 146.828 150.99 146.402C150.962 145.977 150.827 145.565 150.598 145.206C150.368 144.846 150.052 144.551 149.678 144.346C149.304 144.142 148.884 144.035 148.457 144.036Z" fill="white"/>
<path d="M152.899 145.305C152.249 145.306 151.625 145.556 151.155 146.004C150.685 146.453 150.405 147.064 150.374 147.713C150.232 147.583 150.071 147.475 149.896 147.393C150.376 147.067 150.729 146.587 150.899 146.032C151.068 145.478 151.043 144.882 150.829 144.344C150.614 143.806 150.221 143.357 149.717 143.072C149.212 142.786 148.625 142.682 148.053 142.776C147.481 142.869 146.958 143.155 146.571 143.586C146.183 144.017 145.955 144.568 145.922 145.147C145.89 145.725 146.057 146.298 146.394 146.769C146.731 147.241 147.219 147.583 147.777 147.739C147.561 147.946 147.396 148.202 147.297 148.484C147.197 148.767 147.166 149.069 147.206 149.366C147.246 149.663 147.355 149.947 147.525 150.194C147.695 150.44 147.921 150.643 148.185 150.786C148.449 150.929 148.742 151.007 149.042 151.015C149.341 151.023 149.639 150.96 149.909 150.831C150.18 150.702 150.416 150.51 150.598 150.273C150.781 150.035 150.905 149.757 150.96 149.463C151.233 149.79 151.585 150.043 151.982 150.198C152.379 150.353 152.809 150.405 153.232 150.35C153.655 150.295 154.057 150.134 154.401 149.882C154.745 149.63 155.019 149.295 155.2 148.909C155.38 148.522 155.46 148.097 155.432 147.671C155.403 147.246 155.268 146.834 155.039 146.475C154.81 146.115 154.493 145.82 154.119 145.615C153.745 145.411 153.325 145.304 152.899 145.305Z" fill="white"/>
<path d="M140.957 135.057L132.124 149.645L113.552 137.176L92.2193 122.862L79.3576 89.0926L66.2803 65.1459L82.6699 60.3173C82.6699 60.3173 88.3107 60.533 95.6013 73.915C102.886 87.3032 109.377 110.476 109.377 110.476L118.089 117.259L140.957 135.057Z" fill="#44BBA4"/>
<path opacity="0.2" d="M140.957 135.057L132.124 149.645L113.552 137.176L92.2193 122.862L79.3576 89.0926L66.2803 65.1459L82.6699 60.3173C82.6699 60.3173 88.3107 60.533 95.6013 73.915C102.886 87.3032 109.377 110.476 109.377 110.476L118.089 117.259L140.957 135.057Z" fill="black"/>
<path d="M182.105 152.151L159.478 151.611L157.682 149.575L156.413 148.134L155.024 146.561L153.482 144.816L156.109 140.742L157.359 138.8L162.422 142.125L166.014 144.479C166.014 144.479 169.021 145.482 172.6 146.992C175.925 148.401 179.751 150.254 182.105 152.151Z" fill="#FFB8B8"/>
<path d="M94.53 35.8948C103.099 35.8948 110.045 28.9484 110.045 20.3795C110.045 11.8106 103.099 4.8642 94.53 4.8642C85.9611 4.8642 79.0146 11.8106 79.0146 20.3795C79.0146 28.9484 85.9611 35.8948 94.53 35.8948Z" fill="#FFB8B8"/>
<path d="M82.5056 24.6461L80.9541 47.1433L100.348 49.4706C100.348 49.4706 100.348 30.8522 101.9 28.5249C103.451 26.1976 82.5056 24.6461 82.5056 24.6461Z" fill="#FFB8B8"/>
<path d="M125.56 53.7374L100.439 43.099C100.439 43.099 88.4384 33.8393 81.399 40.6853L78.2385 45.2039C78.2385 45.2039 58.9893 55.5528 58.9893 64.0862L61.1716 107.265C61.1716 107.265 54.9655 131.314 64.2747 132.866L114.699 137.52C114.699 137.52 121.681 128.987 115.475 118.126L117.803 92.5257L125.56 53.7374Z" fill="#44BBA4"/>
<path d="M108.494 54.5131L125.561 53.7374C125.561 53.7374 126.812 55.0573 130.69 69.7968C134.569 84.5364 139.525 108.817 139.525 108.817L164.32 140.228L152.264 152.284L119.904 116.751L115.476 80.8892L108.494 54.5131Z" fill="#44BBA4"/>
<path d="M117.027 135.969L61.252 131.061C61.252 131.061 55.7416 166.223 56.5174 180.187C57.2931 194.151 58.0689 215.872 58.0689 215.872L51.8628 310.516L75.9116 307.413L79.0145 229.061L89.0995 186.393L100.736 240.697L108.494 310.516L129.439 308.189L122.457 223.63C122.457 223.63 128.664 147.605 117.027 135.969Z" fill="#3C4245"/>
<path d="M82.5059 33.9553C82.5059 33.9553 66.2148 22.3188 74.7482 8.35506C80.6682 -1.33222 92.9354 -0.565411 99.8939 0.812873C101.769 1.15889 103.531 1.95564 105.029 3.13442C106.527 4.3132 107.717 5.83867 108.494 7.5793C109.658 10.2945 109.658 13.0097 105.003 13.0097C95.6939 13.0097 100.348 19.9916 100.348 19.9916C100.348 19.9916 94.1423 21.5431 95.6939 26.9734C97.2454 32.4038 82.5059 33.9553 82.5059 33.9553Z" fill="#3C4245"/>
<path d="M181.452 152.284C182.503 152.284 183.356 151.432 183.356 150.381C183.356 149.329 182.503 148.477 181.452 148.477C180.401 148.477 179.548 149.329 179.548 150.381C179.548 151.432 180.401 152.284 181.452 152.284Z" fill="white"/>
<path d="M179.548 149.111C179.549 148.733 179.464 148.358 179.301 148.017C179.137 147.675 178.899 147.375 178.603 147.138C178.152 146.774 177.59 146.575 177.01 146.573C176.978 146.573 176.953 146.58 176.921 146.58C176.793 146.071 176.51 145.615 176.112 145.275C175.713 144.935 175.218 144.727 174.696 144.68C174.174 144.633 173.65 144.75 173.197 145.014C172.744 145.278 172.385 145.677 172.169 146.155C171.767 145.943 171.301 145.885 170.859 145.99C170.417 146.095 170.028 146.356 169.764 146.726C167.896 146.488 166.066 146.01 164.32 145.304C163.843 145.304 163.377 145.438 162.974 145.692C162.57 145.946 162.247 146.309 162.042 146.738C161.869 147.081 161.78 147.459 161.782 147.842C161.784 148.299 161.911 148.747 162.15 149.137C161.696 149.2 161.281 149.425 160.981 149.77C160.68 150.115 160.514 150.557 160.513 151.015C160.512 151.227 160.549 151.437 160.621 151.637L164.174 151.726C164.223 151.609 164.259 151.488 164.282 151.364C164.396 151.499 164.523 151.622 164.662 151.732L167.689 151.808L167.86 151.675C167.888 151.724 167.92 151.77 167.956 151.814L172.048 151.91C172.073 151.882 172.097 151.852 172.118 151.821C172.132 151.854 172.149 151.886 172.169 151.916L175.462 151.992C175.594 151.775 175.68 151.533 175.716 151.281C175.733 151.294 175.753 151.305 175.773 151.313C175.753 151.424 175.742 151.537 175.741 151.649C175.742 151.766 175.753 151.883 175.773 151.998L179.497 152.087C179.531 151.944 179.548 151.797 179.548 151.649C179.546 151.226 179.403 150.815 179.142 150.482C179.407 150.074 179.548 149.598 179.548 149.111ZM172.753 149.061C172.644 149.193 172.518 149.31 172.378 149.41C172.416 149.505 172.435 149.606 172.467 149.702C172.627 149.531 172.819 149.393 173.032 149.295C172.933 149.224 172.84 149.146 172.753 149.061V149.061Z" fill="white"/>
<path d="M198.583 152.919C199.635 152.919 200.487 152.067 200.487 151.015C200.487 149.964 199.635 149.111 198.583 149.111C197.532 149.111 196.68 149.964 196.68 151.015C196.68 152.067 197.532 152.919 198.583 152.919Z" fill="white"/>
<path d="M196.68 149.746C196.68 149.367 196.596 148.993 196.432 148.651C196.268 148.31 196.03 148.009 195.734 147.773C195.283 147.409 194.721 147.21 194.141 147.208C194.11 147.208 194.084 147.214 194.053 147.214C193.925 146.706 193.642 146.25 193.243 145.909C192.844 145.569 192.349 145.361 191.827 145.314C191.305 145.268 190.781 145.385 190.329 145.649C189.876 145.913 189.516 146.311 189.3 146.789C188.898 146.578 188.433 146.519 187.991 146.624C187.549 146.729 187.16 146.991 186.895 147.36C185.027 147.122 183.197 146.644 181.451 145.939C180.975 145.938 180.508 146.073 180.105 146.327C179.702 146.58 179.379 146.943 179.173 147.373C179 147.715 178.911 148.093 178.913 148.477C178.915 148.934 179.043 149.382 179.281 149.771C178.828 149.835 178.413 150.06 178.112 150.405C177.811 150.75 177.645 151.192 177.644 151.649C177.644 151.861 177.68 152.072 177.752 152.271L181.305 152.36C181.354 152.244 181.391 152.123 181.413 151.998C181.527 152.134 181.655 152.257 181.794 152.366L184.82 152.443L184.992 152.309C185.02 152.358 185.052 152.405 185.087 152.449L189.18 152.544C189.205 152.516 189.228 152.486 189.249 152.455C189.264 152.488 189.281 152.52 189.3 152.55L192.593 152.627C192.725 152.409 192.812 152.168 192.847 151.916C192.865 151.929 192.884 151.94 192.904 151.948C192.884 152.059 192.874 152.171 192.872 152.284C192.873 152.401 192.884 152.518 192.904 152.633L196.629 152.722C196.662 152.578 196.679 152.431 196.679 152.284C196.677 151.861 196.534 151.45 196.273 151.116C196.538 150.708 196.679 150.232 196.68 149.746ZM189.884 149.695C189.775 149.827 189.649 149.945 189.509 150.044C189.548 150.139 189.567 150.241 189.598 150.336C189.759 150.165 189.95 150.027 190.163 149.93C190.064 149.859 189.971 149.78 189.884 149.695H189.884Z" fill="white"/>
<path d="M171.141 151.65C171.929 151.65 172.568 151.01 172.568 150.222C172.568 149.433 171.929 148.794 171.141 148.794C170.352 148.794 169.713 149.433 169.713 150.222C169.713 151.01 170.352 151.65 171.141 151.65Z" fill="white"/>
<path d="M169.713 149.27C169.713 148.986 169.65 148.705 169.527 148.449C169.404 148.193 169.225 147.968 169.004 147.79C168.665 147.517 168.244 147.368 167.809 147.367C167.785 147.367 167.766 147.371 167.742 147.371C167.646 146.99 167.434 146.648 167.135 146.393C166.836 146.137 166.465 145.981 166.074 145.946C165.682 145.911 165.289 145.999 164.949 146.197C164.61 146.395 164.34 146.694 164.178 147.052C163.876 146.894 163.528 146.85 163.196 146.929C162.865 147.008 162.573 147.204 162.375 147.481C160.973 147.302 159.601 146.944 158.291 146.415C157.934 146.414 157.584 146.515 157.282 146.706C156.979 146.896 156.737 147.168 156.583 147.49C156.453 147.747 156.386 148.031 156.388 148.318C156.389 148.661 156.485 148.997 156.664 149.289C156.324 149.337 156.013 149.505 155.787 149.764C155.561 150.023 155.437 150.354 155.436 150.698C155.436 150.857 155.463 151.015 155.517 151.164L158.182 151.231C158.219 151.144 158.246 151.053 158.263 150.959C158.348 151.061 158.444 151.153 158.548 151.236L160.818 151.293L160.947 151.193C160.968 151.229 160.992 151.264 161.018 151.297L164.088 151.369C164.107 151.348 164.124 151.325 164.14 151.302C164.151 151.327 164.164 151.351 164.178 151.374L166.648 151.431C166.747 151.268 166.812 151.086 166.838 150.898C166.852 150.907 166.866 150.915 166.881 150.921C166.866 151.005 166.858 151.089 166.857 151.174C166.858 151.261 166.866 151.349 166.881 151.435L169.675 151.502C169.7 151.394 169.712 151.284 169.713 151.174C169.711 150.856 169.604 150.548 169.408 150.298C169.607 149.992 169.712 149.635 169.713 149.27ZM164.616 149.232C164.534 149.331 164.44 149.419 164.335 149.494C164.364 149.565 164.378 149.641 164.402 149.713C164.522 149.585 164.666 149.481 164.825 149.408C164.751 149.355 164.681 149.296 164.616 149.232Z" fill="white"/>
<path d="M150.836 151.65C151.625 151.65 152.264 151.01 152.264 150.222C152.264 149.433 151.625 148.794 150.836 148.794C150.047 148.794 149.408 149.433 149.408 150.222C149.408 151.01 150.047 151.65 150.836 151.65Z" fill="white"/>
<path d="M149.408 149.27C149.409 148.986 149.346 148.705 149.223 148.449C149.1 148.193 148.921 147.968 148.699 147.79C148.361 147.517 147.94 147.368 147.505 147.367C147.481 147.367 147.462 147.371 147.438 147.371C147.342 146.99 147.13 146.648 146.831 146.393C146.532 146.137 146.161 145.981 145.769 145.946C145.378 145.911 144.985 145.999 144.645 146.197C144.306 146.395 144.036 146.694 143.874 147.052C143.572 146.894 143.223 146.85 142.892 146.929C142.56 147.008 142.269 147.204 142.07 147.481C140.669 147.302 139.297 146.944 137.987 146.415C137.63 146.414 137.28 146.515 136.977 146.706C136.675 146.896 136.433 147.168 136.279 147.49C136.149 147.747 136.082 148.031 136.084 148.318C136.085 148.661 136.181 148.997 136.36 149.289C136.02 149.337 135.708 149.505 135.483 149.764C135.257 150.023 135.133 150.354 135.132 150.698C135.132 150.857 135.159 151.015 135.213 151.164L137.878 151.231C137.915 151.144 137.942 151.053 137.959 150.959C138.044 151.061 138.14 151.153 138.244 151.236L140.514 151.293L140.643 151.193C140.664 151.229 140.687 151.264 140.714 151.297L143.783 151.369C143.802 151.348 143.82 151.325 143.836 151.302C143.847 151.327 143.859 151.351 143.874 151.374L146.344 151.431C146.443 151.268 146.508 151.086 146.534 150.898C146.547 150.907 146.562 150.915 146.577 150.921C146.562 151.005 146.554 151.089 146.553 151.174C146.554 151.261 146.562 151.349 146.577 151.435L149.37 151.502C149.395 151.394 149.408 151.284 149.408 151.174C149.407 150.856 149.299 150.548 149.104 150.298C149.302 149.992 149.408 149.635 149.408 149.27ZM144.312 149.232C144.23 149.331 144.136 149.419 144.031 149.494C144.059 149.565 144.074 149.641 144.098 149.713C144.218 149.585 144.362 149.481 144.521 149.408C144.447 149.355 144.377 149.296 144.312 149.232Z" fill="white"/>
<path d="M217.46 130.989V127.182H214.288V127.817C213.937 127.817 213.653 128.243 213.653 128.768C213.653 129.294 213.937 129.72 214.288 129.72V130.989H211.75V143.68H219.998V130.989H217.46Z" fill="#3F3D56"/>
</svg>
