<svg width="164" height="68" viewBox="0 0 164 68" fill="none" xmlns="http://www.w3.org/2000/svg">
<g clip-path="url(#clip0)">
<path d="M163.336 45.4712C161.48 46.1562 158.219 46.7194 154.446 47.1722C144.185 48.4051 130.125 48.8428 130.125 48.8428C130.125 48.8428 57.8451 54.8457 3.67281 32.5198C3.67281 32.5198 -4.20669 28.3834 3.1028 22.8162C4.22836 21.9843 5.42495 21.2534 6.67869 20.6319L6.768 20.5425C7.59942 19.773 8.49792 19.0796 9.45277 18.4705C12.2591 16.6534 16.9979 14.4996 22.7664 15.4757L165.046 38.5189C165.046 38.5189 170.243 42.9159 163.336 45.4712Z" fill="#3F3D56"/>
<path d="M134.987 35.0274L164.772 13.866L177.9 16.1397L165.046 38.5188C165.046 38.5188 135.329 38.7567 134.987 35.0274Z" fill="#3F3D56"/>
<path d="M59.9998 22.1712L119.329 5.50952L128.892 7.51112L102.092 19.5835L93.7161 28.9675L59.9998 22.1712Z" fill="#3F3D56"/>
<path d="M154.446 47.1722C144.185 48.4051 130.125 48.8428 130.125 48.8428C130.125 48.8428 57.8451 54.8457 3.67281 32.5198C3.67281 32.5198 -4.20669 28.3834 3.1028 22.8162L3.1275 22.9189C3.1275 22.9189 14.8166 30.8302 70.6667 37.4344L154.446 47.1722Z" fill="#008DC9"/>
<path d="M144.909 46.7155L171.434 57.5607L178.097 56.8206L162.232 44.8795C162.232 44.8795 143.041 40.7792 144.909 46.7155Z" fill="#3F3D56"/>
<path d="M12.7456 24.0776C11.4802 24.0986 8.58073 21.9733 6.77759 20.5425C7.60901 19.773 8.50751 19.0796 9.46236 18.4705C10.9159 19.5873 13.5019 21.3949 14.9402 21.3245C17.017 21.2388 14.6514 24.0434 12.7456 24.0776Z" fill="#008DC9"/>
<path d="M133.249 84.2037L116.218 85.0961L68.3372 52.766L59.4487 46.7631L55.1318 43.8463C63.2317 36.9967 96.2793 46.4434 96.2793 46.4434C96.912 46.9781 97.1134 47.8666 97.0849 48.8484C97.0298 50.6864 96.1672 52.844 95.8347 53.6203C95.7549 53.8105 95.7055 53.9114 95.7055 53.9114L133.249 84.2037Z" fill="#3F3D56"/>
<path d="M77.163 67.4413L74.2084 69.3136L75.9983 66.0543C75.4915 65.6494 74.8644 65.4251 74.216 65.4169H74.1685C73.9636 65.4209 73.7588 65.4056 73.5567 65.3713L72.5573 66.0067L72.9848 65.2266C72.2768 64.9778 71.6651 64.5117 71.2368 63.8948L69.4488 65.0364L70.5774 62.9777C69.5324 61.72 68.1226 60.9495 66.5702 60.9495C64.7101 60.9495 63.0532 62.0568 61.9835 63.7844C61.6663 64.3018 61.2179 64.7257 60.6839 65.0132C60.1498 65.3006 59.5493 65.4412 58.9434 65.4207H58.8446C56.7907 65.4207 55.1262 67.7515 55.1262 70.6283C55.1262 73.5051 56.7907 75.8359 58.8446 75.8359C59.2959 75.8345 59.7401 75.7228 60.1386 75.5105C60.8379 75.1708 61.6025 74.9871 62.3796 74.972C63.1567 74.9568 63.9278 75.1107 64.6398 75.423C65.2419 75.6921 65.8938 75.8311 66.5531 75.8311C67.2125 75.8311 67.8644 75.6921 68.4665 75.423C69.1725 75.1166 69.9361 74.9656 70.7055 74.9804C71.4749 74.9952 72.2321 75.1753 72.9259 75.5086C73.3219 75.7156 73.7617 75.8246 74.2084 75.8264C76.2624 75.8264 77.9268 73.4956 77.9268 70.6188C77.9416 69.5124 77.679 68.4199 77.163 67.4413Z" fill="#F9F8F7"/>
<path opacity="0.03" d="M71.6053 75.0615C70.5323 74.8583 69.4233 74.9788 68.4189 75.4078C67.8173 75.6776 67.1656 75.817 66.5065 75.817C65.8473 75.817 65.1956 75.6776 64.5941 75.4078C63.8823 75.0947 63.1111 74.9403 62.3338 74.9554C61.5566 74.9705 60.7919 75.1548 60.0928 75.4954C59.6935 75.707 59.2488 75.8186 58.797 75.8207C56.973 75.8207 55.4548 73.9789 55.1394 71.5511C55.5044 71.2857 55.8142 70.9516 56.0514 70.5674C57.1212 68.8417 58.778 67.7344 60.6382 67.7344C62.4983 67.7344 64.1381 68.8189 65.2059 70.5313C65.5246 71.0474 65.9711 71.4723 66.5021 71.7647C67.0331 72.057 67.6305 72.207 68.2365 72.1999H68.284C69.7356 72.1961 70.9934 73.3606 71.6053 75.0615Z" fill="black"/>
<path d="M160.575 64.9677L157.621 66.8399L159.41 63.5807C158.904 63.1757 158.276 62.9515 157.628 62.9433H157.581C157.376 62.9473 157.171 62.932 156.969 62.8976L155.969 63.5331L156.397 62.753C155.689 62.5042 155.077 62.0381 154.649 61.4212L152.861 62.5628L153.99 60.5041C152.945 59.2464 151.535 58.4758 149.982 58.4758C148.122 58.4758 146.465 59.5832 145.396 61.3108C145.078 61.8282 144.63 62.2521 144.096 62.5395C143.562 62.827 142.961 62.9676 142.356 62.9471H142.257C140.203 62.9471 138.538 65.2779 138.538 68.1547C138.538 71.0315 140.203 73.3623 142.257 73.3623C142.708 73.3609 143.152 73.2492 143.551 73.0369C144.25 72.6972 145.015 72.5135 145.792 72.4984C146.569 72.4832 147.34 72.6371 148.052 72.9494C148.654 73.2185 149.306 73.3575 149.965 73.3575C150.625 73.3575 151.276 73.2185 151.879 72.9494C152.585 72.643 153.348 72.492 154.118 72.5068C154.887 72.5216 155.644 72.7017 156.338 73.035C156.734 73.242 157.174 73.351 157.621 73.3528C159.674 73.3528 161.339 71.022 161.339 68.1452C161.354 67.0387 161.091 65.9462 160.575 64.9677Z" fill="#F9F8F7"/>
<path opacity="0.03" d="M155.018 72.5879C153.945 72.3846 152.836 72.5052 151.831 72.9342C151.23 73.2039 150.578 73.3433 149.919 73.3433C149.26 73.3433 148.608 73.2039 148.006 72.9342C147.295 72.621 146.523 72.4667 145.746 72.4818C144.969 72.4969 144.204 72.6811 143.505 73.0217C143.106 73.2333 142.661 73.345 142.209 73.3471C140.385 73.3471 138.867 71.5053 138.552 69.0775C138.917 68.8121 139.227 68.478 139.464 68.0938C140.534 66.3681 142.19 65.2607 144.051 65.2607C145.911 65.2607 147.55 66.3453 148.618 68.0577C148.938 68.5752 149.386 69.0009 149.919 69.2934C150.451 69.5858 151.051 69.735 151.658 69.7263H151.706C153.148 69.7225 154.406 70.8869 155.018 72.5879Z" fill="black"/>
<path d="M160.575 2.56026L157.62 4.43248L159.41 1.17321C158.904 0.768282 158.276 0.544004 157.628 0.53582H157.581C157.376 0.539832 157.171 0.524545 156.969 0.490158L155.969 1.12565L156.397 0.345553C155.689 0.096694 155.077 -0.369349 154.649 -0.986314L152.861 0.155286L153.99 -1.9034C152.944 -3.16106 151.535 -3.93164 149.982 -3.93164C148.122 -3.93164 146.465 -2.82429 145.396 -1.09667C145.078 -0.579312 144.63 -0.155351 144.096 0.132072C143.562 0.419495 142.961 0.560118 142.356 0.539629H142.257C140.203 0.539629 138.538 2.87039 138.538 5.74723C138.538 8.62406 140.203 10.9548 142.257 10.9548C142.708 10.9534 143.152 10.8417 143.551 10.6295C144.25 10.2897 145.015 10.106 145.792 10.0909C146.569 10.0758 147.34 10.2297 148.052 10.5419C148.653 10.8125 149.305 10.9532 149.964 10.9548C150.624 10.9565 151.276 10.819 151.879 10.5515C152.585 10.245 153.348 10.0941 154.118 10.1089C154.887 10.1236 155.644 10.3038 156.338 10.6371C156.734 10.844 157.174 10.953 157.62 10.9548C159.674 10.9548 161.339 8.62406 161.339 5.74723C161.355 4.63756 161.093 3.54161 160.575 2.56026Z" fill="#F9F8F7"/>
<path opacity="0.03" d="M155.018 10.1807C153.945 9.97739 152.836 10.0979 151.831 10.527C151.23 10.7967 150.578 10.9361 149.919 10.9361C149.26 10.9361 148.608 10.7967 148.006 10.527C147.295 10.2138 146.523 10.0594 145.746 10.0745C144.969 10.0897 144.204 10.2739 143.505 10.6145C143.106 10.8261 142.661 10.9377 142.209 10.9398C140.385 10.9398 138.867 9.09806 138.552 6.67026C138.917 6.40485 139.227 6.07073 139.464 5.68658C140.534 3.96087 142.19 2.85352 144.051 2.85352C145.911 2.85352 147.55 3.93804 148.618 5.65043C148.938 6.16796 149.386 6.59371 149.919 6.88616C150.451 7.17861 151.051 7.32776 151.658 7.31907H151.706C153.148 7.31526 154.406 8.47969 155.018 10.1807Z" fill="black"/>
<path d="M38.5881 -4.17327L37.1156 -3.23906L38.0086 -4.86394C37.7562 -5.06706 37.4431 -5.17961 37.1194 -5.18359H37.0966C36.9941 -5.18253 36.8918 -5.19017 36.7907 -5.20642L36.2929 -4.89058L36.5057 -5.27111C36.1524 -5.39504 35.8472 -5.62741 35.6335 -5.93514L34.7424 -5.36434L35.3124 -6.38988C35.0754 -6.69685 34.773 -6.947 34.4272 -7.12211C34.0814 -7.29722 33.701 -7.39287 33.3136 -7.4021C32.3863 -7.4021 31.5598 -6.85032 31.0335 -5.98842C30.8751 -5.72968 30.6509 -5.51776 30.3838 -5.37433C30.1167 -5.23091 29.8163 -5.16114 29.5135 -5.17217H29.4641C28.4399 -5.17217 27.6096 -4.00774 27.6096 -2.57313C27.6096 -1.13852 28.4399 0.0240078 29.4641 0.0240078C29.6893 0.0232763 29.911 -0.0322247 30.1101 -0.13772C30.4588 -0.307734 30.8404 -0.399706 31.2282 -0.407263C31.616 -0.414819 32.0008 -0.337777 32.3559 -0.181478C32.655 -0.0483565 32.9787 0.0204248 33.306 0.0204248C33.6333 0.0204248 33.9569 -0.0483565 34.256 -0.181478C34.6083 -0.33451 34.9893 -0.409809 35.3732 -0.402257C35.7572 -0.394706 36.135 -0.304486 36.481 -0.13772C36.6784 -0.0354218 36.8971 0.0186939 37.1194 0.0202045C38.1435 0.0202045 38.9738 -1.14232 38.9738 -2.57693C38.981 -3.13302 38.8484 -3.68199 38.5881 -4.17327Z" fill="#F2F2F2"/>
<path opacity="0.03" d="M35.8159 -0.371686C35.2804 -0.474382 34.7265 -0.414074 34.2256 -0.198543C33.9263 -0.0661933 33.6028 0.00248337 33.2755 0.0031395C32.9446 0.0030427 32.6175 -0.0676565 32.316 -0.204251C31.9607 -0.359879 31.5758 -0.436399 31.1881 -0.428514C30.8003 -0.42063 30.4189 -0.328532 30.0702 -0.158588C29.8718 -0.0531054 29.6507 0.00240421 29.426 0.0031395C28.5159 0.0031395 27.7578 -0.915849 27.6001 -2.12595C27.7816 -2.25933 27.9364 -2.42589 28.0561 -2.61684C28.5881 -3.47875 29.4146 -4.03052 30.3362 -4.03052C31.2577 -4.03052 32.0804 -3.48445 32.6162 -2.63396C32.7759 -2.37534 33 -2.16272 33.2665 -2.01695C33.5329 -1.87119 33.8327 -1.79729 34.1363 -1.8025H34.161C34.8773 -1.8025 35.51 -1.22028 35.8159 -0.371686Z" fill="black"/>
</g>
<defs>
<clipPath id="clip0">
<path d="M0 -30H202V98H0V-30Z" fill="white"/>
</clipPath>
</defs>
</svg>
