<svg width="278" height="218" viewBox="0 0 278 218" fill="none" xmlns="http://www.w3.org/2000/svg">
<g clip-path="url(#clip0)">
<path d="M262.624 60.2158C262.624 69.872 260.338 77.8204 256.372 84.6295C255.064 86.8722 253.578 89.0068 251.929 91.0129C237.352 108.851 210.25 118.614 185.755 134.429C113.449 181.109 105.617 106.309 108.883 60.2158C110.2 41.6172 117.44 24.5809 128.941 11.5366C131.356 8.79321 133.965 6.22682 136.748 3.85725C149.805 -7.26784 166.674 -14 185.755 -14C218.491 -14 246.446 5.75445 257.53 33.5919C260.9 42.0631 262.629 51.0983 262.624 60.2158Z" fill="#44BBA4"/>
<path d="M202.132 2.72607L128.941 11.5366C131.356 8.79322 133.965 6.22683 136.748 3.85725L202.132 2.72607Z" fill="#D0CDE1"/>
<path d="M256.372 84.6294C255.063 86.8722 253.578 89.0068 251.929 91.0129L189.234 83.468L256.372 84.6294Z" fill="#D0CDE1"/>
<path d="M260.088 41.2466L153.834 27.4583L257.53 33.5919C258.526 36.0932 259.38 38.6489 260.088 41.2466Z" fill="#D0CDE1"/>
<path d="M116.091 5.76867C116.091 5.95811 116.085 6.14481 116.069 6.32876C115.986 7.46894 115.649 8.57622 115.084 9.56994C114.52 10.5637 113.74 11.4188 112.803 12.0731C111.866 12.7274 110.795 13.1643 109.668 13.3521C108.541 13.5399 107.386 13.4738 106.288 13.1586C105.189 12.8434 104.175 12.287 103.319 11.5301C102.462 10.7731 101.786 9.83463 101.338 8.78292C100.89 7.73122 100.682 6.59279 100.73 5.45057C100.777 4.30835 101.078 3.1911 101.612 2.18019C101.777 1.8634 101.966 1.5596 102.177 1.27141C103.096 -0.00370288 104.384 -0.966193 105.867 -1.48624C107.349 -2.00629 108.956 -2.05888 110.469 -1.63692C111.983 -1.21495 113.331 -0.338734 114.331 0.873553C115.331 2.08584 115.936 3.57587 116.063 5.14267C116.082 5.34859 116.091 5.55725 116.091 5.76867Z" fill="#44BBA4"/>
<path d="M116.091 5.76874C116.091 5.95819 116.085 6.14489 116.069 6.32884L104.565 4.94507L116.063 5.14275C116.082 5.34866 116.091 5.55733 116.091 5.76874Z" fill="#D0CDE1"/>
<path d="M113.346 9.64282L102.704 10.925C102.402 10.5881 102.13 10.2252 101.892 9.8405L113.346 9.64282Z" fill="#D0CDE1"/>
<path d="M110.328 1.13159L101.612 2.1804C101.777 1.86361 101.966 1.55981 102.177 1.27162L110.328 1.13159Z" fill="#D0CDE1"/>
<path d="M221.396 144.181C221.308 144.348 221.215 144.51 221.115 144.665C220.507 145.633 219.691 146.453 218.727 147.066C217.762 147.679 216.673 148.069 215.539 148.207C214.404 148.346 213.254 148.23 212.17 147.867C211.086 147.504 210.097 146.904 209.275 146.111C208.452 145.317 207.817 144.35 207.415 143.28C207.014 142.209 206.855 141.063 206.953 139.924C207.05 138.785 207.4 137.682 207.977 136.695C208.554 135.708 209.344 134.863 210.289 134.22C210.583 134.018 210.892 133.838 211.214 133.683C212.623 132.987 214.211 132.741 215.765 132.977C217.318 133.213 218.762 133.92 219.901 135.003C221.04 136.085 221.82 137.491 222.136 139.031C222.451 140.571 222.287 142.171 221.665 143.615C221.586 143.806 221.495 143.994 221.396 144.181Z" fill="#44BBA4"/>
<path d="M221.396 144.181C221.308 144.348 221.215 144.51 221.115 144.665L211.601 138.047L221.665 143.615C221.586 143.806 221.495 143.994 221.396 144.181Z" fill="#D0CDE1"/>
<path d="M217.157 146.315L207.156 142.457C207.047 142.018 206.977 141.57 206.947 141.118L217.157 146.315Z" fill="#D0CDE1"/>
<path d="M218.479 137.382L210.288 134.22C210.583 134.018 210.892 133.838 211.213 133.683L218.479 137.382Z" fill="#D0CDE1"/>
<path d="M275.818 11.658C275.95 11.7937 276.077 11.9311 276.193 12.0743C276.929 12.9486 277.461 13.9762 277.75 15.0823C278.039 16.1883 278.078 17.3449 277.864 18.4678C277.65 19.5908 277.188 20.6518 276.512 21.5735C275.836 22.4953 274.963 23.2547 273.957 23.7963C272.951 24.3379 271.836 24.6481 270.695 24.7043C269.554 24.7606 268.415 24.5614 267.36 24.1214C266.305 23.6814 265.362 23.0115 264.599 22.1607C263.836 21.3098 263.272 20.2994 262.948 19.2029C262.846 18.8607 262.769 18.5112 262.719 18.1574C262.487 16.6027 262.737 15.0141 263.436 13.6061C264.134 12.198 265.248 11.0382 266.626 10.283C268.004 9.5278 269.58 9.2136 271.142 9.38277C272.704 9.55193 274.177 10.1963 275.361 11.229C275.519 11.363 275.67 11.5067 275.818 11.658Z" fill="#44BBA4"/>
<path d="M275.818 11.6582C275.95 11.7939 276.077 11.9314 276.193 12.0745L266.992 19.1198L275.362 11.2292C275.519 11.3633 275.671 11.5069 275.818 11.6582Z" fill="#D0CDE1"/>
<path d="M276.557 16.3486L269.833 24.7005C269.382 24.6704 268.934 24.6004 268.495 24.4916L276.557 16.3486Z" fill="#D0CDE1"/>
<path d="M268.456 12.364L262.948 19.2031C262.846 18.8609 262.769 18.5114 262.719 18.1576L268.456 12.364Z" fill="#D0CDE1"/>
<path d="M131.663 153.33C131.663 153.33 148.526 154.033 148.526 158.251C148.526 162.468 129.556 158.251 129.556 158.251L131.663 153.33Z" fill="#A0616A"/>
<path d="M106.37 218L74.7535 215.891L73.3483 199.021L66.3224 213.782L35.4084 209.565C36.111 182.853 47.3525 156.845 48.0551 153.33C48.7576 149.816 50.4369 135.293 50.4369 135.293C53.5072 128.777 69.5964 128.165 82.208 128.756C87.4353 128.995 92.0724 129.445 94.9319 129.768C96.8218 129.979 97.939 130.133 97.939 130.133C102.976 135.328 106.223 142.407 108.218 150.315C115.412 178.804 106.37 218 106.37 218Z" fill="#2F2E41"/>
<path d="M71.2408 54.9198C80.9415 54.9198 88.8055 47.052 88.8055 37.3465C88.8055 27.641 80.9415 19.7732 71.2408 19.7732C61.54 19.7732 53.676 27.641 53.676 37.3465C53.676 47.052 61.54 54.9198 71.2408 54.9198Z" fill="#A0616A"/>
<path d="M59.2965 41.564C59.2965 41.564 54.3784 63.3549 46.6499 69.6813C38.9214 76.0077 76.8613 69.6813 76.8613 69.6813C76.8613 69.6813 68.4302 55.6226 74.7535 49.2962C81.0768 42.9698 59.2965 41.564 59.2965 41.564Z" fill="#A0616A"/>
<path d="M95.1287 131.539L83.4727 132.833L50.8655 136.46C50.8655 136.46 50.711 136.045 50.437 135.293C48.0692 128.833 36.6662 97.3979 35.4086 87.9575C34.0034 77.4135 48.7578 64.7607 48.7578 64.7607C48.7578 64.7607 62.8096 61.949 67.0251 61.949C71.2406 61.949 88.1028 68.2754 88.1028 68.2754L94.391 124.868L94.932 129.768L95.1287 131.539Z" fill="#D0CDE1"/>
<path opacity="0.15" d="M108.218 150.315L84.5899 136.46C84.5899 136.46 84.1753 135.11 83.4727 132.833C83.1214 131.694 82.6929 130.316 82.2081 128.756C79.482 119.997 74.9082 105.545 71.2407 94.9868C65.62 78.8194 93.021 123.807 93.021 123.807L94.391 124.868L94.932 129.768C96.8219 129.979 97.9391 130.133 97.9391 130.133C102.977 135.328 106.223 142.407 108.218 150.315Z" fill="black"/>
<path d="M76.8615 69.6812C76.8615 69.6812 69.8356 78.8194 75.4563 94.9868C81.077 111.154 88.8055 136.46 88.8055 136.46L129.556 160.359L135.176 153.33L97.2366 123.807C97.2366 123.807 95.8314 70.3842 88.8055 68.2754C81.7796 66.1666 76.8615 69.6812 76.8615 69.6812Z" fill="#D0CDE1"/>
<path d="M42.083 131.188C42.083 131.188 51.9193 151.573 56.1348 149.464C60.3503 147.355 45.596 126.267 45.596 126.267L42.083 131.188Z" fill="#A0616A"/>
<path d="M41.0293 75.3047L3.79202 106.234C3.79202 106.234 -10.2598 116.075 15.7361 123.104C41.7319 130.133 43.8396 134.351 43.8396 134.351C43.8396 134.351 46.65 125.213 50.163 126.619L19.9516 111.857L44.5422 97.0956L41.0293 75.3047Z" fill="#D0CDE1"/>
<path d="M26.0633 51.77C28.0176 50.8016 32.3333 48.8474 36.0093 46.4929C35.7516 38.8334 36.6943 31.8802 39.454 28.1946C41.003 24.6757 44.2558 21.1527 46.8034 18.3782C53.0598 11.565 66.8939 7.76186 69.3476 11.166C87.9056 11.5326 89.8593 26.0863 89.8593 26.0863C89.7628 32.1738 83.439 32.3664 77.8994 32.1446C78.3955 36.3004 77.0735 40.6186 73.2453 42.5336C65.9248 46.1957 63.7286 50.9564 67.3889 54.2522C71.0492 57.5481 77.6377 66.337 68.853 68.5343C60.0683 70.7315 58.9702 75.126 61.5325 76.957C64.0947 78.788 55.676 73.6612 55.676 73.6612C55.676 73.6612 54.2119 82.4501 46.5253 80.2529C45.8365 80.0559 45.148 79.5514 44.4711 78.7968C42.3952 81.0789 40.5432 82.4283 39.1474 82.4357C31.1533 82.4781 32.112 73.6197 32.112 73.6197C32.112 73.6197 22.6234 76.2858 25.5842 75.2137C28.545 74.1417 28.6718 69.6137 20.8046 65.1282C12.9374 60.6426 21.6504 53.9564 26.0633 51.77Z" fill="#2F2E41"/>
<path d="M124.145 74.732L124.018 74.7152L124.329 75.8976C124.623 77.5471 125.049 79.1702 125.605 80.7509L134.723 115.43C135.014 116.537 135.622 117.534 136.471 118.3C137.321 119.067 138.376 119.568 139.506 119.743L158.101 122.621C159.304 122.807 160.534 122.615 161.623 122.072C162.711 121.528 163.604 120.66 164.179 119.587L181.85 86.564C182.402 85.649 182.907 84.7062 183.362 83.7392L183.962 82.618L183.868 82.6057C185.741 78.1722 186.566 73.3657 186.277 68.561C185.989 63.7563 184.595 59.0832 182.205 54.9059C179.815 50.7285 176.493 47.1599 172.498 44.4782C168.503 41.7964 163.943 40.074 159.173 39.4451C154.403 38.8163 149.552 39.2981 144.999 40.8529C140.446 42.4076 136.314 44.9934 132.923 48.4087C129.533 51.824 126.977 55.9764 125.455 60.5424C123.932 65.1083 123.484 69.9644 124.145 74.732H124.145Z" fill="#3F3D56"/>
<path d="M159.242 124.887C158.915 124.887 158.588 124.862 158.264 124.811L138.827 121.803C137.593 121.612 136.441 121.065 135.513 120.228C134.585 119.391 133.921 118.301 133.604 117.093L124.073 80.8439C123.49 79.1845 123.043 77.4807 122.734 75.7492L122.493 74.1634C121.845 69.0972 122.382 63.9496 124.063 59.1269C125.744 54.3041 128.522 49.9383 132.179 46.374C135.835 42.8097 140.27 40.1446 145.132 38.5889C149.995 37.0333 155.152 36.6297 160.197 37.4101L160.113 37.9528C155.123 37.1835 150.022 37.5915 145.217 39.1445C140.413 40.6974 136.038 43.3522 132.441 46.8972C128.843 50.4421 126.124 54.779 124.5 59.562C122.875 64.3449 122.391 69.4414 123.084 74.445L123.27 75.6312C123.576 77.3481 124.02 79.0375 124.597 80.6831L134.135 116.953C134.425 118.058 135.032 119.055 135.88 119.82C136.729 120.585 137.782 121.086 138.911 121.26L158.348 124.269C159.548 124.453 160.777 124.261 161.863 123.718C162.95 123.176 163.842 122.309 164.417 121.239L164.901 121.498C164.351 122.521 163.535 123.377 162.539 123.974C161.543 124.57 160.403 124.886 159.242 124.887Z" fill="#D0CDE1"/>
<path d="M164.173 82.6143L152.346 114.922L153.013 115.166L164.839 82.8586L164.173 82.6143Z" fill="#D0CDE1"/>
<path d="M144.862 79.6251L144.153 79.6562L145.663 114.029L146.372 113.998L144.862 79.6251Z" fill="#D0CDE1"/>
<path d="M157.599 141.32L132.693 137.466C132.508 137.436 132.342 137.334 132.232 137.182C132.121 137.03 132.075 136.841 132.104 136.656C132.133 136.47 132.234 136.304 132.385 136.192C132.536 136.081 132.725 136.034 132.91 136.062L157.816 139.917C157.909 139.93 157.998 139.962 158.078 140.011C158.158 140.059 158.228 140.123 158.283 140.198C158.339 140.273 158.379 140.359 158.401 140.45C158.423 140.541 158.428 140.635 158.413 140.728C158.399 140.82 158.366 140.909 158.318 140.989C158.269 141.069 158.205 141.138 158.129 141.193C158.054 141.249 157.968 141.288 157.877 141.31C157.786 141.332 157.691 141.335 157.599 141.32Z" fill="#3F3D56"/>
<path d="M158.238 136.029L133.332 132.174C133.239 132.16 133.15 132.128 133.07 132.08C132.99 132.032 132.92 131.968 132.865 131.893C132.809 131.817 132.769 131.732 132.747 131.641C132.724 131.55 132.72 131.455 132.735 131.363C132.749 131.27 132.781 131.182 132.83 131.102C132.879 131.022 132.943 130.952 133.019 130.897C133.094 130.842 133.18 130.803 133.271 130.781C133.362 130.759 133.456 130.755 133.549 130.77L158.455 134.625C158.547 134.639 158.636 134.671 158.717 134.719C158.797 134.767 158.867 134.831 158.922 134.906C158.978 134.982 159.018 135.067 159.04 135.158C159.062 135.249 159.066 135.344 159.052 135.436C159.038 135.529 159.005 135.618 158.957 135.697C158.908 135.777 158.844 135.847 158.768 135.902C158.692 135.957 158.607 135.997 158.516 136.018C158.425 136.04 158.33 136.044 158.238 136.029Z" fill="#3F3D56"/>
<path d="M158.876 130.737L133.97 126.882C133.785 126.853 133.619 126.751 133.509 126.599C133.399 126.447 133.353 126.258 133.381 126.072C133.41 125.887 133.511 125.72 133.662 125.609C133.813 125.498 134.002 125.451 134.187 125.478L159.093 129.333C159.279 129.363 159.445 129.465 159.555 129.617C159.665 129.769 159.711 129.958 159.682 130.143C159.654 130.329 159.553 130.495 159.402 130.607C159.251 130.718 159.062 130.765 158.876 130.737H158.876Z" fill="#3F3D56"/>
<path d="M144.372 144.4C149.312 145.164 153.743 143.029 154.269 139.631L136.378 136.862C135.853 140.26 139.432 143.635 144.372 144.4Z" fill="#3F3D56"/>
<path d="M153.325 75.8078C152.262 75.6435 151.383 74.8031 150.901 74.2398C150.743 74.0551 150.589 73.8635 150.435 73.6716C149.873 72.9725 149.343 72.3123 148.605 71.968C146.976 71.2075 145.056 72.2697 143.394 73.4094L142.993 72.8236C144.82 71.5702 146.951 70.4124 148.905 71.3242C149.793 71.7385 150.401 72.4951 150.988 73.2266C151.138 73.4129 151.287 73.5987 151.44 73.7779C151.941 74.3634 152.941 75.3123 154.012 75.0935C154.463 74.9618 154.883 74.7395 155.245 74.44C155.522 74.2338 155.814 74.0496 156.118 73.8889C156.737 73.5922 157.429 73.4852 158.108 73.5812C158.787 73.6772 159.423 73.972 159.935 74.4285C160.117 74.6016 160.29 74.7845 160.453 74.9765C160.772 75.3407 161.074 75.6844 161.466 75.8094C162.046 75.995 162.66 75.6632 163.309 75.3127C163.979 74.9509 164.672 74.5766 165.458 74.6689C165.484 74.672 165.509 74.6754 165.535 74.6794C166.933 74.8958 167.578 76.443 167.942 77.5977L167.265 77.8116C166.77 76.242 166.166 75.4614 165.375 75.3744C164.812 75.3082 164.246 75.614 163.647 75.9376C162.895 76.3435 162.118 76.763 161.251 76.4862C160.67 76.3014 160.288 75.8661 159.919 75.445C159.774 75.2727 159.619 75.1084 159.456 74.9527C159.048 74.5954 158.545 74.3648 158.008 74.2889C157.472 74.213 156.924 74.2951 156.434 74.5253C156.162 74.6699 155.902 74.8353 155.655 75.0199C155.215 75.3793 154.703 75.6415 154.154 75.7893C153.881 75.845 153.6 75.8512 153.325 75.8078Z" fill="#D0CDE1"/>
</g>
<defs>
<clipPath id="clip0">
<path d="M0 -14H278V218H0V-14Z" fill="white"/>
</clipPath>
</defs>
</svg>
