<svg width="118" height="68" viewBox="0 0 118 68" fill="none" xmlns="http://www.w3.org/2000/svg">
<path d="M62.9014 19.2201C62.9014 19.2201 62.4276 24.6826 61.243 24.9201C60.0584 25.1576 63.8491 34.6575 63.8491 34.6575H69.5351L74.0365 33.47L71.9043 28.245C71.9043 28.245 69.0612 24.4451 71.1935 21.3576C73.3258 18.2702 62.9014 19.2201 62.9014 19.2201Z" fill="#A0616A"/>
<path opacity="0.1" d="M62.9014 19.2201C62.9014 19.2201 62.4276 24.6826 61.243 24.9201C60.0584 25.1576 63.8491 34.6575 63.8491 34.6575H69.5351L74.0365 33.47L71.9043 28.245C71.9043 28.245 69.0612 24.4451 71.1935 21.3576C73.3258 18.2702 62.9014 19.2201 62.9014 19.2201Z" fill="black"/>
<path d="M51.0555 61.0196C51.0555 61.0196 44.8957 72.8944 49.8709 75.2694C54.8462 77.6444 56.0308 77.4069 56.0308 78.1194C56.0308 78.8319 55.0831 78.5944 55.5569 79.7818C56.0308 80.9693 54.6093 85.7193 56.0308 88.5692C57.4523 91.4192 56.9784 93.5567 56.9784 93.5567C56.9784 93.5567 56.9784 93.7942 57.4523 94.7442C57.9261 95.6941 58.163 96.4066 57.9261 96.8816C57.6892 97.3566 56.2677 100.444 57.6892 101.157C59.1107 101.869 66.4551 102.344 67.1659 101.157C67.8766 99.9691 66.4551 99.2566 67.1659 98.5441C67.8766 97.8316 68.3505 97.5941 67.8766 97.1191C67.4028 96.6441 66.929 90.7067 66.929 90.7067C66.929 90.7067 68.1136 83.8193 67.6397 82.8693C67.1659 81.9193 66.4551 80.9693 66.929 80.2568C67.4028 79.5443 67.8766 79.7818 68.1136 78.8319C68.3505 77.8819 68.8243 75.7444 68.8243 75.7444L71.4304 75.5069L77.5903 76.6944C77.5903 76.6944 84.4609 84.2943 92.0422 86.6693C92.0422 86.6693 94.1745 88.8067 94.8852 88.8067C95.596 88.8067 95.596 88.8067 95.3591 89.2817C95.1221 89.7567 94.4114 89.7567 94.8852 90.2317C95.3591 90.7067 96.0698 89.9942 95.596 90.7067C95.1221 91.4192 94.6483 91.4192 95.1221 91.8942C95.596 92.3692 94.8852 94.9817 94.8852 95.2191C94.8852 95.4566 92.753 117.781 93.4637 118.256C94.1745 118.731 104.125 120.156 104.836 118.256C105.546 116.356 104.362 113.981 104.362 113.981C104.362 113.981 107.916 85.4818 106.968 83.5818C106.02 81.6818 102.703 73.1319 84.9347 67.6695C84.9347 67.6695 79.9594 66.7195 79.9594 66.007C79.9594 65.2945 79.4856 60.7821 78.5379 60.5446C77.5903 60.3071 72.1412 60.0696 72.1412 60.0696L65.2706 62.2071L55.7939 60.5446L51.0555 61.0196Z" fill="#2F2E41"/>
<path d="M68.5876 24.2075C72.6438 24.2075 75.932 20.9112 75.932 16.8451C75.932 12.7789 72.6438 9.48267 68.5876 9.48267C64.5314 9.48267 61.2432 12.7789 61.2432 16.8451C61.2432 20.9112 64.5314 24.2075 68.5876 24.2075Z" fill="#A0616A"/>
<path d="M67.8769 33.47L65.0339 30.3825L61.8825 24.2076C61.8825 24.2076 59.5848 23.4951 59.1109 24.6826C58.6371 25.8701 50.1081 29.67 50.1081 29.67C50.1081 29.67 52.2403 49.6198 51.2927 51.5197C50.345 53.4197 48.6866 61.0196 50.1081 61.7321C51.5296 62.4446 58.1633 61.7321 60.2955 62.6821C62.4278 63.6321 68.5876 63.6321 70.246 62.4446C71.9044 61.2571 72.3783 60.3071 74.0367 61.0196C75.4486 61.6262 78.7492 40.8891 79.6994 34.7095C79.7795 34.1904 79.713 33.6593 79.5075 33.1762C79.302 32.6931 78.9657 32.2773 78.5366 31.9759C76.4108 30.4812 72.5822 27.9053 71.9044 28.2451C70.9568 28.72 67.8769 33.47 67.8769 33.47Z" fill="#575A89"/>
<path d="M78.0642 32.52C78.6205 32.6594 79.121 32.9662 79.4984 33.399C79.8757 33.8319 80.112 34.3701 80.1753 34.9415L82.0918 52.2323C82.0918 52.2323 77.3534 62.4447 74.9843 55.5572C72.6151 48.6698 78.0642 32.52 78.0642 32.52Z" fill="#575A89"/>
<path d="M77.5905 53.8947L82.8027 52.4697C82.8027 52.4697 83.7504 59.1197 84.698 59.1197C85.6457 59.1197 81.3812 62.9196 79.2489 62.4446C77.1167 61.9696 74.0368 60.3071 73.7999 59.1197C73.5629 57.9322 75.9321 52.9447 75.9321 52.9447L77.5905 53.8947Z" fill="#575A89"/>
<path d="M63.0433 20.0213C63.5427 18.9174 63.456 17.6297 63.8688 16.4905C64.0899 15.8805 64.4487 15.33 64.9172 14.8819C65.3856 14.4339 65.951 14.1005 66.5693 13.9078C67.1875 13.7151 67.8419 13.6683 68.4811 13.7711C69.1204 13.8738 69.7274 14.1233 70.2545 14.5001C70.7856 14.8797 71.3181 15.4131 71.9664 15.3406C72.6645 15.2626 73.2872 14.4818 73.9291 14.768C74.6405 15.0851 74.4483 16.3632 75.1691 16.6584C75.5485 16.8138 75.9967 16.5745 76.2156 16.2272C76.4069 15.8621 76.5112 15.4576 76.5202 15.0453C76.6197 14.0324 76.7095 12.9603 76.2713 12.0422C76.087 11.731 75.9263 11.4063 75.7908 11.0708C75.7141 10.7576 75.6833 10.4348 75.6994 10.1127C75.6954 8.92208 75.6087 7.6802 75.011 6.65135C74.3477 5.50968 73.1217 4.77964 71.8426 4.46109C70.5636 4.14254 69.2235 4.19138 67.9103 4.30283C65.7393 4.48707 63.4753 4.88199 61.765 6.23487C61.5325 6.40512 61.3324 6.61584 61.1742 6.857C61.0241 7.14349 60.918 7.45108 60.8596 7.76934C60.4898 9.27891 59.9353 10.7369 59.2088 12.1101C58.8594 12.6923 58.5738 13.3106 58.357 13.9544C58.1756 14.6086 58.1879 15.3541 58.5675 15.9163C58.8767 16.3741 59.3709 16.618 59.7591 16.9923C60.1438 17.3631 60.3239 18.0763 60.75 18.3571C61.1221 18.6023 61.5677 18.4292 61.9472 18.689C62.4343 19.0226 62.4695 19.754 63.0433 20.0213Z" fill="#2F2E41"/>
<path d="M69.0615 37.0324L69.7723 35.6074C69.7723 35.6074 80.1966 38.6949 82.3289 41.5449C82.3289 41.5449 87.5411 38.2199 90.3841 38.6949L93.2271 39.1699L84.4612 47.0073L73.326 46.0573L69.0615 37.0324Z" fill="#F2F2F2"/>
<path d="M68.5876 35.6074L58.874 49.1448L72.8521 56.0322C72.8521 56.0322 74.1589 56.7447 75.164 56.0322L84.4611 51.7572L93.227 39.1699L84.4611 43.6823C84.4611 43.6823 83.5134 41.7823 81.6181 42.7323L68.5876 35.6074Z" fill="#008DC9"/>
<path d="M83.5134 59.5947L85.4088 54.6072C85.4088 54.6072 89.6733 49.1448 87.3041 46.5323C84.935 43.9199 82.3289 54.1322 82.3289 54.1322L83.5134 59.5947Z" fill="#A0616A"/>
<path d="M61.6453 58.7988L65.781 55.4377C65.781 55.4377 72.2038 52.8573 71.4619 49.4059C70.72 45.9545 63.3544 53.4778 63.3544 53.4778L61.6453 58.7988Z" fill="#A0616A"/>
<path opacity="0.1" d="M51.411 34.7762H51.1741C51.1741 34.7762 47.5019 30.3825 46.7912 36.3199C46.0804 42.2574 43.7112 61.9696 49.8711 62.6821C56.0309 63.3946 60.4139 59.7134 60.4139 59.7134C60.4139 59.7134 64.9153 52.826 63.2569 52.826C62.4545 52.826 60.2721 52.4647 58.2816 52.5885C56.1582 52.7205 54.2502 53.3202 54.3725 52.7072C54.6094 51.5197 58.0447 36.4387 51.411 34.7762Z" fill="black"/>
<path d="M51.0557 30.1449L50.108 29.6699C50.108 29.6699 46.3173 30.3824 45.6066 36.3198C44.8958 42.2573 42.5267 61.9695 48.6865 62.682C54.8464 63.3945 63.1385 61.732 63.1385 61.732C63.1385 61.732 64.7969 52.7071 63.1385 52.7071C61.4801 52.7071 52.951 53.8946 53.1879 52.7071C53.4249 51.5197 57.6894 31.8074 51.0557 30.1449Z" fill="#575A89"/>
<path d="M80.0781 56.8635L82.6906 52.8496L84.3427 59.476L80.0781 61.376V56.8635Z" fill="#575A89"/>
<path d="M33.9913 40.9512H18.8286V56.151H33.9913V40.9512Z" fill="#FF6B35"/>
</svg>
