<svg width="342" height="248" viewBox="0 0 342 248" fill="none" xmlns="http://www.w3.org/2000/svg">
<g clip-path="url(#clip0)">
<path d="M122.944 68.2783C119.761 71.5822 115.927 74.191 111.684 75.94C107.442 77.689 102.882 78.5403 98.2939 78.4402C93.7055 78.3401 89.1877 77.2908 85.0254 75.3584C80.8631 73.426 77.1467 70.6525 74.1106 67.2129L0 137.32L104.214 247.352L203.549 153.383L122.944 68.2783Z" fill="#F2F2F2"/>
<path d="M98.9572 71.5172C102.868 71.5219 106.74 70.7356 110.339 69.2058C113.938 67.676 117.19 65.4342 119.9 62.6154L99.2341 40.7962L77.1548 61.6828C79.8803 64.7771 83.2347 67.2548 86.9944 68.9507C90.754 70.6465 94.8323 71.5215 98.9572 71.5172Z" fill="#F2F2F2"/>
<path d="M261.639 103.427C261.646 110.28 260.3 117.068 257.679 123.401C255.058 129.733 251.213 135.487 246.364 140.333C241.515 145.179 235.758 149.022 229.421 151.641C223.084 154.261 216.293 155.605 209.436 155.599C209.138 155.599 208.841 155.595 208.544 155.589C207.291 155.57 206.054 155.507 204.823 155.399C194.734 154.505 185.123 150.698 177.161 144.44C169.2 138.183 163.232 129.746 159.984 120.158C156.737 110.57 156.35 100.244 158.872 90.4405C161.393 80.6368 166.714 71.7777 174.186 64.9433C181.657 58.1088 190.956 53.594 200.95 51.9492C210.944 50.3043 221.201 51.6005 230.471 55.6797C239.741 59.7589 247.623 66.4449 253.157 74.9229C258.691 83.4009 261.638 93.3047 261.639 103.427Z" fill="#44BBA4"/>
<path opacity="0.1" d="M239.688 84.5474C242.961 78.7798 245.097 72.4388 245.981 65.8675C239.037 59.1779 230.375 54.5413 220.956 52.4721C211.536 50.4029 201.728 50.9821 192.617 54.1453C183.507 57.3084 175.452 62.932 169.345 70.3921C163.238 77.8522 159.319 86.8572 158.021 96.4081C166.595 104.691 177.757 109.778 189.637 110.817C190.867 110.924 192.104 110.987 193.357 111.006C193.655 111.013 193.952 111.016 194.25 111.016C203.491 111.026 212.569 108.58 220.554 103.929C228.538 99.2777 235.142 92.5888 239.688 84.5474Z" fill="black"/>
<path d="M232.532 154.334H148.69V247.926H232.532V154.334Z" fill="#2F2E41"/>
<path opacity="0.1" d="M259.383 122.904C256.138 130.517 251.13 137.251 244.771 142.55C238.411 147.85 230.883 151.563 222.806 153.385H234.43V246.978H157.1L200.498 171.854L210.442 154.641L211.167 153.385L244.08 96.4141L259.383 122.904Z" fill="black"/>
<path d="M254.837 97.0464L298.418 172.486L342 247.926H254.837H167.673L211.255 172.486L254.837 97.0464Z" fill="#3F3D56"/>
<path d="M342 247.294H11.6973V247.926H342V247.294Z" fill="#2F2E41"/>
<path d="M54.2611 232.98L53.6837 237.789L50.4113 239.328L46.754 238.174L44.2517 239.328L43.4819 234.904L47.9091 229.902L54.2611 232.98Z" fill="#9F616A"/>
<path d="M51.9515 236.635C51.9515 236.635 54.9358 233.158 54.9835 234.897C55.0313 236.635 61.5758 242.598 61.5758 242.598C61.5758 242.598 71.7775 245.676 63.8856 247.6C55.9937 249.524 38.67 243.945 38.0925 242.791C37.5151 241.637 42.9047 232.788 43.4821 233.557C44.0596 234.327 46.9469 237.02 51.9515 236.635Z" fill="#2F2E41"/>
<path d="M59.2655 179.501C59.2655 179.501 60.4204 188.543 59.2655 189.889C58.1106 191.236 58.688 193.929 59.2655 194.314C59.8429 194.698 58.4955 196.237 57.5331 197.007C56.5707 197.776 55.2233 201.239 55.2233 201.239C55.2233 201.239 50.0262 214.897 50.0262 216.244C50.0262 217.59 47.7163 220.476 47.9088 221.438C48.1013 222.4 46.5614 225.478 46.7539 226.055C46.9464 226.632 44.2516 231.826 45.0215 232.595C45.7915 233.365 56.3782 236.058 55.8007 234.327C55.2233 232.595 54.8383 230.479 55.2233 230.479C55.6083 230.479 57.3406 228.363 56.9557 227.594C56.5707 226.824 68.5048 206.625 68.5048 206.625L59.2655 179.501Z" fill="#2F2E41"/>
<path opacity="0.1" d="M51.9515 236.635C51.9515 236.635 54.9358 233.158 54.9835 234.897C55.0313 236.635 61.5758 242.598 61.5758 242.598C61.5758 242.598 71.7775 245.676 63.8856 247.6C55.9937 249.524 38.67 243.945 38.0925 242.791C37.5151 241.637 42.9047 232.788 43.4821 233.557C44.0596 234.327 46.9469 237.02 51.9515 236.635Z" fill="black"/>
<path opacity="0.1" d="M59.2655 179.501C59.2655 179.501 60.4204 188.543 59.2655 189.889C58.1106 191.236 58.688 193.929 59.2655 194.314C59.8429 194.698 58.4955 196.237 57.5331 197.007C56.5707 197.776 55.2233 201.239 55.2233 201.239C55.2233 201.239 50.0262 214.897 50.0262 216.244C50.0262 217.59 47.7163 220.476 47.9088 221.438C48.1013 222.4 46.5614 225.478 46.7539 226.055C46.9464 226.632 44.2516 231.826 45.0215 232.595C45.7915 233.365 56.3782 236.058 55.8007 234.327C55.2233 232.595 54.8383 230.479 55.2233 230.479C55.6083 230.479 57.3406 228.363 56.9557 227.594C56.5707 226.824 68.5048 206.625 68.5048 206.625L59.2655 179.501Z" fill="black"/>
<path d="M78.8992 230.592L81.0164 235.978L80.054 243.48L73.8944 243.096L70.4297 240.018V233.478L78.8992 230.592Z" fill="#9F616A"/>
<path d="M77.7442 237.132C77.7442 237.132 79.8615 230.207 81.0164 232.131C81.748 233.366 82.3913 234.652 82.9413 235.978C82.9413 235.978 92.3731 242.134 94.8754 242.134C97.3777 242.134 99.6876 245.212 96.4153 246.366C93.1431 247.52 68.1199 249.059 67.7349 246.366C67.3499 243.673 68.1199 235.016 69.2748 235.978C70.4297 236.94 76.3968 239.056 77.7442 237.132Z" fill="#2F2E41"/>
<path d="M82.5562 151.913C82.5562 151.913 91.0403 157.675 91.4253 158.444C91.8103 159.214 96.733 161.58 92.6908 163.503C88.6486 165.427 77.9365 153.259 77.9365 153.259L82.5562 151.913Z" fill="#9F616A"/>
<path d="M78.3218 140.755C78.3218 140.755 84.4814 152.682 83.3265 153.067C82.1716 153.452 77.5519 155.76 77.5519 155.76L75.4346 143.641L78.3218 140.755Z" fill="#575A88"/>
<path opacity="0.1" d="M78.3218 140.755C78.3218 140.755 84.4814 152.682 83.3265 153.067C82.1716 153.452 77.5519 155.76 77.5519 155.76L75.4346 143.641L78.3218 140.755Z" fill="black"/>
<path d="M77.9368 150.759C77.9368 150.759 79.2842 160.762 78.7067 162.878C78.1293 164.994 79.0917 196.735 78.3218 198.466C77.5518 200.197 76.9743 211.355 76.9743 212.701C76.9743 214.048 78.5142 225.013 78.8992 225.975C79.2842 226.937 80.4391 230.207 79.8617 231.746C79.2842 233.285 71.3923 237.132 70.2374 235.786C69.0824 234.439 70.0449 230.207 69.0824 230.015C68.12 229.822 66.9651 220.781 66.9651 220.781L60.6131 185.385C60.6131 185.385 48.6789 155.76 51.3738 152.875C54.0686 149.989 77.9368 150.759 77.9368 150.759Z" fill="#2F2E41"/>
<path d="M70.8146 82.4675C76.0237 82.4675 80.2464 78.2473 80.2464 73.0414C80.2464 67.8355 76.0237 63.6153 70.8146 63.6153C65.6056 63.6153 61.3828 67.8355 61.3828 73.0414C61.3828 78.2473 65.6056 82.4675 70.8146 82.4675Z" fill="#9F616A"/>
<path d="M74.2799 80.7362C74.2799 80.7362 71.2001 88.8157 71.5851 90.547C71.97 92.2783 62.5382 87.4691 62.5382 87.4691C62.5382 87.4691 63.1157 78.043 62.5382 75.5422C61.9608 73.0414 74.2799 80.7362 74.2799 80.7362Z" fill="#9F616A"/>
<path d="M48.4174 133.37C48.4597 134.984 48.4867 135.946 48.4867 135.946C48.4867 135.946 47.9092 144.795 48.8717 147.681C49.8341 150.566 49.8341 152.682 50.4115 154.606C50.5809 155.166 52.885 155.466 56.1207 155.599C59.0888 155.72 62.8404 155.702 66.4418 155.62C72.405 155.481 77.964 155.162 78.8994 154.991C81.0168 154.606 78.5145 151.336 79.2844 149.604C80.0543 147.873 77.937 125.751 77.937 125.751C77.937 125.751 78.1295 113.247 77.1671 108.437C76.2046 103.628 72.5474 95.9334 71.7775 94.9715C71.0075 94.0097 71.585 93.4326 73.3174 92.2784C75.0497 91.1241 73.3174 86.6996 73.3174 86.6996C70.0451 84.0065 61.7682 83.6217 61.7682 83.6217C61.7682 83.6217 49.0641 96.7028 48.2942 99.396C47.8284 101.023 47.9959 114.024 48.1999 124.062C48.2788 127.838 48.3616 131.197 48.4174 133.37Z" fill="#575A88"/>
<path d="M64.6552 157.299C64.6552 157.299 71.9697 172.304 66.1951 173.266C60.4205 174.228 57.5332 159.608 57.5332 159.608L64.6552 157.299Z" fill="#9F616A"/>
<path d="M79.6338 68.2636C79.9673 66.6469 78.731 65.1356 77.429 64.12C74.5933 61.9221 71.1046 60.7332 67.5161 60.7417C64.9918 60.7554 62.3866 61.4227 60.4787 63.0746C58.2534 65.0014 57.2383 68.0912 57.4251 71.0278C57.6119 73.9644 58.8899 76.7496 60.6136 79.1352C61.4409 80.2802 62.7696 81.4654 64.0916 80.9664C64.6088 80.7243 65.0527 80.3496 65.378 79.8804C66.2259 78.8289 66.9648 77.6941 67.5833 76.4933C68.0564 75.5745 68.4662 74.606 69.1368 73.8194C69.8073 73.0328 70.8151 72.4412 71.8394 72.5825C72.6855 72.6992 73.5155 73.2944 74.3224 73.0148C75.2202 72.7036 75.4372 71.5563 75.5086 70.6093C75.5869 69.5713 75.5315 68.369 75.8199 67.3877C76.1353 67.556 79.4788 69.0382 79.6338 68.2636Z" fill="#2F2E41"/>
<path opacity="0.1" d="M48.417 133.37C50.5729 141.14 55.5178 154.235 55.8008 154.798C55.872 154.943 55.9836 155.225 56.1203 155.599C59.0884 155.72 62.84 155.702 66.4414 155.62C65.8831 154.162 65.2326 152.753 65.2326 152.298C65.2326 151.336 60.6129 126.52 60.6129 126.52C60.6129 126.52 64.2701 115.555 67.5424 106.321C70.8146 97.0876 57.8219 98.9151 57.8219 98.9151C50.8924 97.1838 49.6412 100.165 49.6412 100.165C49.6412 100.165 49.0311 116.382 48.1995 124.062C47.9858 126.03 47.7587 127.436 47.5239 127.867C47.2159 128.43 47.6317 130.55 48.417 133.37Z" fill="black"/>
<path d="M60.6129 92.6631C60.6129 92.6631 69.4673 96.3181 66.195 105.552C62.9228 114.786 59.2655 125.751 59.2655 125.751C59.2655 125.751 63.8852 150.566 63.8852 151.528C63.8852 152.49 66.7725 157.684 65.6176 158.646C64.4626 159.608 56.7632 161.531 56.5707 160.569C56.3782 159.608 54.8383 154.798 54.4534 154.029C54.0684 153.259 45.0216 129.213 46.1765 127.097C47.0264 125.54 47.772 111.274 48.1066 103.846C48.1839 101.727 48.812 99.6651 49.9289 97.8624C51.0459 96.0597 52.6132 94.5787 54.4768 93.5652C56.2714 92.6146 58.3608 92.1004 60.6129 92.6631Z" fill="#575A88"/>
<path d="M96.1715 148.959H84.7817V160.341H96.1715V148.959Z" fill="#44BBA4"/>
<path d="M90.4763 148.959C92.3984 148.959 93.9565 147.401 93.9565 145.48C93.9565 143.56 92.3984 142.002 90.4763 142.002C88.5542 142.002 86.9961 143.56 86.9961 145.48C86.9961 147.401 88.5542 148.959 90.4763 148.959Z" fill="#3F3D56"/>
<path d="M224.985 34.8854C234.476 34.8854 242.169 27.1964 242.169 17.7115C242.169 8.22658 234.476 0.537552 224.985 0.537552C215.494 0.537552 207.801 8.22658 207.801 17.7115C207.801 27.1964 215.494 34.8854 224.985 34.8854Z" fill="#FF6584"/>
<path d="M224.939 29.4419C224.939 42.3996 217.231 46.924 207.723 46.924C198.215 46.924 190.507 42.3996 190.507 29.4419C190.507 16.4842 207.723 0 207.723 0C207.723 0 224.939 16.4842 224.939 29.4419Z" fill="#F2F2F2"/>
<path d="M207.096 44.9417L207.272 34.0973L214.61 20.6814L207.3 32.3962L207.379 27.5203L212.436 17.8138L207.4 26.2299L207.542 17.46L212.958 9.73234L207.565 16.0808L207.654 0L207.094 21.2881L207.14 20.4098L201.634 11.9874L207.052 22.0957L206.539 31.8903L206.524 31.6301L200.176 22.7667L206.504 32.5486L206.44 33.7736L206.429 33.7919L206.434 33.8924L205.132 58.7418H206.871L207.08 45.9067L213.392 36.1488L207.096 44.9417Z" fill="#3F3D56"/>
<path d="M266.422 48.8096C262.308 61.0978 253.562 62.9443 244.545 59.9294C235.529 56.9145 229.655 50.1798 233.769 37.8917C237.883 25.6035 259.443 15.4299 259.443 15.4299C259.443 15.4299 270.536 36.5214 266.422 48.8096Z" fill="#F2F2F2"/>
<path d="M244.58 57.8508L248.19 47.6227L259.408 37.2263L248.756 46.018L250.38 41.419L258.257 33.8178L250.809 40.202L253.729 31.9305L261.317 26.3194L254.188 30.6297L259.377 15.4079L252.088 35.4187L252.411 34.6004L249.863 24.8674L251.791 36.1712L248.195 45.2971L248.264 45.0457L245.058 34.6276L247.954 45.9105L247.504 47.0516L247.487 47.0656L247.46 47.1626L238.337 70.3154L239.986 70.8668L244.259 58.7608L253.343 51.5087L244.58 57.8508Z" fill="#3F3D56"/>
<path d="M180.968 38.922C185.63 51.0127 180.066 58.0046 171.195 61.422C162.323 64.8394 153.503 63.3881 148.84 51.2974C144.177 39.2067 154.309 17.6377 154.309 17.6377C154.309 17.6377 176.305 26.8312 180.968 38.922Z" fill="#F2F2F2"/>
<path d="M169.896 59.7979L166.158 49.6157L168.177 34.46L165.572 48.0186L163.891 43.4401L165.117 32.5654L163.446 42.2285L160.423 33.9943L162.695 24.8374L159.948 32.6995L154.244 17.6624L161.382 37.7275L161.109 36.8915L152.941 31.0113L161.634 38.4962L164.679 47.8197L164.572 47.5826L155.46 41.5936L164.884 48.4464L165.265 49.6125L165.261 49.6337L165.302 49.7257L173.03 73.3802L174.653 72.7554L170.228 60.7038L172.607 49.3301L169.896 59.7979Z" fill="#3F3D56"/>
<path d="M144.404 141.654C143.338 143.355 141.954 143.315 140.706 142.533C139.458 141.751 138.819 140.524 139.885 138.823C140.952 137.123 144.569 136.375 144.569 136.375C144.569 136.375 145.471 139.954 144.404 141.654Z" fill="#44BBA4"/>
<path d="M271.631 90.687C271.829 92.6844 270.709 93.4991 269.244 93.6438C267.778 93.7885 266.521 93.2083 266.324 91.2109C266.126 89.2135 268.529 86.4105 268.529 86.4105C268.529 86.4105 271.434 88.6896 271.631 90.687Z" fill="#44BBA4"/>
<path d="M138.73 105.436C137.663 107.137 136.279 107.097 135.031 106.315C133.784 105.533 133.144 104.305 134.211 102.605C135.278 100.904 138.894 100.156 138.894 100.156C138.894 100.156 139.797 103.735 138.73 105.436Z" fill="#44BBA4"/>
</g>
<defs>
<clipPath id="clip0">
<path d="M0 0H342V248H0V0Z" fill="white"/>
</clipPath>
</defs>
</svg>
