<svg width="327" height="95" viewBox="0 0 327 95" fill="none" xmlns="http://www.w3.org/2000/svg">
<g style="mix-blend-mode:multiply" opacity="0.1">
<path d="M80.9305 -12.6066C80.7943 -13.6778 80.5188 -14.7269 80.111 -15.7275C80.059 -15.9167 79.9679 -16.0931 79.8436 -16.2454C79.7193 -16.3977 79.5645 -16.5226 79.389 -16.6121C79.1545 -16.6728 78.9086 -16.6755 78.6727 -16.6201L74.9948 -16.0602C74.6869 -16.0462 74.3922 -15.9323 74.1556 -15.7359C73.6766 -15.2347 74.1483 -14.4277 74.1336 -13.7363C74.1171 -12.9589 73.4227 -12.3278 72.6697 -12.119C71.9011 -11.9645 71.1082 -11.9743 70.3436 -12.1477L65.2009 -12.9427C66.7155 -13.4238 68.0636 -14.3188 69.0914 -15.5255C69.7682 -16.3231 70.1283 -17.8121 69.1502 -18.1898C68.8596 -18.2691 68.5565 -18.2933 68.2569 -18.2611C65.9269 -18.2431 64.0933 -20.1784 61.912 -20.9935C60.5159 -21.4814 59.0005 -21.5178 57.5824 -21.0972C56.1643 -20.6767 54.9162 -19.8208 54.0165 -18.6521L56.7562 -18.5207C57.0139 -18.5348 57.2695 -18.467 57.4859 -18.3271C58.0863 -17.8363 57.3399 -16.8937 57.4245 -16.1253C57.5344 -15.127 58.8669 -14.9138 59.8713 -14.8129C60.8758 -14.7119 62.1501 -13.9 61.6669 -13.0182C56.6183 -11.2883 51.4809 -16.3998 46.1788 -15.7706C44.8368 -15.6113 43.5697 -15.0869 42.2595 -14.7571C34.2561 -12.7427 25.982 -18.1174 17.8061 -16.9792C15.9885 -16.6709 14.2021 -16.2022 12.4681 -15.5787C11.3553 -15.2152 10.1946 -14.8224 9.3861 -13.9795C8.57757 -13.1365 8.26986 -11.695 9.03581 -10.8136C6.92465 -10.6406 4.79939 -10.8416 2.7588 -11.4071C3.31061 -11.102 3.76968 -10.6547 4.0878 -10.1122C4.40592 -9.5697 4.57137 -8.95202 4.56677 -8.32398C1.27045 -7.78926 -1.93858 -6.81588 -4.97402 -5.43001C-4.40749 -4.49283 -3.74578 -3.61595 -2.9993 -2.81315L-7.17236 -0.146147C-5.7625 0.207222 -5.03357 2.11968 -5.85346 3.3141C-4.39159 2.66715 -3.4856 0.993534 -1.92238 0.654219C-0.898261 0.431921 0.143801 0.848682 1.11533 1.24019C2.08686 1.6317 3.15467 2.01133 4.16041 1.7175C5.16616 1.42366 5.90798 0.126362 5.2689 -0.700184C9.5677 -1.9479 14.0104 -2.6384 18.4869 -2.75455C18.8323 -2.79766 19.1825 -2.73154 19.488 -2.56556C20.0707 -2.16337 19.9174 -1.29469 19.886 -0.589838C19.8546 0.115019 20.4069 1.04139 21.0401 0.723677C20.2951 1.36637 20.932 2.57627 21.6468 3.25211C22.3616 3.92794 23.2231 4.86048 22.7855 5.7396C22.6713 5.96905 22.4776 6.15263 22.3677 6.38416C22.0433 7.06756 22.5583 7.86429 23.1658 8.31812C23.7733 8.77196 24.5174 9.08914 24.9394 9.71759C25.3613 10.346 25.1697 11.4461 24.4151 11.5338L22.2704 8.82486C21.5376 9.58074 21.0352 10.5278 20.8216 11.5561C23.0959 13.4057 23.438 17.1702 21.5339 19.3955C20.5609 20.5327 19.1772 21.2237 17.9695 22.1107C16.7618 22.9977 15.6444 24.2608 15.6474 25.7541C15.6526 28.3341 15.4407 30.731 16.4126 33.123C18.2047 37.5336 20.2737 41.8278 22.6074 45.9801C23.2203 47.0705 24.0123 48.2656 25.2538 48.4533C23.6848 44.6535 22.2724 40.7946 21.0165 36.8766C21.8345 36.8798 22.7797 36.9444 23.2592 37.6036C23.6563 38.1495 23.571 38.8917 23.6944 39.5542C23.8513 40.1961 24.113 40.808 24.469 41.3657L31.9615 54.6426C32.5826 55.7432 33.2951 56.9246 34.4821 57.3704C35.2411 57.6553 36.1192 57.6017 36.8178 58.0119C37.3653 58.3335 37.7341 58.9044 38.2923 59.2073C39.8706 60.0638 42.0655 58.4211 43.5405 59.4438C43.9622 59.7362 44.2305 60.2007 44.6191 60.5355C45.9814 61.7091 48.2161 60.924 49.7887 61.7995C50.8023 62.3637 51.3275 63.4921 51.8681 64.5147C53.2222 67.0762 55.4133 69.5857 58.3153 69.7896C59.2269 69.8537 60.158 69.6818 61.0491 69.8835C61.9402 70.0852 62.8173 70.8588 62.6743 71.7567C62.4291 73.296 63.1936 74.9816 62.9883 76.5266C62.6143 79.3411 58.6013 80.5779 58.2566 83.396C58.1811 84.0131 58.2992 84.65 58.1516 85.2539C57.9705 85.9942 57.4117 86.5969 57.2131 87.3326C56.8368 88.727 57.841 90.1146 58.9442 91.0527C60.0473 91.9907 61.3632 92.7996 61.9663 94.1127C62.6038 95.5007 62.2907 97.1191 62.498 98.631C62.9506 101.932 65.8165 104.379 68.7659 105.957C69.6645 106.437 70.6294 106.903 71.211 107.737C71.9702 108.825 71.8945 110.26 72.148 111.561C72.7689 114.746 75.4643 117.37 75.5408 120.614C75.5952 122.919 74.3069 125.011 73.5374 127.186C72.8159 129.27 72.5549 131.484 72.772 133.678C72.9891 135.872 73.6793 137.993 74.7955 139.897C75.3712 140.864 76.0597 141.776 76.4669 142.824C77.1936 144.695 76.9579 146.821 77.6279 148.713C78.5137 151.214 80.9479 153.279 80.7149 155.921C81.82 158.203 84.2602 159.325 86.714 160.005L91.1118 161.222C91.9538 161.456 92.8337 161.691 93.6912 161.522C94.5486 161.353 95.3669 160.645 95.3448 159.775C93.1882 159.292 90.9624 158.777 89.1847 157.47C87.4069 156.162 86.1891 153.834 86.8636 151.74C87.1764 150.769 87.8418 149.647 87.2092 148.845C86.847 148.386 86.1846 148.266 85.7761 147.846C85.1389 147.192 85.3578 146.094 85.8159 145.306C86.274 144.517 86.9362 143.813 87.121 142.921C87.2143 142.422 87.1519 141.906 86.9424 141.443C86.7328 140.981 86.386 140.593 85.9485 140.332C86.7639 140.025 87.5055 139.552 88.1252 138.942C88.6976 138.292 88.962 137.289 88.5117 136.55C89.8489 136.719 91.4276 136.801 92.3054 135.784C93.0064 134.971 92.9583 133.756 92.6813 132.722C92.4043 131.687 91.9362 130.682 91.9216 129.611C95.0063 129.757 98.0978 129.652 101.165 129.299C100.722 127.813 99.7138 126.557 98.355 125.798C99.7444 125.564 101.01 123.91 101.449 122.577C101.888 121.245 101.776 119.795 101.505 118.419C101.401 118.065 101.386 117.69 101.463 117.329C101.62 116.833 102.109 116.531 102.563 116.272L109.459 112.332C109.871 112.127 110.244 111.853 110.562 111.522C111.284 110.678 111.177 109.403 110.807 108.357C110.437 107.311 109.845 106.328 109.702 105.228C109.276 101.939 112.815 99.5795 114.01 96.4836C114.478 95.2686 114.574 93.948 114.664 92.6497C114.762 91.2554 114.769 89.6358 113.693 88.7372C112.661 87.8759 111.049 88.068 109.97 87.2669C108.98 86.5323 108.639 85.1057 107.557 84.5124C106.576 83.9736 105.344 84.3163 104.252 84.0629C102.33 83.6167 101.119 81.4121 99.1558 81.208C98.0478 81.0928 96.7938 81.6317 95.8857 80.9898C95.0855 80.4241 95.0535 79.2873 94.9012 78.3226C94.6342 76.8234 93.9119 75.4415 92.8314 74.3632C91.7508 73.2849 90.3641 72.5618 88.8579 72.2915C87.7155 72.1092 86.472 72.1784 85.5002 71.5539C84.5161 70.9215 84.0649 69.7376 83.2919 68.8618C82.0461 67.4503 80.0839 66.9489 78.2459 66.519L70.7694 64.7705C69.4422 64.4602 67.7314 64.2956 67.0192 65.4521C66.8083 65.8925 66.6591 66.3595 66.5756 66.8401C66.3087 67.7095 65.7716 68.4723 65.0415 69.019C64.3114 69.5657 63.4259 69.868 62.5122 69.8826C61.8857 68.8193 60.8705 68.0379 59.6787 67.7015C58.9205 67.4913 58.1091 67.4679 57.386 67.1587C56.9922 66.9675 56.6418 66.6984 56.3562 66.3678C56.0706 66.0372 55.8558 65.6521 55.725 65.2361C55.5942 64.82 55.5501 64.3818 55.5954 63.9483C55.6408 63.5147 55.7746 63.0949 55.9886 62.7146C56.4197 61.9511 56.5862 61.0677 56.4623 60.2008C56.3385 59.3338 55.9313 58.5315 55.3036 57.9177C54.0321 56.7822 52.193 56.5078 50.4881 56.6214C50.0416 55.6522 50.7882 54.5587 51.5927 53.8544C52.3972 53.15 53.3742 52.4576 53.5494 51.4058C53.825 49.7513 51.7029 48.4947 50.0916 48.988C48.4804 49.4813 47.452 51.0382 46.7722 52.5728C46.3822 53.4533 46.0506 54.3806 45.4353 55.123C44.8201 55.8655 43.8293 56.3971 42.8922 56.1588C41.5655 55.8215 41.0531 54.2535 40.7594 52.9229C40.3655 51.1377 39.9692 49.3278 40.0518 47.502C40.1343 45.6761 40.7531 43.8014 42.1065 42.5654C44.3119 40.5512 47.6952 40.7487 50.6716 41.07C49.9684 40.2818 50.1422 38.9535 50.8946 38.2116C51.2917 37.8606 51.769 37.6112 52.285 37.4851C52.8009 37.359 53.34 37.36 53.8555 37.488C54.7524 37.6737 55.5603 38.1543 56.1493 38.8523C56.9951 39.8782 57.2356 41.2633 57.875 42.4277C58.5143 43.5921 59.9518 44.5853 61.1285 43.9606C62.1448 43.421 62.3061 42.0191 62.0531 40.9011C61.8002 39.783 61.263 38.6959 61.3546 37.5535C61.5294 35.3738 63.8008 34.0617 65.8051 33.164C67.8095 32.2663 70.1046 31.059 70.4221 28.8953C70.433 28.4716 70.5133 28.0526 70.66 27.6547C70.8822 27.3033 71.1912 27.0143 71.5574 26.8151C77.4072 22.9694 83.3542 19.0767 90.0402 16.9753C90.388 16.866 90.4288 16.9875 90.7833 16.9018C91.2795 16.6166 90.9507 15.8274 90.4751 15.5096C89.9994 15.1917 89.3636 14.9479 89.2429 14.3906C89.1542 13.981 89.3968 13.5787 89.4599 13.1644C89.6147 12.1463 88.3904 11.2063 87.4396 11.6133C86.9025 10.9057 87.9652 10.0836 88.8245 9.84824C91.4048 9.1418 94.0535 8.71136 96.7257 8.56424C97.034 8.51547 97.35 8.56893 97.6248 8.71638C98.0736 9.02564 98.0162 9.73499 97.6982 10.1764C97.3801 10.6179 96.8853 10.895 96.4889 11.2685C96.0559 11.6882 95.747 12.2182 95.596 12.8005C95.4451 13.3829 95.4578 13.9953 95.6328 14.571C97.0278 15.2769 98.5444 16.0036 100.089 15.7549C101.634 15.5062 103.006 13.7793 102.28 12.4001C101.603 11.1158 99.5718 10.8261 99.2225 9.41845C98.8135 7.77037 101.159 6.30459 100.63 4.69043C100.399 3.98338 99.6907 3.56726 99.1472 3.05679C98.5053 2.43092 98.0686 1.62655 97.8946 0.749334C97.7206 -0.127882 97.8173 -1.03694 98.1721 -1.85849C97.2867 -1.70355 96.377 -1.76208 95.5191 -2.02914C94.6612 -2.29621 93.8802 -2.76402 93.2416 -3.39336C92.0623 -4.57734 91.1214 -6.44503 89.4468 -6.39206C87.91 -6.34345 86.5864 -4.5599 85.1494 -5.10403C84.7959 -5.2379 84.4231 -5.51036 84.0806 -5.35072C83.9684 -5.27821 83.8741 -5.18127 83.8051 -5.06723C83.736 -4.95318 83.6939 -4.82501 83.682 -4.6924C83.3168 -2.9556 83.945 -0.976749 82.9934 0.524048C81.958 2.15721 79.5629 2.38364 78.3076 3.85634C77.6262 4.65578 77.3622 5.73301 76.7358 6.57584C76.1095 7.41867 74.7801 7.95454 74.0284 7.22005C74.3979 6.46455 74.4987 5.60674 74.3146 4.78682C74.1305 3.9669 73.6722 3.23336 73.0147 2.7061C72.3168 2.25317 71.5646 1.88917 70.7756 1.62265C69.8939 1.2514 69.0552 0.786392 68.2741 0.235744C67.8828 0.000936508 67.5648 -0.33749 67.3558 -0.741726C67.1904 -1.24789 67.2127 -1.79624 67.4186 -2.28748C67.7997 -3.37457 68.4721 -4.33744 69.3632 -5.07214C70.2542 -5.80685 71.3301 -6.28547 72.4746 -6.45634C73.4754 -6.59179 74.6402 -6.54407 75.3025 -7.30265C75.653 -7.70403 75.8369 -8.31087 76.3456 -8.47388C76.6709 -8.53891 77.0087 -8.49753 77.3085 -8.35591L81.044 -7.04792C81.4608 -6.86073 81.9196 -6.78526 82.3748 -6.82897C82.6004 -6.85922 82.8063 -6.97325 82.951 -7.14819C83.0957 -7.32313 83.1685 -7.54604 83.1549 -7.77218C83.0355 -8.3893 82.081 -8.68543 82.1679 -9.30789C82.2165 -9.5096 82.3255 -9.6919 82.4805 -9.83069C83.8286 -11.2581 85.4773 -12.3713 87.3085 -13.0907C89.1397 -13.81 91.1081 -14.1178 93.0728 -13.9918C93.5443 -13.2214 92.7986 -12.3093 92.1782 -11.6516C91.5577 -10.994 91.0592 -9.81907 91.8095 -9.31288C92.117 -9.15676 92.459 -9.08013 92.8041 -9.09005C93.7238 -8.96621 94.6176 -8.69653 95.4514 -8.29125C96.7423 -7.73242 98.0083 -7.12099 99.2496 -6.45694C99.14 -7.27112 99.0353 -8.12885 99.3456 -8.89013C99.6558 -9.65141 100.537 -10.2485 101.308 -9.95205C102.05 -9.66632 102.43 -8.68874 103.221 -8.59917C104.276 -8.4797 104.692 -10.0298 104.251 -10.9906C103.811 -11.9513 102.939 -12.7558 102.866 -13.8094C102.817 -14.5201 103.089 -15.4016 102.518 -15.832C102.315 -15.9612 102.084 -16.0417 101.844 -16.0669L87.5942 -18.6756C86.748 -18.8305 85.5253 -18.7118 85.4878 -17.8566C85.4669 -17.3793 85.8955 -16.9071 85.7056 -16.4682C85.503 -15.9998 84.8374 -16.0426 84.3526 -15.877C83.6004 -15.6199 83.223 -14.7314 83.2952 -13.9434C83.4275 -13.1605 83.7323 -12.4164 84.1878 -11.7645C83.2609 -12.1501 81.8574 -12.221 80.9305 -12.6066Z" fill="#008DC9"/>
</g>
<g style="mix-blend-mode:multiply" opacity="0.1">
<path d="M297.469 90.9868C296.822 90.8061 296.114 90.6281 295.494 90.8863C294.873 91.1445 294.51 92.0511 295.009 92.5009C298.906 92.3499 302.827 92.1999 306.691 92.7264C311.143 93.333 315.548 94.8355 320.02 94.3935C317.466 93.6439 314.869 93.0445 312.244 92.5985L307.867 91.7667C306.693 91.522 305.506 91.3396 304.312 91.2203C301.815 91.0151 299.925 91.6717 297.469 90.9868Z" fill="#008DC9"/>
</g>
<g style="mix-blend-mode:multiply" opacity="0.1">
<path d="M301.37 77.4846C301.047 77.4577 300.646 77.4345 300.479 77.7113C300.319 77.9757 300.502 78.325 300.416 78.6214C300.298 79.0265 299.765 79.1299 299.345 79.0748C298.925 79.0196 298.471 78.8876 298.098 79.0891C297.91 79.2174 297.768 79.4031 297.694 79.6184C297.62 79.8336 297.619 80.0669 297.69 80.2831C297.842 80.7124 298.088 81.1027 298.41 81.4258C298.961 82.1158 299.588 82.7416 300.28 83.2913C301.619 84.2748 303.434 84.7488 304.278 86.1765C304.397 86.4532 304.58 86.6982 304.811 86.8914C305.216 87.1466 305.745 86.9524 306.181 86.7542L307.709 86.0595C307.984 85.9608 308.23 85.7945 308.424 85.5761C308.773 85.1047 308.558 84.4346 308.265 83.9268C307.972 83.4191 307.597 82.8936 307.66 82.3115C307.772 81.2735 309.114 80.8765 309.665 79.9884C310.221 79.0932 309.859 77.9398 309.923 76.8894C309.998 75.661 310.774 74.0631 309.526 73.1453C308.465 72.3653 307.451 73.086 306.689 73.9472C305.083 75.7632 304.323 77.7299 301.37 77.4846Z" fill="#008DC9"/>
</g>
<g style="mix-blend-mode:multiply" opacity="0.1">
<path d="M310.648 59.1305C311.17 60.1244 312.258 60.7175 312.827 61.6855C313.444 62.7346 313.374 64.0902 314.043 65.1071C314.729 66.1504 316.111 66.7044 316.496 67.8911C316.916 69.1866 315.962 70.7613 316.722 71.8933C316.864 72.0784 317.043 72.2321 317.248 72.3448C317.452 72.4574 317.678 72.5266 317.911 72.5479C318.144 72.5692 318.379 72.5421 318.601 72.4684C318.822 72.3947 319.026 72.276 319.2 72.1198C319.52 71.7726 319.692 71.3146 319.678 70.8435C319.664 70.3724 319.465 69.9253 319.125 69.5976C318.675 69.1894 318.028 69.013 317.653 68.5361C317.457 68.2609 317.327 67.9452 317.271 67.6126C317.066 66.6533 317.099 65.6587 317.367 64.7148C317.467 64.4753 317.493 64.2111 317.44 63.9569C317.271 63.4677 316.605 63.433 316.138 63.206C315.076 62.6906 315.102 61.2004 315.288 60.04C315.164 60.8126 312.398 59.4986 312.108 59.0609C311.533 58.1916 311.846 56.5146 311.732 55.554C310.489 56.1495 310.01 57.9152 310.648 59.1305Z" fill="#008DC9"/>
</g>
<g style="mix-blend-mode:multiply" opacity="0.1">
<path d="M282.779 74.4229C282.268 73.8543 281.499 73.2595 280.814 73.6024C280.292 73.864 280.148 74.5828 280.353 75.1277C280.602 75.657 280.986 76.1123 281.467 76.4487C282.894 77.6191 284.43 78.6754 285.674 80.0359C287.901 82.4707 289.081 85.756 291.503 87.999C291.99 88.519 292.635 88.8661 293.339 88.9871C294.044 89.0524 294.837 88.6031 294.918 87.9027C294.985 87.3258 294.58 86.8094 294.185 86.3819C293.244 85.3638 292.214 84.4266 291.326 83.3628C290.916 82.9542 290.658 82.4186 290.595 81.8444C290.591 81.2717 291.116 80.6721 291.674 80.814C290.995 80.6415 290.492 79.517 289.496 79.3056C288.664 79.129 288.463 79.6415 287.472 79.219C285.583 78.413 284.101 75.8961 282.779 74.4229Z" fill="#008DC9"/>
</g>
<g style="mix-blend-mode:multiply" opacity="0.1">
<path d="M327.163 19.0567C326.621 18.8965 326.089 18.7072 325.567 18.4896C324.165 18.0708 322.309 19.0963 322.496 20.5411C322.62 21.501 323.518 22.1482 324.014 22.9809C324.75 24.2157 324.554 25.7819 324.167 27.1647C324.072 27.5929 323.892 27.9977 323.637 28.3551C323.28 28.7324 322.853 29.0378 322.38 29.2544C320.486 30.311 318.816 31.7226 317.461 33.4112C317.314 33.5672 317.212 33.7595 317.164 33.9682C317.097 34.456 317.59 34.8114 317.869 35.2182C318.488 36.122 318.041 37.3381 318.102 38.4301C318.092 38.5844 318.123 38.7387 318.19 38.8781C318.257 39.0175 318.359 39.1376 318.486 39.2268C318.86 39.4153 319.302 39.0951 319.504 38.7306C320.175 37.5211 319.669 35.5796 320.928 34.9964C321.167 34.8861 321.455 34.8396 321.614 34.6315C321.866 34.3013 321.623 33.8125 321.751 33.4179C321.943 32.8254 322.757 32.7988 323.382 32.8251C324.459 32.8699 325.536 32.7273 326.563 32.4038C326.966 32.3085 327.332 32.0976 327.616 31.7972C327.992 31.33 327.959 30.6656 327.884 30.0716C327.507 27.1101 326.564 24.2476 325.106 21.6387C326.212 21.7793 327.415 21.901 328.369 21.3276C328.904 21.0066 329.544 20.0465 329.279 19.393C328.86 18.3596 328.103 19.2295 327.163 19.0567Z" fill="#008DC9"/>
</g>
<g style="mix-blend-mode:multiply" opacity="0.1">
<path d="M185.386 35.3447C185.518 36.0508 185.649 36.7943 185.416 37.4743C185.183 38.1543 184.452 38.7225 183.761 38.5141C183.224 38.3524 182.914 37.816 182.534 37.4071C180.416 35.1328 175.638 36.4495 174.33 33.6358C173.796 32.4875 174.159 31.1117 173.795 29.8995C173.565 29.1989 173.108 28.5941 172.495 28.18C171.882 27.7659 171.149 27.5659 170.409 27.6116C169.735 27.7085 169.078 27.9034 168.461 28.1901C164.325 29.838 159.982 30.9185 155.553 31.4017C154.712 31.4527 153.879 31.6034 153.073 31.8506C151.255 32.5065 150.012 34.1837 149.128 35.8952C148.244 37.6067 147.591 39.4596 146.405 40.9801C145.159 42.5782 143.413 43.6972 141.784 44.9077C141.157 45.3099 140.635 45.8546 140.26 46.4969C139.907 47.2181 139.927 48.0568 139.954 48.8585L140.287 58.5949C140.33 59.8473 140.384 61.1444 140.947 62.2651C141.651 63.6646 143.041 64.5812 144.005 65.8175C144.989 67.088 145.502 68.6576 145.456 70.2609C145.436 70.9054 145.371 71.6678 145.876 72.0726C146.183 72.2706 146.542 72.3734 146.908 72.3679L160.147 73.4458C162.476 73.6354 165.057 73.9472 166.578 75.7123C167.295 76.5453 167.872 77.7433 168.971 77.8327C169.442 77.871 169.901 77.6785 170.373 77.6413C171.562 77.5476 172.608 78.4459 173.267 79.4353C174.266 80.9434 174.719 82.7443 174.552 84.5424C174.444 85.6711 174.092 86.7684 174.016 87.8997C173.728 92.2042 177.396 95.9441 177.467 100.258C177.509 102.795 176.298 105.166 175.118 107.415C177.023 110.286 175.463 114.11 176.221 117.466C176.941 120.651 179.61 123.144 180.275 126.34C180.58 127.803 180.597 129.603 181.894 130.357C182.463 130.633 183.094 130.759 183.726 130.722C187.539 130.767 191.308 129.913 194.725 128.231C196.329 127.439 197.991 126.258 198.271 124.498C198.497 123.08 197.773 121.493 198.509 120.257C199.377 118.801 201.599 118.916 202.875 117.797C204.946 115.98 203.331 112.516 204.17 109.899C204.924 107.547 207.52 106.298 208.806 104.187C209.313 103.279 209.676 102.3 209.884 101.282C210.473 98.8507 210.84 96.3709 210.98 93.8735C211.014 92.356 211.127 90.8414 211.317 89.3354C212.704 80.7618 221.225 75.0208 223.991 66.7844C224.255 65.9978 224.379 64.9501 223.676 64.505C223.258 64.307 222.785 64.2577 222.336 64.3655L216.233 65.1309C215.475 65.226 214.671 65.3149 213.975 65.0017C213.279 64.6884 212.78 63.8123 213.149 63.1469C214.186 61.2791 212.054 58.9187 211.106 57.0045C208.555 51.8503 205.517 46.949 202.033 42.3668C201.81 42.1311 201.671 41.8294 201.635 41.5076L203.368 41.565C202.783 39.4778 201.818 37.1939 199.78 36.4304C198.631 36.0001 197.359 36.1489 196.134 36.2155C192.623 36.4063 188.86 35.8791 185.386 35.3447Z" fill="#008DC9"/>
</g>
<g style="mix-blend-mode:multiply" opacity="0.1">
<path d="M196.136 -11.6899C197.055 -10.7195 198.084 -9.69075 199.413 -9.52162C201.76 -9.22287 203.448 -11.6376 204.522 -13.7351C204.562 -13.2003 204.81 -12.7021 205.214 -12.3465C205.617 -11.9908 206.144 -11.8056 206.682 -11.8304C207.262 -11.9274 207.815 -12.1425 208.306 -12.4621C212.957 -14.9905 218.167 -16.3301 223.466 -16.3607C223.416 -16.7601 223.515 -17.1641 223.746 -17.4947C223.977 -17.8254 224.323 -18.0592 224.717 -18.1512C225.794 -18.3637 226.765 -17.4369 227.285 -16.4742C227.805 -15.5115 228.129 -14.3956 228.955 -13.675C229.78 -12.9543 231.379 -12.9857 231.706 -14.0292C232.019 -15.0311 230.97 -15.8854 230.098 -16.4761C229.226 -17.0667 228.308 -18.1599 228.895 -19.0316C233.348 -20.0122 237.828 -20.9965 242.385 -21.1914C243.161 -21.1645 243.934 -21.297 244.656 -21.5805C245.351 -21.9198 245.903 -22.6898 245.716 -23.4371C244.722 -23.2045 243.68 -23.2719 242.725 -23.6305C241.769 -23.9891 240.942 -24.6228 240.35 -25.4507C246.672 -25.9697 253.397 -26.4121 259.001 -23.4525C259.673 -22.0166 256.246 -20.8218 257.163 -19.5267C257.455 -19.1136 258.041 -19.0652 258.549 -19.0558C262.443 -18.9839 266.359 -18.9133 270.209 -19.4982C271.616 -19.7119 273.037 -20.0136 274.45 -19.8403C276.802 -19.5516 278.815 -17.99 281.129 -17.4808C282.071 -17.2736 283.128 -17.2666 283.922 -17.8117C284.716 -18.3568 285.057 -19.5979 284.406 -20.3065C286.586 -22.4313 290.203 -21.9047 293.078 -20.8875C295.953 -19.8702 298.677 -18.2297 301.72 -18.003C303.902 -17.8404 306.114 -18.4243 308.27 -18.0532C309.625 -17.8199 310.886 -17.2203 312.21 -16.8519C314.715 -16.1551 317.364 -16.3022 319.965 -16.2687C326.6 -16.1798 333.163 -14.8825 339.328 -12.4412C340.13 -12.1814 340.865 -11.7495 341.48 -11.1761C342.054 -10.565 342.347 -9.61532 341.961 -8.87234L335.59 -9.79834C336.191 -8.62287 337.743 -8.42255 339.004 -8.01704C340.266 -7.61153 341.573 -6.22614 340.815 -5.14454C339.449 -5.57734 338.211 -4.21833 337.52 -2.96794C336.83 -1.71755 335.989 -0.220051 334.557 -0.143883C333.275 -0.0756721 331.724 -1.16182 330.888 -0.192043C332.043 1.25704 333.032 2.82961 333.836 4.49655C334.662 6.20786 335.25 8.36417 334.134 9.90386C333.959 10.1787 333.692 10.3842 333.381 10.4849C332.469 10.7145 331.877 9.60521 331.224 8.93289C330.4 8.08566 329.154 7.8457 328.039 7.44836C326.923 7.05102 325.748 6.26938 325.661 5.09394C325.607 4.3626 325.995 3.68277 326.281 3.00684C326.761 1.86754 326.971 0.6334 326.895 -0.599781C326.832 -1.59188 326.553 -2.62389 325.836 -3.31707C325.12 -4.01025 323.884 -4.23015 323.115 -3.59526C322.756 -3.29903 322.468 -2.82518 322.002 -2.80746C321.179 -2.77613 320.547 -4.20389 319.885 -3.71651C319.963 -3.19721 319.854 -2.66725 319.579 -2.21929C317.603 -0.509338 314.566 -1.23275 312.018 -0.628704C310.807 -0.283766 309.647 0.22019 308.569 0.869862C308.166 1.04137 307.823 1.32785 307.583 1.69315C307.265 2.308 307.616 3.09546 308.176 3.50427C308.771 3.867 309.439 4.09385 310.132 4.16842C313.239 4.75366 316.39 5.65963 318.843 7.64442C321.295 9.62922 322.903 12.9102 322.127 15.959L316.001 10.1362C316.234 12.5811 316.366 15.0327 316.397 17.491C316.437 17.971 316.371 18.4538 316.203 18.9057C315.767 19.8652 314.583 20.1881 313.546 20.3999C313.257 20.4544 312.984 20.5691 312.743 20.7362C312.502 20.9034 312.3 21.1194 312.149 21.37C311.998 21.6206 311.902 21.9001 311.867 22.1901C311.833 22.4802 311.86 22.7743 311.948 23.053C312.316 24.2479 313.235 25.1795 314.076 26.1078C314.918 27.036 315.746 28.091 315.856 29.336C315.966 30.5811 315.022 31.9844 313.768 31.8979C312.818 31.8322 312.113 30.9861 311.708 30.1287C311.303 29.2712 311.062 28.3161 310.453 27.5876C308.61 25.3825 304.47 26.3272 302.819 23.9764C302.398 24.4513 302.106 25.0254 301.971 25.6441C301.836 26.2627 301.862 26.9055 302.047 27.5114C302.815 27.033 303.866 27.4775 304.443 28.1725C305.02 28.8676 305.293 29.7587 305.746 30.5393C306.358 31.5928 307.331 32.5266 307.416 33.7402C307.394 34.199 307.401 34.6589 307.439 35.1167C307.591 35.852 308.216 36.38 308.649 36.9946C309.657 38.4246 309.607 40.3892 308.957 42.0118C308.308 43.6344 307.141 44.9902 305.985 46.3047C303.966 48.6006 301.905 50.8831 299.512 52.7898C298.829 53.3338 298.1 53.8688 297.674 54.6294C297.249 55.3901 297.227 56.4577 297.881 57.0363C297.413 57.0596 296.574 57.2885 296.106 57.3118C295.942 55.4452 295.906 53.5695 295.999 51.6981C294.153 50.8164 292.166 53.1776 292.404 55.2007C292.642 57.2239 294.113 58.8474 295.161 60.5978C295.927 61.8778 296.496 63.3703 296.24 64.838C295.984 66.3057 294.667 67.6597 293.176 67.5303C290.803 67.3243 289.81 63.9358 287.461 63.548C287.253 63.4996 287.036 63.521 286.842 63.609C286.494 63.7995 286.433 64.2637 286.413 64.659C286.317 66.5992 286.234 68.6165 286.995 70.4053C288.109 73.0223 290.986 75.2202 290.383 77.9978C287.131 76.4943 285.441 72.8669 284.673 69.3826C283.906 65.8983 283.778 62.2405 282.402 58.9466C281.357 60.2788 279.161 59.1775 278.206 57.78C277.301 56.4551 276.744 54.9224 275.866 53.5797C274.988 52.2369 273.643 51.0345 272.035 50.9607C270.348 50.8833 268.885 52.0346 267.599 53.1224C266.541 54.0169 265.455 54.9466 264.837 56.1831C263.938 57.9825 264.173 60.1037 264.13 62.1129C264.083 64.2851 263.62 66.5768 262.132 68.167C260.644 69.7571 257.897 70.311 256.255 68.8779C255.398 68.1297 254.983 67.0118 254.614 65.9388C252.832 60.7665 251.349 55.4973 250.17 50.157C249.894 51.3759 248.818 52.9469 247.79 52.2289C247.56 52.0359 247.373 51.7964 247.242 51.5262C245.325 48.2937 241.774 46.3548 238.187 45.1922C234.6 44.0297 230.825 43.4874 227.278 42.2097C225.29 41.4934 223.391 40.5525 221.619 39.4055C221.167 40.0658 220.903 40.8354 220.855 41.6327C220.807 42.43 220.977 43.2254 221.347 43.9345C222.134 45.3206 223.914 46.1226 225.439 45.6381C226.226 45.3878 226.892 44.8438 227.673 44.5751C228.455 44.3064 229.504 44.4384 229.846 45.1875C230.173 45.9045 229.678 46.7719 229.924 47.5205C230.297 48.6608 232.026 48.7486 232.631 49.7862C233.08 50.5583 232.71 51.5835 232.068 52.2064C231.426 52.8294 230.569 53.171 229.785 53.6047C227.242 55.0117 225.433 57.4137 223.21 59.2824C220.987 61.1512 217.851 62.5156 215.201 61.3169C215.833 58.1359 212.024 55.8004 211.323 52.6338C211.092 51.5915 211.212 50.4844 210.883 49.4687C210.406 47.9981 209.094 46.987 208.018 45.8725C206.713 44.5061 205.697 42.8936 205.028 41.13C204.36 39.3664 204.054 37.4875 204.127 35.6042C204.185 34.2954 204.427 32.9654 204.127 31.6898C203.827 30.4142 202.766 29.1795 201.45 29.2373C198.445 29.3693 194.66 29.5917 193.084 27.0436C192.521 26.1342 192.276 24.8022 193.09 24.1055C193.663 23.6139 194.511 23.6602 195.264 23.734L202.034 24.3965C203.618 24.5515 205.329 24.6794 206.688 23.8559C208.047 23.0324 208.636 20.8465 207.378 19.8776C206.458 19.1697 204.811 19.2081 204.544 18.0826C204.321 17.1452 205.364 16.0816 204.801 15.2982C204.397 14.7365 203.489 14.8924 202.939 15.3134C202.389 15.7345 201.989 16.3503 201.374 16.6691C200.293 17.2284 199.002 16.6962 197.84 16.3344C196.678 15.9726 195.12 15.9419 194.556 17.0158C193.925 18.2168 195.115 19.7905 194.489 20.994C193.662 22.5851 190.861 21.6793 189.699 23.0479C188.366 24.6184 190.606 26.9602 190.156 28.9665C189.582 29.2493 188.945 29.3791 188.305 29.3434C187.666 29.3076 187.046 29.1075 186.508 28.7625C185.978 28.4041 185.556 27.9096 185.286 27.3316C185.016 26.7535 184.909 26.1136 184.976 25.4798C185.087 24.5773 185.56 23.656 185.243 22.8031C184.987 22.1135 184.291 21.703 183.644 21.3474L177.065 17.7308C176.455 18.858 177.227 20.2555 178.192 21.1021C179.158 21.9487 180.368 22.5864 181.002 23.7006C181.404 24.4726 181.494 25.3678 181.254 26.2036C181.014 27.0393 180.463 27.7525 179.712 28.1974C179.618 28.262 179.511 28.3055 179.399 28.3251C179.286 28.3446 179.171 28.3396 179.06 28.3106C178.955 28.2492 178.864 28.1675 178.791 28.0703C178.718 27.9731 178.666 27.8624 178.637 27.7448C177.476 24.7896 175.733 21.876 172.947 20.3323C170.161 18.7886 166.157 19.106 164.33 21.7064C163.896 22.3241 163.604 23.0282 163.226 23.6812C161.218 27.1506 156.912 28.7935 152.888 28.6862C152.495 28.7079 152.103 28.6163 151.761 28.4226C151.11 27.9758 151.14 27.0279 151.239 26.2481L151.662 22.9386C151.746 22.274 151.869 21.5395 152.398 21.1246C153.143 20.5399 154.218 20.9089 155.168 20.8953C155.887 20.8618 156.578 20.6092 157.148 20.1716C157.718 19.7341 158.139 19.1328 158.354 18.4493C158.545 17.7591 158.544 17.0299 158.35 16.3403C158.156 15.6507 157.776 15.0268 157.252 14.536C156.817 14.1295 156.233 13.6189 156.463 13.0709C156.555 12.9194 156.679 12.7896 156.826 12.6908C156.974 12.592 157.141 12.5265 157.317 12.499C159.022 12.0065 160.823 11.8774 162.5 11.2962C164.176 10.7151 165.802 9.52609 166.199 7.8047C166.321 7.27718 166.376 6.63813 166.853 6.37659C167.092 6.27621 167.348 6.22404 167.608 6.22312C168.517 6.09448 169.344 5.63203 169.928 4.92678C170.511 4.22154 170.808 3.32461 170.76 2.41258C171.563 1.85409 172.689 2.26492 173.466 2.85894C174.243 3.45296 174.929 4.23778 175.875 4.49384C177.638 4.97106 179.341 3.41861 181.168 3.41142C181.936 3.40839 182.731 3.67858 183.454 3.41951C184.186 3.15686 184.624 2.43138 185.186 1.8954C185.749 1.35943 186.735 1.03252 187.254 1.6099L186.812 -1.64795C187.703 -1.42418 188.631 -1.39251 189.535 -1.55505C190.438 -1.71758 191.297 -2.07057 192.052 -2.59031L186.338 -4.51097C186.139 -4.56038 185.955 -4.65802 185.803 -4.79518C185.388 -5.24018 185.801 -5.93365 186.138 -6.43951C186.947 -7.64966 187.082 -9.64306 185.753 -10.2455C184.846 -10.6568 183.805 -10.1632 182.934 -9.68022L178.764 -7.36687C178.631 -6.57824 179.601 -6.1313 180.201 -5.60009C180.565 -5.2787 180.822 -4.85546 180.939 -4.38597C181.056 -3.91648 181.028 -3.42268 180.858 -2.96946C180.688 -2.51623 180.384 -2.12477 179.987 -1.84648C179.589 -1.5682 179.116 -1.41609 178.629 -1.41017C178.904 -1.05497 179.095 -0.642878 179.188 -0.204386C179.281 0.234106 179.273 0.687761 179.166 1.12299L176.36 1.32376C176.045 1.38679 175.718 1.32325 175.45 1.14704C175.149 0.881882 175.19 0.417233 175.121 0.0239677C174.953 -0.925213 174.018 -1.59047 173.065 -1.76105C172.111 -1.93163 171.136 -1.71298 170.192 -1.49709C169.791 -1.35357 169.351 -1.36368 168.957 -1.52545C168.731 -1.67139 168.559 -1.88686 168.468 -2.13895C168.054 -3.1374 168.441 -4.31098 169.106 -5.16483C169.771 -6.01868 170.681 -6.64287 171.498 -7.3537C173.453 -9.05982 174.889 -11.2757 175.644 -13.751C177.189 -14.3949 178.788 -15.2697 180.333 -15.9136C182.715 -17.1131 185.385 -17.6278 188.045 -17.4L193.276 -17.3006C194.825 -17.2711 196.416 -17.2334 197.848 -16.646C199.28 -16.0586 200.539 -14.7881 200.638 -13.2502C200.668 -13.0761 200.652 -12.8973 200.594 -12.7306C200.535 -12.5639 200.435 -12.4148 200.302 -12.2972C200.1 -12.1874 199.871 -12.136 199.641 -12.1489C198.196 -12.0984 197.581 -11.7404 196.136 -11.6899Z" fill="#008DC9"/>
</g>
<g style="mix-blend-mode:multiply" opacity="0.1">
<path d="M154.438 4.62017C154.643 4.42772 154.79 4.18294 154.863 3.91274C154.937 3.64254 154.934 3.35738 154.856 3.08859C154.358 2.89767 153.817 2.84865 153.294 2.94705C152.77 3.04545 152.284 3.28736 151.891 3.64555C151.581 3.95739 151.314 4.30865 151.097 4.69018C150.409 5.80587 149.801 7.13855 150.199 8.38569C150.232 8.52169 150.291 8.64987 150.374 8.76272C150.457 8.87556 150.562 8.9708 150.682 9.04283C150.861 9.11412 151.053 9.14412 151.245 9.13055C152.003 9.12957 152.759 9.08325 153.511 8.99183C153.973 8.93569 154.509 8.806 154.687 8.37876C154.922 7.81714 154.354 7.18155 154.519 6.59611C154.628 6.33431 154.793 6.09928 155.003 5.90744C155.107 5.81084 155.187 5.69147 155.236 5.55879C155.286 5.42611 155.303 5.28378 155.288 5.1431C155.221 4.86841 154.798 4.71256 154.646 4.95122" fill="#008DC9"/>
</g>
<g style="mix-blend-mode:multiply" opacity="0.1">
<path d="M158.365 -0.444453C157.692 -0.598117 156.999 -0.641432 156.312 -0.572699C156.16 -0.577199 156.009 -0.543171 155.874 -0.473808C155.744 -0.377833 155.649 -0.241165 155.605 -0.0854643C155.46 0.377678 155.495 0.87818 155.705 1.31634C155.914 1.75451 156.281 2.09818 156.734 2.2789C156.981 2.33531 157.217 2.42976 157.434 2.55881C158.015 3.00697 157.645 3.92302 157.755 4.64588C157.878 5.45759 158.668 6.13894 158.523 6.94714C158.409 7.58388 157.725 8.08805 157.835 8.7255C157.951 9.39312 158.802 9.59374 159.481 9.6472C159.875 9.71573 160.279 9.66957 160.647 9.51427C161.016 9.26362 161.278 8.88606 161.383 8.45447C161.661 7.63157 161.777 6.7633 161.727 5.89665C161.724 5.50249 161.624 5.11499 161.437 4.7677C161.232 4.49257 161.006 4.23446 160.759 3.99591C159.459 2.49096 160.828 0.246132 158.365 -0.444453Z" fill="#008DC9"/>
</g>
</svg>
