<svg width="191" height="256" viewBox="0 0 191 256" fill="none" xmlns="http://www.w3.org/2000/svg">
<g clip-path="url(#clip0)">
<path d="M166.061 32.4536L138.784 37.0614C138.11 37.1761 137.418 37.0373 136.84 36.672C136.263 36.3067 135.842 35.7408 135.659 35.0838C133.689 27.9886 129.568 18.7326 133.569 14.0861C133.773 12.1313 134.724 10.3303 136.226 9.05792C137.727 7.78553 139.663 7.13983 141.63 7.25523C146.502 -0.353568 154.619 0.788846 160.104 5.54088C165.625 7.44115 167.707 10.8171 166.979 15.3984C169.364 17.4809 170.614 19.8266 170.878 22.4012C171.003 23.834 170.82 25.2768 170.342 26.6335C169.863 27.9902 169.101 29.2295 168.104 30.2687L166.061 32.4536Z" fill="#2F2E41"/>
<path d="M161.82 53.875L140.674 52.6342C142.747 47.8895 143.574 43.3206 142.747 38.9854H158.503C158.467 42.3139 160.128 48.0718 161.82 53.875Z" fill="#9F616A"/>
<path d="M136.367 248.787L135.499 260.614C135.46 261.15 135.536 261.687 135.722 262.191C135.908 262.695 136.2 263.153 136.578 263.535C136.956 263.917 137.412 264.214 137.914 264.405C138.417 264.597 138.955 264.68 139.492 264.647L145.582 264.279C145.864 264.262 146.139 264.183 146.388 264.048C146.636 263.913 146.851 263.725 147.018 263.498C147.185 263.27 147.3 263.009 147.355 262.732C147.409 262.456 147.402 262.17 147.333 261.897L143.953 248.408L136.367 248.787Z" fill="#E6E6E6"/>
<path d="M156.083 248.408L152.702 261.897C152.634 262.17 152.627 262.456 152.681 262.732C152.736 263.009 152.85 263.27 153.018 263.498C153.185 263.725 153.4 263.913 153.648 264.048C153.896 264.183 154.171 264.262 154.453 264.279L160.544 264.647C161.081 264.68 161.619 264.597 162.121 264.405C162.624 264.214 163.079 263.917 163.458 263.535C163.836 263.153 164.128 262.695 164.314 262.191C164.5 261.687 164.576 261.15 164.536 260.614L163.669 248.787L156.083 248.408Z" fill="#E6E6E6"/>
<path d="M164.062 250.429L155.844 249.606L147.662 162.36L144.569 249.325L136.495 249.036L122.886 128.595H174.88L164.062 250.429Z" fill="#44BBA4"/>
<path d="M151.041 44.0065C159.713 44.0065 166.744 36.9933 166.744 28.3421C166.744 19.6909 159.713 12.6777 151.041 12.6777C142.368 12.6777 135.338 19.6909 135.338 28.3421C135.338 36.9933 142.368 44.0065 151.041 44.0065Z" fill="#9F616A"/>
<path d="M168.739 20.8588C162.366 19.7515 156.1 19.5995 150.008 21.0039C146.128 22.271 141.468 22.1543 136.286 21.1102V10.5469L164.263 11.0499L168.739 20.8588Z" fill="#2F2E41"/>
<path d="M161.492 40.9104C154.622 43.7608 147.419 43.6451 139.921 40.9104C142.103 37.1957 138.842 34.2864 137.167 30.5365L165.163 29.7065C163.022 32.9642 159.863 36.813 161.492 40.9104Z" fill="white"/>
<path d="M135.24 28.3975L134.965 28.7271L137.718 31.016L137.994 30.6864L135.24 28.3975Z" fill="white"/>
<path d="M165.67 33.0258L160.85 40.5791L161.213 40.8094L166.033 33.2561L165.67 33.0258Z" fill="white"/>
<path d="M135.742 33.0252L135.379 33.2554L140.198 40.8094L140.561 40.5792L135.742 33.0252Z" fill="white"/>
<path d="M121.187 99.7848L109.163 92.34L119.417 62.3808C120.561 59.2894 122.752 56.6938 125.611 55.0428L129.065 53.0479L129.365 83.271L121.187 99.7848Z" fill="#44BBA4"/>
<path d="M173.16 114.335L171.381 99.1356C171.286 91.1129 172.655 83.3564 175.917 76.2095L177.576 53.875L159.332 46.4302C159.276 46.801 159.229 47.1716 159.175 47.5424L150.625 51.807L142.287 49.9165L142.333 47.2574L125.748 54.7022C131.233 80.1379 128.241 106.552 118.81 137.751L140.659 143.711L140.84 133.245L160.312 131.858C160.513 135.253 160.674 138.588 160.768 141.849C171.755 145.885 172.133 145.818 182.144 140.04C178.157 131.678 175 122.978 173.16 114.335Z" fill="#44BBA4"/>
<path d="M201.209 96.0624L190.015 92.3402L172.108 71.5456L177.576 53.8755L202.453 88.618L201.209 96.0624Z" fill="#44BBA4"/>
<path d="M166.125 112.161C166.308 112.963 166.803 113.66 167.5 114.099C168.197 114.537 169.041 114.682 169.845 114.502L179.348 112.355L177.974 106.304L168.471 108.451C167.667 108.632 166.968 109.125 166.528 109.821C166.088 110.517 165.943 111.359 166.125 112.161V112.161Z" fill="#E6E6E6"/>
<path d="M174.673 105.162L180.063 115.088C189.129 112.566 196.987 104.614 204.526 95.2353L202.453 88.6177L189.6 91.9265L174.673 105.162Z" fill="#44BBA4"/>
<path d="M104.395 74.0249L114.743 75.868L138.394 109.415L125.829 106.466L104.395 74.0249Z" fill="#E6E6E6"/>
<path d="M102.56 73.6143C102.402 73.6166 102.248 73.6612 102.113 73.7434C101.979 73.8255 101.869 73.9422 101.795 74.0812C101.721 74.2202 101.686 74.3765 101.694 74.5336C101.701 74.6907 101.751 74.843 101.838 74.9744L123.946 108.435C124.069 108.622 124.259 108.755 124.478 108.806L134.764 111.22C134.938 111.261 135.119 111.248 135.285 111.183C135.451 111.119 135.594 111.005 135.693 110.858C135.793 110.711 135.846 110.537 135.844 110.359C135.842 110.181 135.787 110.008 135.684 109.863L111.411 75.4345C111.345 75.3407 111.261 75.2607 111.165 75.1992C111.068 75.1377 110.96 75.0958 110.847 75.076L102.726 73.6292C102.671 73.6194 102.615 73.6144 102.56 73.6143Z" fill="#3F3D56"/>
<path d="M116.351 97.5383L116.965 103.712L126.661 102.752C127.482 102.671 128.236 102.268 128.759 101.631C129.282 100.995 129.53 100.177 129.448 99.3587C129.367 98.54 128.963 97.7871 128.325 97.2657C127.687 96.7442 126.867 96.4969 126.047 96.5782L116.351 97.5383Z" fill="#E6E6E6"/>
<path d="M107.919 96.8233C107.934 98.9284 108.781 100.943 110.277 102.427C111.774 103.912 113.798 104.746 115.908 104.748H117.502L118.663 95.0996L109.053 91.6484L107.919 96.8233Z" fill="#44BBA4"/>
<path d="M164.397 30.7741L164.093 30.4709L164.552 30.0131L167.295 26.8203L167.621 27.099L164.867 30.3037L164.397 30.7741Z" fill="white"/>
</g>
<defs>
<clipPath id="clip0">
<path d="M73.5405 0H455.191V265H73.5405V0Z" fill="white"/>
</clipPath>
</defs>
</svg>
