<svg width="280" height="220" viewBox="0 0 280 220" fill="none" xmlns="http://www.w3.org/2000/svg">
<g clip-path="url(#clip0)">
<path d="M167.759 96.9649C166.396 98.5538 164.218 100.86 161.164 103.147C155.966 107.04 151.066 108.763 143.235 110.979C124.264 116.345 116.172 116.671 101.77 122.954C101.086 123.253 100.534 123.5 100.204 123.651C99.489 122.381 98.2772 121.559 97.3333 120.492C94.4976 117.291 92.0988 113.802 90.1369 110.016C90.0544 109.86 89.8587 109.355 89.3517 109.052C88.9292 108.8 88.4758 108.79 88.1832 108.815C86.2749 109.394 84.3644 109.973 82.4561 110.552C82.316 110.577 80.7414 110.824 79.6348 109.687C78.7239 108.749 78.5157 107.269 79.1381 106.01C81.5308 100.792 83.6678 94.0571 83.909 86.1455C83.946 84.9049 83.9358 83.7034 83.8843 82.539C88.8159 81.8651 92.4574 79.1304 95.4209 75.3137C95.7032 74.9489 95.9711 74.5718 96.2988 74.2462C97.0036 73.5475 97.4899 73.7021 97.7785 74.6315C97.8465 74.852 97.7929 74.5759 97.8156 74.8005C98.4462 80.8244 105.942 81.1211 109.55 78.1329C112.031 76.0762 113.773 73.4301 115.611 70.854C115.778 70.6211 115.885 70.345 116.052 70.1121C116.419 69.601 116.755 68.9024 117.466 69.0034C118.072 69.0899 118.27 69.7844 118.471 70.3182C119.298 72.4944 120.685 74.2152 122.638 75.4703C123.768 76.1957 124.854 76.5543 125.934 76.5522C126.235 76.5522 128.423 76.5667 129.408 75.3466C131.457 72.8036 126.107 67.602 128.211 64.4427C129.122 63.0764 131.407 62.1201 132.809 61.5328C133.689 61.166 134.247 61.0217 134.795 60.8486C139.725 59.2885 140.636 56.2838 143.136 56.393C145.654 56.5023 147.789 59.6883 148.484 62.116C149.537 65.7987 147.665 69.0982 148.16 69.2692C148.58 69.4135 149.903 67.1342 150.301 65.4051C150.429 64.8425 150.45 64.2613 150.614 63.707C150.831 62.9836 151.305 62.7507 151.915 63.1773C155.235 65.504 159.008 66.3943 162.959 66.7529C163.068 66.7632 163.167 66.8477 163.264 66.9095C163.965 68.8055 164.62 70.821 165.203 72.954C167.678 81.9661 168.103 90.2301 167.759 96.9649Z" fill="#F7B3B4"/>
<path d="M86.3449 67.7713C84.7601 68.1382 83.5009 69.249 81.9594 69.7415C81.4442 69.1954 81.2999 68.5071 81.0155 67.8888C79.8367 65.3313 78.6909 62.7573 77.4544 60.2286C77.0525 59.4084 77.1844 59.0004 77.9902 58.6459C79.0907 58.1616 80.1623 57.6072 81.2443 57.0838C81.6956 56.8653 81.9182 56.616 81.8028 56.0142C80.8074 50.7405 81.6956 45.7058 84.0367 40.9473C88.3006 32.2753 95.2457 26.6492 104.342 23.6754C110.432 21.6846 116.631 21.3672 122.832 23.2694C126.812 24.4894 130.29 26.5482 133.153 29.6065C134.037 30.5504 134.047 30.5401 135.29 29.9301C136.52 29.3262 137.753 28.7224 139.028 28.098C140.885 31.2408 142.519 34.3939 144.055 37.6768C142.489 38.5547 140.947 39.4203 139.403 40.2858C139.216 41.003 138.563 41.1947 138.012 41.4749C124.254 48.4715 110.605 55.6803 96.8469 62.6728C93.869 64.1855 90.9447 65.8032 87.9523 67.287C87.4433 67.5343 86.9796 67.9362 86.3449 67.7713Z" fill="black"/>
<path d="M86.3449 67.7709C89.2198 65.9862 92.2802 64.5395 95.2787 62.9856C109.612 55.5562 123.964 48.1681 138.311 40.7676C138.666 40.5842 139.039 40.442 139.403 40.2812C150.952 45.7713 158.499 54.8844 163.208 66.5694C163.25 66.6725 163.247 66.794 163.266 66.9074C164.459 70.0069 165.642 73.7968 166.462 78.1926C167.095 81.5806 167.392 84.6884 167.501 87.4108C166.44 87.4891 164.927 87.5385 163.13 87.3778C159.083 87.0171 154.174 85.6529 151.383 83.559C143.832 77.8896 149.394 65.0588 143.704 62.1365C139.826 60.1437 132.518 63.6822 131.01 68.2202C129.546 72.618 134.169 76.0369 132.203 80.1215C130.865 82.8996 127.09 84.7172 124.8 83.8249C122.904 83.085 122.847 80.8016 119.976 74.2873C118.989 72.0492 118.086 70.2521 117.466 69.0692C116.821 69.673 116.468 70.3222 116.062 70.9405C114.323 73.5907 112.577 76.2286 110.082 78.275C107.732 80.2019 105.078 80.7831 102.152 80.2246C99.6106 79.7382 98.1721 78.0669 97.5229 75.6474C97.391 75.1549 97.3766 74.6314 97.2901 73.9905C96.5502 74.3079 96.3009 74.9158 95.9485 75.3919C94.1411 77.8381 91.8989 79.7836 89.2733 81.3024C88.2182 81.9145 87.06 82.2689 85.9039 82.6049C85.2485 82.7945 84.5458 82.9099 83.8843 82.5389C83.8575 82.4627 83.841 82.3843 83.8327 82.3019C83.9852 81.9413 83.7462 81.5476 83.9213 81.1891C84.2099 76.6222 84.9229 72.1337 86.3449 67.7709Z" fill="#FF6B35"/>
<path d="M206.117 131.196C205.26 131.153 204.586 131.672 203.869 131.996C193.577 136.626 183.3 141.288 173.018 145.946C171.458 146.652 171.427 146.253 172.208 148.165C173.793 152.05 176.173 155.421 178.838 158.634C183.92 164.765 190.212 169.365 197.056 173.291C201.111 175.618 205.334 177.619 209.722 179.203C213.67 180.63 217.709 181.81 221.734 183.012C228.758 185.108 235.548 187.688 242.05 191.154C249.906 195.342 256.006 201.234 260.791 208.63C262.9 211.886 264.686 215.289 265.692 219.06C265.766 219.336 265.863 219.608 265.927 219.889C265.952 219.994 265.906 220.113 265.892 220.243C265.367 220.561 264.779 220.412 264.223 220.412C191.485 220.42 118.75 220.42 46.0121 220.418C45.5525 220.418 45.0929 220.377 44.6334 220.354C44.6931 219.433 45.4865 219.2 46.1027 218.84C56.3554 212.859 66.5567 206.786 76.8898 200.947C103.081 186.151 128.761 170.474 154.963 155.697C158.524 153.688 162.005 151.537 165.599 149.579C166.153 149.276 166.716 149.037 167.281 148.796C165.525 149.402 163.961 150.432 162.283 151.203C151.973 155.945 141.607 160.569 131.267 165.247C122.239 169.332 113.214 173.423 104.177 177.491C95.4044 181.442 86.6561 185.444 77.8707 189.368C70.8247 192.514 63.8879 195.9 56.5863 198.47C45.5628 202.349 34.8732 201.669 24.3979 196.593C23.7302 196.269 23.2418 195.624 22.4525 195.54C19.0376 191.735 16.1689 187.622 14.8953 182.563C13.1993 175.828 13.9659 169.342 16.746 163.038C20.5874 154.329 27.0543 148.054 35.069 143.196C40.118 140.136 45.5442 137.952 51.1065 136.029C69.6933 129.607 88.2615 123.136 106.836 116.682C107.215 116.55 107.582 116.389 107.957 116.24C108.452 115.608 109.189 115.424 109.894 115.179C121.486 111.156 133.083 107.148 144.669 103.113C157.343 98.6985 170.015 94.2718 182.694 89.8699C183.563 89.569 184.427 89.2454 185.375 89.332C190.76 87.4834 196.143 85.6348 201.528 83.7842C203.376 83.1474 205.221 82.4982 207.071 81.8655C208.423 81.4039 208.432 81.408 208.978 82.8156C210.455 86.6261 211.929 90.4387 213.408 94.2471C213.491 94.4573 213.625 94.6449 213.734 94.8427C214.336 95.2652 214.561 95.9246 214.808 96.5656C217.914 104.65 221.122 112.694 224.337 120.735C224.723 121.7 225.215 122.699 223.989 123.468C218.612 125.815 213.277 128.251 207.912 130.627C207.341 130.885 206.775 131.192 206.117 131.196Z" fill="#41B49F"/>
<path d="M22.4566 195.539C22.6997 195.164 22.9532 195.218 23.3159 195.426C27.4953 197.825 31.9921 199.251 36.7424 200.048C38.389 200.325 40.0438 200.318 41.6884 200.588C43.774 200.931 45.9317 200.469 48.0069 200.135C54.919 199.024 61.3345 196.38 67.6654 193.487C74.0396 190.573 80.4653 187.776 86.856 184.899C91.1013 182.989 95.3158 181.01 99.557 179.094C103.691 177.225 107.848 175.405 111.986 173.54C114.867 172.241 117.727 170.894 120.606 169.591C125.107 167.555 129.621 165.542 134.124 163.512C136.743 162.331 139.35 161.121 141.971 159.946C147.319 157.552 152.585 154.98 158.013 152.758C160.406 151.779 162.693 150.553 165.04 149.461C166.056 148.989 167.101 148.577 168.255 148.397C167.299 148.977 166.355 149.574 165.389 150.133C159.169 153.717 152.931 157.269 146.724 160.874C140.867 164.276 135.088 167.819 129.186 171.141C123.129 174.552 117.173 178.127 111.158 181.604C106.933 184.044 102.772 186.595 98.5595 189.056C94.5429 191.401 90.4872 193.683 86.4624 196.011C80.1005 199.692 73.6356 203.189 67.3748 207.049C63.2696 209.58 58.9871 211.818 54.8263 214.26C51.4135 216.261 47.9348 218.157 44.6354 220.348C43.7657 220.581 43.3989 219.864 42.9558 219.392C40.2478 216.504 37.542 213.615 34.8855 210.68C30.9225 206.299 27.0852 201.808 23.522 197.093C23.1428 196.594 22.811 196.059 22.4566 195.539Z" fill="#318BA1"/>
<path d="M223.764 123.169C224.681 122.779 224.432 122.169 224.152 121.466C222.353 116.99 220.578 112.504 218.808 108.017C217.332 104.279 215.867 100.534 214.408 96.7878C214.159 96.1489 213.961 95.4894 213.74 94.8403C216.757 93.816 219.828 93.2884 223.045 93.3935C226.344 93.5007 229.409 94.3807 232.271 95.8872C238.165 98.9867 242.128 103.766 243.833 110.222C245.442 116.314 244.797 122.202 241.446 127.641C239.28 131.154 236.515 134.085 232.991 136.34C228.624 139.134 224.137 141.706 219.552 144.107C218.153 144.841 216.689 145.584 214.96 145.03C213.643 144.61 212.823 143.703 212.704 142.339C212.572 140.828 213.157 139.536 214.021 138.114C211.974 138.46 210.025 138.854 208.603 137.028C208.716 136.276 209.314 135.861 209.8 135.398C213.701 131.672 217.773 128.131 221.769 124.51C222.373 123.966 223.15 123.692 223.764 123.169Z" fill="#F7B3B4"/>
<path d="M223.764 123.169C221.419 125.337 219.101 127.534 216.724 129.663C214.299 131.837 211.838 133.97 209.507 136.247C209.223 136.525 208.903 136.771 208.603 137.03C207.517 135.454 207.636 134.767 209.491 132.397C208.258 132.175 206.921 132.334 206.117 131.198C207.397 130.073 209.06 129.694 210.55 128.997C214.653 127.078 218.812 125.277 222.952 123.437C223.212 123.319 223.494 123.258 223.764 123.169Z" fill="#8C8AAC"/>
<path d="M136.689 73.521C136.805 73.3808 136.924 73.2469 137.056 73.1212C137.128 73.0511 137.205 72.9872 137.281 72.9213C137.31 72.8965 137.415 72.81 137.273 72.9275C137.116 73.0573 137.287 72.9213 137.326 72.8945C137.466 72.7997 137.611 72.7152 137.761 72.641C137.862 72.5895 138.132 72.5256 137.786 72.6225C137.874 72.5977 137.959 72.5586 138.047 72.5318C138.2 72.4844 138.352 72.4535 138.509 72.4205C138.705 72.3772 138.392 72.4349 138.377 72.4349C138.418 72.4349 138.468 72.4246 138.509 72.4225C138.596 72.4164 138.682 72.4122 138.769 72.4122C138.843 72.4122 138.919 72.4143 138.993 72.4184C139.035 72.4205 139.078 72.4287 139.119 72.4287C139.247 72.4308 138.932 72.3999 138.946 72.404C139.103 72.4535 139.27 72.4679 139.426 72.5215C139.461 72.5338 139.504 72.5565 139.539 72.5627C139.554 72.5648 139.276 72.437 139.383 72.4967C139.445 72.5297 139.509 72.5565 139.57 72.5915C139.64 72.6307 139.704 72.676 139.77 72.7173C139.807 72.7399 139.898 72.8141 139.739 72.6905C139.564 72.5544 139.711 72.6699 139.75 72.7049C139.853 72.7976 139.935 72.911 140.036 73.0016C139.785 72.7729 139.945 72.878 140.02 72.9934C140.065 73.0614 140.106 73.1315 140.145 73.2015C140.18 73.2634 140.207 73.3334 140.242 73.3932C140.318 73.521 140.145 73.1274 140.191 73.2696C140.201 73.2984 140.213 73.3273 140.224 73.3582C140.281 73.5169 140.329 73.6817 140.364 73.8466C140.376 73.9064 140.415 74.166 140.386 73.9373C140.356 73.6982 140.389 73.9805 140.393 74.0341C140.405 74.2114 140.405 74.3907 140.391 74.5679C140.389 74.6091 140.374 74.6647 140.378 74.7039C140.374 74.6689 140.426 74.4051 140.395 74.5782C140.376 74.6812 140.358 74.7822 140.333 74.8832C140.31 74.9739 140.286 75.0645 140.255 75.1532C140.22 75.2583 140.063 75.5427 140.238 75.2253C140.143 75.3984 140.067 75.5756 139.96 75.7426C139.933 75.7859 139.904 75.8271 139.875 75.8683C139.851 75.9033 139.717 76.0888 139.834 75.928C139.939 75.7858 139.859 75.8951 139.834 75.9239C139.781 75.9837 139.729 76.0435 139.675 76.1012C139.234 76.5752 139.171 77.3871 139.675 77.8508C140.154 78.2898 140.953 78.3557 141.425 77.8508C142.853 76.3175 143.276 74.1227 142.402 72.2041C142.056 71.4416 141.421 70.7347 140.656 70.3761C139.723 69.9372 138.723 69.8486 137.716 70.0629C136.646 70.2916 135.628 70.9326 134.938 71.7754C134.723 72.0372 134.575 72.2989 134.575 72.6492C134.575 72.9522 134.709 73.3149 134.938 73.523C135.395 73.9373 136.252 74.0568 136.689 73.521Z" fill="#F76732"/>
</g>
<defs>
<clipPath id="clip0">
<path d="M0 0H280V220H0V0Z" fill="white"/>
</clipPath>
</defs>
</svg>
