<svg width="280" height="220" viewBox="0 0 280 220" fill="none" xmlns="http://www.w3.org/2000/svg">
<g clip-path="url(#clip0)">
<path d="M163.254 129.703C163.264 133.796 163.196 137.891 163.309 141.98C163.38 144.571 163.543 147.169 164.046 149.729C164.906 154.106 166.633 158.136 168.925 161.936C170.271 164.169 171.781 166.283 173.549 168.204C176.029 170.901 179.112 172.79 182.256 174.568C189.584 178.711 197.524 181.186 205.72 182.845C209.502 183.61 213.366 183.956 217.184 184.547C220.741 185.099 224.302 185.633 227.752 186.737C231.247 187.856 234.294 189.736 237.144 191.991C242.583 196.297 246.55 201.754 249.541 207.955C251.193 211.378 251.904 215.092 252.701 218.772C252.817 219.309 252.62 219.599 252.076 219.622C251.493 219.646 250.908 219.646 250.324 219.646C184.101 219.646 117.878 219.646 51.6577 219.646C44.277 219.646 36.8944 219.648 29.5118 219.642C28.9387 219.642 28.3482 219.735 27.7596 219.489C27.717 218.261 28.141 217.162 28.5283 216.075C30.3463 210.952 32.6852 206.06 35.5159 201.432C38.6273 196.346 42.9353 192.47 48.1997 189.651C54.2231 186.425 60.6725 184.32 67.1509 182.258C74.8839 179.799 82.7505 177.794 90.4623 175.276C93.9009 174.155 97.1517 172.603 100.339 170.891C103.324 169.288 105.202 166.705 106.953 163.946C108.908 160.868 109.679 157.41 110.265 153.892C111.028 149.307 110.798 144.683 110.585 140.077C110.413 136.371 109.936 132.679 110.045 128.958C111.226 128.882 111.665 129.883 112.233 130.582C114.879 133.843 118.033 136.513 121.648 138.598C130.51 143.705 139.651 144.116 148.973 139.93C153.79 137.765 157.864 134.563 161.465 130.725C161.938 130.222 162.313 129.432 163.254 129.703Z" fill="#41B49F"/>
<path opacity="0.5" d="M125 140.962C127.735 142.586 135.306 146.592 145.562 145.868C154.418 145.245 160.658 141.421 163.32 139.558C163.32 134.807 163.32 130.056 163.32 125.304C150.547 130.524 137.772 135.744 125 140.962Z" fill="#2160A2"/>
<path d="M100.066 92.2711C99.9747 89.5547 100.368 86.8789 100.83 84.2205C102.279 75.9027 105.169 68.1407 109.899 61.1124C112.163 57.7474 114.771 54.6805 117.855 52.0337C118.173 51.7607 118.465 51.4587 118.757 51.0211C112.19 52.9805 105.801 52.7152 99.7249 49.5031C93.5873 46.2581 89.5639 41.2048 87.7923 34.4824C85.0081 23.9226 89.9105 12.7993 99.5022 7.66844C109.104 2.5318 120.945 4.50477 128.2 12.5476C132.477 17.2893 134.535 22.8964 134.34 29.3186C134.146 35.6731 131.6 41.0073 127.255 45.6154C127.968 45.8361 128.403 45.4488 128.88 45.2668C133.108 43.6501 137.492 42.9221 141.991 43.3074C148.35 43.8515 153.998 46.264 158.972 50.2621C163.642 54.0183 167.196 58.6709 169.946 63.9683C170.139 64.34 170.246 64.7582 170.393 65.1532C170.598 66.2122 169.996 66.9712 169.442 67.7573C165.129 73.893 159.589 78.6831 153.231 82.5786C143.852 88.3252 133.635 91.5586 122.775 93.0475C117.27 93.8007 111.77 93.5702 106.263 93.5973C104.84 93.6051 103.419 93.3224 101.996 93.183C101.284 93.1133 100.486 93.0417 100.066 92.2711Z" fill="black"/>
<path d="M100.066 92.2712C113.712 94.1203 127.056 92.9198 140.024 88.2033C149.471 84.7667 157.926 79.7288 164.871 72.3404C166.952 70.1273 168.732 67.6877 170.389 65.1514C170.894 65.6548 171.102 66.3228 171.377 66.952C174.066 73.1342 175.588 79.601 176.06 86.3214C176.078 86.5731 176.016 86.85 176.244 87.0494C176.469 87.1462 176.653 87.0145 176.846 86.9429C179.249 86.0484 181.11 86.7357 182.291 89.0127C183.143 90.6545 183.404 92.4339 183.288 94.2597C183.096 97.2917 182.293 100.115 180.207 102.426C178.988 103.78 177.543 104.721 175.595 104.328C174.989 104.206 174.875 104.547 174.767 104.998C174.459 106.285 174.165 107.577 173.812 108.853C171.764 116.249 168.488 123.029 163.671 129.033C163.508 129.236 163.392 129.478 163.254 129.703C161.43 131.554 159.705 133.502 157.696 135.161C153.246 138.836 148.309 141.554 142.617 142.722C134.036 144.48 126.196 142.65 119.036 137.697C116.134 135.69 113.625 133.256 111.386 130.532C110.949 129.999 110.494 129.484 110.047 128.962C109.224 127.666 108.372 126.388 107.586 125.072C105.098 120.907 103.28 116.458 102.037 111.772C101.789 110.841 101.595 110.08 100.296 109.976C98.5593 109.836 97.3647 108.549 96.3579 107.238C94.048 104.235 92.9464 100.814 93.109 97.0071C93.1381 96.312 93.2852 95.6421 93.4962 94.9838C94.2088 92.7572 96.3327 91.0844 98.962 92.6604C99.5971 93.0438 99.872 92.9024 100.066 92.2712Z" fill="#5E4046"/>
<path d="M201.083 67.198C200.514 64.3092 199.507 61.7535 198.347 59.2519C197.474 57.37 196.434 55.5791 195.366 53.8017C194.237 51.9274 193.275 49.9797 192.924 47.784C192.285 43.7781 194.791 40.4518 197.821 39.172C198.363 38.9416 198.764 38.9377 198.787 39.6734C198.897 43.356 200.655 46.3706 202.684 49.2671C203.809 50.8741 205.134 52.3263 206.229 53.9662C208.195 56.9072 209.591 60.1097 210.787 63.4089C213.192 70.0383 214.694 76.8633 215.107 83.9167C215.118 84.1239 215.159 84.3311 215.209 84.7299C218.147 84.1239 220.919 83.1365 223.744 82.3523C226.6 81.5604 229.44 80.7066 232.36 79.8605C232.666 80.3445 232.567 80.8266 232.55 81.2719C232.24 89.1928 232.65 97.1059 232.776 105.023C232.799 106.496 232.823 106.502 231.454 106.866C224.253 108.779 217.37 107.89 210.752 104.547C207.532 102.92 205.62 100.169 204.226 96.9955C201.652 91.1425 199.846 85.0416 198.566 78.782C198.161 76.8052 197.606 74.8593 197.402 72.8438C197.321 72.0519 197.228 71.2581 197.224 70.4623C197.209 67.862 198.268 66.9114 201.083 67.198Z" fill="#5E4046"/>
<path d="M46.5656 132.549C49.6015 132.021 52.5173 131.515 55.4313 131.008C57.9386 130.572 60.4479 130.142 62.9533 129.695C64.2195 129.469 64.2408 129.445 63.7936 128.348C61.294 122.21 59.7431 115.836 58.9299 109.267C58.5504 106.204 58.4072 103.129 58.5485 100.054C58.6589 97.6691 59.2455 95.3399 59.7257 92.9991C60.3704 89.8644 60.7015 86.693 59.8903 83.5196C59.7857 83.1092 59.6657 82.7006 59.5185 82.3037C58.9745 80.8361 59.05 80.7315 60.6609 80.8148C64.4751 81.0123 67.3871 83.4344 68.2506 87.1673C68.5759 88.5691 68.6824 89.998 68.5953 91.4385C68.45 93.88 68.2119 96.3196 68.1945 98.7611C68.1732 101.625 68.4113 104.481 69.1703 107.242C69.3426 107.253 69.4627 107.302 69.5324 107.261C71.6834 106.002 73.0388 106.411 74.1211 108.665C74.7445 109.962 75.1724 111.333 75.5461 112.717C77.3177 119.284 78.671 125.935 79.2926 132.718C79.5249 135.258 79.6082 137.817 79.1106 140.334C78.489 143.485 76.5819 145.949 74.4192 148.155C70.1907 152.468 65.1334 155.359 59.1332 156.453C57.8883 156.68 57.8728 156.687 57.3384 155.524C53.8765 147.994 50.5521 140.398 46.6817 133.062C46.6353 132.975 46.6333 132.861 46.5656 132.549Z" fill="#5E4046"/>
<path d="M85.1205 106.24C85.5193 106.132 85.6452 106.31 85.7052 106.566C86.7236 110.992 88.9889 114.903 90.8147 118.996C91.868 121.354 92.8574 123.741 93.8893 126.109C94.1333 126.667 94.174 127.025 93.3898 127.068C92.6967 127.106 91.8932 127.649 91.3588 127.285C90.8864 126.963 90.7721 126.111 90.5107 125.49C88.7101 121.205 86.6771 117.027 84.7468 112.804C83.8871 110.924 83.3624 108.924 82.7971 106.941C82.6848 106.544 82.8145 106.428 83.1824 106.403C83.86 106.358 84.5357 106.291 85.1205 106.24Z" fill="white"/>
<path d="M87.1224 157.421C89.6162 154.682 91.6995 151.694 93.1807 148.306C94.4934 145.301 95.1226 142.184 94.7083 138.906C94.6405 138.362 94.7509 138.195 95.3046 138.298C95.7132 138.373 96.1391 138.35 96.5573 138.364C97.6242 138.396 97.6184 138.396 97.7016 139.498C97.9843 143.221 97.0995 146.708 95.5505 150.058C94.0907 153.214 92.1468 156.05 89.8737 158.674C89.5155 159.086 89.289 159.119 88.8804 158.759C88.3596 158.29 87.7671 157.903 87.1224 157.421Z" fill="white"/>
<path d="M73.1588 20.021C73.9294 20.2146 74.6903 20.3966 75.4454 20.6018C75.8733 20.718 75.6236 21.0162 75.5732 21.2389C74.6807 25.1576 74.5722 29.1113 75.0737 33.0863C75.3564 35.3283 76.0166 37.4775 76.8879 39.555C77.1183 40.1029 77.0195 40.3372 76.4968 40.5405C76.0127 40.7283 75.5364 40.9606 75.095 41.2336C74.5838 41.5492 74.4425 41.2723 74.2741 40.858C72.9246 37.5394 72.0378 34.1182 71.9081 30.5227C71.788 27.2196 71.9429 23.9359 72.7251 20.7083C72.8897 20.019 72.8936 20.021 73.1588 20.021Z" fill="white"/>
<path d="M194.831 160.043C194.516 160.571 194.157 161.092 193.884 161.654C193.577 162.285 193.302 162.357 192.68 161.938C188.91 159.4 185.381 156.595 182.465 153.077C181.003 151.311 179.859 149.361 179.063 147.204C178.899 146.757 178.906 146.509 179.445 146.381C180.13 146.221 180.868 145.7 181.448 145.849C182.078 146.011 182.053 147.01 182.351 147.626C183.673 150.366 185.696 152.536 187.878 154.587C189.867 156.455 192.08 158.033 194.332 159.563C194.516 159.687 194.777 159.745 194.831 160.043Z" fill="white"/>
<path d="M218.654 171.159C212.375 169.921 206.061 168.804 200.21 166.018C199.747 165.797 199.699 165.609 199.956 165.213C200.351 164.603 200.464 163.637 201.066 163.391C201.633 163.16 202.336 163.822 202.979 164.088C206.985 165.741 211.169 166.752 215.415 167.546C216.931 167.828 218.431 168.187 219.945 168.469C220.462 168.566 220.468 168.74 220.23 169.129C219.889 169.687 219.577 170.262 219.269 170.837C219.132 171.098 218.966 171.259 218.654 171.159Z" fill="white"/>
<path d="M177.549 136.623C177.956 131.132 179.326 125.852 180.988 120.634C181.592 118.737 181.588 118.735 183.58 118.717C183.712 118.715 183.843 118.731 183.971 118.711C184.564 118.622 184.597 118.857 184.434 119.36C183.458 122.367 182.5 125.38 181.793 128.466C181.144 131.3 180.604 134.15 180.498 137.062C180.48 137.543 180.337 137.771 179.865 137.845C179.272 137.939 178.678 138.05 178.101 138.209C177.611 138.342 177.506 138.16 177.541 137.719C177.572 137.357 177.549 136.989 177.549 136.623Z" fill="white"/>
<path d="M88.9792 -0.304515C88.774 -0.167048 88.5591 -0.064445 88.3925 0.0923843C85.953 2.39836 83.7845 4.94442 81.8077 7.65312C80.3691 9.62607 79.2345 11.7733 78.2432 13.996C78.0263 14.4839 77.8443 14.6504 77.3429 14.3522C76.9188 14.1005 76.458 13.8876 75.9875 13.7404C75.3583 13.5429 75.4028 13.239 75.6313 12.7181C78.1502 6.99483 82.0129 2.26089 86.4448 -2.06257C86.7507 -2.36074 86.952 -2.41687 87.2599 -2.07223C87.6762 -1.60368 88.1428 -1.18159 88.5862 -0.736276C88.681 -0.64334 88.7643 -0.5446 88.9792 -0.304515Z" fill="white"/>
<path d="M81.1377 90.916C81.3778 86.0524 82.8067 81.4559 84.2124 76.8556C84.404 76.2321 84.6286 75.6184 84.8164 74.993C84.9307 74.6116 85.1127 74.5051 85.5038 74.6581C86.2066 74.933 87.2057 74.9678 87.558 75.4693C87.8795 75.9282 87.2483 76.7975 87.0411 77.4848C85.8852 81.3126 84.6577 85.123 84.2569 89.127C84.1504 90.1919 84.1001 91.2664 84.073 92.3371C84.0613 92.7883 83.9684 93.0032 83.4631 92.9897C82.89 92.9742 82.311 93.0226 81.7418 93.0903C81.2403 93.1504 81.0971 92.9606 81.1319 92.4843C81.1668 91.9635 81.1377 91.4388 81.1377 90.916Z" fill="white"/>
<path d="M189.387 93.545C189.24 97.9168 188.727 102.248 187.971 106.552C187.871 107.127 187.727 107.48 187.048 107.27C186.777 107.187 186.481 107.193 186.196 107.148C184.932 106.953 184.935 106.951 185.15 105.741C186.064 100.606 186.568 95.4366 186.44 90.2167C186.421 89.4481 186.686 89.1886 187.398 89.2235C187.658 89.237 187.921 89.2003 188.181 89.179C189.385 89.0783 189.385 89.0763 189.385 90.329C189.387 91.4017 189.387 92.4723 189.387 93.545Z" fill="white"/>
<path d="M246.875 179.933C246.047 180.32 245.255 180.661 244.492 181.056C244.07 181.275 243.87 180.992 243.615 180.787C240.786 178.524 237.742 176.616 234.393 175.219C232.751 174.533 231.008 174.175 229.295 173.732C228.677 173.573 228.644 173.371 228.97 172.924C229.016 172.862 229.047 172.789 229.086 172.721C230.129 170.831 230.153 170.758 232.193 171.389C237.665 173.079 242.465 175.972 246.761 179.732C246.796 179.765 246.811 179.821 246.875 179.933Z" fill="white"/>
<path d="M36.5769 187.817C36.5672 188.022 36.4085 188.088 36.2962 188.185C32.2496 191.606 28.8497 195.589 26.0132 200.058C25.8138 200.373 25.6434 200.497 25.2658 200.321C24.7005 200.054 24.1138 199.823 23.5194 199.624C23.0877 199.481 23.0973 199.297 23.3103 198.956C26.2572 194.212 29.8216 189.993 34.0405 186.332C34.1954 186.197 34.3387 186.024 34.5788 186.212C35.1964 186.696 35.8199 187.17 36.4394 187.653C36.4975 187.697 36.5362 187.769 36.5769 187.817Z" fill="white"/>
<path d="M80.3865 166.87C78.4329 168.256 76.3767 169.385 74.2392 170.366C71.4608 171.642 68.634 172.802 65.7685 173.869C65.2534 174.06 65.0114 173.95 64.7791 173.509C64.5603 173.094 64.326 172.674 64.024 172.32C63.5574 171.774 63.6155 171.549 64.3299 171.299C67.1664 170.31 69.9409 169.156 72.6786 167.913C74.4909 167.09 76.2567 166.18 77.9043 165.067C78.3845 164.744 78.6382 164.79 78.9731 165.237C79.3913 165.801 79.8908 166.306 80.3865 166.87Z" fill="white"/>
<path d="M186.831 75.7516C185.437 75.7536 185.454 75.7516 185.23 74.3421C184.521 69.9141 183.206 65.6487 181.716 61.4356C181.51 60.8548 181.623 60.5953 182.109 60.332C182.568 60.0842 183.019 59.8092 183.431 59.4917C183.847 59.1722 184.012 59.271 184.192 59.7357C185.203 62.3456 185.962 65.033 186.723 67.7223C187.371 70.0128 187.927 72.3227 188.21 74.6906C188.355 75.9065 188.45 75.7439 187.303 75.7536C187.145 75.7536 186.988 75.7516 186.831 75.7516Z" fill="white"/>
<path d="M91.3374 62.5062C91.4168 62.7463 91.3258 62.816 91.1826 62.8548C91.0819 62.8819 90.9831 62.9187 90.8805 62.9399C90.1661 63.0948 89.4013 63.4763 88.7488 63.3369C88.0847 63.1936 87.7865 62.3146 87.3218 61.7647C84.435 58.3357 81.9567 54.6144 79.5501 50.8409C79.2926 50.4381 79.3429 50.2813 79.7592 50.109C80.4581 49.8224 81.19 49.1835 81.8173 49.2822C82.4137 49.3752 82.6867 50.3684 83.0739 50.9783C85.2618 54.4305 87.6568 57.7278 90.2958 60.8489C90.7411 61.3697 91.0954 61.9486 91.3374 62.5062Z" fill="white"/>
<path d="M178.513 49.6271C178.564 49.7975 178.488 49.8691 178.401 49.9272C178.335 49.9718 178.267 50.0085 178.2 50.0472C177.539 50.4171 176.879 51.0754 176.219 51.0754C175.57 51.0754 175.233 50.1092 174.734 49.5903C171.87 46.6145 168.585 44.1652 165.167 41.8805C164.646 41.532 164.523 41.2629 164.848 40.713C165.191 40.1322 165.324 39.1099 165.758 38.9801C166.312 38.8136 166.949 39.5687 167.516 39.9695C171.305 42.6356 175.036 45.3714 178.014 48.9824C178.196 49.207 178.366 49.4374 178.513 49.6271Z" fill="white"/>
<path d="M150.789 28.3098C150.789 29.2237 150.811 30.1395 150.782 31.0515C150.762 31.6342 150.995 31.973 151.535 32.1802C153.339 32.8714 155.13 33.6014 156.94 34.279C157.508 34.4901 157.624 34.7108 157.231 35.2006C156.776 35.766 156.604 36.7573 155.969 36.9084C155.399 37.0439 154.664 36.5075 154.007 36.25C152.766 35.7641 151.533 35.2626 150.294 34.7747C148.632 34.1203 147.842 32.8734 147.881 31.1192C147.92 29.4192 148.03 27.7232 148.084 26.0232C148.094 25.696 148.222 25.5527 148.514 25.483C148.946 25.3785 149.374 25.2585 149.804 25.1462C151.01 24.8306 151.01 24.8306 151.012 26.1162C151.012 26.3776 151.014 26.6389 151.004 26.9003C150.985 27.3708 150.956 27.8413 150.931 28.3118C150.882 28.3098 150.836 28.3098 150.789 28.3098Z" fill="white"/>
<path d="M40.306 181.737C43.1115 180.035 45.8918 178.494 48.767 177.125C50.4166 176.339 52.1127 175.66 53.8184 175.005C54.3276 174.81 54.5639 174.91 54.7827 175.373C55.0169 175.867 55.2841 176.353 55.5958 176.802C55.9114 177.255 55.7391 177.398 55.2977 177.551C51.0575 179.013 47.1 181.069 43.245 183.333C42.823 183.58 42.5345 183.627 42.1531 183.273C41.6012 182.758 40.9933 182.303 40.306 181.737Z" fill="white"/>
<path d="M140.102 1.61816C140.235 1.74208 140.35 1.83696 140.452 1.94345C143.852 5.47501 146.673 9.3938 148.551 13.9573C148.793 14.544 148.718 14.7918 148.083 14.9041C147.418 15.0203 146.679 15.4753 146.135 15.2952C145.558 15.1055 145.515 14.1684 145.229 13.5662C143.647 10.2593 141.554 7.30661 139.023 4.66762C138.512 4.13518 138.489 3.77699 138.944 3.24648C139.283 2.85344 139.534 2.38488 139.829 1.95312C139.9 1.84856 139.989 1.75563 140.102 1.61816Z" fill="white"/>
<path d="M254.581 188.623C254.837 188.601 254.906 188.797 255.005 188.94C257.358 192.321 259.3 195.922 260.849 199.74C261.015 200.151 260.909 200.282 260.519 200.387C259.941 200.544 259.367 200.731 258.804 200.941C258.419 201.084 258.252 200.964 258.103 200.596C256.624 196.948 254.75 193.515 252.471 190.307C252.211 189.941 252.277 189.802 252.649 189.626C253.313 189.312 253.952 188.954 254.581 188.623Z" fill="white"/>
<path d="M16.3169 218.581C14.8454 218.591 14.828 218.585 15.2094 217.195C16.1736 213.692 17.5018 210.323 18.9733 207.005C19.1708 206.557 19.4031 206.43 19.8698 206.565C20.4196 206.724 20.9831 206.861 21.5503 206.923C22.0963 206.983 22.0963 207.156 21.8853 207.601C20.3983 210.741 19.1534 213.975 18.1601 217.305C17.7845 218.569 17.7942 218.573 16.3169 218.581Z" fill="white"/>
<path d="M264.765 217.233C264.905 219.351 264.905 219.352 263.247 219.342C263.091 219.342 262.93 219.319 262.777 219.344C262.163 219.437 262.003 219.177 261.952 218.571C261.702 215.578 261.519 212.571 260.837 209.632C260.727 209.156 260.878 208.97 261.333 208.89C261.873 208.797 262.413 208.687 262.936 208.524C263.397 208.381 263.577 208.495 263.668 208.974C263.999 210.722 264.283 212.476 264.469 214.244C264.587 215.388 264.696 216.534 264.765 217.233Z" fill="white"/>
</g>
<defs>
<clipPath id="clip0">
<path d="M0 0H280V220H0V0Z" fill="white"/>
</clipPath>
</defs>
</svg>
