<svg height='300px' width='300px'  fill="#1A1A1A" version="1.1" xmlns="http://www.w3.org/2000/svg" xmlns:xlink="http://www.w3.org/1999/xlink" x="0px" y="0px" viewBox="0 0 100 83.899" enable-background="new 0 0 100 83.899" xml:space="preserve"><path fill="#1A1A1A" d="M95.59,35.661l-10.268,0.015l2.043-3.223c1.301-2.052,0.693-4.768-1.358-6.066
	c-2.055-1.305-4.771-0.692-6.071,1.354L74.9,35.69l-17.305,0.025l8.646-15.185l11.939-0.649c2.431-0.131,4.29-2.2,4.156-4.631
	c-0.13-2.425-2.2-4.287-4.631-4.151l-6.288,0.337l2.77-4.863c1.201-2.11,0.464-4.792-1.646-5.998c-2.113-1.201-4.794-0.464-6,1.652
	l-2.785,4.891l-1.718-3.115c-1.168-2.132-3.845-2.903-5.978-1.73c-2.123,1.171-2.896,3.847-1.726,5.973l4.314,7.84L50,31.277
	l-8.65-15.19l4.314-7.84c1.17-2.126,0.398-4.802-1.726-5.973c-2.133-1.172-4.809-0.401-5.977,1.73l-1.718,3.115l-2.785-4.891
	c-1.206-2.116-3.887-2.853-6-1.652c-2.109,1.205-2.847,3.887-1.646,5.998l2.77,4.863L22.293,11.1
	c-2.43-0.136-4.501,1.726-4.631,4.151c-0.134,2.431,1.726,4.5,4.157,4.631l11.939,0.649l8.646,15.185L25.099,35.69l-5.036-7.949
	c-1.3-2.046-4.016-2.659-6.071-1.354c-2.051,1.298-2.659,4.014-1.358,6.066l2.042,3.223L4.41,35.661c-2.43,0-4.402,1.966-4.41,4.396
	c0,2.427,1.963,4.405,4.39,4.405l10.112,0.015l-3.192,5.13c-1.28,2.059-0.649,4.769,1.412,6.062c2.062,1.279,4.777,0.65,6.057-1.42
	l6.074-9.756l17.58,0.025l-8.402,14.699l-9.079,0.521c-2.425,0.147-4.28,2.218-4.139,4.642c0.141,2.424,2.217,4.288,4.641,4.139
	l3.37-0.192l-5.137,8.986c-1.2,2.114-0.468,4.801,1.639,6.002c2.106,1.213,4.793,0.48,6-1.636l5.335-9.332l3.155,5.662
	c1.185,2.129,3.86,2.894,5.984,1.704c2.118-1.178,2.887-3.854,1.704-5.979l-5.742-10.312l8.225-14.389L50,49.056l0.013-0.023
	l8.226,14.389l-5.741,10.312c-1.183,2.125-0.414,4.801,1.704,5.979c2.123,1.189,4.798,0.425,5.983-1.704l3.155-5.662l5.335,9.332
	c1.205,2.116,3.893,2.849,5.999,1.636c2.107-1.201,2.839-3.888,1.639-6.002l-5.137-8.986l3.369,0.192
	c2.425,0.149,4.501-1.715,4.642-4.139c0.142-2.424-1.714-4.494-4.14-4.642l-9.079-0.521l-8.401-14.699l17.58-0.025l6.073,9.756
	c1.28,2.07,3.996,2.699,6.057,1.42c2.061-1.293,2.693-4.003,1.413-6.062l-3.193-5.13l10.113-0.015c2.427,0,4.391-1.978,4.391-4.405
	C99.991,37.627,98.02,35.661,95.59,35.661z"></path></svg>