<svg width="145" height="145" viewBox="0 0 145 145" fill="none" xmlns="http://www.w3.org/2000/svg">
<path d="M72.5 141.979V132.917" stroke="#D42E56" stroke-width="2.5" stroke-linecap="round" stroke-linejoin="round"/>
<path d="M52.4109 141.762L54.3745 132.917" stroke="#D42E56" stroke-width="2.5" stroke-linecap="round" stroke-linejoin="round"/>
<path d="M33.2292 141.127L37.0596 132.917" stroke="#D42E56" stroke-width="2.5" stroke-linecap="round" stroke-linejoin="round"/>
<path d="M92.5885 141.762L90.625 132.917" stroke="#D42E56" stroke-width="2.5" stroke-linecap="round" stroke-linejoin="round"/>
<path d="M111.773 141.127L107.942 132.917" stroke="#D42E56" stroke-width="2.5" stroke-linecap="round" stroke-linejoin="round"/>
<path d="M3.02082 3.02087H141.979" stroke="black" stroke-width="2.5" stroke-linecap="round" stroke-linejoin="round"/>
<path d="M72.5 36.25V3.02087" stroke="black" stroke-width="2.5" stroke-linecap="round" stroke-linejoin="round"/>
<path d="M94.389 41.4398C94.1838 39.9996 93.4659 38.6817 92.3672 37.7283C91.2684 36.7749 89.8625 36.25 88.4077 36.25H56.5923C55.1375 36.25 53.7316 36.7749 52.6328 37.7283C51.534 38.6817 50.8162 39.9996 50.611 41.4398L48.3333 57.3958H96.6667L94.389 41.4398Z" stroke="black" stroke-width="2.5" stroke-linecap="round" stroke-linejoin="round"/>
<path d="M116.347 106.593C117.016 107.822 117.335 109.21 117.267 110.608C117.2 112.005 116.75 113.357 115.966 114.515C115.182 115.674 114.094 116.594 112.822 117.176C111.549 117.757 110.142 117.977 108.753 117.813H33.2317C31.8679 117.997 30.4799 117.789 29.2299 117.214C27.9798 116.638 26.9193 115.719 26.1723 114.563C25.4252 113.408 25.0226 112.063 25.0113 110.687C25 109.311 25.3806 107.96 26.1085 106.793L48.3358 57.3959H96.6692L116.347 106.593Z" stroke="black" stroke-width="2.5" stroke-linecap="round" stroke-linejoin="round"/>
</svg>
