<svg width="145" height="145" viewBox="0 0 145 145" fill="none" xmlns="http://www.w3.org/2000/svg">
<path d="M52.2901 141.979V123.854H46.2485C41.4414 123.854 36.8313 121.945 33.4322 118.545C30.0331 115.146 28.1235 110.536 28.1235 105.729V87.6042H11.1464C10.6698 87.6045 10.1999 87.492 9.77506 87.2759C9.35025 87.0599 8.98258 86.7463 8.70212 86.361C8.42166 85.9757 8.23635 85.5294 8.16134 85.0588C8.08634 84.5881 8.12376 84.1064 8.27055 83.6529C20.7828 44.9198 29.4828 3.02084 77.9672 3.02084C90.3912 3.00837 102.501 6.92805 112.561 14.2185C122.621 21.5089 130.116 31.796 133.972 43.6065C137.828 55.4169 137.847 68.1448 134.028 79.967C130.208 91.7892 122.744 102.099 112.707 109.421V141.979" stroke="black" stroke-width="2.5" stroke-linecap="round" stroke-linejoin="round"/>
<path d="M28.1263 63.3158L38.3065 46.6106C39.0211 45.478 39.9675 44.5096 41.0833 43.7691C42.1991 43.0285 43.4591 42.5326 44.7803 42.314C46.1015 42.0954 47.4541 42.1591 48.749 42.5008C50.0438 42.8426 51.2517 43.4546 52.293 44.2967L94.1496 75.5804C95.2302 76.4691 96.1005 77.5861 96.698 78.8511C97.2955 80.1162 97.6054 81.4978 97.6055 82.8969V141.858" stroke="black" stroke-width="2.5" stroke-linecap="round" stroke-linejoin="round"/>
<path d="M45.8199 87.914L50.1941 82.0898C51.0295 81.0332 52.083 80.1692 53.2826 79.5565C54.4822 78.9439 55.7998 78.5971 57.1456 78.5397C58.4914 78.4824 59.8337 78.7159 61.0811 79.2242C62.3284 79.7326 63.4515 80.5039 64.3739 81.4856L76.2941 92.3606C77.2947 93.2505 78.0956 94.342 78.6444 95.5634C79.1931 96.7848 79.4772 98.1085 79.478 99.4475V141.86" stroke="black" stroke-width="2.5" stroke-linecap="round" stroke-linejoin="round"/>
<path fill-rule="evenodd" clip-rule="evenodd" d="M58.1202 64.7638C58.1691 64.7149 58.2353 64.6875 58.3044 64.6875L58.3197 64.6874L58.335 64.6875C58.404 64.6875 58.4703 64.7149 58.5191 64.7638C58.5402 64.7849 58.5574 64.8093 58.57 64.8358C58.5668 64.8725 58.5651 64.9097 58.5651 64.9473C58.5651 65.0163 58.5377 65.0826 58.4888 65.1314C58.4435 65.1767 58.3833 65.2036 58.3197 65.2073C58.2561 65.2036 58.1958 65.1767 58.1505 65.1314C58.1017 65.0826 58.0742 65.0163 58.0742 64.9473C58.0742 64.9097 58.0726 64.8725 58.0693 64.8358C58.0819 64.8093 58.0991 64.7849 58.1202 64.7638ZM58.2415 67.7061C57.5432 67.6826 56.8784 67.3949 56.3827 66.8992C55.9526 66.4691 55.6791 65.9117 55.5989 65.3156C55.5632 65.1993 55.5439 65.0759 55.5439 64.9479C55.5439 64.2158 55.8348 63.5137 56.3525 62.996C56.8701 62.4783 57.5723 62.1875 58.3044 62.1875L58.3197 62.1876L58.335 62.1875C59.0671 62.1875 59.7692 62.4783 60.2869 62.996C60.8046 63.5137 61.0954 64.2158 61.0954 64.9479C61.0954 65.0759 61.0762 65.1993 61.0404 65.3156C60.9602 65.9117 60.6867 66.4691 60.2566 66.8992C59.7609 67.3949 59.0961 67.6826 58.3979 67.7061C58.3769 67.7072 58.3558 67.7077 58.3346 67.7077C58.3296 67.7077 58.3247 67.7077 58.3197 67.7076C58.3147 67.7077 58.3097 67.7077 58.3047 67.7077C58.2835 67.7077 58.2624 67.7072 58.2415 67.7061Z" fill="#6AC7FA"/>
<path fill-rule="evenodd" clip-rule="evenodd" d="M45.5763 56.5763C45.6251 56.5274 45.6913 56.5 45.7604 56.5L45.7757 56.4999L45.791 56.5C45.8601 56.5 45.9263 56.5274 45.9752 56.5763C45.9963 56.5974 46.0134 56.6218 46.0261 56.6483C46.0228 56.685 46.0212 56.7222 46.0212 56.7598C46.0212 56.8288 45.9937 56.8951 45.9449 56.9439C45.8996 56.9892 45.8393 57.0161 45.7757 57.0198C45.7121 57.0161 45.6518 56.9892 45.6065 56.9439C45.5577 56.8951 45.5303 56.8288 45.5303 56.7598C45.5303 56.7222 45.5286 56.685 45.5254 56.6483C45.538 56.6218 45.5551 56.5974 45.5763 56.5763ZM45.6975 59.5186C44.9992 59.4951 44.3345 59.2074 43.8388 58.7117C43.4087 58.2816 43.1352 57.7242 43.0549 57.1281C43.0192 57.0118 43 56.8884 43 56.7604C43 56.0283 43.2908 55.3262 43.8085 54.8085C44.3262 54.2908 45.0283 54 45.7604 54L45.7757 54.0001L45.791 54C46.5231 54 47.2252 54.2908 47.7429 54.8085C48.2606 55.3262 48.5514 56.0283 48.5514 56.7604C48.5514 56.8884 48.5322 57.0118 48.4965 57.1281C48.4162 57.7242 48.1427 58.2816 47.7127 58.7117C47.217 59.2074 46.5522 59.4951 45.8539 59.5186C45.833 59.5197 45.8119 59.5202 45.7907 59.5202C45.7857 59.5202 45.7807 59.5202 45.7757 59.5201C45.7707 59.5202 45.7657 59.5202 45.7607 59.5202C45.7395 59.5202 45.7185 59.5197 45.6975 59.5186Z" fill="#6AC7FA"/>
<path fill-rule="evenodd" clip-rule="evenodd" d="M37.5763 70.5763C37.6251 70.5274 37.6913 70.5 37.7604 70.5L37.7757 70.4999L37.791 70.5C37.8601 70.5 37.9263 70.5274 37.9752 70.5763C37.9963 70.5974 38.0134 70.6218 38.0261 70.6483C38.0228 70.685 38.0212 70.7222 38.0212 70.7598C38.0212 70.8288 37.9937 70.8951 37.9449 70.9439C37.8996 70.9892 37.8393 71.0161 37.7757 71.0198C37.7121 71.0161 37.6518 70.9892 37.6065 70.9439C37.5577 70.8951 37.5303 70.8288 37.5303 70.7598C37.5303 70.7222 37.5286 70.685 37.5254 70.6483C37.538 70.6218 37.5551 70.5974 37.5763 70.5763ZM37.6975 73.5186C36.9992 73.4951 36.3345 73.2074 35.8388 72.7117C35.4087 72.2816 35.1352 71.7242 35.0549 71.1281C35.0192 71.0118 35 70.8884 35 70.7604C35 70.0283 35.2908 69.3262 35.8085 68.8085C36.3262 68.2908 37.0283 68 37.7604 68L37.7757 68.0001L37.791 68C38.5231 68 39.2252 68.2908 39.7429 68.8085C40.2606 69.3262 40.5514 70.0283 40.5514 70.7604C40.5514 70.8884 40.5322 71.0118 40.4965 71.1281C40.4162 71.7242 40.1427 72.2816 39.7127 72.7117C39.217 73.2074 38.5522 73.4951 37.8539 73.5186C37.833 73.5197 37.8119 73.5202 37.7907 73.5202C37.7857 73.5202 37.7807 73.5202 37.7757 73.5201C37.7707 73.5202 37.7657 73.5202 37.7607 73.5202C37.7395 73.5202 37.7185 73.5197 37.6975 73.5186Z" fill="#6AC7FA"/>
</svg>
