<svg width="145" height="145" viewBox="0 0 145 145" fill="none" xmlns="http://www.w3.org/2000/svg">
<path d="M66.5237 108.753V93.6485H71.061C72.7612 93.8136 74.4771 93.6258 76.1014 93.0971C77.7257 92.5683 79.2233 91.71 80.5005 90.5757C81.7777 89.4414 82.807 88.0556 83.5239 86.5052C84.2408 84.9547 84.6299 83.273 84.6668 81.5652V69.4818H97.4268C97.7836 69.4836 98.1356 69.4005 98.4538 69.2393C98.7721 69.0781 99.0474 68.8434 99.2569 68.5547C99.4665 68.266 99.6044 67.9316 99.6591 67.5791C99.7138 67.2266 99.6838 66.8661 99.5716 66.5275C91.071 40.2039 84.9206 8.91414 56.845 3.77872C50.7178 2.59053 44.4111 2.68096 38.3205 4.04433C32.2299 5.4077 26.4866 8.01461 21.4507 11.7016C16.4148 15.3887 12.1949 20.0763 9.05555 25.4706C5.91618 30.8649 3.92507 36.8496 3.20703 43.0495C2.4842 50.9208 3.74752 58.8476 6.88133 66.1043C10.0151 73.3609 14.9193 79.7154 21.1447 84.586V108.753" stroke="black" stroke-width="2.5" stroke-linecap="round" stroke-linejoin="round"/>
<path d="M141.006 103.76C142.823 100.961 142.028 97.2197 139.229 95.4023C136.431 93.585 132.689 94.3804 130.872 97.1788L107.838 132.648C106.021 135.446 106.816 139.188 109.614 141.005C112.413 142.822 116.155 142.027 117.972 139.229L141.006 103.76Z" fill="#EC96AA" stroke="black" stroke-width="2.5" stroke-linecap="round" stroke-linejoin="round"/>
<path d="M110.161 78.3633L111.272 81.6983M115.701 95.0443L116.807 98.3793L115.701 95.0443Z" stroke="#D42E56" stroke-width="2.5" stroke-linecap="round" stroke-linejoin="round"/>
<path d="M81.0617 108.75L84.5115 109.433M98.3106 112.151L101.754 112.828L98.3106 112.151Z" stroke="#D42E56" stroke-width="2.5" stroke-linecap="round" stroke-linejoin="round"/>
</svg>
