<svg width="24" height="24" viewBox="0 0 24 24" fill="none" xmlns="http://www.w3.org/2000/svg">
<g clip-path="url(#clip0)">
<path d="M6.42 20.279C6.28233 20.1136 6.1592 19.9366 6.052 19.75C6.00824 19.6738 5.94518 19.6105 5.86917 19.5664C5.79315 19.5224 5.70686 19.4991 5.619 19.499H2.5C2.36756 19.499 2.24054 19.4465 2.1468 19.3529C2.05306 19.2594 2.00026 19.1324 2 19V3.5C2 3.36739 2.05268 3.24021 2.14645 3.14645C2.24021 3.05268 2.36739 3 2.5 3H13.5C13.6326 3 13.7598 3.05268 13.8536 3.14645C13.9473 3.24021 14 3.36739 14 3.5V5.259C14 5.39161 14.0527 5.51879 14.1464 5.61255C14.2402 5.70632 14.3674 5.759 14.5 5.759C14.7985 5.75857 15.0961 5.79212 15.387 5.859C15.4605 5.87605 15.5369 5.87625 15.6104 5.85959C15.684 5.84293 15.7528 5.80985 15.8118 5.76281C15.8708 5.71577 15.9183 5.656 15.9509 5.58797C15.9835 5.51995 16.0003 5.44543 16 5.37V3C15.9976 2.20508 15.6808 1.4434 15.1187 0.881302C14.5566 0.319207 13.7949 0.00237409 13 0L3 0C2.20508 0.00237409 1.4434 0.319207 0.881302 0.881302C0.319207 1.4434 0.00237409 2.20508 0 3L0 21C0.00237409 21.7949 0.319207 22.5566 0.881302 23.1187C1.4434 23.6808 2.20508 23.9976 3 24H8.445C8.54001 24 8.63304 23.9729 8.7132 23.9219C8.79336 23.8709 8.85733 23.7981 8.89762 23.712C8.93791 23.626 8.95286 23.5303 8.94071 23.436C8.92855 23.3418 8.88981 23.253 8.829 23.18L6.42 20.279Z" fill="#008DC9"/>
<path d="M6.75 12.5H8.25C8.44851 12.4987 8.63851 12.4193 8.77888 12.2789C8.91925 12.1385 8.99869 11.9485 9 11.75V10.75C9 10.6837 9.02634 10.6201 9.07322 10.5732C9.12011 10.5264 9.1837 10.5 9.25 10.5H10.25C10.3163 10.5 10.3799 10.4737 10.4268 10.4268C10.4737 10.3799 10.5 10.3163 10.5 10.25V9.76002C10.4997 9.23228 10.6069 8.70999 10.815 8.22502C10.8644 8.109 10.8682 7.97858 10.8256 7.8599C10.7829 7.74121 10.697 7.64303 10.585 7.58502C10.4819 7.52991 10.3669 7.50074 10.25 7.50002H9.25C9.21709 7.50002 9.18449 7.49352 9.1541 7.4809C9.1237 7.46827 9.0961 7.44977 9.07287 7.42645C9.04964 7.40313 9.03125 7.37545 9.01874 7.345C9.00624 7.31455 8.99987 7.28194 9 7.24902V6.24902C8.99869 6.05052 8.91925 5.86051 8.77888 5.72014C8.63851 5.57977 8.44851 5.50033 8.25 5.49902H6.75C6.55149 5.50033 6.36149 5.57977 6.22112 5.72014C6.08075 5.86051 6.00131 6.05052 6 6.24902V7.24902C6 7.31533 5.97366 7.37892 5.92678 7.4258C5.87989 7.47268 5.8163 7.49902 5.75 7.49902H4.75C4.55149 7.50033 4.36149 7.57977 4.22112 7.72014C4.08075 7.86051 4.00131 8.05052 4 8.24902V9.74902C4.00131 9.94753 4.08075 10.1375 4.22112 10.2779C4.36149 10.4183 4.55149 10.4977 4.75 10.499H5.75C5.8163 10.499 5.87989 10.5254 5.92678 10.5722C5.97366 10.6191 6 10.6827 6 10.749V11.749C6.00105 11.9477 6.08037 12.138 6.22077 12.2785C6.36117 12.4191 6.55132 12.4987 6.75 12.5V12.5Z" fill="#008DC9"/>
<path d="M18.9999 15H16.9999V9.5C16.9999 8.83696 16.7365 8.20107 16.2677 7.73223C15.7988 7.26339 15.1629 7 14.4999 7C13.8368 7 13.201 7.26339 12.7321 7.73223C12.2633 8.20107 11.9999 8.83696 11.9999 9.5V16.561L11.4219 15.861C11.2118 15.6086 10.954 15.4 10.6632 15.2473C10.3725 15.0945 10.0545 15.0006 9.7274 14.9708C9.40032 14.9409 9.07058 14.9759 8.75701 15.0736C8.44343 15.1712 8.15218 15.3297 7.89989 15.54C7.64739 15.7499 7.43872 16.0075 7.28579 16.298C7.13285 16.5886 7.03865 16.9064 7.00856 17.2334C6.97848 17.5604 7.01309 17.89 7.11044 18.2036C7.20778 18.5172 7.36594 18.8085 7.57589 19.061L11.3819 23.64C11.4659 23.741 11.569 23.8244 11.6853 23.8856C11.8016 23.9467 11.9288 23.9843 12.0597 23.9963C12.1905 24.0083 12.3224 23.9944 12.4479 23.9554C12.5733 23.9164 12.6899 23.853 12.7909 23.769C12.8919 23.685 12.9753 23.5818 13.0365 23.4655C13.0976 23.3493 13.1352 23.2221 13.1472 23.0912C13.1592 22.9604 13.1453 22.8285 13.1063 22.703C13.0673 22.5775 13.0039 22.461 12.9199 22.36L9.11489 17.781C9.03646 17.6784 9.00078 17.5494 9.01532 17.4211C9.02985 17.2928 9.09349 17.175 9.19288 17.0926C9.29228 17.0101 9.41973 16.9693 9.54854 16.9787C9.67735 16.9881 9.79752 17.047 9.88389 17.143L12.2309 19.965C12.3624 20.1232 12.5394 20.2369 12.7379 20.2908C12.9364 20.3447 13.1467 20.3361 13.3401 20.2661C13.5335 20.1961 13.7006 20.0682 13.8187 19.8998C13.9368 19.7314 14 19.5307 13.9999 19.325V9.5C13.9999 9.36739 14.0526 9.24021 14.1463 9.14645C14.2401 9.05268 14.3673 9 14.4999 9C14.6325 9 14.7597 9.05268 14.8534 9.14645C14.9472 9.24021 14.9999 9.36739 14.9999 9.5V16C14.9999 16.2652 15.1052 16.5196 15.2928 16.7071C15.4803 16.8946 15.7347 17 15.9999 17H18.9999C19.7955 17 20.5586 17.3161 21.1212 17.8787C21.6838 18.4413 21.9999 19.2044 21.9999 20V23C21.9999 23.2652 22.1052 23.5196 22.2928 23.7071C22.4803 23.8946 22.7347 24 22.9999 24C23.2651 24 23.5195 23.8946 23.707 23.7071C23.8945 23.5196 23.9999 23.2652 23.9999 23V20C23.9983 18.6744 23.471 17.4036 22.5337 16.4662C21.5963 15.5289 20.3255 15.0016 18.9999 15V15Z" fill="#008DC9"/>
</g>
<defs>
<clipPath id="clip0">
<path d="M0 0H24V24H0V0Z" fill="white"/>
</clipPath>
</defs>
</svg>
