<svg width="24" height="24" viewBox="0 0 24 24" fill="none" xmlns="http://www.w3.org/2000/svg">
<path d="M23.6 16.367C23.5009 16.2669 23.3829 16.1874 23.2529 16.1332C23.1229 16.0789 22.9834 16.051 22.8425 16.051C22.7016 16.051 22.5621 16.0789 22.4321 16.1332C22.3021 16.1874 22.1841 16.2669 22.085 16.367C21.8841 16.5699 21.7715 16.844 21.7715 17.1295C21.7715 17.415 21.8841 17.689 22.085 17.892C22.1841 17.9921 22.3021 18.0716 22.4321 18.1258C22.5621 18.18 22.7016 18.208 22.8425 18.208C22.9834 18.208 23.1229 18.18 23.2529 18.1258C23.3829 18.0716 23.5009 17.9921 23.6 17.892C23.8008 17.689 23.9135 17.415 23.9135 17.1295C23.9135 16.844 23.8008 16.5699 23.6 16.367V16.367Z" fill="black"/>
<path d="M20.033 18.884C19.8921 18.8839 19.7526 18.9117 19.6225 18.9657C19.4924 19.0198 19.3743 19.0991 19.275 19.199C19.0741 19.4022 18.9614 19.6763 18.9614 19.962C18.9614 20.2477 19.0741 20.5219 19.275 20.725C19.3741 20.8251 19.4921 20.9046 19.6221 20.9588C19.7522 21.0131 19.8916 21.041 20.0325 21.041C20.1734 21.041 20.3129 21.0131 20.4429 20.9588C20.5729 20.9046 20.6909 20.8251 20.79 20.725C20.9909 20.5219 21.1036 20.2477 21.1036 19.962C21.1036 19.6763 20.9909 19.4022 20.79 19.199C20.6909 19.0991 20.573 19.0198 20.4431 18.9658C20.3131 18.9117 20.1738 18.8839 20.033 18.884V18.884Z" fill="black"/>
<path d="M17.2199 21.7161C17.079 21.7159 16.9394 21.7438 16.8093 21.7981C16.6791 21.8523 16.5611 21.9318 16.462 22.0321C16.2611 22.235 16.1484 22.509 16.1484 22.7946C16.1484 23.0801 16.2611 23.3541 16.462 23.5571C16.5611 23.6572 16.6791 23.7366 16.8091 23.7909C16.9391 23.8451 17.0786 23.873 17.2194 23.873C17.3603 23.873 17.4998 23.8451 17.6298 23.7909C17.7598 23.7366 17.8778 23.6572 17.9769 23.5571C18.1778 23.3541 18.2905 23.0801 18.2905 22.7946C18.2905 22.509 18.1778 22.235 17.9769 22.0321C17.878 21.9318 17.7602 21.8523 17.6302 21.798C17.5002 21.7438 17.3608 21.7159 17.2199 21.7161V21.7161Z" fill="black"/>
<path d="M17 19.959C17.2008 19.7561 17.3135 19.4821 17.3135 19.1965C17.3135 18.911 17.2008 18.637 17 18.434C16.9009 18.334 16.783 18.2545 16.6531 18.2003C16.5232 18.1461 16.3838 18.1182 16.243 18.1182C16.1022 18.1182 15.9628 18.1461 15.8328 18.2003C15.7029 18.2545 15.585 18.334 15.486 18.434C15.2846 18.6367 15.1716 18.9109 15.1716 19.1965C15.1716 19.4822 15.2846 19.7563 15.486 19.959C15.585 20.0591 15.7029 20.1386 15.8328 20.1928C15.9628 20.247 16.1022 20.2749 16.243 20.2749C16.3838 20.2749 16.5232 20.247 16.6531 20.1928C16.783 20.1386 16.9009 20.0591 17 19.959V19.959Z" fill="black"/>
<path d="M20.038 16.9C20.2394 16.6971 20.3525 16.4228 20.3525 16.137C20.3525 15.8511 20.2394 15.5769 20.038 15.374C19.939 15.2739 19.8211 15.1945 19.6912 15.1402C19.5612 15.086 19.4218 15.0581 19.281 15.0581C19.1403 15.0581 19.0009 15.086 18.8709 15.1402C18.741 15.1945 18.6231 15.2739 18.524 15.374C18.3231 15.5771 18.2104 15.8513 18.2104 16.137C18.2104 16.4227 18.3231 16.6969 18.524 16.9C18.6231 17.0001 18.741 17.0795 18.8709 17.1337C19.0009 17.188 19.1403 17.2159 19.281 17.2159C19.4218 17.2159 19.5612 17.188 19.6912 17.1337C19.8211 17.0795 19.939 17.0001 20.038 16.9V16.9Z" fill="black"/>
<path d="M15.987 16.967C16.128 16.9673 16.2677 16.9395 16.3978 16.8853C16.5279 16.831 16.646 16.7514 16.745 16.651C16.9459 16.4481 17.0585 16.1741 17.0585 15.8885C17.0585 15.603 16.9459 15.329 16.745 15.126C16.6459 15.0259 16.5279 14.9465 16.3979 14.8922C16.2679 14.838 16.1284 14.8101 15.9875 14.8101C15.8466 14.8101 15.7072 14.838 15.5771 14.8922C15.4471 14.9465 15.3291 15.0259 15.23 15.126C15.0292 15.329 14.9165 15.603 14.9165 15.8885C14.9165 16.1741 15.0292 16.4481 15.23 16.651C15.3289 16.7513 15.4468 16.8308 15.5768 16.8851C15.7067 16.9393 15.8462 16.9672 15.987 16.967V16.967Z" fill="black"/>
<path d="M15.914 10.835C16.0433 10.623 16.1011 10.3752 16.079 10.128C15.9816 9.12095 15.6201 8.1575 15.031 7.33495C14.8355 7.02311 14.6682 6.69448 14.531 6.35295C14.531 2.45295 10.939 0.126952 7.46702 0.126952C6.49171 0.119002 5.52463 0.305938 4.62254 0.676791C3.72045 1.04764 2.90152 1.59494 2.21381 2.28657C1.52609 2.9782 0.983446 3.80022 0.617717 4.7044C0.251988 5.60858 0.0705403 6.5767 0.084023 7.55195C0.013258 8.65134 0.222219 9.75074 0.691398 10.7475C1.16058 11.7443 1.87467 12.6059 2.76702 13.252C2.83275 13.298 2.88642 13.3592 2.92349 13.4304C2.96056 13.5016 2.97995 13.5807 2.98002 13.661V17.288C2.98002 17.4206 3.0327 17.5477 3.12647 17.6415C3.22024 17.7353 3.34741 17.788 3.48002 17.788H10.722C10.8546 17.788 10.9818 17.7353 11.0756 17.6415C11.1693 17.5477 11.222 17.4206 11.222 17.288V15.388C11.222 15.2553 11.2747 15.1282 11.3685 15.0344C11.4622 14.9406 11.5894 14.888 11.722 14.888H12.532C13.0486 14.8874 13.5439 14.6821 13.9092 14.3169C14.2746 13.9517 14.4802 13.4565 14.481 12.94V11.773C14.481 11.6422 14.5322 11.5167 14.6236 11.4232C14.715 11.3298 14.8393 11.2758 14.97 11.273H15.112C15.2702 11.2658 15.4247 11.2226 15.5637 11.1467C15.7026 11.0708 15.8225 10.9642 15.914 10.835V10.835Z" fill="black"/>
</svg>
