<svg width="24" height="24" viewBox="0 0 24 24" fill="none" xmlns="http://www.w3.org/2000/svg">
<path d="M20.75 17.876H14.5C14.3674 17.876 14.2402 17.8233 14.1464 17.7295C14.0527 17.6358 14 17.5086 14 17.376C14 17.2434 14.0527 17.1162 14.1464 17.0224C14.2402 16.9287 14.3674 16.876 14.5 16.876H19.75C20.0815 16.876 20.3995 16.7443 20.6339 16.5099C20.8683 16.2754 21 15.9575 21 15.626C21 15.2945 20.8683 14.9765 20.6339 14.7421C20.3995 14.5077 20.0815 14.376 19.75 14.376H12C11.8674 14.376 11.7402 14.3233 11.6464 14.2295C11.5527 14.1358 11.5 14.0086 11.5 13.876C11.5 13.7434 11.5527 13.6162 11.6464 13.5224C11.7402 13.4287 11.8674 13.376 12 13.376H15.5C15.6326 13.376 15.7598 13.3233 15.8536 13.2295C15.9473 13.1358 16 13.0086 16 12.876V12.376C16 11.9782 15.842 11.5966 15.5607 11.3153C15.2794 11.034 14.8978 10.876 14.5 10.876H9C7.76376 10.8786 6.57259 11.3405 5.65784 12.1721C4.74309 13.0037 4.17005 14.1456 4.05 15.376H2.5C2.36739 15.376 2.24021 15.4287 2.14645 15.5224C2.05268 15.6162 2 15.7434 2 15.876V21.376C2 21.5086 2.05268 21.6358 2.14645 21.7295C2.24021 21.8233 2.36739 21.876 2.5 21.876H4.555C4.90321 22.4823 5.40488 22.9864 6.00959 23.3374C6.61431 23.6885 7.30077 23.8742 8 23.876H18.75C19.0815 23.876 19.3995 23.7443 19.6339 23.5099C19.8683 23.2754 20 22.9575 20 22.626C20 22.2945 19.8683 21.9765 19.6339 21.7421C19.3995 21.5077 19.0815 21.376 18.75 21.376H14.5C14.3674 21.376 14.2402 21.3233 14.1464 21.2295C14.0527 21.1358 14 21.0086 14 20.876C14 20.7434 14.0527 20.6162 14.1464 20.5224C14.2402 20.4287 14.3674 20.376 14.5 20.376H20.75C21.0815 20.376 21.3995 20.2443 21.6339 20.0099C21.8683 19.7754 22 19.4575 22 19.126C22 18.7945 21.8683 18.4765 21.6339 18.2421C21.3995 18.0077 21.0815 17.876 20.75 17.876V17.876Z" fill="black"/>
<path d="M13.5 2.62598C14.1904 2.62598 14.75 2.06633 14.75 1.37598C14.75 0.685621 14.1904 0.125977 13.5 0.125977C12.8096 0.125977 12.25 0.685621 12.25 1.37598C12.25 2.06633 12.8096 2.62598 13.5 2.62598Z" fill="black"/>
<path d="M13.5 6.12598C14.1904 6.12598 14.75 5.56633 14.75 4.87598C14.75 4.18562 14.1904 3.62598 13.5 3.62598C12.8096 3.62598 12.25 4.18562 12.25 4.87598C12.25 5.56633 12.8096 6.12598 13.5 6.12598Z" fill="black"/>
<path d="M13.5 9.62598C14.1904 9.62598 14.75 9.06633 14.75 8.37598C14.75 7.68562 14.1904 7.12598 13.5 7.12598C12.8096 7.12598 12.25 7.68562 12.25 8.37598C12.25 9.06633 12.8096 9.62598 13.5 9.62598Z" fill="black"/>
<path d="M10.069 2.48808C10.2522 2.39458 10.4094 2.25734 10.5269 2.08852C10.6443 1.91971 10.7182 1.72453 10.7422 1.52029C10.7661 1.31605 10.7393 1.10906 10.6641 0.91766C10.5889 0.726263 10.4677 0.556375 10.3111 0.423053C10.1545 0.289732 9.96748 0.197097 9.76655 0.153358C9.56562 0.109619 9.35699 0.116129 9.15918 0.172309C8.96136 0.228489 8.78046 0.332605 8.63251 0.475428C8.48456 0.61825 8.37414 0.795368 8.31102 0.99108C8.23433 1.22641 8.22924 1.47921 8.29638 1.71744C8.36352 1.95567 8.49988 2.1686 8.68816 2.32925C8.87645 2.48991 9.10819 2.59105 9.35402 2.61986C9.59984 2.64866 9.84869 2.60385 10.069 2.49108V2.48808Z" fill="black"/>
<path d="M7.99994 6.12602C8.27261 6.12594 8.53778 6.03677 8.7551 5.87209C8.97241 5.70741 9.12998 5.47623 9.20381 5.21375C9.27763 4.95127 9.26368 4.67185 9.16408 4.41803C9.06447 4.16421 8.88467 3.94988 8.65203 3.80766C8.41938 3.66545 8.14665 3.60313 7.87533 3.63021C7.60401 3.65728 7.34897 3.77225 7.14901 3.95763C6.94906 4.14301 6.81515 4.38864 6.76766 4.65714C6.72017 4.92564 6.7617 5.20231 6.88594 5.44502C6.99091 5.65011 7.15048 5.82222 7.34705 5.94239C7.54362 6.06255 7.76955 6.1261 7.99994 6.12602Z" fill="black"/>
<path d="M6.49999 9.62598C6.77247 9.62619 7.03756 9.53737 7.2549 9.37302C7.47224 9.20868 7.62993 8.97782 7.70396 8.71558C7.77799 8.45335 7.7643 8.17411 7.66499 7.92037C7.56567 7.66663 7.38617 7.4523 7.1538 7.30999C6.92143 7.16769 6.64892 7.10521 6.37777 7.13206C6.10661 7.15892 5.85166 7.27365 5.65172 7.45877C5.45179 7.6439 5.31782 7.88928 5.27021 8.15757C5.2226 8.42586 5.26396 8.70236 5.38799 8.94498C5.49281 9.14976 5.65206 9.32167 5.84825 9.44182C6.04443 9.56196 6.26994 9.62568 6.49999 9.62598V9.62598Z" fill="black"/>
<path d="M17.5 2.62598C17.697 2.62562 17.8911 2.57879 18.0665 2.48932C18.242 2.39984 18.3939 2.27024 18.5098 2.11103C18.6257 1.95183 18.7025 1.76751 18.7338 1.57307C18.7651 1.37863 18.7501 1.17954 18.69 0.991977V0.991977C18.6192 0.772518 18.489 0.576934 18.3139 0.426864C18.1388 0.276794 17.9256 0.178087 17.6979 0.141666C17.4702 0.105244 17.2368 0.132526 17.0237 0.220494C16.8105 0.308462 16.6258 0.453687 16.4901 0.640101C16.3543 0.826515 16.2727 1.04685 16.2544 1.27673C16.2361 1.50662 16.2818 1.73708 16.3863 1.94264C16.4909 2.14819 16.6502 2.32082 16.8468 2.44142C17.0433 2.56202 17.2694 2.6259 17.5 2.62598Z" fill="black"/>
<path d="M17.8111 5.25897C17.8876 5.4939 18.032 5.70087 18.2262 5.85369C18.4203 6.00652 18.6554 6.09833 18.9017 6.11752C19.148 6.13671 19.3945 6.08241 19.61 5.96149C19.8254 5.84057 20.0002 5.65846 20.1121 5.43821C20.2241 5.21795 20.2682 4.96944 20.2389 4.72411C20.2096 4.47879 20.1082 4.24766 19.9475 4.05998C19.7868 3.8723 19.5741 3.7365 19.3362 3.66974C19.0983 3.60299 18.8459 3.60829 18.6111 3.68497C18.2968 3.7884 18.0363 4.01201 17.8864 4.30694C17.7365 4.60187 17.7094 4.94414 17.8111 5.25897V5.25897Z" fill="black"/>
<path d="M19.3879 7.80593C19.2564 8.06329 19.2183 8.35827 19.28 8.6406C19.3417 8.92292 19.4994 9.17512 19.7262 9.35422C19.953 9.53331 20.2348 9.62823 20.5238 9.62278C20.8127 9.61733 21.0908 9.51186 21.3107 9.32434C21.5306 9.13682 21.6786 8.87885 21.7296 8.5944C21.7806 8.30995 21.7314 8.01662 21.5904 7.7644C21.4493 7.51217 21.2252 7.31666 20.9561 7.21118C20.6871 7.10569 20.3898 7.09677 20.1149 7.18593C19.8001 7.28827 19.5386 7.51121 19.3879 7.80593V7.80593Z" fill="black"/>
</svg>
