<svg width="24" height="24" viewBox="0 0 24 24" fill="none" xmlns="http://www.w3.org/2000/svg">
<g clip-path="url(#clip0)">
<path d="M24 8.66096C23.9999 8.41672 23.9402 8.17619 23.8261 7.96026C23.7119 7.74434 23.5468 7.55955 23.345 7.42196L12.845 0.262962C12.5965 0.0915529 12.3018 -0.000244141 12 -0.000244141C11.6982 -0.000244141 11.4035 0.0915529 11.155 0.262962L0.655 7.42196C0.4532 7.55955 0.288051 7.74434 0.173902 7.96026C0.0597524 8.17619 5.61123e-05 8.41672 0 8.66096L0 22.5C0 22.8978 0.158035 23.2793 0.43934 23.5606C0.720644 23.8419 1.10218 24 1.5 24H7.5C7.76522 24 8.01957 23.8946 8.20711 23.7071C8.39464 23.5195 8.5 23.2652 8.5 23C8.5 22.7347 8.39464 22.4804 8.20711 22.2929C8.01957 22.1053 7.76522 22 7.5 22H2.5C2.36739 22 2.24021 21.9473 2.14645 21.8535C2.05268 21.7597 2 21.6326 2 21.5V9.18996C1.99998 9.10858 2.01983 9.02842 2.05782 8.95645C2.09581 8.88447 2.1508 8.82286 2.218 8.77696L11.718 2.29896C11.8011 2.24221 11.8994 2.21185 12 2.21185C12.1006 2.21185 12.1989 2.24221 12.282 2.29896L21.782 8.77696C21.8492 8.82286 21.9042 8.88447 21.9422 8.95645C21.9802 9.02842 22 9.10858 22 9.18996V21.5C22 21.6326 21.9473 21.7597 21.8536 21.8535C21.7598 21.9473 21.6326 22 21.5 22H16.5C16.2348 22 15.9804 22.1053 15.7929 22.2929C15.6054 22.4804 15.5 22.7347 15.5 23C15.5 23.2652 15.6054 23.5195 15.7929 23.7071C15.9804 23.8946 16.2348 24 16.5 24H22.5C22.8978 24 23.2794 23.8419 23.5607 23.5606C23.842 23.2793 24 22.8978 24 22.5V8.66096Z" fill="black"/>
<path d="M12 11C13.3807 11 14.5 9.88071 14.5 8.5C14.5 7.11929 13.3807 6 12 6C10.6193 6 9.5 7.11929 9.5 8.5C9.5 9.88071 10.6193 11 12 11Z" fill="black"/>
<path d="M15.5 19.0001C15.6326 19.0001 15.7598 18.9474 15.8536 18.8537C15.9473 18.7599 16 18.6327 16 18.5001V16.1001C16 15.0392 15.5786 14.0218 14.8284 13.2717C14.0783 12.5215 13.0609 12.1001 12 12.1001C10.9391 12.1001 9.92172 12.5215 9.17157 13.2717C8.42143 14.0218 8 15.0392 8 16.1001V18.5001C8 18.6327 8.05268 18.7599 8.14645 18.8537C8.24021 18.9474 8.36739 19.0001 8.5 19.0001H9.582C9.64334 19.0001 9.70254 19.0227 9.74841 19.0634C9.79429 19.1041 9.82367 19.1602 9.831 19.2211L10.337 23.5581C10.3513 23.6804 10.4102 23.7932 10.5025 23.8747C10.5947 23.9563 10.7139 24.0009 10.837 24.0001H13.171C13.2941 24.0009 13.4133 23.9563 13.5055 23.8747C13.5978 23.7932 13.6567 23.6804 13.671 23.5581L14.177 19.2211C14.1841 19.1615 14.2124 19.1065 14.2566 19.066C14.3008 19.0254 14.358 19.0021 14.418 19.0001H15.5Z" fill="black"/>
<path d="M24 8.66096C23.9999 8.41672 23.9402 8.17619 23.8261 7.96026C23.7119 7.74434 23.5468 7.55955 23.345 7.42196L12.845 0.262962C12.5965 0.0915529 12.3018 -0.000244141 12 -0.000244141C11.6982 -0.000244141 11.4035 0.0915529 11.155 0.262962L0.655 7.42196C0.4532 7.55955 0.288051 7.74434 0.173902 7.96026C0.0597524 8.17619 5.61123e-05 8.41672 0 8.66096L0 22.5C0 22.8978 0.158035 23.2793 0.43934 23.5606C0.720644 23.8419 1.10218 24 1.5 24H7.5C7.76522 24 8.01957 23.8946 8.20711 23.7071C8.39464 23.5195 8.5 23.2652 8.5 23C8.5 22.7347 8.39464 22.4804 8.20711 22.2929C8.01957 22.1053 7.76522 22 7.5 22H2.5C2.36739 22 2.24021 21.9473 2.14645 21.8535C2.05268 21.7597 2 21.6326 2 21.5V9.18996C1.99998 9.10858 2.01983 9.02842 2.05782 8.95645C2.09581 8.88447 2.1508 8.82286 2.218 8.77696L11.718 2.29896C11.8011 2.24221 11.8994 2.21185 12 2.21185C12.1006 2.21185 12.1989 2.24221 12.282 2.29896L21.782 8.77696C21.8492 8.82286 21.9042 8.88447 21.9422 8.95645C21.9802 9.02842 22 9.10858 22 9.18996V21.5C22 21.6326 21.9473 21.7597 21.8536 21.8535C21.7598 21.9473 21.6326 22 21.5 22H16.5C16.2348 22 15.9804 22.1053 15.7929 22.2929C15.6054 22.4804 15.5 22.7347 15.5 23C15.5 23.2652 15.6054 23.5195 15.7929 23.7071C15.9804 23.8946 16.2348 24 16.5 24H22.5C22.8978 24 23.2794 23.8419 23.5607 23.5606C23.842 23.2793 24 22.8978 24 22.5V8.66096Z" fill="black"/>
<path d="M12 11C13.3807 11 14.5 9.88071 14.5 8.5C14.5 7.11929 13.3807 6 12 6C10.6193 6 9.5 7.11929 9.5 8.5C9.5 9.88071 10.6193 11 12 11Z" fill="black"/>
<path d="M15.5 19.0001C15.6326 19.0001 15.7598 18.9474 15.8536 18.8537C15.9473 18.7599 16 18.6327 16 18.5001V16.1001C16 15.0392 15.5786 14.0218 14.8284 13.2717C14.0783 12.5215 13.0609 12.1001 12 12.1001C10.9391 12.1001 9.92172 12.5215 9.17157 13.2717C8.42143 14.0218 8 15.0392 8 16.1001V18.5001C8 18.6327 8.05268 18.7599 8.14645 18.8537C8.24021 18.9474 8.36739 19.0001 8.5 19.0001H9.582C9.64334 19.0001 9.70254 19.0227 9.74841 19.0634C9.79429 19.1041 9.82367 19.1602 9.831 19.2211L10.337 23.5581C10.3513 23.6804 10.4102 23.7932 10.5025 23.8747C10.5947 23.9563 10.7139 24.0009 10.837 24.0001H13.171C13.2941 24.0009 13.4133 23.9563 13.5055 23.8747C13.5978 23.7932 13.6567 23.6804 13.671 23.5581L14.177 19.2211C14.1841 19.1615 14.2124 19.1065 14.2566 19.066C14.3008 19.0254 14.358 19.0021 14.418 19.0001H15.5Z" fill="black"/>
</g>
<defs>
<clipPath id="clip0">
<path d="M0 0H24V24H0V0Z" fill="white"/>
</clipPath>
</defs>
</svg>
