<svg width="145" height="145" viewBox="0 0 145 145" fill="none" xmlns="http://www.w3.org/2000/svg">
<path d="M117.812 24.1666H141.979" stroke="#6AC7FA" stroke-width="2.5" stroke-linecap="round" stroke-linejoin="round"/>
<path d="M114.792 12.0834L135.938 3.02087" stroke="#6AC7FA" stroke-width="2.5" stroke-linecap="round" stroke-linejoin="round"/>
<path d="M114.792 36.25L135.938 45.3125" stroke="#6AC7FA" stroke-width="2.5" stroke-linecap="round" stroke-linejoin="round"/>
<path d="M45.3125 9.0625H84.5833C85.3845 9.0625 86.1529 9.38077 86.7194 9.94728C87.2859 10.5138 87.6042 11.2822 87.6042 12.0833V36.25C87.6042 37.0512 87.2859 37.8195 86.7194 38.3861C86.1529 38.9526 85.3845 39.2708 84.5833 39.2708H15.1042C15.1042 31.2591 18.2868 23.5755 23.952 17.9103C29.6171 12.2452 37.3007 9.0625 45.3125 9.0625V9.0625Z" stroke="black" stroke-width="2.5" stroke-linecap="round" stroke-linejoin="round"/>
<path d="M63.4375 39.2709H39.2708V63.4375H63.4375V39.2709Z" stroke="black" stroke-width="2.5" stroke-linecap="round" stroke-linejoin="round"/>
<path d="M68.6394 141.979H34.069C25.8345 141.979 17.9373 138.708 12.1146 132.885C6.29198 127.063 3.02084 119.166 3.02084 110.931C3.02104 103.668 5.56719 96.6343 10.2165 91.054L31.4167 65.6125C31.9834 64.9321 32.6928 64.3845 33.4947 64.0087C34.2965 63.6328 35.1711 63.4378 36.0567 63.4375H66.6517C67.5372 63.4378 68.4119 63.6328 69.2137 64.0087C70.0155 64.3845 70.7249 64.9321 71.2917 65.6125L92.4919 91.054C97.1412 96.6343 99.6873 103.668 99.6875 110.931C99.6875 119.166 96.4164 127.063 90.5937 132.885C84.7711 138.708 76.8739 141.979 68.6394 141.979Z" fill="#D5F5FD" stroke="black" stroke-width="2.5" stroke-linecap="round" stroke-linejoin="round"/>
<path d="M84.5833 57.3959C79.7763 57.3959 75.1661 55.4863 71.767 52.0872C68.3679 48.6881 66.4583 44.0779 66.4583 39.2709" stroke="black" stroke-width="2.5" stroke-linecap="round" stroke-linejoin="round"/>
<path d="M99.6875 15.1041V33.2291" stroke="black" stroke-width="2.5" stroke-linecap="round" stroke-linejoin="round"/>
</svg>
