<svg width="145" height="145" viewBox="0 0 145 145" fill="none" xmlns="http://www.w3.org/2000/svg">
<path d="M78.5417 96.9144V15.1041C78.5417 11.8994 77.2686 8.826 75.0025 6.55994C72.7365 4.29388 69.663 3.02081 66.4583 3.02081C63.2536 3.02081 60.1802 4.29388 57.9141 6.55994C55.6481 8.826 54.375 11.8994 54.375 15.1041V96.9144C49.7678 99.5743 46.1671 103.68 44.1313 108.595C42.0954 113.51 41.7382 118.959 43.1151 124.098C44.492 129.237 47.526 133.777 51.7466 137.016C55.9672 140.255 61.1384 142.01 66.4583 142.01C71.7782 142.01 76.9495 140.255 81.1701 137.016C85.3906 133.777 88.4247 129.237 89.8015 124.098C91.1784 118.959 90.8213 113.51 88.7854 108.595C86.7496 103.68 83.1488 99.5743 78.5417 96.9144V96.9144Z" stroke="black" stroke-width="2.5" stroke-linecap="round" stroke-linejoin="round"/>
<path d="M66.4583 123.854C69.7951 123.854 72.5 121.149 72.5 117.812C72.5 114.476 69.7951 111.771 66.4583 111.771C63.1216 111.771 60.4167 114.476 60.4167 117.812C60.4167 121.149 63.1216 123.854 66.4583 123.854Z" stroke="#D42E56" stroke-width="2.5" stroke-linecap="round" stroke-linejoin="round"/>
<path d="M66.4583 111.771V21.1458" stroke="#D42E56" stroke-width="2.5" stroke-linecap="round" stroke-linejoin="round"/>
<path d="M90.625 81.5625H102.708" stroke="#EC96AA" stroke-width="2.5" stroke-linecap="round" stroke-linejoin="round"/>
<path d="M90.625 51.3542H102.708" stroke="#EC96AA" stroke-width="2.5" stroke-linecap="round" stroke-linejoin="round"/>
<path d="M90.625 21.1458H102.708" stroke="#EC96AA" stroke-width="2.5" stroke-linecap="round" stroke-linejoin="round"/>
</svg>
