<svg width="145" height="145" viewBox="0 0 145 145" fill="none" xmlns="http://www.w3.org/2000/svg">
<path d="M45.3125 102.708C43.7102 102.708 42.1734 102.072 41.0404 100.939C39.9074 99.8057 39.2708 98.269 39.2708 96.6667C39.2708 95.0643 39.9074 93.5276 41.0404 92.3946C42.1734 91.2615 43.7102 90.625 45.3125 90.625H48.3333" stroke="black" stroke-width="2.5" stroke-linecap="round" stroke-linejoin="round"/>
<path d="M45.3125 114.792C43.7102 114.792 42.1734 114.155 41.0404 113.022C39.9074 111.889 39.2708 110.352 39.2708 108.75C39.2708 107.148 39.9074 105.611 41.0404 104.478C42.1734 103.345 43.7102 102.708 45.3125 102.708" stroke="black" stroke-width="2.5" stroke-linecap="round" stroke-linejoin="round"/>
<path d="M48.3333 126.875H45.3125C43.7102 126.875 42.1734 126.238 41.0404 125.105C39.9074 123.972 39.2708 122.436 39.2708 120.833C39.2708 119.231 39.9074 117.694 41.0404 116.561C42.1734 115.428 43.7102 114.792 45.3125 114.792" stroke="black" stroke-width="2.5" stroke-linecap="round" stroke-linejoin="round"/>
<path d="M63.4375 78.5417V75.5208C63.4375 74.7197 63.7558 73.9513 64.3223 73.3848C64.8888 72.8183 65.6572 72.5 66.4583 72.5H72.5C73.3012 72.5 74.0695 72.8183 74.636 73.3848C75.2026 73.9513 75.5208 74.7197 75.5208 75.5208V78.5417" stroke="black" stroke-width="2.5" stroke-linecap="round" stroke-linejoin="round"/>
<path d="M63.4375 102.708H81.5625" stroke="black" stroke-width="2.5" stroke-linecap="round" stroke-linejoin="round"/>
<path d="M90.625 90.625H99.6875" stroke="black" stroke-width="2.5" stroke-linecap="round" stroke-linejoin="round"/>
<path d="M63.4375 114.792H81.5625" stroke="black" stroke-width="2.5" stroke-linecap="round" stroke-linejoin="round"/>
<path d="M141.979 96.6666H123.854V90.625C123.854 87.4203 122.581 84.3468 120.315 82.0808C118.049 79.8147 114.976 78.5416 111.771 78.5416H90.625C89.0227 78.5416 87.4859 79.1782 86.3529 80.3112C85.2199 81.4442 84.5833 82.9809 84.5833 84.5833C84.5833 86.1856 85.2199 87.7224 86.3529 88.8554C87.4859 89.9884 89.0227 90.625 90.625 90.625H63.4375C61.8352 90.625 60.2984 91.2615 59.1654 92.3945C58.0324 93.5276 57.3958 95.0643 57.3958 96.6666C57.3958 98.269 58.0324 99.8057 59.1654 100.939C60.2984 102.072 61.8352 102.708 63.4375 102.708C61.8352 102.708 60.2984 103.345 59.1654 104.478C58.0324 105.611 57.3958 107.148 57.3958 108.75C57.3958 110.352 58.0324 111.889 59.1654 113.022C60.2984 114.155 61.8352 114.792 63.4375 114.792C61.8352 114.792 60.2984 115.428 59.1654 116.561C58.0324 117.694 57.3958 119.231 57.3958 120.833C57.3958 122.436 58.0324 123.972 59.1654 125.105C60.2984 126.238 61.8352 126.875 63.4375 126.875H141.979" stroke="black" stroke-width="2.5" stroke-linecap="round" stroke-linejoin="round"/>
<path d="M69.4791 30.2084C59.0149 39.2709 79.9433 45.3125 69.4791 54.375" stroke="#D42E56" stroke-width="2.5" stroke-linecap="round" stroke-linejoin="round"/>
<path d="M93.6457 30.2084C83.1816 39.2709 104.11 45.3125 93.6457 54.375" stroke="#D42E56" stroke-width="2.5" stroke-linecap="round" stroke-linejoin="round"/>
<path d="M129.89 12.0833C129.449 13.2184 128.676 14.1938 127.671 14.8816C126.666 15.5695 125.477 15.9376 124.259 15.9379L35.8393 15.9379C34.6216 15.9376 33.4324 15.5695 32.4276 14.8816C31.4228 14.1938 30.6493 13.2184 30.2085 12.0833" stroke="black" stroke-width="2.5" stroke-linecap="round" stroke-linejoin="round"/>
</svg>
