<svg width="24" height="24" viewBox="0 0 24 24" fill="none" xmlns="http://www.w3.org/2000/svg">
<g clip-path="url(#clip0)">
<path d="M6.55288 8.9C6.67089 8.9594 6.79949 8.99482 6.93127 9.00423C7.06304 9.01364 7.19537 8.99685 7.32062 8.95482C7.44586 8.91279 7.56154 8.84637 7.66097 8.75937C7.76039 8.67238 7.84159 8.56655 7.89988 8.448C8.15627 8.14244 8.47819 7.89854 8.84173 7.73443C9.20528 7.57031 9.60113 7.49019 9.99988 7.5C10.2651 7.5 10.5195 7.39464 10.707 7.20711C10.8945 7.01957 10.9999 6.76522 10.9999 6.5C10.9999 6.23478 10.8945 5.98043 10.707 5.79289C10.5195 5.60536 10.2651 5.5 9.99988 5.5C8.84688 5.5 6.85788 6.047 6.10488 7.553C6.04535 7.67076 6.00971 7.79915 6.00001 7.93075C5.99032 8.06235 6.00678 8.19457 6.04842 8.31978C6.09007 8.44499 6.15608 8.56073 6.24266 8.66031C6.32924 8.75989 6.43468 8.84135 6.55288 8.9V8.9Z" fill="black"/>
<path d="M13 6.5C13 6.76522 13.1054 7.01957 13.2929 7.20711C13.4804 7.39464 13.7348 7.5 14 7.5C14.3995 7.48931 14.7963 7.56891 15.1608 7.73288C15.5252 7.89685 15.848 8.14095 16.105 8.447C16.2236 8.68437 16.4315 8.86492 16.6832 8.94894C16.9349 9.03295 17.2096 9.01355 17.447 8.895C17.6844 8.77645 17.8649 8.56846 17.9489 8.31678C18.033 8.06511 18.0136 7.79037 17.895 7.553C17.142 6.048 15.153 5.5 14 5.5C13.7348 5.5 13.4804 5.60536 13.2929 5.79289C13.1054 5.98043 13 6.23478 13 6.5Z" fill="black"/>
<path d="M24 12C24 9.62663 23.2962 7.30655 21.9776 5.33316C20.6591 3.35977 18.7849 1.8217 16.5922 0.913451C14.3995 0.00519943 11.9867 -0.232441 9.65892 0.230582C7.33115 0.693605 5.19295 1.83649 3.51472 3.51472C1.83649 5.19295 0.693605 7.33115 0.230582 9.65892C-0.232441 11.9867 0.00519943 14.3995 0.913451 16.5922C1.8217 18.7849 3.35977 20.6591 5.33316 21.9776C7.30655 23.2962 9.62663 24 12 24C15.1815 23.9963 18.2316 22.7308 20.4812 20.4812C22.7308 18.2316 23.9963 15.1815 24 12ZM2.04001 12.891C2.03642 12.8502 2.0429 12.8092 2.05888 12.7715C2.07485 12.7339 2.09983 12.7007 2.13162 12.6749C2.16342 12.6491 2.20105 12.6316 2.24122 12.6237C2.28139 12.6159 2.32286 12.6181 2.36201 12.63L5.82301 13.687C5.87421 13.7026 5.91905 13.7343 5.95091 13.7773C5.98277 13.8203 5.99998 13.8725 6.00001 13.926V15.251C6.00001 15.3173 5.97367 15.3809 5.92678 15.4278C5.8799 15.4747 5.81631 15.501 5.75001 15.501H2.80801C2.75637 15.501 2.706 15.485 2.66377 15.4553C2.62154 15.4256 2.58949 15.3836 2.57201 15.335C2.29231 14.546 2.11355 13.7248 2.04001 12.891V12.891ZM8.00001 13C8.00001 12.8674 8.05268 12.7402 8.14645 12.6465C8.24022 12.5527 8.3674 12.5 8.50001 12.5H15.5C15.6326 12.5 15.7598 12.5527 15.8536 12.6465C15.9473 12.7402 16 12.8674 16 13V17C16 17.1326 15.9473 17.2598 15.8536 17.3536C15.7598 17.4473 15.6326 17.5 15.5 17.5H8.50001C8.3674 17.5 8.24022 17.4473 8.14645 17.3536C8.05268 17.2598 8.00001 17.1326 8.00001 17V13ZM18 13.925C18 13.8715 18.0172 13.8193 18.0491 13.7763C18.081 13.7333 18.1258 13.7016 18.177 13.686L21.638 12.629C21.6771 12.6171 21.7186 12.6149 21.7588 12.6227C21.799 12.6306 21.8366 12.6481 21.8684 12.6739C21.9002 12.6997 21.9252 12.7329 21.9411 12.7705C21.9571 12.8082 21.9636 12.8492 21.96 12.89C21.8866 13.7235 21.7078 14.5444 21.428 15.333C21.4108 15.3819 21.3789 15.4242 21.3366 15.4541C21.2943 15.484 21.2438 15.5 21.192 15.5H18.25C18.1837 15.5 18.1201 15.4737 18.0732 15.4268C18.0263 15.3799 18 15.3163 18 15.25V13.925ZM12 2.00001C14.3471 2.00306 16.6186 2.8302 18.4181 4.33709C20.2176 5.84398 21.4308 7.93492 21.846 10.245C21.8567 10.3052 21.8451 10.3672 21.8132 10.4193C21.7813 10.4715 21.7314 10.5101 21.673 10.528L18.035 11.639C17.9806 11.6559 17.9219 11.6536 17.869 11.6325C17.816 11.6114 17.7719 11.5727 17.744 11.523C17.5704 11.2129 17.3173 10.9547 17.0108 10.7749C16.7043 10.5951 16.3554 10.5002 16 10.5H8.00001C7.64474 10.5001 7.2959 10.5948 6.98939 10.7745C6.68287 10.9541 6.42973 11.2121 6.25601 11.522C6.22825 11.5719 6.18415 11.6106 6.13114 11.6318C6.07813 11.6529 6.01945 11.6551 5.96501 11.638L2.32701 10.528C2.26864 10.5103 2.21879 10.4719 2.1869 10.4199C2.15501 10.3679 2.14331 10.306 2.15401 10.246C2.569 7.93574 3.78211 5.84456 5.58163 4.33747C7.38114 2.83039 9.65276 2.0031 12 2.00001V2.00001ZM12 22C10.4272 21.9994 8.87675 21.6278 7.47455 20.9154C6.07235 20.203 4.85795 19.1699 3.93001 17.9C3.90215 17.8629 3.88519 17.8187 3.88102 17.7725C3.87685 17.7262 3.88564 17.6797 3.9064 17.6382C3.92716 17.5967 3.95908 17.5618 3.99857 17.5373C4.03807 17.5129 4.08358 17.5 4.13001 17.5H5.76401C5.82545 17.4999 5.88477 17.5225 5.93055 17.5635C5.97633 17.6045 6.00534 17.6609 6.01201 17.722C6.06662 18.211 6.2996 18.6627 6.66636 18.9908C7.03313 19.3188 7.50795 19.5001 8.00001 19.5H16C16.4921 19.5001 16.9669 19.3188 17.3336 18.9908C17.7004 18.6627 17.9334 18.211 17.988 17.722C17.9949 17.661 18.024 17.6047 18.0697 17.5637C18.1154 17.5228 18.1746 17.5001 18.236 17.5H19.868C19.9144 17.5 19.9599 17.5129 19.9994 17.5373C20.0389 17.5618 20.0708 17.5967 20.0916 17.6382C20.1124 17.6797 20.1212 17.7262 20.117 17.7725C20.1128 17.8187 20.0959 17.8629 20.068 17.9C19.1403 19.1696 17.9262 20.2025 16.5244 20.9149C15.1225 21.6273 13.5725 21.9991 12 22V22Z" fill="black"/>
</g>
<defs>
<clipPath id="clip0">
<path d="M0 0H24V24H0V0Z" fill="white"/>
</clipPath>
</defs>
</svg>
