<svg width="145" height="145" viewBox="0 0 145 145" fill="none" xmlns="http://www.w3.org/2000/svg">
<path d="M50.4006 52.619C50.4006 52.619 29.0426 69.2378 30.5304 97.3486C32.0182 125.459 56.8806 132.962 56.8806 132.962" stroke="black" stroke-width="2.5" stroke-linecap="round" stroke-linejoin="round"/>
<path d="M95.7107 52.619C95.7107 52.619 117.069 69.2378 115.581 97.3486C114.105 125.459 89.2308 132.962 89.2308 132.962" stroke="black" stroke-width="2.5" stroke-linecap="round" stroke-linejoin="round"/>
<path d="M73.4545 132.372C73.4545 132.372 91.9475 117.452 93.4353 92.3803C94.9108 67.2937 73.4545 52.043 73.4545 52.043C73.4545 52.043 51.9981 67.2793 53.4859 92.3659C54.9737 117.452 73.4545 132.372 73.4545 132.372Z" stroke="black" stroke-width="2.5" stroke-linecap="round" stroke-linejoin="round"/>
<path d="M91.6529 34.1713H91.7144C87.1526 28.6269 83.5991 21.0375 81.1768 11C79.6029 14.4851 76.3937 18.7766 73.0246 22.1752C69.6555 18.7766 66.3848 14.4851 64.8109 11C62.3886 21.0231 58.8351 28.6125 54.2733 34.1713H54.3348C36.3951 46.441 12 68.0569 12 94.7709C12 125.863 37.9567 131.911 56.8801 132.934C61.4418 133.178 66.0774 130.5 69.6801 128.714C64.1838 122.867 54.5438 110.18 53.4864 92.3515C52.0109 67.2649 73.4672 52.0142 73.4672 52.0142C73.4672 52.0142 94.9236 67.2649 93.4481 92.3515C92.4029 110.022 82.9351 122.622 77.4142 128.556C80.2054 130.327 83.6605 133.178 88.0502 132.991C107.047 132.142 134 126.468 134 94.7709C133.988 68.0569 109.593 46.441 91.6529 34.1713Z" stroke="black" stroke-width="2.5" stroke-miterlimit="10" stroke-linecap="round" stroke-linejoin="round"/>
</svg>
