<svg width="145" height="145" viewBox="0 0 145 145" fill="none" xmlns="http://www.w3.org/2000/svg">
<path d="M123.854 27.1875V123.854C123.838 128.656 121.924 133.257 118.528 136.653C115.132 140.049 110.531 141.963 105.729 141.979H39.2708C34.4682 141.965 29.8664 140.051 26.4704 136.655C23.0744 133.259 21.1602 128.657 21.1458 123.854V27.1875" fill="#EC96AA"/>
<path d="M123.854 27.1875V123.854C123.838 128.656 121.924 133.257 118.528 136.653C115.132 140.049 110.531 141.963 105.729 141.979H39.2708C34.4682 141.965 29.8664 140.051 26.4704 136.655C23.0744 133.259 21.1602 128.657 21.1458 123.854V27.1875" stroke="black" stroke-width="2.5" stroke-linecap="round" stroke-linejoin="round"/>
<path d="M129.896 24.1666C129.896 24.9678 129.578 25.7362 129.011 26.3027C128.445 26.8692 127.676 27.1875 126.875 27.1875H18.125C17.3238 27.1875 16.5555 26.8692 15.9889 26.3027C15.4224 25.7362 15.1042 24.9678 15.1042 24.1666V12.0833C15.1042 9.67979 16.059 7.37471 17.7585 5.67516C19.458 3.97561 21.7631 3.02081 24.1667 3.02081H120.833C123.237 3.02081 125.542 3.97561 127.241 5.67516C128.941 7.37471 129.896 9.67979 129.896 12.0833V24.1666Z" stroke="black" stroke-width="2.5" stroke-linecap="round" stroke-linejoin="round"/>
<path d="M108.75 45.3125H36.25C34.5816 45.3125 33.2292 46.665 33.2292 48.3333V120.833C33.2292 122.502 34.5816 123.854 36.25 123.854H108.75C110.418 123.854 111.771 122.502 111.771 120.833V48.3333C111.771 46.665 110.418 45.3125 108.75 45.3125Z" fill="white" stroke="black" stroke-width="2.5" stroke-linecap="round" stroke-linejoin="round"/>
<path d="M99.6875 78.5416C99.6875 77.7405 99.3692 76.9721 98.8027 76.4056C98.2362 75.8391 97.4678 75.5208 96.6667 75.5208H81.5625V60.4166C81.5625 59.6155 81.2442 58.8471 80.6777 58.2806C80.1112 57.7141 79.3428 57.3958 78.5417 57.3958H66.4583C65.6572 57.3958 64.8888 57.7141 64.3223 58.2806C63.7558 58.8471 63.4375 59.6155 63.4375 60.4166V75.5208H48.3333C47.5322 75.5208 46.7638 75.8391 46.1973 76.4056C45.6308 76.9721 45.3125 77.7405 45.3125 78.5416V90.625C45.3125 91.4262 45.6308 92.1945 46.1973 92.761C46.7638 93.3275 47.5322 93.6458 48.3333 93.6458H63.4375V108.75C63.4375 109.551 63.7558 110.32 64.3223 110.886C64.8888 111.453 65.6572 111.771 66.4583 111.771H78.5417C79.3428 111.771 80.1112 111.453 80.6777 110.886C81.2442 110.32 81.5625 109.551 81.5625 108.75V93.6458H96.6667C97.4678 93.6458 98.2362 93.3275 98.8027 92.761C99.3692 92.1945 99.6875 91.4262 99.6875 90.625V78.5416Z" fill="#D42E56" stroke="black" stroke-width="2.5" stroke-linecap="round" stroke-linejoin="round"/>
<path d="M36.25 27.1875V3.02081" stroke="black" stroke-width="2.5" stroke-linecap="round" stroke-linejoin="round"/>
<path d="M54.375 27.1875V3.02081" stroke="black" stroke-width="2.5" stroke-linecap="round" stroke-linejoin="round"/>
<path d="M72.5 27.1875V3.02081" stroke="black" stroke-width="2.5" stroke-linecap="round" stroke-linejoin="round"/>
<path d="M90.625 27.1875V3.02081" stroke="black" stroke-width="2.5" stroke-linecap="round" stroke-linejoin="round"/>
<path d="M108.75 27.1875V3.02081" stroke="black" stroke-width="2.5" stroke-linecap="round" stroke-linejoin="round"/>
</svg>
