<svg width="189" height="194" viewBox="0 0 189 194" fill="none" xmlns="http://www.w3.org/2000/svg">
<g clip-path="url(#clip0)">
<path d="M18.958 170.785C22.1388 178.349 18.5206 193.807 18.5206 193.807C18.5206 193.807 4.93159 185.555 1.75082 177.991C-1.42996 170.427 -0.156521 162.682 4.59512 160.692C9.34677 158.703 15.7773 163.221 18.958 170.785Z" fill="#E6E6E6"/>
<path d="M101.854 70.6472C104.264 70.6472 106.218 68.6975 106.218 66.2924C106.218 63.8874 104.264 61.9377 101.854 61.9377C99.4436 61.9377 97.4897 63.8874 97.4897 66.2924C97.4897 68.6975 99.4436 70.6472 101.854 70.6472Z" fill="#00BEA3"/>
<path d="M101.854 41.8006C104.264 41.8006 106.218 39.8509 106.218 37.4459C106.218 35.0408 104.264 33.0911 101.854 33.0911C99.4436 33.0911 97.4897 35.0408 97.4897 37.4459C97.4897 39.8509 99.4436 41.8006 101.854 41.8006Z" fill="#00BEA3"/>
<path d="M101.854 12.9541C104.264 12.9541 106.218 11.0044 106.218 8.59932C106.218 6.19426 104.264 4.24457 101.854 4.24457C99.4436 4.24457 97.4897 6.19426 97.4897 8.59932C97.4897 11.0044 99.4436 12.9541 101.854 12.9541Z" fill="#00BEA3"/>
<path d="M117.747 0C117.399 0.000408785 117.065 0.138684 116.818 0.384495C116.572 0.630306 116.434 0.96358 116.433 1.31121V15.8874C116.434 16.235 116.572 16.5683 116.818 16.8141C117.065 17.0599 117.399 17.1982 117.747 17.1986H187.686C188.035 17.1982 188.369 17.0599 188.615 16.8141C188.861 16.5683 189 16.235 189 15.8874V1.31121C189 0.96358 188.861 0.630306 188.615 0.384495C188.369 0.138684 188.035 0.000408785 187.686 0H117.747Z" fill="#E6E6E6"/>
<path d="M118.22 1.02246C118.018 1.02267 117.824 1.10282 117.681 1.24534C117.538 1.38786 117.458 1.58111 117.458 1.78268V15.4159C117.458 15.6175 117.538 15.8107 117.681 15.9533C117.824 16.0958 118.018 16.1759 118.22 16.1761H187.214C187.416 16.1759 187.609 16.0957 187.752 15.9532C187.895 15.8107 187.975 15.6175 187.975 15.4159V1.78268C187.975 1.58114 187.895 1.3879 187.752 1.24537C187.609 1.10285 187.416 1.02268 187.214 1.02246H118.22Z" fill="white"/>
<path d="M182.882 12.4377C183.044 12.4379 183.206 12.4062 183.356 12.3442C183.506 12.2822 183.643 12.1913 183.758 12.0765C183.873 11.9618 183.965 11.8256 184.027 11.6756C184.089 11.5256 184.121 11.3648 184.121 11.2025C184.121 11.0401 184.089 10.8793 184.027 10.7293C183.965 10.5794 183.873 10.4431 183.758 10.3284C183.643 10.2137 183.506 10.1227 183.356 10.0607C183.206 9.99877 183.044 9.96699 182.882 9.96723H124.525C124.197 9.9677 123.883 10.0981 123.651 10.3297C123.419 10.5613 123.289 10.8752 123.289 11.2025C123.289 11.5298 123.419 11.8437 123.651 12.0753C123.883 12.3069 124.197 12.4372 124.525 12.4377H182.882Z" fill="#E6E6E6"/>
<path d="M149.636 7.07119C149.964 7.07119 150.279 6.94105 150.511 6.7094C150.743 6.47774 150.874 6.16355 150.874 5.83595C150.874 5.50834 150.743 5.19416 150.511 4.9625C150.279 4.73085 149.964 4.60071 149.636 4.60071H124.525C124.197 4.60071 123.882 4.73085 123.65 4.9625C123.417 5.19416 123.287 5.50834 123.287 5.83595C123.287 6.16355 123.417 6.47774 123.65 6.7094C123.882 6.94105 124.197 7.07119 124.525 7.07119H149.636Z" fill="#00BEA3"/>
<path d="M117.747 28.8466C117.399 28.847 117.065 28.9852 116.818 29.2311C116.572 29.4769 116.434 29.8101 116.433 30.1578V44.7339C116.434 45.0816 116.572 45.4149 116.818 45.6607C117.065 45.9065 117.399 46.0447 117.747 46.0452H187.686C188.035 46.0447 188.369 45.9065 188.615 45.6607C188.861 45.4149 189 45.0816 189 44.7339V30.1578C189 29.8101 188.861 29.4769 188.615 29.2311C188.369 28.9852 188.035 28.847 187.686 28.8466H117.747Z" fill="#E6E6E6"/>
<path d="M118.22 29.869C118.018 29.8692 117.824 29.9494 117.681 30.0919C117.538 30.2344 117.458 30.4277 117.458 30.6292V44.2625C117.458 44.464 117.538 44.6573 117.681 44.7998C117.824 44.9423 118.018 45.0225 118.22 45.0227H187.214C187.416 45.0225 187.609 44.9423 187.752 44.7998C187.895 44.6573 187.975 44.464 187.975 44.2625V30.6292C187.975 30.4277 187.895 30.2345 187.752 30.0919C187.609 29.9494 187.416 29.8692 187.214 29.869H118.22Z" fill="white"/>
<path d="M182.882 41.2843C183.044 41.2845 183.206 41.2527 183.356 41.1908C183.506 41.1288 183.643 41.0378 183.758 40.9231C183.873 40.8084 183.965 40.6721 184.027 40.5221C184.089 40.3722 184.121 40.2114 184.121 40.049C184.121 39.8867 184.089 39.7259 184.027 39.5759C183.965 39.4259 183.873 39.2897 183.758 39.1749C183.643 39.0602 183.506 38.9693 183.356 38.9073C183.206 38.8453 183.044 38.8135 182.882 38.8138H124.525C124.197 38.8143 123.883 38.9446 123.651 39.1762C123.419 39.4078 123.289 39.7217 123.289 40.049C123.289 40.3763 123.419 40.6902 123.651 40.9218C123.883 41.1534 124.197 41.2838 124.525 41.2843H182.882Z" fill="#E6E6E6"/>
<path d="M149.636 35.9178C149.964 35.9178 150.279 35.7877 150.511 35.556C150.743 35.3244 150.874 35.0102 150.874 34.6826C150.874 34.355 150.743 34.0408 150.511 33.8091C150.279 33.5775 149.964 33.4473 149.636 33.4473H124.525C124.362 33.4473 124.201 33.4793 124.051 33.5414C123.901 33.6034 123.765 33.6944 123.65 33.8091C123.535 33.9238 123.443 34.06 123.381 34.2099C123.319 34.3597 123.287 34.5204 123.287 34.6826C123.287 34.8448 123.319 35.0054 123.381 35.1553C123.443 35.3051 123.535 35.4413 123.65 35.556C123.765 35.6707 123.901 35.7617 124.051 35.8238C124.201 35.8859 124.362 35.9178 124.525 35.9178H149.636Z" fill="#00BEA3"/>
<path d="M117.747 57.6932C117.399 57.6936 117.065 57.8319 116.818 58.0777C116.572 58.3235 116.434 58.6568 116.433 59.0044V73.5806C116.434 73.9282 116.572 74.2615 116.818 74.5073C117.065 74.7531 117.399 74.8914 117.747 74.8918H187.686C188.035 74.8914 188.369 74.7531 188.615 74.5073C188.861 74.2615 189 73.9282 189 73.5806V59.0044C189 58.6568 188.861 58.3235 188.615 58.0777C188.369 57.8319 188.035 57.6936 187.686 57.6932H117.747Z" fill="#E6E6E6"/>
<path d="M118.22 58.7156C118.018 58.7158 117.824 58.796 117.681 58.9385C117.538 59.081 117.458 59.2743 117.458 59.4759V73.1091C117.458 73.3107 117.538 73.5039 117.681 73.6464C117.824 73.7889 118.018 73.8691 118.22 73.8693H187.214C187.416 73.8691 187.609 73.7889 187.752 73.6464C187.895 73.5039 187.975 73.3106 187.975 73.1091V59.4759C187.975 59.2743 187.895 59.0811 187.752 58.9385C187.609 58.796 187.416 58.7159 187.214 58.7156H118.22Z" fill="white"/>
<path d="M182.882 70.1308C183.044 70.1311 183.206 70.0993 183.356 70.0373C183.506 69.9753 183.643 69.8844 183.758 69.7697C183.873 69.6549 183.965 69.5187 184.027 69.3687C184.089 69.2187 184.121 69.0579 184.121 68.8956C184.121 68.7332 184.089 68.5724 184.027 68.4225C183.965 68.2725 183.873 68.1362 183.758 68.0215C183.643 67.9068 183.506 67.8158 183.356 67.7538C183.206 67.6919 183.044 67.6601 182.882 67.6603H124.525C124.197 67.6608 123.883 67.7912 123.651 68.0228C123.419 68.2544 123.289 68.5683 123.289 68.8956C123.289 69.2229 123.419 69.5368 123.651 69.7684C123.883 70 124.197 70.1304 124.525 70.1308H182.882Z" fill="#E6E6E6"/>
<path d="M149.636 64.7644C149.964 64.7644 150.279 64.6342 150.511 64.4026C150.743 64.1709 150.874 63.8567 150.874 63.5291C150.874 63.2015 150.743 62.8873 150.511 62.6557C150.279 62.424 149.964 62.2939 149.636 62.2939H124.525C124.197 62.2939 123.882 62.424 123.65 62.6557C123.417 62.8873 123.287 63.2015 123.287 63.5291C123.287 63.8567 123.417 64.1709 123.65 64.4026C123.882 64.6342 124.197 64.7644 124.525 64.7644H149.636Z" fill="#00BEA3"/>
<path d="M40.0325 121.294C39.519 121.214 39.0286 121.026 38.594 120.741C38.1594 120.457 37.7906 120.083 37.5124 119.645C37.2342 119.207 37.0529 118.715 36.9807 118.201C36.9085 117.688 36.947 117.164 37.0936 116.667L39.8608 107.279L44.0656 108.065L44.2464 117.626C44.2564 118.158 44.1497 118.685 43.9337 119.171C43.7178 119.658 43.3977 120.091 42.9962 120.44C42.5946 120.79 42.1212 121.047 41.6092 121.195C41.0972 121.342 40.559 121.376 40.0325 121.294Z" fill="#9F616A"/>
<path d="M64.3014 181.231L59.0454 180.444L60.3594 129.307L53.001 151.335L49.059 182.28L44.0658 180.968L43.0146 148.713L48.7962 110.688L77.7042 117.244L64.3014 181.231Z" fill="#2F2E41"/>
<path d="M61.8883 193.818C61.3491 193.818 60.8158 193.706 60.3229 193.488C59.8299 193.27 59.3882 192.951 59.0261 192.552C58.6639 192.154 58.3895 191.684 58.2203 191.173C58.0511 190.662 57.9909 190.122 58.0437 189.586L58.8599 181.306C58.8796 181.108 58.9477 180.918 59.0582 180.753C59.1686 180.587 59.3182 180.451 59.4936 180.357C61.043 179.523 62.6362 179.725 64.2669 180.813C64.4116 180.911 64.5335 181.038 64.6243 181.186C64.715 181.335 64.7726 181.502 64.7929 181.674L65.7244 189.509C65.7887 190.05 65.7375 190.598 65.5741 191.118C65.4106 191.637 65.1387 192.117 64.7763 192.524C64.4139 192.931 63.9691 193.257 63.4713 193.48C62.9735 193.703 62.434 193.818 61.8883 193.818Z" fill="#2F2E41"/>
<path d="M40.434 193.202C39.9387 193.021 39.4912 192.729 39.1253 192.35C38.7594 191.971 38.4847 191.514 38.3219 191.013C38.1592 190.512 38.1127 189.981 38.186 189.46C38.2592 188.938 38.4503 188.441 38.7448 188.004L44.3514 179.687C46.3725 178.24 47.5914 178.945 48.0653 181.649L49.1988 178.815L50.0529 179.745C50.4862 180.217 50.7384 180.826 50.7647 181.466C50.791 182.105 50.5898 182.733 50.1967 183.239L44.3812 192.07C43.9287 192.652 43.3023 193.076 42.5928 193.279C41.8832 193.483 41.1272 193.456 40.434 193.202Z" fill="#2F2E41"/>
<path d="M75.8646 61.3863C80.2188 61.3863 83.7486 57.864 83.7486 53.519C83.7486 49.1741 80.2188 45.6518 75.8646 45.6518C71.5104 45.6518 67.9806 49.1741 67.9806 53.519C67.9806 57.864 71.5104 61.3863 75.8646 61.3863Z" fill="#9F616A"/>
<path d="M80.8578 67.9424L67.455 65.32C69.1814 61.6456 70.5639 60.4025 69.0318 56.4037H79.8066C78.8564 60.5456 79.7747 64.4332 80.8578 67.9424Z" fill="#9F616A"/>
<path d="M79.281 120.915L47.745 111.999C54.0617 98.1259 55.3848 82.8945 53.5119 66.7937C53.4663 66.4048 53.4998 66.0107 53.6103 65.6349C53.7208 65.2592 53.9061 64.9095 54.155 64.6069C54.404 64.3042 54.7116 64.0547 55.0593 63.8733C55.4071 63.692 55.788 63.5824 56.1791 63.5512C60.2927 63.2131 64.5814 62.7792 69.0318 62.173L74.025 65.5822L79.8066 64.271C81.6618 65.1682 83.5305 65.9145 85.2169 66.6585C86.7543 67.3385 87.9828 68.5655 88.6627 70.1003C89.3426 71.6351 89.4252 73.3675 88.8944 74.9598C83.7559 90.4448 80.3163 105.784 79.281 120.915Z" fill="#E6E6E6"/>
<path d="M44.8542 109.114L38.8098 108.328L53.1289 67.1566C53.8573 65.0624 55.6636 63.9289 57.8628 63.6154L59.9652 63.8776L58.3884 88.2661L44.8542 109.114Z" fill="#E6E6E6"/>
<path d="M92.2019 101.244C91.1954 101.321 90.1902 101.079 89.3297 100.552C88.4692 100.026 87.7974 99.2413 87.4102 98.311L81.6459 84.4636L86.3763 67.4178L87.6268 68.2119C87.7473 68.2884 87.8662 68.3668 87.9835 68.4471C91.5851 70.9118 93.3374 75.3091 92.6033 79.6049L91.3695 86.8237L96.4586 97.7269C96.1999 98.68 95.6518 99.5298 94.8896 100.159C94.1274 100.789 93.1885 101.168 92.2019 101.244Z" fill="#E6E6E6"/>
<path d="M76.4709 41.859C77.818 41.9208 79.1302 42.3063 80.2959 42.9828C80.564 43.1385 80.44 43.6999 80.6878 43.883C80.9998 44.1136 81.6773 43.9736 81.9536 44.2437C82.8455 45.1125 83.5322 46.1687 83.9638 47.3356C84.3954 48.5024 84.561 49.7505 84.4487 50.9892L84.0087 55.3541L82.9709 54.2215C81.1102 52.1626 78.5269 50.8971 75.7565 50.6872C75.6388 50.6792 75.5209 50.6729 75.4027 50.6684L76.2012 49.2741L74.8135 50.6588C74.1805 50.6657 73.5488 50.717 72.923 50.8123L73.9848 48.9581L71.9475 50.9911L71.9474 50.9912C71.1142 51.174 70.3357 51.5496 69.6746 52.0877C69.0135 52.6257 68.4883 53.3112 68.1413 54.0889L67.9151 54.5893L67.6617 50.4252C67.6366 49.2743 67.849 48.1306 68.2858 47.0651C68.7226 45.9996 69.3744 45.0351 70.2006 44.2317C71.0268 43.4282 72.0098 42.803 73.0885 42.3948C74.1672 41.9867 75.3185 41.8043 76.4709 41.859Z" fill="#2F2E41"/>
<path d="M83.8 56.5409C84.1497 56.5409 84.4332 55.869 84.4332 55.0401C84.4332 54.2113 84.1497 53.5394 83.8 53.5394C83.4503 53.5394 83.1667 54.2113 83.1667 55.0401C83.1667 55.869 83.4503 56.5409 83.8 56.5409Z" fill="#9F616A"/>
<path d="M67.9691 56.0669C68.3188 56.0669 68.6023 55.395 68.6023 54.5662C68.6023 53.7373 68.3188 53.0654 67.9691 53.0654C67.6194 53.0654 67.3359 53.7373 67.3359 54.5662C67.3359 55.395 67.6194 56.0669 67.9691 56.0669Z" fill="#9F616A"/>
<path d="M98.7783 74.6158C99.2831 74.7391 99.7558 74.9685 100.165 75.2887C100.573 75.6089 100.909 76.0125 101.149 76.4726C101.389 76.9326 101.528 77.4385 101.556 77.9563C101.584 78.4742 101.501 78.9921 101.313 79.4755L97.7572 88.5955L93.6345 87.4555L94.2677 77.9138C94.3029 77.3832 94.4541 76.8667 94.7106 76.4006C94.9672 75.9345 95.3229 75.5301 95.7527 75.2158C96.1826 74.9015 96.6762 74.685 97.1989 74.5813C97.7216 74.4776 98.2607 74.4894 98.7783 74.6158Z" fill="#9F616A"/>
<path d="M93.9979 100.723L87.4279 96.5267L92.9467 85.2503L99.7795 87.8727L96.3631 97.8379L93.9979 100.723Z" fill="#E6E6E6"/>
<path d="M91.7244 194H11.9016V193.448H91.8245L91.7244 194Z" fill="#3F3D56"/>
</g>
<defs>
<clipPath id="clip0">
<path d="M0 0H189V194H0V0Z" fill="white"/>
</clipPath>
</defs>
</svg>
