<svg width="117" height="68" viewBox="0 0 117 68" fill="none" xmlns="http://www.w3.org/2000/svg">
<g opacity="0.5">
<path opacity="0.5" d="M94.7066 3.27319L59.9306 25.9116C59.5903 24.5112 58.7972 23.2622 57.6742 22.358C58.0817 21.267 58.1478 20.0781 57.8637 18.9487C57.8116 18.6236 57.6849 18.3149 57.4937 18.0468C57.314 17.8784 57.0962 17.7559 56.8589 17.69C56.6215 17.624 56.3717 17.6165 56.1308 17.668L50.6071 18.0288C49.9639 17.9978 49.3288 18.1819 48.802 18.5519C48.0258 19.2013 47.7911 20.5632 46.9968 21.1404C46.4643 21.5192 45.7874 21.4831 45.1917 21.7808C43.9191 22.4572 43.6393 24.4866 43.54 26.1371C43.4046 28.3919 43.4136 31.0436 44.8848 32.4506C45.9589 33.4518 47.4481 33.3525 48.802 33.2804L50.1648 33.1721C50.5093 33.3764 50.8719 33.5485 51.2479 33.6862V35.6074H50.9952C50.9952 35.6074 35.4078 31.0977 18.2861 78.2145H17.9883C17.9883 78.2145 15.4611 86.7828 19.5046 85.2766C23.0246 83.9598 23.1148 79.5674 23.0517 78.467H23.2863C23.2863 78.467 30.3534 57.7948 41.455 55.2694C41.455 55.2694 49.533 65.353 36.4097 85.5201H46.6809C46.6484 87.7764 47.1041 90.0131 48.0167 92.0771C51.0403 98.1291 41.9605 155.609 41.9605 155.609H49.533L53.3419 136.56L53.8202 155.609H59.371L64.9218 118.982L64.1637 74.8593V63.4319L65.1746 64.7758V47.125H79.8052L82.3324 27.4629H82.0707C82.1325 26.0896 82.0751 24.7135 81.8992 23.3501L100.763 19.3907C103.732 6.79071 94.7066 3.27319 94.7066 3.27319ZM78.1896 27.7696L73.767 39.0708C73.767 39.0708 61.6545 33.5239 57.1146 35.5442H56.8619V33.1451C57.7904 32.6089 58.5731 31.8532 59.1412 30.9443C59.7093 30.0353 60.0454 29.001 60.1202 27.9319L78.3069 24.1168C78.0715 25.317 78.0288 26.547 78.1806 27.7606L78.1896 27.7696Z" fill="url(#paint0_linear)"/>
</g>
<path d="M80.9425 30.6649C80.9425 30.6649 81.5201 22.3311 78.9207 24.162C76.3213 25.9929 77.4405 31.179 77.4405 31.179L80.9425 30.6649Z" fill="#FDA57D"/>
<path d="M56.9702 34.48H51.6812V39.2873H56.9702V34.48Z" fill="#FDA57D"/>
<path d="M51.6722 60.9065H47.3489V82.5257H51.6722V60.9065Z" fill="#4D8AF0"/>
<path opacity="0.1" d="M51.6722 60.9065H47.3489V82.5257H51.6722V60.9065Z" fill="black"/>
<path d="M53.7389 37.6099H58.7391C60.1155 37.6099 61.4356 38.1563 62.4088 39.1288C63.3821 40.1014 63.9289 41.4205 63.9289 42.796V75.076H48.5852V42.796C48.5852 41.4267 49.127 40.1131 50.0925 39.1415C51.0579 38.17 52.3687 37.6194 53.7389 37.6099Z" fill="white"/>
<path d="M53.8383 36.1577C57.2878 36.1577 60.0841 33.3634 60.0841 29.9164C60.0841 26.4694 57.2878 23.675 53.8383 23.675C50.3889 23.675 47.5925 26.4694 47.5925 29.9164C47.5925 33.3634 50.3889 36.1577 53.8383 36.1577Z" fill="#FDA57D"/>
<path d="M51.4374 37.6098C51.4374 37.6098 36.536 33.2895 20.1904 78.4401H25.0011C25.0011 78.4401 31.7343 58.742 42.3034 56.3428C42.3034 56.3428 49.9933 65.9484 37.4927 85.2046H47.5924V78.7648C47.5336 69.0044 48.7472 59.278 51.2027 49.8309C52.3607 45.8495 52.4417 41.6326 51.4374 37.6098Z" fill="#FFCC00"/>
<path d="M57.2048 37.6097V39.0528C57.2048 39.0528 60.5714 53.9437 63.4506 63.5492L64.9218 65.5064V48.6584H78.8665L81.2673 29.9253H77.4224L73.0449 40.9649C73.0449 40.9649 61.5281 35.6796 57.2048 37.6097Z" fill="#FFCC00"/>
<path d="M52.8184 27.5351C52.9465 27.3267 53.1046 27.1383 53.2877 26.9759C53.4684 26.87 53.674 26.814 53.8834 26.8136C55.1921 26.7053 56.6994 26.6783 57.4937 25.4426C58.0774 24.3334 58.2192 23.0444 57.8908 21.8349C57.848 21.5103 57.7272 21.2009 57.5388 20.933C57.3675 20.7724 57.1598 20.6556 56.9334 20.5928C56.707 20.5299 56.4688 20.5229 56.2391 20.5722L50.9771 20.915C50.3755 20.892 49.7828 21.0662 49.2893 21.411C48.5492 22.0333 48.3326 23.3231 47.5564 23.8823C47.0419 24.2431 46.4011 24.207 45.8596 24.4956C44.6501 25.136 44.3884 27.0481 44.2891 28.6445C44.1627 30.7911 44.1627 33.3165 45.5707 34.6243C46.5906 35.5803 48.0077 35.5262 49.2984 35.418L51.6992 35.2195C51.9414 35.2261 52.1792 35.1532 52.3761 35.0121C52.528 34.8093 52.6354 34.5767 52.6914 34.3297C52.7474 34.0826 52.7507 33.8265 52.701 33.578C52.6379 32.3695 52.5115 30.9985 51.7172 30.2589C51.5278 30.1167 51.3552 29.9533 51.2028 29.7719C50.3453 28.437 52.3671 28.1304 52.8184 27.5351Z" fill="#333333"/>
<path d="M93.0188 6.8811C93.0188 6.8811 101.674 10.2453 98.7862 22.2139L59.8494 30.3764V28.4553L93.0188 6.8811Z" fill="#008DC9"/>
<defs>
<linearGradient id="paint0_linear" x1="59.2898" y1="155.537" x2="59.2898" y2="3.25516" gradientUnits="userSpaceOnUse">
<stop stop-color="#808080" stop-opacity="0.25"/>
<stop offset="0.54" stop-color="#808080" stop-opacity="0.12"/>
<stop offset="1" stop-color="#808080" stop-opacity="0.1"/>
</linearGradient>
</defs>
</svg>
