<svg width="125" height="160" viewBox="0 0 125 160" fill="none" xmlns="http://www.w3.org/2000/svg">
<path d="M123.773 85.1509C110.919 75.6042 90.7875 66.5755 68.5395 60.3803C48.2826 54.7393 28.5247 52.0158 12.9012 52.7113L12.8198 50.9062C28.6295 50.2028 48.5924 52.9491 69.0304 58.6404C91.4859 64.8935 111.836 74.0287 124.862 83.7038L123.773 85.1509Z" fill="#F2F2F2"/>
<path d="M122.438 92.5045C122.45 100.963 120.665 109.328 117.201 117.055C116.911 117.701 116.61 118.342 116.297 118.977C111.304 129.139 103.538 137.702 93.8835 143.692C84.2296 149.682 73.0761 152.856 61.6943 152.854C28.1467 152.854 0.950073 125.834 0.950073 92.5045C0.950073 91.1077 0.997962 89.7219 1.09374 88.3468C1.13921 87.6476 1.19802 86.9525 1.27017 86.2617C4.41468 55.8645 30.2692 32.1546 61.6943 32.1546C95.2418 32.1546 122.438 59.1747 122.438 92.5045Z" fill="#00BEA3"/>
<path d="M63.3013 21.2704C63.6858 21.2704 63.9974 20.9608 63.9974 20.5789C63.9974 20.1969 63.6858 19.8873 63.3013 19.8873C62.9169 19.8873 62.6052 20.1969 62.6052 20.5789C62.6052 20.9608 62.9169 21.2704 63.3013 21.2704Z" fill="#F2F2F2"/>
<path d="M12.9521 35.5625C13.2084 35.5625 13.4161 35.356 13.4161 35.1014C13.4161 34.8468 13.2084 34.6404 12.9521 34.6404C12.6958 34.6404 12.488 34.8468 12.488 35.1014C12.488 35.356 12.6958 35.5625 12.9521 35.5625Z" fill="#F2F2F2"/>
<path d="M1.58331 149.212C1.8396 149.212 2.04736 149.005 2.04736 148.75C2.04736 148.496 1.8396 148.289 1.58331 148.289C1.32702 148.289 1.11926 148.496 1.11926 148.75C1.11926 149.005 1.32702 149.212 1.58331 149.212Z" fill="#F2F2F2"/>
<path d="M41.7228 1.27532H41.0826V0.639221H40.7392V1.27532H40.0986V1.6168H40.7392V2.25291H41.0826V1.6168H41.7228V1.27532Z" fill="#F2F2F2"/>
<path d="M110.866 158.027H110.225V157.391H109.882V158.027H109.242V158.368H109.882V159.004H110.225V158.368H110.866V158.027Z" fill="#F2F2F2"/>
<path d="M62.6049 50.32C65.424 50.32 67.7094 48.0494 67.7094 45.2486C67.7094 42.4478 65.424 40.1772 62.6049 40.1772C59.7857 40.1772 57.5004 42.4478 57.5004 45.2486C57.5004 48.0494 59.7857 50.32 62.6049 50.32Z" fill="#3F3D56"/>
<path d="M23.3933 87.4331C26.2125 87.4331 28.4978 85.1625 28.4978 82.3617C28.4978 79.5609 26.2125 77.2903 23.3933 77.2903C20.5742 77.2903 18.2888 79.5609 18.2888 82.3617C18.2888 85.1625 20.5742 87.4331 23.3933 87.4331Z" fill="#3F3D56"/>
<path d="M79.7749 138.377C82.5941 138.377 84.8795 136.107 84.8795 133.306C84.8795 130.505 82.5941 128.235 79.7749 128.235C76.9558 128.235 74.6704 130.505 74.6704 133.306C74.6704 136.107 76.9558 138.377 79.7749 138.377Z" fill="#3F3D56"/>
<path d="M62.6049 95.2706C65.424 95.2706 67.7094 93.0001 67.7094 90.1992C67.7094 87.3984 65.424 85.1279 62.6049 85.1279C59.7857 85.1279 57.5004 87.3984 57.5004 90.1992C57.5004 93.0001 59.7857 95.2706 62.6049 95.2706Z" fill="#3F3D56"/>
<path d="M25.9457 123.163C28.7648 123.163 31.0502 120.893 31.0502 118.092C31.0502 115.291 28.7648 113.02 25.9457 113.02C23.1266 113.02 20.8412 115.291 20.8412 118.092C20.8412 120.893 23.1266 123.163 25.9457 123.163Z" fill="#3F3D56"/>
<path d="M89.9838 68.0697C92.8029 68.0697 95.0883 65.7991 95.0883 62.9983C95.0883 60.1975 92.8029 57.9269 89.9838 57.9269C87.1646 57.9269 84.8793 60.1975 84.8793 62.9983C84.8793 65.7991 87.1646 68.0697 89.9838 68.0697Z" fill="#3F3D56"/>
<path d="M106.921 102.417C109.741 102.417 112.026 100.146 112.026 97.3453C112.026 94.5445 109.741 92.2739 106.921 92.2739C104.102 92.2739 101.817 94.5445 101.817 97.3453C101.817 100.146 104.102 102.417 106.921 102.417Z" fill="#3F3D56"/>
<path d="M62.6052 74.7546C66.3213 74.7546 69.3338 71.7616 69.3338 68.0696C69.3338 64.3776 66.3213 61.3846 62.6052 61.3846C58.889 61.3846 55.8765 64.3776 55.8765 68.0696C55.8765 71.7616 58.889 74.7546 62.6052 74.7546Z" fill="white"/>
<path d="M62.6051 58.3879C60.0821 58.3879 57.6625 59.3837 55.8784 61.1561C54.0944 62.9286 53.0922 65.3325 53.0922 67.8391C53.0922 73.0589 62.6051 90.1992 62.6051 90.1992C62.6051 90.1992 72.1181 73.0589 72.1181 67.8391C72.1181 65.3325 71.1158 62.9286 69.3318 61.1561C67.5478 59.3837 65.1281 58.3879 62.6051 58.3879ZM62.6051 72.4495C61.7332 72.4495 60.8809 72.1926 60.1559 71.7113C59.4309 71.2301 58.8659 70.546 58.5323 69.7457C58.1986 68.9454 58.1113 68.0648 58.2814 67.2152C58.4515 66.3656 58.8713 65.5852 59.4879 64.9726C60.1044 64.3601 60.8899 63.943 61.7451 63.774C62.6002 63.605 63.4866 63.6917 64.2922 64.0232C65.0977 64.3547 65.7862 64.9161 66.2706 65.6363C66.755 66.3566 67.0136 67.2034 67.0136 68.0696C67.0136 68.6448 66.8995 69.2143 66.678 69.7457C66.4565 70.2771 66.1317 70.7599 65.7224 71.1666C65.313 71.5733 64.827 71.896 64.2922 72.1161C63.7573 72.3362 63.1841 72.4495 62.6051 72.4495V72.4495Z" fill="#E94F37"/>
<path d="M25.9455 103.339C29.6616 103.339 32.6741 100.346 32.6741 96.6538C32.6741 92.9618 29.6616 89.9688 25.9455 89.9688C22.2293 89.9688 19.2168 92.9618 19.2168 96.6538C19.2168 100.346 22.2293 103.339 25.9455 103.339Z" fill="white"/>
<path d="M25.9456 86.972C23.4226 86.972 21.0029 87.9678 19.2189 89.7402C17.4349 91.5127 16.4326 93.9166 16.4326 96.4232C16.4326 101.643 25.9456 118.783 25.9456 118.783C25.9456 118.783 35.4585 101.643 35.4585 96.4232C35.4585 93.9166 34.4563 91.5127 32.6722 89.7402C30.8882 87.9678 28.4686 86.972 25.9456 86.972ZM25.9456 101.034C25.0737 101.034 24.2213 100.777 23.4964 100.295C22.7714 99.8142 22.2064 99.1301 21.8727 98.3298C21.539 97.5295 21.4517 96.6489 21.6218 95.7993C21.7919 94.9497 22.2118 94.1693 22.8283 93.5567C23.4449 92.9442 24.2304 92.5271 25.0855 92.3581C25.9407 92.1891 26.8271 92.2758 27.6326 92.6073C28.4381 92.9388 29.1267 93.5002 29.6111 94.2204C30.0955 94.9407 30.354 95.7875 30.354 96.6537C30.354 97.2289 30.24 97.7985 30.0184 98.3298C29.7969 98.8612 29.4722 99.344 29.0628 99.7507C28.6535 100.157 28.1675 100.48 27.6326 100.7C27.0978 100.92 26.5245 101.034 25.9456 101.034Z" fill="#E94F37"/>
<path d="M106.922 82.5923C110.638 82.5923 113.65 79.5993 113.65 75.9073C113.65 72.2153 110.638 69.2223 106.922 69.2223C103.206 69.2223 100.193 72.2153 100.193 75.9073C100.193 79.5993 103.206 82.5923 106.922 82.5923Z" fill="white"/>
<path d="M106.922 66.2255C104.399 66.2255 101.979 67.2213 100.195 68.9937C98.4111 70.7662 97.4088 73.1701 97.4088 75.6767C97.4088 80.8965 106.922 98.0368 106.922 98.0368C106.922 98.0368 116.435 80.8965 116.435 75.6767C116.435 73.1701 115.432 70.7662 113.648 68.9937C111.864 67.2213 109.445 66.2255 106.922 66.2255ZM106.922 80.287C106.05 80.287 105.198 80.0302 104.473 79.5489C103.748 79.0677 103.183 78.3836 102.849 77.5833C102.515 76.783 102.428 75.9024 102.598 75.0528C102.768 74.2032 103.188 73.4227 103.805 72.8102C104.421 72.1977 105.207 71.7805 106.062 71.6115C106.917 71.4425 107.803 71.5293 108.609 71.8608C109.414 72.1923 110.103 72.7537 110.587 73.4739C111.072 74.1942 111.33 75.041 111.33 75.9072C111.33 77.0688 110.866 78.1828 110.039 79.0042C109.212 79.8256 108.091 80.287 106.922 80.287Z" fill="#E94F37"/>
<path d="M62.6052 29.8039C66.3213 29.8039 69.3338 26.811 69.3338 23.1189C69.3338 19.4269 66.3213 16.434 62.6052 16.434C58.889 16.434 55.8765 19.4269 55.8765 23.1189C55.8765 26.811 58.889 29.8039 62.6052 29.8039Z" fill="white"/>
<path d="M62.6051 13.4373C60.0821 13.4373 57.6625 14.433 55.8784 16.2054C54.0944 17.9779 53.0922 20.3818 53.0922 22.8884C53.0922 28.1082 62.6051 45.2486 62.6051 45.2486C62.6051 45.2486 72.1181 28.1082 72.1181 22.8884C72.1181 20.3818 71.1158 17.9779 69.3318 16.2054C67.5478 14.433 65.1281 13.4373 62.6051 13.4373ZM62.6051 27.4988C61.7332 27.4988 60.8809 27.2419 60.1559 26.7606C59.4309 26.2794 58.8659 25.5953 58.5323 24.795C58.1986 23.9947 58.1113 23.1141 58.2814 22.2645C58.4515 21.4149 58.8713 20.6345 59.4879 20.0219C60.1044 19.4094 60.8899 18.9923 61.7451 18.8233C62.6002 18.6543 63.4866 18.741 64.2922 19.0725C65.0977 19.404 65.7862 19.9654 66.2706 20.6856C66.755 21.4059 67.0136 22.2527 67.0136 23.1189C67.0136 24.2806 66.5491 25.3946 65.7224 26.216C64.8956 27.0373 63.7743 27.4988 62.6051 27.4988Z" fill="#E94F37"/>
<path d="M79.7746 118.553C83.4907 118.553 86.5032 115.56 86.5032 111.868C86.5032 108.176 83.4907 105.183 79.7746 105.183C76.0584 105.183 73.0459 108.176 73.0459 111.868C73.0459 115.56 76.0584 118.553 79.7746 118.553Z" fill="white"/>
<path d="M79.7747 102.186C77.2517 102.186 74.832 103.182 73.048 104.954C71.264 106.727 70.2617 109.131 70.2617 111.637C70.2617 116.857 79.7747 133.997 79.7747 133.997C79.7747 133.997 89.2876 116.857 89.2876 111.637C89.2876 110.396 89.0415 109.167 88.5635 108.021C88.0854 106.874 87.3847 105.832 86.5013 104.954C85.618 104.077 84.5693 103.381 83.4151 102.906C82.2609 102.431 81.0239 102.186 79.7747 102.186ZM79.7747 116.248C78.9027 116.248 78.0504 115.991 77.3255 115.51C76.6005 115.028 76.0354 114.344 75.7018 113.544C75.3681 112.744 75.2808 111.863 75.4509 111.013C75.621 110.164 76.0409 109.383 76.6574 108.771C77.2739 108.158 78.0595 107.741 78.9146 107.572C79.7698 107.403 80.6562 107.49 81.4617 107.821C82.2672 108.153 82.9557 108.714 83.4401 109.435C83.9246 110.155 84.1831 111.002 84.1831 111.868C84.1831 113.029 83.7186 114.143 82.8919 114.965C82.0651 115.786 80.9438 116.248 79.7747 116.248Z" fill="#E94F37"/>
<path d="M23.3936 67.1476C27.1097 67.1476 30.1222 64.1546 30.1222 60.4626C30.1222 56.7706 27.1097 53.7776 23.3936 53.7776C19.6775 53.7776 16.6649 56.7706 16.6649 60.4626C16.6649 64.1546 19.6775 67.1476 23.3936 67.1476Z" fill="white"/>
<path d="M23.3936 50.7809C20.8706 50.7809 18.4509 51.7766 16.6669 53.5491C14.8829 55.3215 13.8806 57.7255 13.8806 60.2321C13.8806 65.4518 23.3936 82.5922 23.3936 82.5922C23.3936 82.5922 32.9065 65.4518 32.9065 60.2321C32.9065 58.9909 32.6605 57.7619 32.1824 56.6153C31.7043 55.4686 31.0036 54.4267 30.1202 53.5491C29.2369 52.6715 28.1882 51.9753 27.034 51.5003C25.8798 51.0253 24.6428 50.7809 23.3936 50.7809ZM23.3936 64.8424C22.5217 64.8424 21.6693 64.5855 20.9444 64.1043C20.2194 63.623 19.6544 62.939 19.3207 62.1387C18.987 61.3384 18.8997 60.4577 19.0698 59.6081C19.2399 58.7585 19.6598 57.9781 20.2763 57.3656C20.8929 56.753 21.6784 56.3359 22.5335 56.1669C23.3887 55.9979 24.2751 56.0846 25.0806 56.4161C25.8861 56.7476 26.5746 57.309 27.0591 58.0293C27.5435 58.7495 27.802 59.5963 27.802 60.4626C27.802 61.6242 27.3376 62.7382 26.5108 63.5596C25.6841 64.381 24.5628 64.8424 23.3936 64.8424Z" fill="#E94F37"/>
<path d="M89.984 48.4757C93.7002 48.4757 96.7127 45.4828 96.7127 41.7908C96.7127 38.0987 93.7002 35.1058 89.984 35.1058C86.2679 35.1058 83.2554 38.0987 83.2554 41.7908C83.2554 45.4828 86.2679 48.4757 89.984 48.4757Z" fill="white"/>
<path d="M89.984 32.1091C87.461 32.1091 85.0414 33.1049 83.2573 34.8773C81.4733 36.6498 80.4711 39.0537 80.4711 41.5603C80.4711 46.7801 89.984 63.9204 89.984 63.9204C89.984 63.9204 99.4969 46.7801 99.4969 41.5603C99.4969 39.0537 98.4947 36.6498 96.7107 34.8773C94.9266 33.1049 92.507 32.1091 89.984 32.1091ZM89.984 46.1707C89.1121 46.1707 88.2598 45.9138 87.5348 45.4325C86.8098 44.9513 86.2448 44.2672 85.9111 43.4669C85.5775 42.6666 85.4902 41.786 85.6603 40.9364C85.8304 40.0868 86.2502 39.3063 86.8668 38.6938C87.4833 38.0813 88.2688 37.6642 89.124 37.4952C89.9791 37.3262 90.8655 37.4129 91.671 37.7444C92.4766 38.0759 93.1651 38.6373 93.6495 39.3575C94.1339 40.0778 94.3924 40.9246 94.3924 41.7908C94.3924 42.9524 93.928 44.0665 93.1012 44.8878C92.2745 45.7092 91.1532 46.1707 89.984 46.1707Z" fill="#E94F37"/>
</svg>
