<svg width="135" height="68" viewBox="0 0 135 68" fill="none" xmlns="http://www.w3.org/2000/svg">
<path d="M139.574 117.063L127.631 130.937L127.41 131.194L57.3982 120.462V40.3262H139.396L139.574 117.063Z" fill="#3F3D56"/>
<path d="M127.474 62.6862L57.2415 58.3931L57.1982 59.1072L89.3072 61.0699L89.8532 125.495L90.5662 125.488L90.0208 61.1136L127.431 63.4004L127.474 62.6862Z" fill="#E6E6E6"/>
<path opacity="0.2" d="M139.574 117.063L127.631 130.937V40.3262H139.396L139.574 117.063Z" fill="black"/>
<path d="M62.2111 41.9363H55.7939V37.6433L72.9065 34.4236L73.976 32.2771L141 34.0658V40.1476L127.631 45.0448L118.896 44.7983C118.896 44.7983 105.705 55.8885 90.019 54.8152C74.3325 53.742 62.2111 41.9363 62.2111 41.9363Z" fill="#E6E6E6"/>
<path d="M120.501 37.8221L116.757 40.5052L106.272 40.2512C106.272 40.2548 106.269 40.2512 106.269 40.2512H106.251L105.452 40.2333H105.449L104.786 40.2154L102.693 40.1653L102.518 40.1617L100.668 40.1188L100.6 40.1152L98.3009 40.0616L98.1511 40.058L96.4506 40.0151L96.1761 40.0115L94.1796 39.9614L93.5379 39.9471L89.9478 39.8613L89.0423 39.8398L79.502 39.6108C79.502 39.6108 72.7034 39.9507 72.3825 37.9688C72.3753 37.9202 72.3717 37.8712 72.3718 37.8221C72.3718 36.6952 73.5555 36.4555 74.6749 36.4841C75.3402 36.5087 76.0016 36.5974 76.65 36.7489L79.388 36.8168L81.0956 36.8562L86.454 36.9886L91.0352 37.0994L92.6573 37.1424L94.9782 37.1996L95.898 37.2211L99.3134 37.3034L100.911 37.3427L104.283 37.425L120.501 37.8221Z" fill="#CCCCCC"/>
<path d="M100.536 39.6109C100.93 39.6109 101.249 39.2906 101.249 38.8954C101.249 38.5003 100.93 38.1799 100.536 38.1799C100.142 38.1799 99.823 38.5003 99.823 38.8954C99.823 39.2906 100.142 39.6109 100.536 39.6109Z" fill="#3F3D56"/>
<path d="M100.893 37.1068C104.634 37.1068 107.666 36.7865 107.666 36.3913C107.666 35.9961 104.634 35.6758 100.893 35.6758C97.1516 35.6758 94.1189 35.9961 94.1189 36.3913C94.1189 36.7865 97.1516 37.1068 100.893 37.1068Z" fill="#CCCCCC"/>
<path d="M96.6532 27.2976L102.564 28.7433L101.889 31.5238L93.4086 29.4498L93.4578 29.2473C93.6239 28.5635 94.0538 27.974 94.6531 27.6083C95.2523 27.2427 95.9718 27.1309 96.6532 27.2976Z" fill="#3F3D56"/>
<path d="M94.4209 29.5415L97.5939 30.02L97.5785 30.123C97.5263 30.471 97.3386 30.784 97.0566 30.993C96.7745 31.2021 96.4212 31.2902 96.0745 31.2379L95.5165 31.1538C95.1697 31.1015 94.8579 30.9131 94.6495 30.6301C94.4411 30.3471 94.3534 29.9926 94.4055 29.6446L94.4209 29.5415L94.4209 29.5415Z" fill="#3F3D56"/>
<path opacity="0.2" d="M101.889 30.8086L97.4557 29.7243C97.323 29.9958 97.1077 30.2179 96.841 30.3586C96.5743 30.4993 96.2699 30.5513 95.9718 30.507L95.6192 30.4539C95.2725 30.4009 94.9574 30.2211 94.7348 29.949C94.5122 29.677 94.3978 29.3319 94.4135 28.9802L93.6585 28.7956C93.5488 29.0026 93.4649 29.2224 93.4087 29.45L94.4135 29.6957C94.3978 30.0474 94.5122 30.3924 94.7348 30.6645C94.9574 30.9365 95.2725 31.1164 95.6192 31.1694L95.9718 31.2225C96.2699 31.2667 96.5743 31.2148 96.841 31.0741C97.1077 30.9334 97.323 30.7113 97.4557 30.4398L101.889 31.5241L102.564 28.7435L102.4 28.7034L101.889 30.8086Z" fill="black"/>
<path d="M101.141 36.7487C100.788 36.7487 100.438 36.6765 100.113 36.5365C99.7885 36.3965 99.4957 36.1916 99.2524 35.9343C99.0092 35.677 98.8207 35.3727 98.6984 35.04C98.5761 34.7072 98.5226 34.353 98.5412 33.9988L98.9317 26.5529L103.745 26.374V34.1361C103.745 34.4792 103.677 34.819 103.546 35.1359C103.416 35.4529 103.224 35.7409 102.982 35.9835C102.74 36.2261 102.453 36.4185 102.137 36.5498C101.822 36.6811 101.483 36.7487 101.141 36.7487Z" fill="#3F3D56"/>
<path d="M103.388 26.553H99.0536C99.8052 25.4087 99.3364 24.2363 98.2843 23.0504C98.2239 22.9817 98.1846 22.897 98.171 22.8064C98.1575 22.7159 98.1703 22.6233 98.2078 22.5398C98.2454 22.4564 98.3062 22.3856 98.3829 22.3359C98.4596 22.2863 98.549 22.2599 98.6402 22.26H100.292C102.002 22.26 103.388 23.8617 103.388 25.8375V26.553Z" fill="#3F3D56"/>
<path opacity="0.2" d="M99.7103 23.0504C99.65 22.9817 99.6106 22.897 99.5971 22.8064C99.5835 22.7159 99.5963 22.6233 99.6339 22.5398C99.6714 22.4564 99.7322 22.3856 99.8089 22.3359C99.8856 22.2863 99.975 22.2599 100.066 22.26H98.6402C98.5489 22.2599 98.4596 22.2863 98.3829 22.3359C98.3062 22.3856 98.2454 22.4564 98.2078 22.5398C98.1702 22.6233 98.1575 22.7159 98.171 22.8064C98.1846 22.897 98.2239 22.9817 98.2843 23.0504C99.3364 24.2362 99.8052 25.4087 99.0536 26.553H100.48C101.231 25.4087 100.762 24.2362 99.7103 23.0504Z" fill="black"/>
<path d="M79.1405 30.77L84.6234 32.7146C84.6234 32.7146 97.6654 33.7587 95.9732 37.0876C94.281 40.4165 83.1187 38.2658 83.1187 38.2658L77.8323 34.5828L79.1405 30.77Z" fill="#FFB8B8"/>
<path d="M87.345 35.6756C86.9801 35.6761 86.6294 35.8173 86.3653 36.0701C86.1013 36.3228 85.9441 36.6677 85.9263 37.0334C85.8466 36.9599 85.7561 36.899 85.6581 36.8527C85.9274 36.6689 86.126 36.3983 86.2213 36.0858C86.3165 35.7733 86.3026 35.4376 86.1819 35.1341C86.0611 34.8305 85.8408 34.5775 85.5573 34.4167C85.2737 34.2559 84.944 34.197 84.6226 34.2498C84.3012 34.3026 84.0074 34.4638 83.7898 34.7069C83.5721 34.9499 83.4436 35.2603 83.4255 35.5866C83.4075 35.9129 83.5009 36.2356 83.6904 36.5013C83.88 36.7671 84.1542 36.96 84.4678 37.0481C84.346 37.1648 84.2534 37.3088 84.1976 37.4682C84.1418 37.6276 84.1244 37.798 84.1467 37.9655C84.169 38.133 84.2305 38.2928 84.3261 38.4319C84.4216 38.571 84.5487 38.6854 84.6967 38.7659C84.8448 38.8464 85.0097 38.8906 85.178 38.8949C85.3464 38.8993 85.5133 38.8636 85.6653 38.7909C85.8173 38.7182 85.95 38.6104 86.0526 38.4764C86.1551 38.3424 86.2247 38.186 86.2556 38.0199C86.4092 38.2043 86.6067 38.3468 86.8299 38.4343C87.053 38.5217 87.2945 38.5512 87.5321 38.5201C87.7696 38.4889 87.9955 38.3981 88.1887 38.2561C88.382 38.114 88.5364 37.9254 88.6376 37.7075C88.7389 37.4896 88.7837 37.2496 88.7679 37.0098C88.7521 36.7699 88.6763 36.5379 88.5474 36.3353C88.4185 36.1327 88.2407 35.966 88.0305 35.8507C87.8203 35.7353 87.5845 35.6751 87.345 35.6756Z" fill="white"/>
<path d="M89.8406 36.3911C89.4757 36.3917 89.1249 36.5329 88.8609 36.7856C88.5968 37.0384 88.4397 37.3833 88.4219 37.749C88.3422 37.6755 88.2517 37.6145 88.1537 37.5683C88.423 37.3845 88.6216 37.1139 88.7169 36.8014C88.8121 36.4889 88.7982 36.1531 88.6775 35.8496C88.5567 35.5461 88.3364 35.2931 88.0529 35.1323C87.7693 34.9715 87.4396 34.9126 87.1182 34.9654C86.7968 35.0181 86.503 35.1794 86.2854 35.4225C86.0677 35.6655 85.9392 35.9759 85.9211 36.3021C85.9031 36.6284 85.9965 36.9511 86.186 37.2169C86.3756 37.4827 86.6498 37.6756 86.9634 37.7637C86.8416 37.8804 86.749 38.0243 86.6932 38.1838C86.6374 38.3432 86.62 38.5136 86.6423 38.6811C86.6646 38.8485 86.7261 39.0084 86.8217 39.1475C86.9173 39.2866 87.0443 39.401 87.1923 39.4815C87.3404 39.562 87.5053 39.6062 87.6736 39.6105C87.842 39.6149 88.0089 39.5792 88.1609 39.5065C88.3129 39.4337 88.4456 39.326 88.5482 39.192C88.6507 39.058 88.7203 38.9015 88.7512 38.7354C88.9048 38.9199 89.1023 39.0624 89.3255 39.1499C89.5486 39.2373 89.7902 39.2668 90.0277 39.2357C90.2652 39.2045 90.4911 39.1137 90.6843 38.9717C90.8776 38.8296 91.032 38.6409 91.1332 38.4231C91.2345 38.2052 91.2793 37.9652 91.2635 37.7254C91.2477 37.4855 91.1719 37.2535 91.043 37.0509C90.9141 36.8483 90.7363 36.6816 90.5261 36.5662C90.3159 36.4509 90.0801 36.3907 89.8406 36.3911Z" fill="white"/>
<path d="M83.1311 30.6135L78.1685 38.8381L67.7334 31.8084L55.7475 23.7376L48.521 4.69824L41.1733 -8.80318L50.382 -11.5256C50.382 -11.5256 53.5514 -11.404 57.6477 -3.8591C61.7404 3.68938 65.3875 16.7543 65.3875 16.7543L70.2824 20.5787L83.1311 30.6135Z" fill="#44BBA4"/>
<path d="M83.1311 30.6135L78.1685 38.8381L67.7334 31.8084L55.7475 23.7376L48.521 4.69824L41.1733 -8.80318L50.382 -11.5256C50.382 -11.5256 53.5514 -11.404 57.6477 -3.8591C61.7404 3.68938 65.3875 16.7543 65.3875 16.7543L70.2824 20.5787L83.1311 30.6135Z" fill="#007EB4"/>
<path d="M106.251 40.2514L93.5377 39.9473L92.5288 38.7989L91.8158 37.9868L91.035 37.0996L90.1687 36.1158L91.6447 33.8191L92.347 32.7244L95.1919 34.599L97.2098 35.9262C97.2098 35.9262 98.8996 36.4914 100.91 37.3429C102.778 38.1371 104.928 39.1817 106.251 40.2514Z" fill="#FFB8B8"/>
<path d="M74.4808 -15.2354L60.3661 -21.2335C60.3661 -21.2335 53.6235 -26.4541 49.6683 -22.5943L47.8926 -20.0466C47.8926 -20.0466 37.0771 -14.2118 37.0771 -9.40061L38.3033 14.9442C38.3033 14.9442 34.8164 28.5032 40.0468 29.378L68.3786 32.0023C68.3786 32.0023 72.3015 27.191 68.8145 21.0676L70.1221 6.63391L74.4808 -15.2354Z" fill="#008DC9"/>
<path d="M64.8916 -14.798L74.4808 -15.2354C74.4808 -15.2354 75.1835 -14.4912 77.3628 -6.18085C79.5422 2.12948 82.3265 15.8191 82.3265 15.8191L96.2579 33.5292L89.4842 40.3264L71.3022 20.2925L68.8145 0.0731735L64.8916 -14.798Z" fill="#008DC9"/>
<path d="M69.6861 31.1274L38.3482 28.3606C38.3482 28.3606 35.2521 48.1855 35.688 56.0584C36.1238 63.9314 36.5597 76.1782 36.5597 76.1782L33.0728 129.539L46.5848 127.79L48.3283 83.6137L53.9946 59.5575L60.5327 90.1745L64.8915 129.539L76.66 128.227L72.7372 80.552C72.7372 80.552 76.2242 37.6882 69.6861 31.1274Z" fill="#2F2E41"/>
<path d="M105.884 40.3264C106.474 40.3264 106.953 39.8459 106.953 39.2532C106.953 38.6604 106.474 38.1799 105.884 38.1799C105.293 38.1799 104.814 38.6604 104.814 39.2532C104.814 39.8459 105.293 40.3264 105.884 40.3264Z" fill="white"/>
<path d="M104.814 38.5377C104.815 38.3241 104.767 38.1131 104.675 37.9205C104.583 37.7279 104.449 37.5586 104.283 37.4251C104.029 37.22 103.714 37.1077 103.388 37.1067C103.37 37.1067 103.356 37.1103 103.338 37.1103C103.266 36.8236 103.107 36.5665 102.883 36.3746C102.659 36.1827 102.381 36.0655 102.088 36.0391C101.795 36.0128 101.5 36.0787 101.246 36.2276C100.991 36.3766 100.789 36.6013 100.668 36.8706C100.442 36.7515 100.181 36.7185 99.9323 36.7776C99.684 36.8368 99.4653 36.9842 99.3168 37.1925C98.2671 37.0583 97.2391 36.789 96.258 36.3912C95.9903 36.3909 95.7281 36.4667 95.5016 36.6098C95.2751 36.7529 95.0936 36.9574 94.9781 37.1997C94.8809 37.3926 94.8308 37.606 94.8319 37.8222C94.8331 38.0798 94.9046 38.3322 95.0387 38.552C94.784 38.5878 94.5508 38.7146 94.3818 38.9091C94.2128 39.1037 94.1195 39.3528 94.1189 39.6109C94.1187 39.7304 94.1392 39.849 94.1795 39.9615L96.176 40.0116C96.2036 39.9461 96.2239 39.8777 96.2366 39.8077C96.3007 39.8839 96.3723 39.9534 96.4505 40.0152L98.151 40.0581L98.2473 39.983C98.263 40.0106 98.2809 40.0369 98.3008 40.0617L100.6 40.1153C100.614 40.0995 100.628 40.0828 100.639 40.0652C100.648 40.0838 100.657 40.1018 100.668 40.1189L102.518 40.1618C102.592 40.0394 102.641 39.903 102.661 39.7611C102.671 39.7684 102.682 39.7745 102.693 39.779C102.682 39.8416 102.676 39.905 102.675 39.9686C102.676 40.0346 102.682 40.1004 102.693 40.1654L104.786 40.2155C104.804 40.1345 104.814 40.0517 104.814 39.9686C104.813 39.7299 104.733 39.4984 104.586 39.3104C104.735 39.0803 104.814 38.8119 104.814 38.5377ZM100.996 38.509C100.935 38.5837 100.864 38.6498 100.786 38.7058C100.807 38.7595 100.818 38.8167 100.836 38.8704C100.926 38.7742 101.033 38.6964 101.153 38.6414C101.097 38.6012 101.045 38.557 100.996 38.5091V38.509Z" fill="white"/>
<path d="M115.509 40.6841C116.1 40.6841 116.579 40.2036 116.579 39.6109C116.579 39.0181 116.1 38.5376 115.509 38.5376C114.919 38.5376 114.44 39.0181 114.44 39.6109C114.44 40.2036 114.919 40.6841 115.509 40.6841Z" fill="white"/>
<path d="M114.44 38.8954C114.44 38.6818 114.393 38.4708 114.301 38.2782C114.209 38.0856 114.075 37.9162 113.909 37.7828C113.655 37.5776 113.34 37.4653 113.014 37.4644C112.996 37.4644 112.982 37.468 112.964 37.468C112.892 37.1813 112.733 36.9242 112.509 36.7323C112.285 36.5404 112.007 36.4231 111.714 36.3968C111.42 36.3704 111.126 36.4363 110.872 36.5853C110.617 36.7343 110.415 36.959 110.294 37.2282C110.068 37.1091 109.806 37.0761 109.558 37.1353C109.31 37.1945 109.091 37.3419 108.943 37.5502C107.893 37.416 106.865 37.1467 105.884 36.7489C105.616 36.7486 105.354 36.8244 105.127 36.9675C104.901 37.1106 104.719 37.3151 104.604 37.5574C104.507 37.7503 104.456 37.9637 104.458 38.1799C104.459 38.4375 104.53 38.6899 104.664 38.9097C104.41 38.9455 104.176 39.0723 104.008 39.2668C103.839 39.4614 103.745 39.7106 103.745 39.9686C103.744 40.0881 103.765 40.2067 103.805 40.3192L105.802 40.3693C105.829 40.3038 105.85 40.2354 105.862 40.1654C105.926 40.2416 105.998 40.3112 106.076 40.3729L107.777 40.4158L107.873 40.3407C107.889 40.3683 107.907 40.3946 107.926 40.4194L110.226 40.473C110.24 40.4572 110.253 40.4405 110.265 40.4229C110.273 40.4415 110.283 40.4595 110.294 40.4766L112.144 40.5195C112.218 40.3971 112.267 40.2607 112.287 40.1188C112.297 40.1262 112.307 40.1322 112.319 40.1367C112.307 40.1993 112.302 40.2628 112.301 40.3264C112.301 40.3923 112.307 40.4581 112.319 40.5231L114.411 40.5732C114.43 40.4923 114.44 40.4094 114.44 40.3264C114.439 40.0876 114.358 39.8561 114.212 39.6681C114.361 39.438 114.44 39.1696 114.44 38.8954ZM110.622 38.8667C110.561 38.9414 110.49 39.0075 110.411 39.0635C110.433 39.1172 110.443 39.1744 110.461 39.2281C110.551 39.1319 110.659 39.0541 110.779 38.9991C110.723 38.9589 110.671 38.9147 110.622 38.8667H110.622Z" fill="white"/>
<path d="M100.09 39.9687C100.533 39.9687 100.893 39.6084 100.893 39.1638C100.893 38.7193 100.533 38.3589 100.09 38.3589C99.6475 38.3589 99.2883 38.7193 99.2883 39.1638C99.2883 39.6084 99.6475 39.9687 100.09 39.9687Z" fill="white"/>
<path d="M99.2881 38.627C99.2885 38.4668 99.2528 38.3086 99.1839 38.1641C99.1149 38.0196 99.0143 37.8926 98.8897 37.7925C98.6996 37.6387 98.4628 37.5544 98.2186 37.5537C98.2052 37.5537 98.1945 37.5564 98.1811 37.5564C98.1272 37.3414 98.008 37.1486 97.8399 37.0047C97.6719 36.8607 97.4634 36.7728 97.2434 36.753C97.0234 36.7333 96.8026 36.7827 96.6118 36.8944C96.421 37.0062 96.2696 37.1747 96.1785 37.3766C96.009 37.2873 95.813 37.2625 95.6267 37.3069C95.4404 37.3513 95.2765 37.4618 95.1651 37.6181C94.3778 37.5174 93.6067 37.3154 92.8709 37.0171C92.6702 37.0169 92.4735 37.0737 92.3036 37.181C92.1337 37.2884 91.9976 37.4418 91.911 37.6235C91.8381 37.7682 91.8005 37.9282 91.8014 38.0903C91.8023 38.2836 91.8559 38.4729 91.9565 38.6377C91.7655 38.6645 91.5905 38.7597 91.4638 38.9056C91.337 39.0515 91.267 39.2384 91.2666 39.4319C91.2665 39.5215 91.2818 39.6105 91.3121 39.6948L92.8094 39.7324C92.8302 39.6833 92.8454 39.632 92.8549 39.5795C92.903 39.6367 92.9567 39.6888 93.0153 39.7351L94.2907 39.7673L94.3629 39.7109C94.3747 39.7316 94.3881 39.7514 94.403 39.77L96.1276 39.8102C96.1383 39.7984 96.1481 39.7858 96.1571 39.7727C96.1631 39.7866 96.1703 39.8001 96.1785 39.8129L97.5662 39.8451C97.6218 39.7533 97.6582 39.651 97.6731 39.5446C97.6805 39.5501 97.6886 39.5546 97.6972 39.558C97.6888 39.6049 97.6843 39.6525 97.6838 39.7002C97.6842 39.7497 97.6887 39.799 97.6972 39.8478L99.2667 39.8853C99.2807 39.8246 99.2879 39.7625 99.2881 39.7002C99.2871 39.5212 99.2269 39.3476 99.117 39.2065C99.2286 39.034 99.288 38.8327 99.2881 38.627ZM96.4244 38.6055C96.3786 38.6615 96.3255 38.7111 96.2667 38.7531C96.2827 38.7933 96.2907 38.8363 96.3041 38.8765C96.3716 38.8044 96.4524 38.746 96.5421 38.7048C96.5005 38.6746 96.4612 38.6414 96.4244 38.6055Z" fill="white"/>
<path d="M88.682 39.9687C89.125 39.9687 89.4842 39.6084 89.4842 39.1638C89.4842 38.7193 89.125 38.3589 88.682 38.3589C88.239 38.3589 87.8799 38.7193 87.8799 39.1638C87.8799 39.6084 88.239 39.9687 88.682 39.9687Z" fill="white"/>
<path d="M87.8799 38.627C87.8803 38.4668 87.8446 38.3086 87.7757 38.1641C87.7067 38.0196 87.6061 37.8926 87.4815 37.7925C87.2914 37.6387 87.0546 37.5544 86.8104 37.5537C86.797 37.5537 86.7863 37.5564 86.7729 37.5564C86.719 37.3414 86.5997 37.1486 86.4317 37.0047C86.2637 36.8607 86.0552 36.7728 85.8352 36.753C85.6152 36.7333 85.3944 36.7827 85.2036 36.8944C85.0128 37.0062 84.8614 37.1747 84.7702 37.3766C84.6007 37.2873 84.4048 37.2625 84.2185 37.3069C84.0322 37.3513 83.8682 37.4618 83.7569 37.6181C82.9696 37.5174 82.1985 37.3154 81.4627 37.0171C81.262 37.0169 81.0653 37.0737 80.8954 37.181C80.7255 37.2884 80.5894 37.4418 80.5028 37.6235C80.4299 37.7682 80.3923 37.9282 80.3932 38.0903C80.3941 38.2836 80.4477 38.4729 80.5483 38.6377C80.3572 38.6645 80.1823 38.7597 80.0556 38.9056C79.9288 39.0515 79.8588 39.2384 79.8584 39.4319C79.8583 39.5215 79.8736 39.6105 79.9039 39.6948L81.4012 39.7324C81.4219 39.6833 81.4372 39.632 81.4467 39.5795C81.4947 39.6367 81.5485 39.6888 81.6071 39.7351L82.8825 39.7673L82.9547 39.7109C82.9665 39.7316 82.9799 39.7514 82.9948 39.77L84.7194 39.8102C84.7301 39.7984 84.7399 39.7858 84.7488 39.7727C84.7549 39.7866 84.7621 39.8001 84.7702 39.8129L86.158 39.8451C86.2136 39.7533 86.25 39.651 86.2649 39.5446C86.2724 39.5501 86.2804 39.5546 86.289 39.558C86.2806 39.6049 86.2761 39.6525 86.2756 39.7002C86.276 39.7497 86.2804 39.799 86.289 39.8478L87.8585 39.8853C87.8725 39.8246 87.8797 39.7625 87.8799 39.7002C87.8789 39.5212 87.8187 39.3476 87.7088 39.2065C87.8204 39.034 87.8798 38.8327 87.8799 38.627ZM85.0162 38.6055C84.9704 38.6615 84.9173 38.7111 84.8585 38.7531C84.8745 38.7933 84.8825 38.8363 84.8959 38.8765C84.9634 38.8044 85.0442 38.746 85.1339 38.7048C85.0923 38.6746 85.053 38.6414 85.0162 38.6055Z" fill="white"/>
<path d="M126.116 28.3203V26.1738H124.333V26.5316C124.136 26.5316 123.977 26.7718 123.977 27.0682C123.977 27.3646 124.136 27.6048 124.333 27.6048V28.3203H122.907V35.4753H127.542V28.3203H126.116Z" fill="#3F3D56"/>
</svg>
