<svg xmlns="http://www.w3.org/2000/svg" width="748.914" height="673.007" viewBox="0 0 748.914 673.007">
  <g id="Group_26" data-name="Group 26" transform="translate(-124.864 -343)">
    <circle id="Ellipse_40" data-name="Ellipse 40" cx="37.5" cy="37.5" r="37.5" transform="translate(248 353)" fill="#fff"/>
    <path id="Path_153" data-name="Path 153" d="M8327.737,1017.3s26.082-7.831,46.478-2.947,35.1,22.482,35.1,22.482,7.817-49.206,67.095-51.389,73.048,45.4,73.048,45.4,23.657-4.627,42.405,1.952,32.585,24.363,32.585,24.363l58.955,1.942,18.21,230.94s-32.032,53.184-60.479,66.539-57.7,10.594-57.7,10.594,15.539,42.05-38.577,63.535-81.4-27.4-81.4-27.4-36.039,40.538-91.25,16.818-44.473-80.03-44.473-80.03h-55.745l-114.454-206.453s-5.43-23.039,6-32.583,39.72-5.592,39.72-5.592Z" transform="translate(-7992 -612)" fill="#fff"/>
    <path id="Path_148" data-name="Path 148" d="M8238.871,1018.259s-24.869-5.827-39.6,11.2c-7.737,9.62-14.438,25.289,0,47.112,8.877,9.716,41.675,29.817,60.462,46.971,18.953,17.306,40.039,43.559,72.135,73.631l61.994-17.26Z" transform="translate(-7611.002 -575)" fill="#fff" stroke="#111" stroke-width="4"/>
    <path id="Path_151" data-name="Path 151" d="M8237.279,1018.23s-24.046-5.653-38.292,10.863c-7.481,9.333-13.961,24.535,0,45.708,8.583,9.427,40.294,28.928,58.459,45.572,18.326,16.79,38.714,42.261,69.746,71.437l59.941-16.746Z" transform="translate(-7587.277 -612)" fill="#fff" stroke="#111" stroke-width="4"/>
    <path id="Path_135" data-name="Path 135" d="M8345.758,1018.259s24.869-5.827,39.6,11.2c7.737,9.62,14.438,25.289,0,47.112-8.877,9.716-41.675,29.817-60.462,46.971-18.953,17.306-40.039,43.559-72.135,73.631l-61.994-17.26Z" transform="translate(-7975 -575)" fill="#fff" stroke="#111" stroke-width="4"/>
    <path id="Path_134" data-name="Path 134" d="M8340.625,1018.23s24.046-5.653,38.292,10.863c7.481,9.333,13.961,24.535,0,45.708-8.583,9.427-40.294,28.928-58.459,45.572-18.326,16.79-38.714,42.261-69.746,71.437l-59.941-16.746Z" transform="translate(-7992 -612)" fill="#fff" stroke="#111" stroke-width="4"/>
    <g id="Group_22" data-name="Group 22">
      <g id="Rectangle_36" data-name="Rectangle 36" transform="matrix(0.996, -0.087, 0.087, 0.996, 302.975, 494.199)" fill="#ec96aa" stroke="#111" stroke-linecap="round" stroke-width="4">
        <rect width="368" height="272" rx="68" stroke="none"/>
        <rect x="-2" y="-2" width="372" height="276" rx="70" fill="none"/>
      </g>
      <g id="Rectangle_35" data-name="Rectangle 35" transform="matrix(0.996, -0.087, 0.087, 0.996, 302.975, 494.199)" fill="#ec96aa" stroke="#111" stroke-linecap="round" stroke-width="4">
        <rect width="368" height="224" rx="68" stroke="none"/>
        <rect x="-2" y="-2" width="372" height="228" rx="70" fill="none"/>
      </g>
      <circle id="Ellipse_38" data-name="Ellipse 38" cx="18" cy="18" r="18" transform="translate(401 545)" fill="#111"/>
      <circle id="Ellipse_39" data-name="Ellipse 39" cx="18" cy="18" r="18" transform="translate(549 532)" fill="#111"/>
      <path id="Path_143" data-name="Path 143" d="M8443.4,1191.811s18.879,16.434,42.975,15.4,43.894-22.98,43.894-22.98" transform="translate(-7992 -612)" fill="none" stroke="#111" stroke-linecap="round" stroke-width="4"/>
    </g>
    <g id="Group_24" data-name="Group 24">
      <path id="Path_140" data-name="Path 140" d="M8304.378,1636h-185.61l2.307-451.733,10.368-29.3,66.388-75.1,40.124-38.081,37.566-25.269,35.729-13.442,22.462,6.8,9.8,12.761,4.6,12.739-1.934,17.236-10.227,14.917-33.582,14-45.359,37.318-34.957,37.991-13.232,14.379-2.82,3.578,26.833,7.335,29.976,17.5,12.011,11.068,2.6,3.154,40.707-18.4,29.921-13.324,15.328-7.335,18.408,1.828,12.946,8.457,5.253,6.9,5.621,12.708v12.779l-2.929,9.08-4.926,9.133-6.526,5.284-86.844,40.486Z" transform="translate(-7992 -612)" fill="#fff"/>
      <path id="Path_137" data-name="Path 137" d="M8190.771,1174.525s25.883-.778,50.165,11.215,36.645,27.435,36.645,27.435" transform="translate(-7992 -612)" fill="none" stroke="#111" stroke-linecap="round" stroke-width="4"/>
      <path id="Path_138" data-name="Path 138" d="M8262.935,1222.174l98.832-46.452s30.871-6.182,41.058,19.776-12.547,46.447-12.547,46.447l-99.229,45.547s10.948,15.4,4.235,44.117-32.35,37.972-32.35,37.972" transform="translate(-7992 -612)" fill="none" stroke="#111" stroke-linecap="round" stroke-width="4"/>
      <g id="Path_139" data-name="Path 139" transform="translate(-7992 -612)" fill="none" stroke-linecap="round">
        <path d="M8381.822,1204.956c7.129,15.9-7.372,24.856-7.372,24.856l-16.091-34.346S8374.693,1189.06,8381.822,1204.956Z" stroke="none"/>
        <path d="M 8365.8505859375 1194.1904296875 C 8361.61328125 1194.1904296875 8358.359375 1195.466796875 8358.359375 1195.466796875 L 8374.4501953125 1229.8125 C 8374.4501953125 1229.8125 8388.951171875 1220.85302734375 8381.822265625 1204.956298828125 C 8377.875 1196.154052734375 8371.1064453125 1194.1904296875 8365.8505859375 1194.1904296875 M 8365.8505859375 1190.1904296875 C 8369.69921875 1190.1904296875 8373.208984375 1191.062377929688 8376.28125 1192.7822265625 C 8380.2373046875 1194.996826171875 8383.330078125 1198.542114257812 8385.4716796875 1203.319580078125 C 8387.3974609375 1207.612060546875 8388.1298828125 1211.880981445312 8387.6513671875 1216.007690429688 C 8387.263671875 1219.343994140625 8386.091796875 1222.543823242188 8384.16796875 1225.518188476562 C 8381.03515625 1230.361938476562 8377.001953125 1232.937622070312 8376.552734375 1233.21533203125 L 8372.732421875 1235.575439453125 L 8370.828125 1231.509521484375 L 8354.7373046875 1197.163818359375 L 8352.927734375 1193.300659179688 L 8356.8984375 1191.742919921875 C 8357.3037109375 1191.584106445312 8360.9970703125 1190.1904296875 8365.8505859375 1190.1904296875 Z" stroke="none" fill="#111"/>
      </g>
      <path id="Path_141" data-name="Path 141" d="M8304.724,1282.5v353.138" transform="translate(-7992 -612)" fill="none" stroke="#111" stroke-linecap="round" stroke-width="4"/>
      <path id="Path_136" data-name="Path 136" d="M8119.6,1636s-1.438-425.48,0-448.568,24.625-50.233,24.625-50.233,53.744-62.838,95.445-96.546,71.675-37.3,71.675-37.3,23.131-.209,33.078,19.558-.645,34.235-6.591,41.26-22.542,9.821-31.336,15.432-13.421,5.685-38.4,29.143-61.522,64.688-61.522,64.688" transform="translate(-7992 -612)" fill="none" stroke="#111" stroke-linecap="round" stroke-width="4"/>
      <path id="Path_142" data-name="Path 142" d="M8284.44,1013.951l9.8,18.735s9.363-6.273,12.84-13.253,1.067-14.666,1.067-14.666" transform="translate(-7992 -612)" fill="none" stroke="#111" stroke-linecap="round" stroke-width="4"/>
    </g>
    <g id="Group_25" data-name="Group 25">
      <path id="Path_144" data-name="Path 144" d="M8219.993,1636H8405.6l-2.307-451.733-10.367-29.3-66.389-75.1-40.124-38.081-37.566-25.269-35.729-13.442-22.462,6.8-9.8,12.761-4.6,12.739,1.934,17.236,10.227,14.917,33.582,14,45.359,37.318,34.957,37.991,13.232,14.379,2.82,3.578-26.833,7.335-29.976,17.5-12.011,11.068-2.6,3.154-40.707-18.4-29.921-13.324L8161,1174.789l-18.408,1.828-12.946,8.457-5.253,6.9-5.621,12.708v12.779l2.929,9.08,4.926,9.133,6.526,5.284,86.844,40.486Z" transform="translate(-7533.744 -612)" fill="#fff"/>
      <path id="Path_150" data-name="Path 150" d="M8277.581,1174.525s-25.883-.778-50.165,11.215-36.645,27.435-36.645,27.435" transform="translate(-7477.725 -612)" fill="none" stroke="#111" stroke-linecap="round" stroke-width="4"/>
      <path id="Path_147" data-name="Path 147" d="M8405.45,1222.174l-98.832-46.452s-30.871-6.182-41.058,19.776,12.547,46.447,12.547,46.447l99.229,45.547s-10.948,15.4-4.235,44.117,32.35,37.972,32.35,37.972" transform="translate(-7677.758 -612)" fill="none" stroke="#111" stroke-linecap="round" stroke-width="4"/>
      <g id="Path_149" data-name="Path 149" transform="translate(-7751.525 -612)" fill="none" stroke-linecap="round">
        <path d="M8360.33,1204.956c-7.129,15.9,7.372,24.856,7.372,24.856l16.091-34.346S8367.459,1189.06,8360.33,1204.956Z" stroke="none"/>
        <path d="M 8376.3017578125 1194.1904296875 C 8371.0458984375 1194.190185546875 8364.27734375 1196.154052734375 8360.330078125 1204.956298828125 C 8353.201171875 1220.85302734375 8367.7021484375 1229.8125 8367.7021484375 1229.8125 L 8383.79296875 1195.466796875 C 8383.79296875 1195.466796875 8380.5390625 1194.190673828125 8376.3017578125 1194.1904296875 M 8376.3017578125 1190.1904296875 L 8376.3017578125 1194.1904296875 L 8376.3017578125 1190.1904296875 C 8381.1552734375 1190.190673828125 8384.84765625 1191.583984375 8385.2529296875 1191.742919921875 L 8389.2255859375 1193.300415039062 L 8387.4150390625 1197.163818359375 L 8371.32421875 1231.509521484375 L 8369.419921875 1235.575439453125 L 8365.599609375 1233.21533203125 C 8365.150390625 1232.937622070312 8361.1171875 1230.361938476562 8357.984375 1225.518188476562 C 8356.060546875 1222.543823242188 8354.888671875 1219.343994140625 8354.5009765625 1216.007690429688 C 8354.0224609375 1211.880981445312 8354.7548828125 1207.612060546875 8356.6806640625 1203.319580078125 C 8358.822265625 1198.542602539062 8361.9150390625 1194.99755859375 8365.87109375 1192.78271484375 C 8368.943359375 1191.062622070312 8372.4521484375 1190.1904296875 8376.3017578125 1190.1904296875 Z" stroke="none" fill="#111"/>
      </g>
      <path id="Path_145" data-name="Path 145" d="M8347.872,1636s1.438-425.48,0-448.568-24.626-50.233-24.626-50.233-53.743-62.838-95.444-96.546-71.675-37.3-71.675-37.3-23.131-.209-33.078,19.558.645,34.235,6.591,41.26,22.542,9.821,31.336,15.432,13.421,5.685,38.4,29.143,61.522,64.688,61.522,64.688" transform="translate(-7476.846 -612)" fill="none" stroke="#111" stroke-linecap="round" stroke-width="4"/>
      <path id="Path_152" data-name="Path 152" d="M8308.958,1013.951l-9.8,18.735s-9.363-6.273-12.84-13.253-1.067-14.666-1.067-14.666" transform="translate(-7602.771 -612)" fill="none" stroke="#111" stroke-linecap="round" stroke-width="4"/>
      <path id="Path_146" data-name="Path 146" d="M8304.724,1282.5v353.138" transform="translate(-7618.82 -612)" fill="none" stroke="#111" stroke-linecap="round" stroke-width="4"/>
    </g>
  </g>
</svg>
