<svg width="112" height="34" viewBox="0 0 112 34" fill="none" xmlns="http://www.w3.org/2000/svg">
<g clip-path="url(#clip0)">
<path d="M47.6585 8.07571H47.6296L46.1699 15.9739H44.1683L42.2959 6.33521H43.8887L45.1903 13.7653H45.2154L46.6095 6.33521H48.6805L50.0612 13.7653H50.0882L51.438 6.33521H52.9807L51.0678 15.9739H49.0392L47.6585 8.07571Z" fill="white"/>
<path d="M55.8113 8.7522C57.2035 8.7522 58.8118 9.51641 58.8118 12.4109C58.8118 15.3952 57.2035 16.0849 55.8113 16.0849C54.4191 16.0849 52.7974 15.3952 52.7974 12.4185C52.7974 9.51259 54.4171 8.7522 55.8113 8.7522ZM55.8113 14.8659C56.8719 14.8659 57.111 13.5954 57.111 12.4071C57.111 11.2187 56.8719 9.96348 55.8113 9.96348C54.7507 9.96348 54.4962 11.2206 54.4962 12.4071C54.4962 13.5935 54.7488 14.8698 55.8113 14.8698V14.8659Z" fill="white"/>
<path d="M59.8318 10.0361C59.8376 9.64438 59.8202 9.25269 59.7798 8.86301H61.2665C61.28 9.29097 61.3205 9.7323 61.3205 10.1603H61.3456C61.5384 9.60812 62.0629 8.7522 63.081 8.7522C63.1753 8.75785 63.2689 8.77192 63.3606 8.79423V10.3953C63.2099 10.3501 63.0534 10.3269 62.8959 10.3265C62.2191 10.3265 61.4748 10.7544 61.4748 12.0804V15.974H59.828L59.8318 10.0361Z" fill="white"/>
<path d="M64.4058 5.61707H66.0525V15.9741H64.4058V5.61707Z" fill="white"/>
<path d="M72.9175 5.61707V14.759C72.9096 15.1647 72.927 15.5705 72.9695 15.9741H71.4269C71.3879 15.6073 71.3699 15.2386 71.3729 14.8698H71.3324C71.0682 15.4774 70.5765 16.0849 69.514 16.0849C67.8152 16.0849 67.1113 14.3998 67.1113 12.4262C67.1113 10.1049 68.0003 8.75226 69.4754 8.75226C69.8513 8.73905 70.2222 8.84067 70.5378 9.04333C70.8534 9.24599 71.0985 9.5399 71.2398 9.88522H71.2668V5.61707H72.9175ZM69.9691 14.8297C70.9332 14.8297 71.2707 13.7369 71.2707 12.3976C71.2707 11.0163 70.8985 10.0094 69.9961 10.0094C69.0936 10.0094 68.762 10.9341 68.762 12.3575C68.762 14.0005 69.0146 14.8297 69.9691 14.8297Z" fill="white"/>
<path d="M78.3398 6.33521H80.0406V10.2575H82.7865V6.33521H84.4873V15.9739H82.7865V11.721H80.0406V15.9739H78.3398V6.33521Z" fill="white"/>
<path d="M90.7924 15.6302C90.152 15.9255 89.4548 16.0806 88.7484 16.0849C86.5443 16.0849 85.5879 14.4418 85.5879 12.5217C85.5879 10.3953 86.6639 8.7522 88.4032 8.7522C89.8764 8.7522 91.1376 9.65015 91.1376 12.5504V12.8809H87.1807C87.1807 14.096 87.6454 14.8296 88.9161 14.8296C89.9246 14.8296 90.4029 14.5106 90.7095 14.2756L90.7924 15.6302ZM89.5448 11.8091C89.5448 10.5519 89.1456 9.91572 88.4032 9.91572C87.5393 9.91572 87.1807 10.871 87.1807 11.8091H89.5448Z" fill="white"/>
<path d="M92.6107 9.27767C93.2772 8.92855 94.0204 8.74807 94.7743 8.75227C96.8954 8.75227 97.3891 9.82981 97.3891 11.6181V14.7113C97.3911 15.1313 97.4226 15.5508 97.4836 15.9665H95.9949C95.9225 15.6534 95.8914 15.3323 95.9024 15.0112H95.8773C95.4646 15.5844 94.9459 16.0868 93.9644 16.0868C92.9019 16.0868 91.9204 15.3226 91.9204 14.0024C91.9204 12.069 93.4341 11.5856 95.5186 11.5856H95.8503V11.3219C95.8503 10.617 95.5186 9.96737 94.5757 9.96737C93.891 9.98383 93.2317 10.2274 92.7033 10.659L92.6107 9.27767ZM95.8503 12.495H95.7038C94.2961 12.495 93.4611 12.7988 93.4611 13.8324C93.4611 14.482 93.8719 14.9233 94.5082 14.9233C95.4916 14.9233 95.858 14.1591 95.858 12.8924L95.8503 12.495Z" fill="white"/>
<path d="M99.0088 5.61707H100.657V15.9741H99.0107L99.0088 5.61707Z" fill="white"/>
<path d="M102.713 7.39951L104.36 6.87793V8.86298H105.727V10.1259H104.36V13.8132C104.36 14.5774 104.624 14.7933 105.103 14.7933C105.321 14.797 105.536 14.7443 105.727 14.6405V15.8575C105.383 16.0201 105.006 16.1005 104.624 16.0925C103.404 16.0925 102.713 15.5193 102.713 14.0214V10.1259H101.622V8.86298H102.71L102.713 7.39951Z" fill="white"/>
<path d="M106.576 5.61707H108.222V9.7744H108.263C108.554 9.33116 108.94 8.75226 109.962 8.75226C111.504 8.75226 111.979 9.95399 111.979 11.3907V15.976H110.332V11.7079C110.332 10.617 110.068 10.1603 109.391 10.1603C108.527 10.1603 108.222 10.9246 108.222 11.8321V15.9741H106.576V5.61707Z" fill="white"/>
<path d="M45.9188 18.5322C47.8472 18.5322 49.6096 20.0244 49.6096 23.4996C49.6096 26.9749 47.8452 28.4556 45.9188 28.4556C43.9925 28.4556 42.23 26.9654 42.23 23.4996C42.23 20.0339 43.9944 18.5322 45.9188 18.5322ZM45.9188 27.0953C46.9948 27.0953 47.8568 26.14 47.8568 23.492C47.8568 20.844 46.9948 19.8868 45.9188 19.8868C44.8428 19.8868 43.9905 20.8421 43.9905 23.492C43.9905 26.1419 44.8448 27.1029 45.9188 27.1029V27.0953Z" fill="white"/>
<path d="M50.7147 22.3801C50.7195 21.9878 50.7021 21.5955 50.6626 21.2051H52.1493C52.1628 21.635 52.2014 22.0763 52.2014 22.5043H52.2284C52.4212 21.9521 52.9457 21.0962 53.9639 21.0962C54.0574 21.102 54.1502 21.1155 54.2415 21.1363V22.7354C54.0915 22.6901 53.9356 22.6669 53.7787 22.6667C53.1 22.6667 52.3576 23.0946 52.3576 24.4205V28.3142H50.7147V22.3801Z" fill="white"/>
<path d="M55.2713 29.4223C55.8807 29.7928 56.5758 30.0026 57.2902 30.0318C58.8329 30.0318 59.0951 28.9122 59.0951 27.7926V27.1163H59.0681C58.8039 27.6685 58.3392 28.318 57.2632 28.318C56.299 28.318 54.874 27.6551 54.874 24.7835C54.874 22.8214 55.5509 21.0962 57.3423 21.0962C58.3392 21.0962 58.8039 21.6904 59.1491 22.3113H59.1992C59.1992 21.9292 59.2397 21.5796 59.2532 21.2051H60.7419C60.7149 21.5872 60.6879 21.9521 60.6879 22.3247V27.5729C60.6879 29.7968 60.0381 31.394 57.5293 31.394C56.7251 31.3887 55.9286 31.2385 55.1787 30.9508L55.2713 29.4223ZM57.8321 27.0609C58.8676 27.0609 59.2783 26.2967 59.2783 24.6727C59.2783 23.1806 58.7345 22.3801 57.9516 22.3934C57.0877 22.4087 56.7561 23.236 56.7561 24.6861C56.7561 26.3655 57.2709 27.0609 57.8321 27.0609Z" fill="white"/>
<path d="M62.477 21.6199C63.1447 21.2724 63.8883 21.0927 64.6425 21.0964C66.7636 21.0964 67.2573 22.1739 67.2573 23.9622V27.0687C67.2587 27.4894 67.2896 27.9094 67.3498 28.3259H65.8631C65.7897 28.009 65.7586 27.684 65.7705 27.3591H65.7435C65.3328 27.9323 64.8141 28.4367 63.8326 28.4367C62.7701 28.4367 61.7886 27.6725 61.7886 26.3523C61.7886 24.4188 63.3004 23.9354 65.3849 23.9354H65.7165V23.6718C65.7165 22.9687 65.3849 22.3191 64.4419 22.3191C63.7583 22.3359 63.0999 22.5787 62.5715 23.0088L62.477 21.6199ZM65.7069 24.8372H65.5623C64.1546 24.8372 63.3177 25.141 63.3177 26.1746C63.3177 26.8223 63.7304 27.2655 64.3667 27.2655C65.3482 27.2655 65.7069 26.5013 65.7069 25.2346V24.8372Z" fill="white"/>
<path d="M68.9066 22.3801C68.9114 21.9878 68.894 21.5955 68.8545 21.2051H70.3971C70.4087 21.5643 70.4492 21.9368 70.4492 22.2979H70.4762C70.7153 21.8681 71.18 21.0962 72.2946 21.0962C73.8469 21.0962 74.3116 22.2979 74.3116 23.7327V28.318H72.6668V24.0518C72.6668 22.9609 72.4007 22.5043 71.7238 22.5043C70.8599 22.5043 70.5553 23.2685 70.5553 24.176V28.318H68.9085L68.9066 22.3801Z" fill="white"/>
<path d="M75.7939 18.1805H77.4928V19.8695H75.7939V18.1805ZM75.819 21.2049H77.4658V28.3179H75.819V21.2049Z" fill="white"/>
<path d="M78.999 26.8412L81.9185 22.5043H79.0916V21.207H83.5653V22.6724L80.6979 27.0227H83.6578V28.32H78.999V26.8412Z" fill="white"/>
<path d="M85.2157 21.6199C85.8834 21.2722 86.627 21.0925 87.3812 21.0964C89.5024 21.0964 89.996 22.1739 89.996 23.9622V27.0687C89.9974 27.4894 90.0284 27.9094 90.0886 28.3259H88.6018C88.5274 28.0092 88.4963 27.684 88.5093 27.3591H88.4823C88.0696 27.9323 87.5528 28.4367 86.5713 28.4367C85.5088 28.4367 84.5254 27.6725 84.5254 26.3523C84.5254 24.4188 86.0391 23.9354 88.1236 23.9354H88.4553V23.6718C88.4553 22.9687 88.1236 22.3191 87.1807 22.3191C86.497 22.3359 85.8386 22.5787 85.3102 23.0088L85.2157 21.6199ZM88.4553 24.8372H88.3164C86.9088 24.8372 86.0738 25.141 86.0738 26.1746C86.0738 26.8223 86.4846 27.2655 87.1228 27.2655C88.1043 27.2655 88.4726 26.5013 88.4726 25.2346L88.4553 24.8372Z" fill="white"/>
<path d="M91.8879 19.7418L93.5346 19.2183V21.2071H94.9018V22.4643H93.5346V26.1516C93.5346 26.9158 93.8007 27.1317 94.279 27.1317C94.4963 27.1359 94.711 27.0839 94.9018 26.9808V28.1959C94.5584 28.3585 94.1813 28.4389 93.8007 28.4309C92.5782 28.4309 91.8879 27.8577 91.8879 26.3599V22.4624H90.8003V21.2071H91.8879V19.7418Z" fill="white"/>
<path d="M96.0298 18.1805H97.7286V19.8695H96.0298V18.1805ZM96.2419 21.2068H97.8887V28.3198H96.2419V21.2068Z" fill="white"/>
<path d="M102.163 21.0962C103.558 21.0962 105.162 21.8604 105.162 24.7549C105.162 27.7391 103.558 28.4289 102.163 28.4289C100.769 28.4289 99.1494 27.7391 99.1494 24.7549C99.1494 21.8547 100.769 21.0962 102.163 21.0962ZM102.163 27.2099C103.224 27.2099 103.463 25.9394 103.463 24.7511C103.463 23.5627 103.224 22.3075 102.163 22.3075C101.103 22.3075 100.85 23.5665 100.85 24.7549C100.85 25.9432 101.101 27.2137 102.163 27.2137V27.2099Z" fill="white"/>
<path d="M106.597 22.3801C106.602 21.9877 106.584 21.5954 106.543 21.2051H108.086C108.099 21.5643 108.14 21.9368 108.14 22.2979H108.167C108.404 21.8681 108.869 21.0962 109.983 21.0962C111.537 21.0962 112.002 22.2979 112.002 23.7327V28.318H110.357V24.0518C110.357 22.9609 110.091 22.5043 109.412 22.5043C108.55 22.5043 108.255 23.2685 108.255 24.176V28.318H106.597V22.3801Z" fill="white"/>
<path d="M31.6242 5.26932C32.3686 6.14817 33.6702 6.66592 34.4319 7.54668C33.8861 4.94261 31.8576 2.81618 29.4588 2.30798C30.6292 3.1811 30.8818 4.39429 31.6242 5.26932ZM2.79219 11.8702C4.44475 8.30708 6.91105 9.06174 7.95427 5.66671C7.37578 6.70795 4.67615 7.14738 3.42082 9.81641C4.05909 8.23066 3.73899 5.80427 4.81884 4.49555C1.59085 6.85507 2.96574 10.6723 2.79219 11.8702ZM5.78492 20.4161C6.08188 21.8031 5.20643 23.8054 6.59481 25.7198C5.16015 24.1264 2.12114 23.7213 0.883165 21.2988C2.42581 27.2214 6.47526 25.9987 8.28594 27.2845C6.78957 25.1542 8.01405 23.7385 5.78492 20.4161ZM5.3202 24.1321C4.43511 20.8249 6.01246 19.6786 4.80727 16.5071C4.68193 18.2954 3.47867 19.1666 4.29048 22.4298C2.85775 19.6672 0.642126 18.6355 0 16.7364C0.0443511 21.9292 4.25577 22.6992 5.3202 24.1321ZM11.7877 29.6727C10.5478 27.9723 11.4021 27.0113 7.91185 23.9238C8.64846 25.0511 7.88871 26.4687 10.2374 28.6735C7.93884 27.3361 4.7687 27.9092 3.23956 26.1114C5.86591 31.0922 10.4804 29.0594 11.7877 29.6784V29.6727ZM28.645 28.6735C30.9937 26.4687 30.2339 25.0434 30.9705 23.9238C27.488 27.0113 28.3346 27.9723 27.0946 29.6727C28.402 29.0537 33.0165 31.0865 35.6409 26.1114C34.1137 27.9111 30.9436 27.3361 28.645 28.6792V28.6735ZM32.2876 25.714C33.6702 23.8035 32.8005 21.7974 33.0975 20.4104C30.8683 23.7328 32.0928 25.1485 30.5907 27.2883C32.411 26.0025 36.445 27.2214 37.9934 21.3026C36.7574 23.7213 33.7222 24.1264 32.2876 25.7198V25.714ZM26.7225 29.9077C25.4787 29.5759 24.2012 29.3837 22.9141 29.3345C21.7299 29.3064 20.5514 29.5049 19.4431 29.9191C18.3348 29.505 17.1563 29.3065 15.9722 29.3345C14.685 29.3837 13.4076 29.5759 12.1638 29.9077C10.0677 30.4598 8.25701 30.8878 6.67773 30.0987C8.19145 31.4361 9.95585 31.9042 12.507 31.6272C14.6281 31.4017 16.3463 30.349 18.3478 30.3643H18.4269C17.1683 30.9885 16.0465 31.8526 15.1256 32.9072L16.0898 33.0352C16.0898 33.0352 17.106 31.012 19.4431 30.4846C21.7802 31.012 22.7965 33.0352 22.7965 33.0352L23.7606 32.9072C22.8379 31.858 21.7163 30.9986 20.4593 30.3777H20.5384C22.54 30.3624 24.2543 31.4151 26.3773 31.6405C28.9285 31.9137 30.6948 31.438 32.2085 30.1121C30.6292 30.8935 28.8186 30.4655 26.7225 29.9134V29.9077ZM4.94997 12.921C4.08608 14.5641 2.74398 14.9405 2.89246 18.3412C2.16356 15.3188 0.431941 14.1992 0.453152 12.2715C-0.750112 17.2962 2.46631 17.8923 3.29162 19.9977C3.17014 16.9809 5.11387 16.3715 4.94997 12.921ZM6.15709 9.04264C5.85627 9.45914 5.64608 9.63682 4.84391 10.2921C3.63931 11.2384 2.81143 12.5764 2.5068 14.0693C2.58972 12.2275 1.44045 9.58141 2.20406 7.65176C-0.75204 11.7881 2.37375 14.2661 2.48366 15.7639C3.25113 12.8809 5.0136 12.858 6.15709 9.04264ZM36.3737 14.0693C36.0688 12.577 35.2417 11.2393 34.0385 10.2921C33.2363 9.63682 33.0261 9.45914 32.7253 9.04264C33.8688 12.8637 35.6313 12.8809 36.3891 15.7639C36.499 14.2661 39.6248 11.7881 36.6668 7.65176C37.4381 9.58141 36.2907 12.2275 36.3737 14.0693ZM38.8805 16.744C38.2383 18.6431 36.0227 19.6748 34.59 22.4451C35.4018 19.1742 34.2043 18.303 34.0732 16.5224C32.868 19.6977 34.4589 20.8383 33.5603 24.1474C34.6266 22.6992 38.838 21.9292 38.8824 16.7364L38.8805 16.744ZM33.9382 12.921C33.7743 16.3715 35.72 16.9809 35.5966 19.99C36.4238 17.8884 39.646 17.2885 38.435 12.2638C38.4582 14.1915 36.7265 15.3207 36.0034 18.3241C36.1384 14.9405 34.7963 14.5641 33.9382 12.921ZM7.26201 5.27887C8.00826 4.40002 8.26087 3.19065 9.42942 2.31753C7.03061 2.82573 4.99432 4.95217 4.45632 7.55624C5.20643 6.66592 6.50997 6.14817 7.25429 5.26932L7.26201 5.27887ZM30.9358 5.67626C31.9791 9.0713 34.4454 8.31663 36.096 11.8798C35.9244 10.6819 37.2993 6.86462 34.0713 4.5051C35.1511 5.81573 34.831 8.24021 35.4693 9.82596C34.2101 7.14738 31.5163 6.70795 30.9281 5.66671L30.9358 5.67626ZM22.5612 7.59445C21.9287 7.33737 21.2659 7.16083 20.5885 7.06905C20.5885 7.21234 20.5885 7.35945 20.5885 7.50465C21.2108 7.59513 21.8195 7.76066 22.4011 7.99757C22.4799 7.8745 22.5342 7.73768 22.5612 7.59445ZM22.0618 3.39125L22.1929 3.27471L21.9422 3.16963L21.2827 3.15626L21.1111 3.27471L20.7255 3.24223V3.33585C20.9528 3.34797 21.1793 3.37157 21.4042 3.40654L21.7262 3.37788L22.0618 3.39125ZM20.7833 17.4815C20.7833 17.3707 20.6348 17.2618 20.415 17.1586H20.3745C20.3745 17.2484 20.3745 17.6917 20.361 17.9076C20.6329 17.7872 20.7833 17.6573 20.7833 17.4815ZM13.1433 9.17064C13.1572 9.09002 13.1759 9.01028 13.1993 8.93183C13.1107 8.95158 13.0201 8.96056 12.9293 8.95857L13.1433 9.17064ZM19.4547 28.3907C22.8951 28.3784 26.2 27.0605 28.6897 24.708C31.1795 22.3556 32.6649 19.1473 32.8405 15.7431C33.0161 12.3388 31.8685 8.99724 29.6337 6.40556C27.399 3.81387 24.2469 2.16905 20.8257 1.80933C20.8257 1.83416 20.8257 1.86091 20.8103 1.88575C20.7833 2.01566 20.7582 2.13221 20.7389 2.23538C23.6924 2.52294 26.4574 3.80403 28.5737 5.86541L27.0889 7.33652L27.1448 7.07669L26.952 6.99263L26.6858 6.97734L26.7418 6.8073L26.5624 6.20548L26.1922 5.80236L25.0352 5.19672L24.9349 5.3018L24.7248 5.36293C25.1202 5.93122 25.3338 6.60426 25.338 7.29449C25.338 7.38429 25.338 7.47026 25.338 7.55624L25.9165 8.27269L25.6465 8.33383L25.8258 8.6013L25.3187 9.10186L25.1143 8.71976C25.0174 8.98481 24.8879 9.237 24.7286 9.4706L24.8424 9.57377L23.2785 11.1232C23.184 11.0334 23.0857 10.9474 22.9854 10.8653C22.835 10.9341 22.6827 10.9971 22.5265 11.0563L22.6595 11.1595L22.5805 11.2378L22.3877 11.3391L22.3202 11.5302L22.2064 11.4174L21.8766 11.5263L21.9673 11.6696L22.1948 11.6104L22.3433 11.6219L22.3549 11.5416L22.4686 11.4843L22.5033 11.4174L22.7078 11.3601H22.8678C22.8987 11.3869 22.9314 11.4155 22.9604 11.4442L22.3317 12.0365L22.2854 11.9715L21.6375 12.0766L21.4929 12.2199L21.3521 12.2371L21.7532 11.855L21.6105 11.7843L21.2345 12.281L21.3444 12.2695V12.4606L21.4813 12.5141L21.5083 12.7051L21.2827 12.6612L21.0475 12.7032L20.469 12.4147C20.469 12.4147 20.4381 13.9279 20.4227 14.6883C21.7725 15.1354 23.1898 15.7811 23.1898 17.4777C23.195 17.8328 23.1093 18.1834 22.9407 18.4968C22.7721 18.8102 22.5261 19.0761 22.2257 19.2698L22.1967 19.2889L22.1543 19.3175C21.6105 19.6729 20.9125 19.8639 20.307 20.0512L20.2897 21.2395C21.2538 21.7134 22.4204 22.4031 22.3124 24.3766C22.2989 24.8619 22.108 24.9957 21.9441 25.0396C21.3747 25.1803 20.7941 25.2717 20.2087 25.3128C20.2087 25.4657 20.2087 25.6109 20.2087 25.7465C22.7217 25.5752 25.0948 24.5369 26.9153 22.8119L28.4772 24.3595C26.0628 26.6648 22.8422 27.9559 19.4891 27.9626C16.1359 27.9694 12.91 26.6913 10.4861 24.3958L12.0481 22.8482C13.8495 24.5393 16.1853 25.5618 18.6602 25.7427C18.6602 25.6089 18.6602 25.4637 18.6602 25.309C16.2996 25.1308 14.0722 24.1548 12.3508 22.5444L12.7673 22.1298L13.3458 22.1948L13.6505 21.87L14.4488 21.8968L14.5664 21.6236L14.5375 21.507C15.7181 22.4037 17.1251 22.961 18.6043 23.1176C18.6043 22.9495 18.6043 22.8024 18.6043 22.682C16.9665 22.5 15.4309 21.8022 14.2232 20.6912L15.7871 19.1418C16.1683 19.4789 16.5946 19.7624 17.054 19.9843C17.0859 19.8416 17.1392 19.7044 17.2121 19.5774C16.8082 19.38 16.4327 19.1301 16.0956 18.8342L17.6633 17.2828C17.9142 17.4817 18.1971 17.6373 18.5002 17.7432C18.5002 17.5904 18.5002 17.428 18.5002 17.2771C18.3158 17.1976 18.1422 17.0956 17.9834 16.9733L18.425 16.5358C18.2707 16.4899 18.1126 16.4403 17.9583 16.3868L17.6614 16.681C17.5111 16.5153 17.3852 16.3294 17.2873 16.1288C17.0193 16.0138 16.7613 15.877 16.516 15.72C16.0597 15.4476 15.6841 15.0608 15.4271 14.5985C15.1701 14.1362 15.0408 13.6149 15.0524 13.0873C15.026 12.3667 15.2492 11.6588 15.6849 11.0812L14.1268 9.53747C15.2729 8.44976 16.7304 7.73974 18.2996 7.50465C18.2996 7.35563 18.2996 7.20852 18.29 7.06905C16.6075 7.31046 15.0437 8.06814 13.8183 9.2356L13.5541 8.97959C13.4943 9.08467 13.4249 9.2165 13.3439 9.38271L13.5097 9.54893C12.1216 11.0087 11.3335 12.9294 11.2999 14.9347H9.08811C9.12354 12.3445 10.1481 9.8637 11.9555 7.99184L12.6574 8.68919C12.6908 8.69106 12.7243 8.69106 12.7577 8.68919C12.8971 8.67743 13.0327 8.63847 13.1568 8.57455L12.264 7.68997C12.7385 7.23664 13.255 6.82853 13.8067 6.47105C13.8369 6.36201 13.8736 6.25483 13.9166 6.15008C14.0208 5.99446 14.1334 5.84458 14.254 5.7011C13.4162 6.15759 12.6433 6.72232 11.9555 7.38047L10.3936 5.83293C12.4874 3.80435 15.213 2.53828 18.1261 2.24111C18.1145 2.18761 18.1068 2.14558 18.1068 2.14558C18.0875 2.04432 18.0644 1.9316 18.0432 1.81315C14.6188 2.17337 11.4642 3.82086 9.22904 6.41635C6.99385 9.01184 5.84826 12.3577 6.02818 15.7649C6.2081 19.1722 7.69982 22.3813 10.1962 24.7315C12.6925 27.0818 16.0034 28.3941 19.447 28.3983L19.4547 28.3907ZM22.3684 19.1914V19.18V19.1914ZM28.8822 6.17683C31.1608 8.53722 32.4466 11.6687 32.4785 14.9347H30.259C30.2393 13.3086 29.8435 11.7086 29.102 10.2577L29.1213 10.2195L29.2736 10.2998L29.3103 10.1832L28.9246 9.49735L28.456 8.8554L27.9007 8.40643C27.7079 8.17334 27.515 7.9479 27.3087 7.73009L28.8822 6.17683ZM26.0572 8.97959L26.5875 9.00252L26.7148 9.15345L26.6511 9.37698L27.382 9.83551L27.5266 9.81832L28.4715 10.8882L28.8571 10.7545C29.4738 12.0645 29.8024 13.4894 29.8213 14.9347H27.6114C27.6019 14.3738 27.5328 13.8154 27.4051 13.2688L27.5073 13.1331L27.6442 12.4472L27.5401 11.7098L27.274 10.8615L26.6569 9.96734L26.8073 10.0457L26.8825 9.97116L26.387 9.63873L26.3542 9.74763L26.8498 10.4488L27.1294 11.022L27.3222 11.5951L27.3858 11.9772L27.488 12.623L27.2952 12.6364C27.2952 12.6364 27.0812 12.2409 27.0156 12.0785L27.1139 11.9314L26.9211 11.6639V11.3964L26.7861 11.2283L26.6184 11.2493C26.5586 11.1385 26.4949 11.0296 26.4255 10.9226L26.5451 10.9818L26.5759 10.9513L26.5123 10.8137L26.6569 10.7335L26.5914 10.6532L26.3773 10.7335L26.4564 10.401L26.3291 10.3284L26.2153 10.594C25.9747 10.236 25.7058 9.89738 25.4112 9.58141L26.0572 8.97959ZM25.6137 14.1132L26.0109 13.8992L26.4159 13.8381L26.5046 13.647L26.7302 13.5133L26.817 13.3223L26.8864 12.9994C26.9192 13.1121 26.9481 13.2286 26.9751 13.3452L26.7611 13.9776V14.1915L27.0715 13.7808C27.1381 14.1595 27.1749 14.5427 27.1814 14.9271H25.2531L25.2088 14.7609L25.4344 14.5832L25.4787 14.4762L25.5771 14.4036L25.8393 14.3769L25.8663 14.2622L25.6137 14.1132ZM22.9604 12.6096L23.1532 12.5638V12.5179L22.9604 12.3861L23.0278 11.9734L23.265 11.7384C23.4133 11.9059 23.5505 12.0827 23.6758 12.2676L23.5928 12.5217L23.3769 12.3689L23.213 12.4128L23.294 12.5638H23.3749L23.2843 12.7873L23.2226 12.6975L22.9604 12.6096ZM23.8069 19.8831L23.3287 19.7493L23.186 19.8009L22.916 19.5965L22.6615 19.5067C22.7868 19.4169 22.9083 19.3156 23.0259 19.2239L23.4116 19.499L23.7124 19.6557L23.8609 19.8028L23.8069 19.8831ZM23.5639 11.4346L25.1278 9.88519C25.4934 10.2801 25.8165 10.7117 26.0919 11.1729L25.8991 11.2264L25.9087 11.5722L26.4872 11.939C26.6322 12.2562 26.7546 12.5831 26.8536 12.9172L26.7514 13.0662L26.5393 13.2L26.4872 13.5209L26.3426 13.6012L26.2211 13.7426L26.0996 13.6986H25.8837L26.009 13.5305L26.0996 13.093L26.2423 13.0051L25.8393 12.5943L25.525 12.6994L25.4537 12.9917L25.2608 13.2038L25.0545 13.0357L24.9812 12.8561L25.0989 12.7835L25.1644 12.9019L25.2608 12.8656L25.2184 12.6746H25.0815L25.0719 12.7548L24.9812 12.772L24.4895 12.2008L24.3237 12.0766L24.3873 12.0078L24.5339 11.9581L24.3989 11.9046C24.3989 11.9046 24.2273 11.9428 24.206 11.9428L24.3044 12.0651H24.0576C23.9093 11.8429 23.7442 11.6322 23.5639 11.4346ZM24.3603 19.6786L24.1482 19.4685L24.3102 19.2602L24.5146 18.8475L24.4355 18.7329L24.5705 18.4272L24.5551 18.1521L24.4741 17.8674L24.2812 17.8006L24.2099 17.961L24.0942 17.9305C24.2721 17.6778 24.427 17.4099 24.557 17.13L24.7498 17.0459L24.8617 16.8969L24.9157 16.958L25.0506 16.7975L24.9427 16.6638L25.041 16.637L25.2223 16.7096H25.5636L25.7699 16.6027L26.3098 16.4613L26.2076 16.2836L26.1729 16.0677L26.4622 16.1938L26.5701 16.1307L26.5162 15.9091L26.1671 16.0486L25.7815 15.9684L25.4845 15.3665H27.1756C27.1029 17.2302 26.3435 19.0028 25.041 20.3492L24.8096 20.118L24.9099 19.8105L24.7286 19.1322L24.3603 19.6786ZM24.6592 23.9525L24.8675 23.5093L24.7865 23.3182L25.0931 23.0507V22.8902L24.8308 22.7278L25.0468 22.3018L25.3707 21.8815L25.0468 21.5357H24.8038L24.6534 21.293C24.7826 21.186 24.9118 21.0771 25.0391 20.9625L26.6029 22.512C26.0136 23.0657 25.3613 23.5498 24.6592 23.9544V23.9525ZM26.6106 21.9082L26.7842 21.7172L26.6203 20.8689L26.5084 20.8249L26.5779 20.6817L26.2076 20.567L26.1363 20.8689L26.0996 21.251L26.0225 21.3217L25.3476 20.653C26.732 19.2262 27.5378 17.3444 27.6114 15.3665H29.8232C29.7501 17.9259 28.7112 20.3651 26.9115 22.2024L26.6106 21.9082ZM27.22 22.51C29.1015 20.5914 30.1868 18.0425 30.2609 15.3684H32.4708C32.3971 18.6236 31.0794 21.7297 28.7838 24.0595L27.22 22.51ZM13.9147 20.3874C13.7546 20.2231 13.6023 20.0531 13.4557 19.8754L13.5232 19.3214L13.2899 18.7902L13.232 17.9591L12.9698 17.4548L13.0238 17.1414L12.7075 16.5396L12.4318 16.402L12.5436 16.083L12.4299 15.8308L12.5436 15.5423H12.8464L12.9524 15.3684H13.4692L13.5483 15.5194L13.4519 16.0486L13.3902 16.1384L13.583 16.5568L13.4557 16.6256L13.367 16.5148L13.3285 16.5568L13.4172 16.8052L13.5695 17.0956H13.6408L13.691 16.8128L13.6177 16.7173V16.5415L13.5946 16.1785L13.691 15.5404L13.5869 15.3684H13.9571C14.0286 16.6687 14.5685 17.9004 15.4785 18.8399L13.9147 20.3874ZM12.4492 16.1059L12.2409 16.4307H11.8822L11.8533 16.4097C11.7925 16.0655 11.7551 15.7176 11.7415 15.3684H12.4067L12.2467 15.8958L12.4492 16.1059ZM13.1761 14.6023L13.2166 14.1667L13.4789 14.0158L13.9474 14.0979L14.0188 14.182C13.9765 14.4308 13.9526 14.6824 13.9474 14.9347H13.4172L13.1761 14.6023ZM15.4265 16.2396L15.5364 16.1842L15.8121 16.4001L15.6868 16.5014L16.0127 16.7154L16.005 16.4861L16.1785 16.2014L16.3598 16.3925L16.5526 16.6561L16.1978 16.7287L16.3501 17.0306L16.5834 16.9083L16.5603 16.8128L16.7339 16.6963L16.8361 16.2186C16.9625 16.4988 17.1337 16.7568 17.3432 16.9828L15.7813 18.5304C15.0153 17.7361 14.5343 16.7144 14.4122 15.6225L14.7323 15.9607H15.0331L15.4265 16.2396ZM13.8183 9.84698L15.3802 11.3964C15.0529 11.7531 14.7741 12.1507 14.551 12.579H14.443L14.2232 12.6459H14.1461L13.9127 12.8618L14.2078 12.8007L14.4739 12.7338L14.4276 12.8351L14.1943 12.9764H14.0766L13.7334 13.2363L13.4017 13.2095L12.9216 14.096L13.0161 14.2737L12.7558 14.5603L12.7153 14.9424H11.7357C11.7664 13.0465 12.5089 11.2299 13.8183 9.84698ZM11.7993 21.5299L12.2949 21.8184L12.3971 21.8872L12.0384 22.2426C11.8713 22.0706 11.7093 21.8929 11.5525 21.7095L11.7993 21.5299ZM11.3037 15.3684C11.3037 15.5805 11.3307 15.7926 11.3539 16.0008L11.0839 16.062L11.028 16.3333L10.4649 17.044L10.4784 18.0203L9.89993 18.2113H9.58369C9.2841 17.291 9.11789 16.3332 9.09004 15.3665L11.3037 15.3684ZM9.12089 18.1999L8.9917 18.175L8.87021 18.0394L8.2493 17.9859L8.44213 18.2438L7.86364 18.1368L8.01405 17.9993L7.87328 17.8617L7.45869 18.0413L7.31021 18.3126L7.36806 18.9373L7.84628 20.0607L8.07575 20.4161L8.20688 20.4639L7.84628 19.7856L7.76722 19.4398L7.84821 19.3557L7.79808 19.1647L8.01597 19.1933L8.34957 19.6939L8.43249 19.7264V19.3615L8.56747 19.4398L8.5964 19.6309L8.94735 19.7226L9.0939 19.6194L9.14403 19.6538V19.9194L9.2983 20.1104L9.49113 20.1524L9.89993 20.8383L10.1487 20.9071L10.2258 20.5861C10.6566 21.2914 11.1677 21.9453 11.7492 22.5349L10.1872 24.0824C7.86575 21.7554 6.52661 18.6393 6.44248 15.3684H8.65424C8.6804 16.3288 8.83736 17.2812 9.12089 18.1999ZM10.085 6.13861L11.647 7.68615C9.75775 9.63923 8.68681 12.2298 8.65039 14.9347H6.44055C6.47337 11.6503 7.77399 8.50283 10.0754 6.13861H10.085ZM26.09 5.34001L25.9569 5.12603L25.6677 4.98274L25.4421 5.15277L25.7313 5.30562L26.0418 5.54061L26.09 5.34001ZM24.7383 11.5206V11.6887L25.1239 11.576L25.2415 11.3448L24.9774 11.0009L25.1181 10.7908L25.4749 11.043L25.5404 10.9914L25.4691 10.9417L25.3881 10.7889L25.5346 10.7048L25.392 10.5138L25.0564 10.6819L24.9446 10.8901L24.8771 11.0716L25.0256 11.3181L24.9716 11.4327L24.7383 11.5206ZM8.75259 21.3446L8.78151 21.2453L8.58868 20.8173L8.35343 20.7313L8.75259 21.3446ZM17.7925 13.114C17.7925 13.4808 18.0181 13.7407 18.4288 13.9642C18.4288 13.9642 18.4288 13.9011 18.4288 13.7999L18.1704 13.5439L18.3074 13.2974L18.4192 13.2668C18.4192 12.8389 18.4018 12.3593 18.3999 12.2906H18.3806C17.9988 12.5007 17.7925 12.7529 17.7925 13.114Z" fill="white"/>
<path d="M20.2607 22.6054C20.9549 22.9531 21.5951 23.4346 21.8632 24.3459C21.9808 22.8366 21.1266 22.1832 20.28 21.7418C20.28 21.7437 20.2607 22.6073 20.2607 22.6054Z" fill="white"/>
<path d="M24.875 7.29828C24.875 5.92842 23.8723 4.40763 21.4137 3.87076C21.1658 3.82631 20.9152 3.7976 20.6636 3.78479C20.6636 3.99113 20.6482 4.46494 20.6482 4.46494C20.6482 4.61397 20.6327 5.16229 20.6289 5.28074C20.7877 5.29164 20.9455 5.31334 21.1013 5.3457C22.5302 5.68387 23.0412 6.49203 23.0412 7.29828C23.0412 8.59936 21.9189 9.09036 20.5344 9.46101L20.0774 9.57946C19.6589 9.68263 19.2289 9.78198 18.8028 9.8947C18.6504 9.93482 18.5 9.97877 18.3496 10.0227C16.8205 10.4851 15.5054 11.2149 15.5054 13.0796C15.5054 14.9443 17.0056 15.6282 18.4692 16.0753C18.4602 15.5416 18.4499 15.0054 18.4383 14.4666C17.7923 14.1667 17.3373 13.7712 17.3373 13.1063C17.3373 12.4415 17.7518 12.0632 18.3863 11.7689C18.527 11.7059 18.6774 11.6486 18.8375 11.5951C19.2019 11.4728 19.6088 11.3677 20.0427 11.2646L20.4997 11.1557C22.561 10.678 24.875 10.038 24.875 7.29828Z" fill="white"/>
<path d="M17.4629 20.3798C17.4629 21.1287 18.0221 21.5261 18.5794 21.8451C18.5794 21.719 18.5562 20.5594 18.5562 20.5402C18.5678 20.3091 18.7934 20.1696 18.9766 20.0836C19.2656 19.957 19.561 19.8454 19.8617 19.7493C20.0275 19.692 20.1683 19.6366 20.3264 19.5907C21.4449 19.2564 22.7387 18.8265 22.7387 17.4891C22.7387 16.1517 21.63 15.5786 20.4248 15.1716C20.4248 15.6015 20.4036 16.2301 20.3939 16.6638C20.9069 16.8548 21.2462 17.1051 21.2462 17.4891C21.2462 17.9725 20.7256 18.2533 20.3573 18.3909C20.203 18.4501 19.9716 18.5265 19.9041 18.5476C19.6072 18.6393 19.2871 18.7386 18.9882 18.8532C18.8337 18.9085 18.6824 18.9723 18.535 19.0443C18.0028 19.3079 17.461 19.6958 17.4629 20.3798Z" fill="white"/>
<path d="M18.2208 3.99878C17.7566 4.14343 17.3052 4.32554 16.871 4.54328C16.3889 4.70186 15.714 4.73434 15.0063 5.48709C14.7774 5.74783 14.563 6.02081 14.3642 6.3048C14.1521 6.60667 14.1424 7.09195 13.9785 7.35369C13.7548 7.7358 13.8088 7.94787 13.8088 7.94787V7.95933C13.7674 8.13745 13.6781 8.30116 13.5504 8.43315C13.4445 8.56438 13.306 8.66613 13.1485 8.72842C12.991 8.79071 12.8199 8.81141 12.6519 8.78851C12.972 8.94708 13.4232 8.72546 13.4232 8.72546C13.3548 8.93233 13.2982 9.14281 13.2535 9.35594C13.6122 8.5516 13.9419 8.25738 14.0441 8.17522C14.1984 8.20961 14.5185 8.19624 15.1124 7.85807C15.7834 7.47597 16.7919 6.85504 17.0773 6.46147C17.3783 6.05782 17.7909 5.74924 18.2652 5.57307C18.2439 4.96742 18.2324 4.44394 18.2208 3.99878ZM15.3901 6.51114L15.041 6.58565L15.4575 5.9227L15.9435 5.93798L15.3901 6.51114Z" fill="white"/>
<path d="M19.6071 20.2861C19.5415 20.3091 19.3738 20.3797 19.2677 20.416C19.1617 20.4523 19.0132 20.5135 19.0132 20.5517C19.0132 20.5899 19.1212 26.3617 19.1212 26.4897C19.1212 27.6837 19.7344 27.6914 19.7344 26.4897C19.7344 26.4037 19.8578 20.204 19.8578 20.204C19.8578 20.204 19.7112 20.2517 19.6071 20.2861Z" fill="white"/>
<path d="M18.9706 18.3717C19.1634 18.3067 19.3562 18.2494 19.5298 18.194L19.902 18.0794C19.902 17.7145 20.0138 12.6668 20.0331 11.7498C19.6321 11.8417 19.2362 11.9546 18.8472 12.0879C18.8607 12.7757 18.9609 17.8215 18.9706 18.3717Z" fill="white"/>
<path d="M19.4758 -0.955322C17.7519 -0.955322 18.4846 1.57806 18.6215 2.40341C18.6215 2.44353 18.7604 8.13504 18.7874 9.4323C19.0496 9.36352 19.3099 9.30047 19.5587 9.24124L20.0793 9.11133C20.1044 7.8561 20.2317 2.42443 20.2355 2.39577C20.3493 1.51119 21.2518 -0.955322 19.4758 -0.955322Z" fill="white"/>
</g>
<defs>
<clipPath id="clip0">
<path d="M0 0H112V34H0V0Z" fill="white"/>
</clipPath>
</defs>
</svg>
