<svg width="60" height="148" viewBox="0 0 60 148" fill="none" xmlns="http://www.w3.org/2000/svg">
<path d="M53.0531 104.515H51.5951H8.37763H6.93359L7.09876 103.081L12.4526 56.5654L12.5838 55.4253H13.7315H45.788H46.9246L47.0654 56.5532L52.8725 103.069L53.0531 104.515Z" fill="#6AC7FA"/>
<path d="M13.7312 56.7127L8.37732 103.228H51.5947L45.7877 56.7127H13.7312ZM11.4359 54.1379H13.7312H45.7877H48.061L48.3426 56.3937L54.1497 102.909L54.5109 105.803H51.5947H8.37732H5.48926L5.81943 102.934L11.1733 56.4182L11.4359 54.1379Z" fill="#111111"/>
<path d="M56.7129 3.28735H3.2876V56.7126H56.7129V3.28735Z" fill="white"/>
<path d="M58 2H2V58H58V2Z" stroke="#111111" stroke-width="2.57471"/>
<path d="M21.3951 105.577V142.202L14.8418 145.742" stroke="#111111" stroke-width="2.57471" stroke-linecap="round"/>
<path d="M38.0146 105.577V142.202L44.5679 145.742" stroke="#111111" stroke-width="2.57471" stroke-linecap="round"/>
<path d="M29.6784 20.3449C29.6784 19.4562 28.9579 18.7357 28.0692 18.7357C27.1804 18.7357 26.46 19.4562 26.46 20.3449V22.2759C26.46 23.1647 27.1804 23.8851 28.0692 23.8851C28.9579 23.8851 29.6784 23.1647 29.6784 22.2759V20.3449Z" fill="#111111"/>
<path d="M45.7701 20.3449C45.7701 19.4562 45.0497 18.7357 44.161 18.7357C43.2722 18.7357 42.5518 19.4562 42.5518 20.3449V22.2759C42.5518 23.1647 43.2722 23.8851 44.161 23.8851C45.0497 23.8851 45.7701 23.1647 45.7701 22.2759V20.3449Z" fill="#111111"/>
<path d="M21.9287 27.6552L35.1569 33.2487" stroke="#111111" stroke-width="2.57471" stroke-linecap="round"/>
<path d="M11.3584 57.1066L18.3823 80.9728L38.6465 74.0919L46.4099 77.8181" stroke="#111111" stroke-width="2.57471" stroke-linecap="round"/>
<path d="M48.3405 56.463L41.3167 80.3292L21.053 73.4484L13.2896 77.1746" stroke="#111111" stroke-width="2.57471" stroke-linecap="round"/>
</svg>
