<svg width="127" height="177" viewBox="0 0 127 177" fill="none" xmlns="http://www.w3.org/2000/svg">
<path d="M99.9368 175.288H98.8482H28.978H27.8936L28.0255 174.212L36.7554 102.984L36.8587 102.142H37.7079H89.8415H90.6874L90.7935 102.981L99.8002 174.208L99.9368 175.288Z" fill="#4ACA8C"/>
<path d="M37.7078 103.101L28.9779 174.329H98.8482L89.8414 103.101H37.7078ZM36.0094 101.182H37.7078H89.8414H91.5332L91.7455 102.86L100.752 174.088L101.025 176.248H98.8482H28.9779H26.8091L27.0729 174.095L35.8028 102.868L36.0094 101.182Z" fill="#111111"/>
<path d="M36.2284 103.017L2 131.033L28.3039 162.612L19.3099 170.727" stroke="#111111" stroke-width="1.91922" stroke-linecap="round"/>
<path d="M90.7642 103.017L124.993 131.033L98.6886 162.612L107.683 170.727" stroke="#111111" stroke-width="1.91922" stroke-linecap="round"/>
<path d="M49.0103 108.128C49.0103 108.128 47.5762 124.283 62.7572 124.25C77.9383 124.216 76.8357 108.128 76.8357 108.128" stroke="#111111" stroke-width="1.91922" stroke-linecap="round"/>
<path d="M62.9141 124.25C62.9141 124.25 62.8513 137.287 62.9141 142.531C62.977 147.775 55.8418 152.354 55.8418 152.354" stroke="#111111" stroke-width="1.91922" stroke-linecap="round"/>
<path d="M48.9753 158.966C51.6252 158.966 53.7734 156.818 53.7734 154.168C53.7734 151.518 51.6252 149.37 48.9753 149.37C46.3254 149.37 44.1772 151.518 44.1772 154.168C44.1772 156.818 46.3254 158.966 48.9753 158.966Z" fill="white"/>
<path d="M48.975 159.926C52.1548 159.926 54.7326 157.348 54.7326 154.168C54.7326 150.988 52.1548 148.411 48.975 148.411C45.7951 148.411 43.2173 150.988 43.2173 154.168C43.2173 157.348 45.7951 159.926 48.975 159.926Z" stroke="#111111" stroke-width="1.91922"/>
<path d="M63.8484 110.986C89.2874 110.986 109.91 90.3634 109.91 64.9245C109.91 39.4855 89.2874 18.8632 63.8484 18.8632C38.4095 18.8632 17.7871 39.4855 17.7871 64.9245C17.7871 90.3634 38.4095 110.986 63.8484 110.986Z" fill="white"/>
<path d="M63.8486 111.945C89.8175 111.945 110.87 90.8934 110.87 64.9245C110.87 38.9556 89.8175 17.9036 63.8486 17.9036C37.8796 17.9036 16.8276 38.9556 16.8276 64.9245C16.8276 90.8934 37.8796 111.945 63.8486 111.945Z" stroke="#111111" stroke-width="1.91922"/>
<path d="M39.7588 54.4681C39.7588 54.4681 43.294 58.4404 50.2315 58.319C57.169 58.1976 61.398 52.5479 61.398 52.5479" stroke="#111111" stroke-width="1.91922" stroke-linecap="round"/>
<path d="M34.4761 41.4788C34.4761 41.4788 34.846 46.0038 38.8457 45.903C42.8453 45.8023 43.02 41.4788 43.02 41.4788" stroke="#111111" stroke-width="1.91922" stroke-linecap="round"/>
<path d="M58.4663 41.4788C58.4663 41.4788 58.8362 46.0038 62.8359 45.903C66.8356 45.8023 67.0102 41.4788 67.0102 41.4788" stroke="#111111" stroke-width="1.91922" stroke-linecap="round"/>
<path d="M43.019 1H83.8745V21.7789H43.019V1Z" fill="#4ACA8C" stroke="#111111" stroke-width="1.91922"/>
<path d="M44.3101 1H82.3332C82.3332 1 73.6866 10.2123 63.0762 10.2463C52.4658 10.2804 44.3101 1 44.3101 1Z" fill="#4ACA8C" stroke="#111111" stroke-width="1.91922" stroke-linecap="round"/>
</svg>
