<?xml version="1.0" encoding="utf-8"?>
<!-- Generator: Adobe Illustrator 22.1.0, SVG Export Plug-In . SVG Version: 6.00 Build 0)  -->
<svg version="1.1" id="Layer_1" xmlns="http://www.w3.org/2000/svg" xmlns:xlink="http://www.w3.org/1999/xlink" x="0px" y="0px"
	 viewBox="0 0 588.3 180.1" style="enable-background:new 0 0 588.3 180.1;" xml:space="preserve">
<style type="text/css">
	.st0{fill:#009CDE;}
</style>
<title>Asset 3</title>
<g id="Layer_2_1_">
	<g id="Layer_1-2">
		<path class="st0" d="M250,42.7h-0.1l-8,41.8h-11l-10.4-51h8.8l7.2,39.3h0.1l7.7-39.3h11.4l7.6,39.3h0.1l7.5-39.3h8.5l-10.5,51
			h-11.2L250,42.7z"/>
		<path class="st0" d="M292.6,46.2c7.7,0,16.5,4,16.5,19.3c0,15.8-8.8,19.4-16.5,19.4s-16.6-3.7-16.6-19.4
			C276.1,50.2,285,46.2,292.6,46.2z M292.6,78.6c5.8,0,7.2-6.7,7.2-13s-1.3-12.9-7.2-12.9s-7.2,6.6-7.2,12.9S286.8,78.6,292.6,78.6z
			"/>
		<path class="st0" d="M313.6,53c0-2.1-0.1-4.1-0.3-6.2h8.2c0.1,2.3,0.3,4.6,0.3,6.9h0.1c1.1-2.9,3.9-7.4,9.6-7.4
			c0.5,0,1,0.1,1.5,0.2v8.5c-0.8-0.2-1.7-0.4-2.5-0.4c-3.7,0-7.8,2.3-7.8,9.3v20.6h-9L313.6,53z"/>
		<path class="st0" d="M336.9,29.7h9.1v54.7h-9.1V29.7z"/>
		<path class="st0" d="M382.9,29.7V78c0,2.1,0.1,4.3,0.3,6.4h-8.5c-0.2-1.9-0.3-3.9-0.3-5.8h-0.2c-1.5,3.2-4.2,6.4-10,6.4
			c-9.3,0-13.2-8.9-13.2-19.3c0-12.3,4.9-19.4,13-19.4c4.2-0.2,8,2.2,9.7,6h0.1V29.7H382.9z M366.6,78.3c5.3,0,7.1-5.8,7.1-12.8
			c0-7.3-2-12.6-7-12.6s-6.8,4.9-6.8,12.4C360,74,361.4,78.3,366.6,78.3z"/>
		<path class="st0" d="M409.8,33.5h9.4v20.7h15.1V33.5h9.3v51h-9.3V61.9h-15.1v22.5h-9.4V33.5z"/>
		<path class="st0" d="M476.7,82.6c-3.5,1.6-7.4,2.4-11.2,2.4c-12.1,0-17.4-8.7-17.4-18.8c0-11.2,5.9-19.9,15.5-19.9
			c8.1,0,15,4.7,15,20.1v1.8h-21.7c0,6.4,2.6,10.3,9.6,10.3c5.5,0,8.2-1.7,9.9-2.9L476.7,82.6z M469.8,62.4c0-6.6-2.2-10-6.3-10
			c-4.8,0-6.7,5-6.7,10H469.8z"/>
		<path class="st0" d="M484.4,49c3.7-1.8,7.8-2.8,11.9-2.8c11.7,0,14.4,5.7,14.4,15.1v16.4c0,2.2,0.2,4.4,0.5,6.6H503
			c-0.4-1.7-0.6-3.4-0.5-5.1h-0.1c-2.3,3.1-5.1,5.7-10.5,5.7c-5.8,0-11.2-4-11.2-11c0-10.2,8.3-12.8,19.8-12.8h1.8v-1.4
			c0-3.7-1.8-7.2-7-7.2c-3.7,0.1-7.3,1.4-10.3,3.7L484.4,49z M502.2,66h-0.8c-7.7,0-12.3,1.6-12.3,7.1c-0.2,3,2.1,5.6,5.1,5.8
			c0.2,0,0.5,0,0.7,0c5.4,0,7.4-4,7.4-10.7V66z"/>
		<path class="st0" d="M519,29.7h9v54.7h-9V29.7z"/>
		<path class="st0" d="M538.4,39.1l9-2.8v10.5h7.5v6.6h-7.5V73c0,4,1.5,5.2,4.1,5.2c1.2,0,2.4-0.3,3.4-0.8v6.4
			c-1.9,0.8-4,1.2-6.1,1.2c-6.7,0-10.5-3.1-10.5-11V53.5h-6v-6.6h6V39.1z"/>
		<path class="st0" d="M557.8,29.7h9v22h0.2c1.6-2.3,3.7-5.4,9.3-5.4c8.5,0,11.1,6.3,11.1,13.9v24.2h-9V61.9c0-5.8-1.5-8.2-5.2-8.2
			c-4.7,0-6.4,4-6.4,8.8v21.9h-9L557.8,29.7z"/>
		<path class="st0" d="M241.2,98c10.6,0,20.3,7.9,20.3,26.2s-9.7,26.2-20.3,26.2s-20.3-7.9-20.3-26.2S230.6,98,241.2,98z
			 M241.2,143.3c5.9,0,10.7-5,10.7-19.1s-4.8-19-10.7-19s-10.7,5-10.7,19S235.3,143.3,241.2,143.3L241.2,143.3z"/>
		<path class="st0" d="M265.3,118.3c0-2.1-0.1-4.1-0.3-6.2h8.2c0.1,2.3,0.3,4.6,0.3,6.9h0.1c1.1-2.9,4-7.4,9.6-7.4
			c0.5,0,1,0.1,1.5,0.2v8.5c-0.8-0.2-1.7-0.4-2.6-0.4c-3.7,0-7.8,2.3-7.8,9.3v20.6h-9L265.3,118.3z"/>
		<path class="st0" d="M289.1,155.6c3.4,2,7.2,3.1,11.1,3.2c8.5,0,9.9-5.9,9.9-11.8v-3.6H310c-1.5,2.9-4,6.4-9.9,6.4
			c-5.2,0-13.1-3.5-13.1-18.7c0-10.4,3.7-19.5,13.6-19.5c5.5,0,8,3.1,9.9,6.4h0.3c0-2,0.2-3.9,0.3-5.8h8.2c-0.1,2-0.3,3.9-0.3,5.9
			v27.7c0,11.8-3.6,20.1-17.4,20.1c-4.4,0-8.8-0.8-12.9-2.3L289.1,155.6z M302.2,143.1c5.7,0,8-4.1,8-12.6c0-7.9-3-12.1-7.3-12
			c-4.8,0.1-6.6,4.5-6.6,12.1C296.3,139.4,299.1,143.1,302.2,143.1z"/>
		<path class="st0" d="M327,114.3c3.7-1.9,7.8-2.8,11.9-2.8c11.7,0,14.4,5.7,14.4,15.1v16.4c0,2.2,0.2,4.4,0.5,6.6h-8.2
			c-0.4-1.7-0.6-3.4-0.5-5.1H345c-2.3,3.1-5.1,5.7-10.5,5.7c-5.8,0-11.2-4-11.2-11c0-10.2,8.3-12.8,19.8-12.8h1.8v-1.4
			c0-3.7-1.8-7.2-7-7.2c-3.7,0.1-7.3,1.4-10.3,3.7L327,114.3z M344.8,131.3H344c-7.7,0-12.3,1.6-12.3,7.1c-0.2,3,2.1,5.6,5.1,5.8
			c0.2,0,0.4,0,0.7,0c5.4,0,7.4-4,7.4-10.7L344.8,131.3z"/>
		<path class="st0" d="M360.6,118.3c0-2.1-0.1-4.1-0.3-6.2h8.5c0.1,1.9,0.3,3.9,0.3,5.8h0.1c1.3-2.3,3.9-6.3,10-6.3
			c8.5,0,11.1,6.3,11.1,13.9v24.2h-9.1v-22.6c0-5.8-1.5-8.2-5.2-8.2c-4.7,0-6.4,4-6.4,8.8v21.9h-9L360.6,118.3z"/>
		<path class="st0" d="M397.2,96.1h9.4v8.9h-9.4V96.1z M397.4,112.1h9v37.6h-9V112.1z"/>
		<path class="st0" d="M413.5,141.9l16.1-22.9H414v-6.9h24.6v7.7l-15.8,23h16.3v6.9h-25.7V141.9z"/>
		<path class="st0" d="M446,114.3c3.7-1.9,7.8-2.8,11.9-2.8c11.7,0,14.4,5.7,14.4,15.1v16.4c0,2.2,0.2,4.4,0.5,6.6h-8.2
			c-0.4-1.7-0.6-3.4-0.5-5.1H464c-2.3,3.1-5.1,5.7-10.5,5.7c-5.8,0-11.2-4-11.2-11c0-10.2,8.3-12.8,19.8-12.8h1.8v-1.4
			c0-3.7-1.8-7.2-7-7.2c-3.7,0.1-7.3,1.4-10.3,3.7L446,114.3z M463.8,131.3H463c-7.7,0-12.3,1.6-12.3,7.1c-0.2,3,2.1,5.6,5.1,5.8
			c0.2,0,0.4,0,0.7,0c5.4,0,7.4-4,7.4-10.7V131.3z"/>
		<path class="st0" d="M482.1,104.4l9-2.8v10.5h7.5v6.6h-7.5v19.5c0,4,1.5,5.2,4.1,5.2c1.2,0,2.4-0.2,3.4-0.8v6.4
			c-1.9,0.9-4,1.3-6.1,1.2c-6.7,0-10.5-3.1-10.5-10.9v-20.6h-6v-6.6h6L482.1,104.4z"/>
		<path class="st0" d="M504.1,96.1h9.3v8.9h-9.3L504.1,96.1z M504.3,112.1h9.1v37.6h-9L504.3,112.1z"/>
		<path class="st0" d="M534.9,111.5c7.7,0,16.5,4,16.5,19.3c0,15.8-8.8,19.4-16.5,19.4s-16.6-3.6-16.6-19.4
			C518.4,115.6,527.3,111.5,534.9,111.5z M534.9,143.9c5.8,0,7.2-6.7,7.2-13s-1.3-12.9-7.2-12.9s-7.2,6.6-7.2,12.9
			S529.1,143.9,534.9,143.9z"/>
		<path class="st0" d="M558.6,118.3c0-2.1-0.1-4.1-0.3-6.2h8.5c0.1,1.9,0.3,3.9,0.3,5.8h0.1c1.3-2.3,3.9-6.3,10-6.3
			c8.5,0,11.1,6.3,11.1,13.9v24.2h-9v-22.6c0-5.8-1.5-8.2-5.2-8.2c-4.7,0-6.4,4-6.4,8.8v21.9h-9L558.6,118.3z"/>
		<g id="g640">
			<path id="path642" class="st0" d="M165.9,33c3.9,4.7,10.7,7.4,14.7,12.1c-2.9-13.8-13.5-25.1-26.1-27.8
				C160.7,21.9,162,28.3,165.9,33 M14.7,68c8.7-18.9,21.6-14.9,27.1-32.8C38.6,40.6,24.5,42.9,18,57c3.4-8.4,1.7-21.2,7.3-28.2
				C8.4,41.4,15.6,61.6,14.7,68 M30.3,113.2c1.6,7.3-3,18,4.3,28.1c-7.5-8.4-23.5-10.6-30-23.4c8.1,31.3,29.3,24.9,38.8,31.7
				C35.6,138.3,42,130.8,30.3,113.2 M27.9,132.9c-4.7-17.5,3.6-23.6-2.7-40.4c-0.6,9.5-7,14.1-2.7,31.4C15,109.2,3.4,103.7,0,93.7
				C0.2,121.2,22.3,125.3,27.9,132.9 M61.8,162.2c-6.5-9-2.1-14.1-20.3-30.4c3.9,6-0.1,13.5,12.2,25.1c-12-7.1-28.7-4.1-36.7-13.6
				C30.8,169.7,55,158.9,61.8,162.2 M150.3,156.9c12.3-11.7,8.3-19.2,12.2-25.1c-18.3,16.3-13.8,21.4-20.4,30.4
				c6.9-3.3,31.1,7.5,44.8-18.9C179,152.9,162.3,149.8,150.3,156.9 M169.4,141.3c7.3-10.1,2.7-20.7,4.2-28.1
				c-11.7,17.6-5.3,25.1-13.1,36.4c9.6-6.8,30.7-0.4,38.8-31.7C192.8,130.7,176.9,132.9,169.4,141.3 M140.2,163.5
				c-6.5-1.7-13.2-2.8-20-3c-6.2-0.1-12.4,0.9-18.2,3.1c-5.8-2.2-12-3.2-18.2-3.1c-6.8,0.2-13.5,1.3-20,3c-11,2.9-20.5,5.2-28.8,1
				c7.9,7,17.2,9.6,30.6,8.1c11.1-1.2,20.1-6.8,30.6-6.7h0.4c-6.6,3.3-12.5,7.9-17.3,13.5l5.1,0.7c0,0,5.3-10.7,17.6-13.5
				c12.3,2.8,17.6,13.5,17.6,13.5l5.1-0.7c-4.8-5.6-10.7-10.2-17.3-13.5h0.4c10.5-0.1,19.5,5.5,30.6,6.7c13.4,1.4,22.6-1.1,30.6-8.1
				C160.7,168.7,151.2,166.4,140.2,163.5 M26,73.5c-4.5,8.7-11.6,10.7-10.8,28.6C11.4,86.2,2.3,80.2,2.4,70.1
				C-3.9,96.7,12.9,99.8,17.3,111C16.6,95,26.8,91.8,26,73.5 M32.3,53c-1.6,2.2-2.7,3.2-6.9,6.6c-6.3,5-10.7,12.1-12.2,20
				c0.4-9.8-5.6-23.8-1.6-34c-15.5,21.9,0.9,35,1.5,43C17,73.3,26.3,73.2,32.3,53 M190.8,79.6c-1.6-7.9-5.9-15-12.2-20
				c-4.2-3.5-5.3-4.4-6.9-6.6c6,20.2,15.3,20.3,19.3,35.6c0.6-7.9,17-21,1.5-43C196.5,55.8,190.5,69.8,190.8,79.6 M204,93.7
				c-3.4,10.1-15,15.5-22.5,30.2c4.3-17.3-2.1-21.9-2.7-31.4c-6.3,16.8,2,22.9-2.7,40.4C181.7,125.3,203.8,121.2,204,93.7 M178,73.5
				c-0.9,18.3,9.4,21.5,8.7,37.5c4.3-11.1,21.2-14.3,14.9-40.9c0.1,10.2-9,16.1-12.8,32.1C189.6,84.1,182.6,82.2,178,73.5 M38.1,33
				c3.9-4.7,5.2-11.1,11.4-15.7C36.8,20,26.2,31.2,23.3,45C27.3,40.3,34.2,37.6,38.1,33 M162.3,35c5.5,18,18.4,14,27.1,32.8
				c-0.9-6.3,6.3-26.6-10.6-39c5.7,6.9,4,19.8,7.3,28.2C179.5,42.9,165.4,40.6,162.3,35 M118.3,45.3c-3.3-1.4-6.8-2.3-10.3-2.8
				c0,0.8,0,1.5,0,2.3c3.3,0.5,6.5,1.4,9.5,2.6C117.9,46.7,118.2,46,118.3,45.3 M115.7,23l0.7-0.6l-1.3-0.6l-3.5-0.1l-0.9,0.6
				l-2-0.2v0.5c1.3,0.1,2.6,0.2,3.6,0.4l1.7-0.1L115.7,23z M109.1,97.6c0-0.6-0.8-1.2-1.9-1.7h-0.2c0,0.5-0.1,2.8-0.1,4
				C108.2,99.2,109.1,98.6,109.1,97.6 M69,53.7c0.1-0.4,0.2-0.9,0.3-1.3c-0.5,0.1-0.9,0.2-1.4,0.1L69,53.7z M52.9,37.6l8.2,8.2
				c-9.9,10.3-15.5,24.1-15.7,38.4H33.8C34,66.7,40.8,50.1,52.9,37.6 M47.9,101.4l-0.7-0.1l-0.7-0.7l-3.3-0.3l1,1.4l-3-0.6l0.8-0.7
				l-0.7-0.7l-2.2,0.9l-0.8,1.4l0.3,3.3l2.5,6l1.2,1.9l0.7,0.2l-1.9-3.6l-0.4-1.8l0.4-0.4l-0.3-1l1.1,0.2l1.8,2.6l0.4,0.2l0-1.9
				l0.7,0.4l0.2,1l1.8,0.5l0.8-0.6l0.3,0.2v1.4l0.8,1l1,0.2l2.2,3.6l1.3,0.4l0.4-1.7c2.3,3.7,4.9,7.2,8,10.3l-8.2,8.2
				c-12.2-12.3-19.2-28.8-19.6-46.1h11.6C45.5,91.5,46.4,96.6,47.9,101.4 M59.3,86.4c0,1.1,0.1,2.2,0.3,3.4l-1.4,0.3l-0.3,1.4
				l-3,3.8l0.1,5.2l-3,1h-1.7c-1.6-4.9-2.4-9.9-2.6-15.1H59.3z M61.9,119.1l2.6,1.5l0.5,0.4l-1.9,1.9c-0.9-0.9-1.7-1.8-2.5-2.8
				L61.9,119.1z M72.5,57.2l8.2,8.2c-1.7,1.9-3.2,4-4.3,6.3h-0.6L74.6,72h-0.4L73,73.1l1.6-0.2l1.4-0.3L75.7,73l-1.2,0.8h-0.6
				l-1.8,1.4L70.4,75l-2.5,4.7l0.5,0.9L67,82.2l-0.2,2h-5.2C61.7,74.1,65.6,64.5,72.5,57.2 M80.9,91.1l0.6-0.3l1.5,1.1l-0.7,0.5
				l1.7,1.1l-0.1-1.2l0.9-1.5l1,1l1,1.4L85,93.7l0.8,1.6l1.2-0.7l-0.2-0.5l0.9-0.6l0.5-2.5c0.7,1.5,1.6,2.9,2.7,4.1l-8.2,8.2
				c-4-4.2-6.5-9.6-7.2-15.4l1.7,1.8h1.6L80.9,91.1z M69.1,82.4l0.2-2.3l1.4-0.8l2.5,0.4l0.4,0.4c-0.2,1.3-0.3,2.7-0.4,4h-2.8
				L69.1,82.4z M65.3,90.4l-1.1,1.7h-1.9L62.2,92c-0.3-1.8-0.5-3.7-0.6-5.5h3.5l-0.8,2.8L65.3,90.4z M73,113
				c-0.8-0.9-1.7-1.8-2.4-2.7l0.4-2.9l-1.2-2.8l-0.3-4.4l-1.4-2.7l0.3-1.7l-1.7-3.2l-1.4-0.7l0.6-1.7l-0.6-1.3l0.6-1.5h1.6l0.6-0.9
				h2.7l0.4,0.8L70.6,90l-0.3,0.5l1,2.2l-0.7,0.4l-0.5-0.6l-0.2,0.2l0.5,1.3l0.8,1.5h0.4l0.2-1.4l-0.4-0.5v-0.9l-0.1-1.9l0.6-3.4
				l-0.6-0.9h1.9c0.4,6.9,3.2,13.4,8,18.4L73,113z M142.8,124.2c9.9-10.2,15.6-23.7,15.9-37.8h11.6c-0.4,17.2-7.3,33.7-19.4,46
				L142.8,124.2z M139.6,121l0.9-1l-0.9-4.5l-0.6-0.2l0.4-0.8l-1.9-0.6l-0.4,1.6l-0.2,2l-0.4,0.4l-3.5-3.5
				c7.3-7.6,11.5-17.5,11.9-28h11.6c-0.4,13.6-5.8,26.5-15.3,36.2L139.6,121z M129.4,131.9l1.1-2.3l-0.4-1l1.6-1.4v-0.8l-1.4-0.9
				l1.1-2.3l1.7-2.2l-1.7-1.8h-1.3l-0.8-1.3c0.7-0.6,1.4-1.2,2-1.8l8.2,8.2C136.5,127.2,133.1,129.8,129.4,131.9 M127.8,109.3
				l-1.1-1.1l0.8-1.1l1.1-2.2l-0.4-0.6l0.7-1.6l-0.1-1.5l-0.4-1.5l-1-0.3l-0.4,0.8l-0.6-0.2c0.9-1.3,1.7-2.8,2.4-4.2l1-0.4l0.6-0.8
				l0.3,0.3l0.7-0.8l-0.6-0.7l0.5-0.1l0.9,0.4h1.8l1.1-0.6l2.8-0.8l-0.5-0.9l-0.2-1.1l1.5,0.7l0.6-0.3l-0.3-1.2l-1.9,0.7l-2-0.4
				l-1.6-3.2h8.9c-0.4,9.9-4.4,19.3-11.2,26.4l-1.2-1.2l0.5-1.6l-0.9-3.6L127.8,109.3z M123.6,65.7l8.2-8.2c1.9,2.1,3.6,4.4,5.1,6.8
				l-1,0.3l0.1,1.8l3,1.9c0.8,1.7,1.4,3.4,1.9,5.2l-0.5,0.8l-1.1,0.8l-0.3,1.7l-0.8,0.4l-0.6,0.8l-0.6-0.3h-1.1l0.6-0.9l0.5-2.3
				l0.8-0.5l-2.2-2.1l-1.6,0.6l-0.4,1.6l-1,1.1l-1.1-0.9l-0.4-1l0.6-0.4l0.3,0.6l0.5-0.2l-0.2-1h-0.7v0.4l-0.5,0.1l-2.5-3l-0.9-0.7
				l0.3-0.3l0.8-0.3l-0.8-0.3c0,0-0.9,0.2-1,0.2l0.5,0.7h-1.3C125.4,67.8,124.6,66.7,123.6,65.7 M124.9,110.4l-2.5-0.7l-0.8,0.3
				l-1.4-1.1l-1.3-0.5c0.7-0.5,1.3-1,1.9-1.5l2.1,1.5l1.6,0.8l0.8,0.8L124.9,110.4z M120.5,71.9l1-0.2v-0.2l-1-0.7l0.3-2.2l1.2-1.3
				c0.8,0.9,1.5,1.8,2.2,2.8l-0.4,1.3l-1.1-0.8l-0.9,0.2l0.4,0.8h0.4l-0.5,1.2l-0.3-0.5L120.5,71.9z M134.4,79.9l2.1-1.1l2.1-0.3
				l0.5-1l1.2-0.7l0.5-1l0.4-1.7c0.2,0.6,0.3,1.2,0.5,1.8l-1.1,3.3v1.1L142,78c0.3,2,0.5,4.1,0.6,6.1h-10.2l-0.2-0.9l1.2-0.9
				l0.2-0.6l0.5-0.4l1.4-0.2l0.1-0.6L134.4,79.9z M136.7,52.7l2.8,0.1l0.7,0.8l-0.3,1.2l3.9,2.4l0.8-0.1l4.9,5.7l2-0.7
				c3.2,6.9,4.9,14.5,5,22.1h-11.6c0-3-0.4-5.9-1.1-8.8l0.5-0.7L145,71l-0.5-3.9l-1.4-4.5l-3.2-4.7l0.8,0.4l0.4-0.4l-2.6-1.8
				l-0.2,0.6l2.6,3.7l1.5,3l1,3l0.3,2l0.5,3.4l-1,0.1c0,0-1.1-2.1-1.5-3l0.5-0.8l-1-1.4v-1.3l-0.7-0.9l-0.9,0.1
				c-0.3-0.6-0.6-1.2-1-1.7l0.6,0.3l0.2-0.2l-0.3-0.7l0.8-0.4l-0.3-0.4l-1.1,0.4l0.4-1.8l-0.7-0.4l-0.6,1.4
				c-1.3-1.9-2.7-3.7-4.2-5.4L136.7,52.7z M151.5,37.8c12,12.5,18.7,29.1,18.9,46.4h-11.6c-0.1-8.6-2.1-17.1-6-24.8l0.1-0.2l0.8,0.4
				l0.2-0.6l-2.1-3.6l-2.5-3.4l-2.9-2.4c-1-1.2-2-2.4-3.1-3.6L151.5,37.8z M117.3,106.7L117.3,106.7L117.3,106.7L117.3,106.7
				 M102.1,155.4c39,0,70.6-31.7,70.5-70.7c0-36.2-27.4-66.5-63.4-70.2l-0.1,0.4c-0.1,0.7-0.3,1.3-0.4,1.9
				c15.5,1.5,30,8.3,41.1,19.2l-7.8,7.8l0.3-1.4l-1-0.5L140,42l0.3-0.9l-0.9-3.2l-1.9-2.1l-6.1-3.2l-0.5,0.6l-1.1,0.3
				c2.1,3,3.2,6.6,3.2,10.2c0,0.5,0,0.9,0,1.4l3,3.8l-1.4,0.3l0.9,1.4l-2.7,2.7l-1.1-2c-0.5,1.4-1.2,2.8-2,4l0.6,0.5L122,64
				c-0.5-0.5-1-0.9-1.5-1.4c-0.8,0.4-1.6,0.7-2.4,1l0.7,0.5l-0.4,0.4l-1,0.5l-0.4,1l-0.6-0.6l-1.7,0.6l0.5,0.8l1.2-0.3l0.8,0.1
				l0.1-0.4l0.6-0.3l0.2-0.3l1.1-0.3h0.8l0.5,0.4l-3.2,3.3l-0.2-0.3l-3.4,0.6l-0.8,0.8l-0.7,0.1l2.1-2l-0.8-0.4l-2,2.6l0.6-0.1v1
				l0.7,0.3l0.1,1l-1.2-0.2l-1.2,0.2l-3-1.5c0,0-0.2,8-0.2,12c7,2.4,14.5,5.8,14.5,14.8c0.1,3.8-1.9,7.4-5.1,9.5l0,0l-0.2,0.1l0,0
				l-0.2,0.2c-2.8,1.9-6.5,2.9-9.7,3.9l-0.1,6.3c5.1,2.5,11.2,6.2,10.6,16.6c-0.1,2.6-1.1,3.3-1.9,3.5l0,0c-3,0.7-6.1,1.2-9.1,1.4
				c0,0.8,0,1.6,0,2.3c13.2-0.9,25.6-6.4,35.2-15.5l8.2,8.2c-26.3,25.4-68,25.4-94.4,0.2l8.2-8.2c9.5,8.9,21.8,14.3,34.8,15.3
				c0-0.7,0-1.5,0-2.3c-12.4-1-24-6.1-33-14.7l2.1-2.2l3,0.3l1.6-1.7l4.2,0.2l0.6-1.5l-0.2-0.6c6.2,4.7,13.6,7.7,21.4,8.5
				c0-0.9,0-1.7,0-2.3c-8.6-1-16.6-4.6-23-10.5l8.2-8.2c2,1.8,4.2,3.3,6.7,4.5c0.2-0.8,0.4-1.5,0.8-2.2c-2.1-1.1-4.1-2.4-5.8-3.9
				l8.2-8.2c1.3,1,2.8,1.9,4.3,2.4c0-0.8,0-1.7,0-2.5c-1-0.4-1.9-1-2.7-1.6l2.3-2.3c-0.8-0.2-1.6-0.5-2.4-0.8l-1.6,1.6
				c-0.8-0.9-1.5-1.9-2-2.9c-1.4-0.6-2.8-1.3-4.1-2.2c-4.8-2.9-7.7-8.2-7.6-13.9c-0.1-3.8,1-7.6,3.3-10.6l-8.2-8.2
				c6-5.8,13.7-9.5,21.9-10.8c0-0.8,0-1.6,0-2.3c-8.8,1.3-17.1,5.3-23.5,11.5l-1.4-1.4c-0.3,0.5-0.7,1.2-1.1,2.1l0.9,0.9
				c-7.3,7.7-11.4,17.9-11.6,28.5H47.7c0.2-13.7,5.5-26.8,15-36.8l3.7,3.7c0.2,0,0.3,0,0.5,0c0.7-0.1,1.5-0.3,2.1-0.6l-4.7-4.7
				c2.5-2.4,5.2-4.6,8.1-6.5c0.2-0.6,0.3-1.2,0.6-1.7c0.5-0.8,1.1-1.6,1.8-2.4c-4.4,2.4-8.4,5.4-12,8.9l-8.2-8.2
				c11-10.7,25.3-17.4,40.7-19c0-0.3-0.1-0.5-0.1-0.5c-0.1-0.6-0.2-1.1-0.3-1.8C56,18.8,27.9,53.5,32,92.3
				C35.8,128.2,66,155.5,102.1,155.4 M136.8,33.3l-0.7-1.1l-1.5-0.8l-1.2,0.9l1.5,0.8l1.7,1.2L136.8,33.3z M129.8,66.1l0.1,0.9
				l2-0.6l0.6-1.2l-1.4-1.8l0.7-1.1l1.9,1.3l0.3-0.3l-0.4-0.3l-0.4-0.8l0.8-0.4l-0.8-1l-1.8,0.9l-0.6,1.1l-0.4,1l0.8,1.3l-0.3,0.6
				L129.8,66.1z M46,118.1l0.1-0.5l-1-2.3l-1.2-0.5L46,118.1z M93.3,74.5c0,2,1.2,3.3,3.3,4.5c0,0,0-0.3,0-0.9l-1.3-1.4l0.7-1.3
				l0.6-0.2c-0.1-2.3-0.1-4.8-0.1-5.2h-0.1C94.4,71.2,93.4,72.6,93.3,74.5"/>
		</g>
		<g id="g644">
			<path id="path646" class="st0" d="M106.3,124.8c3.6,1.8,7,4.4,8.4,9.2c0.6-8-3.9-11.4-8.3-13.8L106.3,124.8"/>
		</g>
		<g id="g648">
			<path id="path650" class="st0" d="M130.5,43.7c0-7.3-5.3-15.3-18.2-18.1c-1.3-0.2-2.6-0.4-3.9-0.5c0,1.1-0.1,3.6-0.1,3.6
				c0,0.8-0.1,3.7-0.1,4.3c0.8,0.1,1.7,0.2,2.5,0.3c7.5,1.8,10.2,6.1,10.2,10.3c0,6.9-5.9,9.5-13.1,11.5l-2.4,0.6
				c-2.2,0.5-4.5,1.1-6.7,1.7c-0.8,0.2-1.6,0.4-2.4,0.7c-8,2.4-14.9,6.3-14.9,16.2s7.9,13.5,15.6,15.9c0-2.8-0.1-5.7-0.2-8.5
				C93.3,80.1,91,78,91,74.5s2.2-5.5,5.5-7c0.7-0.3,1.5-0.6,2.4-0.9c1.9-0.7,4.1-1.2,6.3-1.8l2.4-0.6
				C118.4,61.6,130.6,58.2,130.5,43.7"/>
		</g>
		<g id="g652">
			<path id="path654" class="st0" d="M91.6,113c0,4,2.9,6.1,5.8,7.8c0-0.7-0.1-6.8-0.1-6.9c0.1-1.2,1.2-2,2.2-2.4
				c1.5-0.7,3.1-1.3,4.7-1.8c0.9-0.3,1.6-0.6,2.4-0.8c5.9-1.8,12.7-4,12.7-11.2s-5.8-10.1-12.2-12.3c-0.1,2.3-0.1,5.6-0.2,7.9
				c2.7,1,4.5,2.3,4.5,4.4c0,2.6-2.7,4-4.7,4.8c-0.8,0.3-2,0.7-2.4,0.8c-1.6,0.5-3.2,1-4.8,1.6c-0.8,0.3-1.6,0.6-2.4,1
				C94.5,107.3,91.6,109.4,91.6,113"/>
		</g>
		<g id="g656">
			<path id="path658" class="st0" d="M95.6,26.2c-2.4,0.8-4.8,1.7-7.1,2.9c-2.5,0.8-6.1,1-9.8,5c-1.2,1.4-2.3,2.9-3.4,4.4
				c-1.1,1.6-1.2,4.2-2,5.5c-1.2,2-0.9,3.2-0.9,3.2v0c-0.2,0.9-0.7,1.8-1.3,2.5c-1.2,1.4-3,2.1-4.8,1.8c1.7,0.8,4-0.3,4-0.3
				c-0.4,1.1-0.7,2.2-0.9,3.3c1.9-4.3,3.6-5.8,4.2-6.3c0.8,0.2,2.5,0.1,5.6-1.7c3.5-2,8.8-5.3,10.3-7.4c1.6-2.1,3.7-3.8,6.2-4.7
				C95.7,31.4,95.6,28.6,95.6,26.2 M80.8,39.5l-1.8,0.4l2.2-3.6l2.5,0.1L80.8,39.5"/>
		</g>
		<g id="g660">
			<path id="path662" class="st0" d="M102.9,112.5c-0.3,0.1-1.2,0.5-1.8,0.7s-1.3,0.5-1.3,0.7c0,0,0.6,30.8,0.6,31.4
				c0,6.3,3.2,6.4,3.2,0c0-0.4,0.7-33.3,0.7-33.3S103.4,112.3,102.9,112.5"/>
		</g>
		<g id="g664">
			<path id="path666" class="st0" d="M99.5,102.3c1-0.3,2-0.7,2.9-0.9c0.7-0.2,1.3-0.4,2-0.6c0-1.9,0.6-28.7,0.7-33.5
				c-2.1,0.5-4.2,1.1-6.2,1.8C99,72.7,99.5,99.4,99.5,102.3"/>
		</g>
		<g id="g668">
			<path id="path670" class="st0" d="M102.2,0c-9,0-5.2,13.4-4.5,17.8c0,0.2,0.7,30.3,0.9,37.2c1.4-0.4,2.7-0.7,4.1-1l2.7-0.7
				c0.1-6.7,0.8-35.4,0.8-35.6C106.8,13.1,111.5,0,102.2,0"/>
		</g>
	</g>
</g>
</svg>
