<svg xmlns="http://www.w3.org/2000/svg" xmlns:xlink="http://www.w3.org/1999/xlink" xmlns:lucid="lucid" width="1947.67" height="1222.95"><g transform="translate(-38.66666666666674 -16.53181850804941)" lucid:page-tab-id="0_0"><path d="M0 0h2039.17v1575.72H0z" fill="#fff"/><path d="M224.56 272v57.33" stroke="#999" stroke-width="2" fill="none"/><path d="M225.56 272.03h-2V271h2z" fill="#999"/><path d="M224.56 344.6l-4.64-14.27h9.27z" stroke="#999" stroke-width="2" fill="#999"/><path d="M60.67 36.53h848v49.1h-848z" fill="none"/><use xlink:href="#a" transform="matrix(1,0,0,1,60.66666666666674,36.53181850804941) translate(0 38.98360960504741)"/><use xlink:href="#b" transform="matrix(1,0,0,1,60.66666666666674,36.53181850804941) translate(97.40125305768704 38.98360960504741)"/><use xlink:href="#c" transform="matrix(1,0,0,1,60.66666666666674,36.53181850804941) translate(267.1054239977338 38.98360960504741)"/><use xlink:href="#d" transform="matrix(1,0,0,1,60.66666666666674,36.53181850804941) translate(342.68203777252745 38.98360960504741)"/><use xlink:href="#e" transform="matrix(1,0,0,1,60.66666666666674,36.53181850804941) translate(598.5231318178 38.98360960504741)"/><path d="M61 85.08h1906.5M61.03 85.08H60M1967.46 85.08h1.03" stroke="#999" stroke-width="2" fill="none"/><path d="M275.3 190c18.67 0 33.8 17.9 33.8 40s-15.13 40-33.8 40H173.8c-18.68 0-33.82-17.9-33.82-40s15.14-40 33.82-40z" stroke="#000" stroke-width="2" fill="#fff"/><use xlink:href="#f" transform="matrix(1,0,0,1,145.00000000000003,195) translate(16.04224084804622 19.955330743180586)"/><use xlink:href="#g" transform="matrix(1,0,0,1,145.00000000000003,195) translate(75.47415314410046 19.955330743180586)"/><use xlink:href="#h" transform="matrix(1,0,0,1,145.00000000000003,195) translate(101.77686645496999 19.955330743180586)"/><use xlink:href="#i" transform="matrix(1,0,0,1,145.00000000000003,195) translate(120.35546779843764 19.955330743180586)"/><use xlink:href="#j" transform="matrix(1,0,0,1,145.00000000000003,195) translate(24.78089681897893 40.992975545020315)"/><use xlink:href="#k" transform="matrix(1,0,0,1,145.00000000000003,195) translate(79.9962284609534 40.992975545020315)"/><use xlink:href="#l" transform="matrix(1,0,0,1,145.00000000000003,195) translate(49.80505839305685 62.03062034686005)"/><path d="M147.66 348.83h164.2l-32 120h-100.2z" stroke="#000" stroke-width="2" fill="#fff"/><use xlink:href="#m" transform="matrix(1,0,0,1,152.66371214081337,353.82826518996524) translate(9.736757950044009 18.917685941340853)"/><use xlink:href="#n" transform="matrix(1,0,0,1,152.66371214081337,353.82826518996524) translate(42.45863071819774 18.917685941340853)"/><use xlink:href="#o" transform="matrix(1,0,0,1,152.66371214081337,353.82826518996524) translate(74.94666806546333 18.917685941340853)"/><use xlink:href="#p" transform="matrix(1,0,0,1,152.66371214081337,353.82826518996524) translate(106.49936372917635 18.917685941340853)"/><use xlink:href="#q" transform="matrix(1,0,0,1,152.66371214081337,353.82826518996524) translate(34.94195339835791 39.95533074318058)"/><use xlink:href="#r" transform="matrix(1,0,0,1,152.66371214081337,353.82826518996524) translate(68.04098007116994 39.95533074318058)"/><use xlink:href="#s" transform="matrix(1,0,0,1,152.66371214081337,353.82826518996524) translate(86.8383306793394 39.95533074318058)"/><use xlink:href="#t" transform="matrix(1,0,0,1,152.66371214081337,353.82826518996524) translate(25.746941202788662 60.992975545020315)"/><use xlink:href="#u" transform="matrix(1,0,0,1,152.66371214081337,353.82826518996524) translate(41.03676049763597 60.992975545020315)"/><use xlink:href="#v" transform="matrix(1,0,0,1,152.66371214081337,353.82826518996524) translate(86.46871985277427 60.992975545020315)"/><use xlink:href="#w" transform="matrix(1,0,0,1,152.66371214081337,353.82826518996524) translate(40.991502029076976 82.03062034686006)"/><use xlink:href="#x" transform="matrix(1,0,0,1,152.66371214081337,353.82826518996524) translate(77.5 103.06826514869978)"/><path d="M100 320H60V140h40z" stroke="#000" stroke-width="2" fill="#fff"/><path d="M100 140h1866.33v180H100z" stroke="#000" stroke-width="2" fill="none"/><use xlink:href="#y" transform="matrix(-1.8369701987210297e-16,-1,1,-1.8369701987210297e-16,60,320) translate(51.22857860112721 25.992975545020318)"/><use xlink:href="#z" transform="matrix(-1.8369701987210297e-16,-1,1,-1.8369701987210297e-16,60,320) translate(94.01291754556428 25.992975545020318)"/><path d="M100 500H60V320h40z" stroke="#000" stroke-width="2" fill="#fff"/><path d="M100 320h1866.33v180H100z" stroke="#000" stroke-width="2" fill="none"/><use xlink:href="#A" transform="matrix(-1.8369701987210297e-16,-1,1,-1.8369701987210297e-16,60,500) translate(25.020153766422226 25.992975545020318)"/><use xlink:href="#B" transform="matrix(-1.8369701987210297e-16,-1,1,-1.8369701987210297e-16,60,500) translate(122.03168112262905 25.992975545020318)"/><path d="M100 680H60V500h40z" stroke="#000" stroke-width="2" fill="#fff"/><path d="M100 500h1866.33v180H100z" stroke="#000" stroke-width="2" fill="none"/><use xlink:href="#C" transform="matrix(-1.8369701987210297e-16,-1,1,-1.8369701987210297e-16,60,680) translate(46.09928549777438 25.992975545020318)"/><use xlink:href="#D" transform="matrix(-1.8369701987210297e-16,-1,1,-1.8369701987210297e-16,60,680) translate(109.63463227651087 25.992975545020318)"/><path d="M100 320H60V140h40z" stroke="#000" stroke-width="2" fill="#fff"/><path d="M100 140h1866.33v180H100z" stroke="#000" stroke-width="2" fill="none"/><use xlink:href="#E" transform="matrix(-1.8369701987210297e-16,-1,1,-1.8369701987210297e-16,60,320) translate(44.3681490753928 25.992975545020318)"/><path d="M100 1039.83H60v-180h40z" stroke="#000" stroke-width="2" fill="#fff"/><path d="M100 859.83h1866.33v180H100z" stroke="#000" stroke-width="2" fill="none"/><use xlink:href="#F" transform="matrix(-1.8369701987210297e-16,-1,1,-1.8369701987210297e-16,60,1039.8282653835263) translate(33.20439349750725 25.992975545020318)"/><use xlink:href="#G" transform="matrix(-1.8369701987210297e-16,-1,1,-1.8369701987210297e-16,60,1039.8282653835263) translate(59.567451433122116 25.992975545020318)"/><path d="M651.44 530H832l-32.1 120.34H683.53z" stroke="#000" stroke-width="2" fill="#fff"/><use xlink:href="#H" transform="matrix(1,0,0,1,656.437536389343,535) translate(11.227081555641831 40.45533074318058)"/><use xlink:href="#I" transform="matrix(1,0,0,1,656.437536389343,535) translate(72.7107110930372 40.45533074318058)"/><use xlink:href="#J" transform="matrix(1,0,0,1,656.437536389343,535) translate(126.90018411434113 40.45533074318058)"/><use xlink:href="#K" transform="matrix(1,0,0,1,656.437536389343,535) translate(17.461435599643465 61.492975545020315)"/><use xlink:href="#L" transform="matrix(1,0,0,1,656.437536389343,535) translate(87.12176179003067 61.492975545020315)"/><use xlink:href="#M" transform="matrix(1,0,0,1,656.437536389343,535) translate(102.41158108487798 61.492975545020315)"/><use xlink:href="#N" transform="matrix(1,0,0,1,656.437536389343,535) translate(54.42251825615643 82.53062034686006)"/><path d="M864.72 530h180.56l-32.1 120.34H896.83z" stroke="#000" stroke-width="2" fill="#fff"/><use xlink:href="#O" transform="matrix(1,0,0,1,869.7241134397285,535) translate(29.149435105004038 40.45533074318058)"/><use xlink:href="#L" transform="matrix(1,0,0,1,869.7241134397285,535) translate(88.57380432296512 40.45533074318058)"/><use xlink:href="#P" transform="matrix(1,0,0,1,869.7241134397285,535) translate(103.86362361781241 40.45533074318058)"/><use xlink:href="#Q" transform="matrix(1,0,0,1,869.7241134397285,535) translate(30.797597668360794 61.492975545020315)"/><use xlink:href="#R" transform="matrix(1,0,0,1,869.7241134397285,535) translate(112.66262421349046 61.492975545020315)"/><use xlink:href="#S" transform="matrix(1,0,0,1,869.7241134397285,535) translate(16.04333691812826 82.53062034686006)"/><use xlink:href="#T" transform="matrix(1,0,0,1,869.7241134397285,535) translate(93.60880895015336 82.53062034686006)"/><path d="M980 890.48h130.92v120H980z" stroke="#000" stroke-width="2" fill="#fff"/><use xlink:href="#U" transform="matrix(1,0,0,1,984.9999999999999,895.4847961505785) translate(27.58200720142395 60.992975545020315)"/><path d="M1151.56 890.3h130.9v120h-130.9z" stroke="#000" stroke-width="2" fill="#fff"/><use xlink:href="#V" transform="matrix(1,0,0,1,1156.5565945841336,895.3130615341048) translate(35.53618305066741 60.992975545020315)"/><path d="M1320 1069.48h130.92v120H1320z" stroke="#000" stroke-width="2" fill="#fff"/><use xlink:href="#W" transform="matrix(1,0,0,1,1325,1074.4847961505789) translate(23.523831187300686 50.474153144100455)"/><use xlink:href="#X" transform="matrix(1,0,0,1,1325,1074.4847961505789) translate(37.312577941607984 71.51179794594019)"/><path d="M100 1219.48H60v-180h40z" stroke="#000" stroke-width="2" fill="#fff"/><path d="M100 1039.48h1866.33v180H100z" stroke="#000" stroke-width="2" fill="none"/><use xlink:href="#Y" transform="matrix(-1.8369701987210297e-16,-1,1,-1.8369701987210297e-16,60,1219.4847961505789) translate(41.18874165912337 25.992975545020318)"/><use xlink:href="#Z" transform="matrix(-1.8369701987210297e-16,-1,1,-1.8369701987210297e-16,60,1219.4847961505789) translate(84.25217449300757 25.992975545020318)"/><path d="M1504.82 890.48h130.92v120h-130.92z" stroke="#000" stroke-width="2" fill="#fff"/><use xlink:href="#aa" transform="matrix(1,0,0,1,1509.8197934930683,895.4847961505785) translate(30.433290720640663 60.992975545020315)"/><path d="M741.72 470.66v39.84" stroke="#000" stroke-width="2" fill="none"/><path d="M742.72 470.68h-2v-1.02h2z"/><path d="M741.72 525.76l-4.64-14.26h9.27z" stroke="#000" stroke-width="2"/><path d="M817.98 590.17h43.25" stroke="#000" stroke-width="2" fill="none"/><path d="M818 591.17h-1.28l.53-2h.76z"/><path d="M876.5 590.17l-14.27 4.64v-9.26z" stroke="#000" stroke-width="2"/><path d="M1112.92 950.48h18.32v-.17h.8" stroke="#000" stroke-width="2" fill="none"/><path d="M1112.94 951.48h-1.02v-2h1.02z"/><path d="M1147.32 950.3l-14.27 4.65v-9.27z" stroke="#000" stroke-width="2"/><path d="M1284.47 950.3h16.77v178.45" stroke="#000" stroke-width="2" fill="none"/><path d="M1284.5 951.3h-1.03v-2h1.03z"/><path d="M1315.77 1129.35l-14.45 4.04.4-9.27z" stroke="#000" stroke-width="2"/><path d="M1452.92 1125.84h24.95V937.58h7.45" stroke="#000" stroke-width="2" fill="none"/><path d="M1452.94 1126.84h-1.02v-2h1.02z"/><path d="M1500.58 937.58l-14.26 4.64v-9.27z" stroke="#000" stroke-width="2"/><path d="M1504.82 520.34h130.92v120h-130.92z" stroke="#000" stroke-width="2" fill="#fff"/><use xlink:href="#ab" transform="matrix(1,0,0,1,1509.8197934930683,525.3434692329475) translate(21.630518585916043 39.95533074318058)"/><use xlink:href="#ac" transform="matrix(1,0,0,1,1509.8197934930683,525.3434692329475) translate(70.2833722868362 39.95533074318058)"/><use xlink:href="#ad" transform="matrix(1,0,0,1,1509.8197934930683,525.3434692329475) translate(6.2803546663234044 60.992975545020315)"/><use xlink:href="#ae" transform="matrix(1,0,0,1,1509.8197934930683,525.3434692329475) translate(83.74776668313736 60.992975545020315)"/><use xlink:href="#r" transform="matrix(1,0,0,1,1509.8197934930683,525.3434692329475) translate(34.49146673476393 82.03062034686006)"/><use xlink:href="#af" transform="matrix(1,0,0,1,1509.8197934930683,525.3434692329475) translate(53.28881734293339 82.03062034686006)"/><path d="M1570.28 888.48V659.85" stroke="#000" stroke-width="2" fill="none"/><path d="M1571.28 889.48h-2v-1.02h2z"/><path d="M1570.28 644.58l4.63 14.27h-9.26z" stroke="#000" stroke-width="2"/><path d="M1480 340h180.56l-32.1 120.34H1512.1z" stroke="#000" stroke-width="2" fill="#fff"/><g><use xlink:href="#ag" transform="matrix(1,0,0,1,1485,345.00000000000006) translate(9.01318813529764 50.974153144100455)"/><use xlink:href="#ah" transform="matrix(1,0,0,1,1485,345.00000000000006) translate(86.10344624745328 50.974153144100455)"/><use xlink:href="#ac" transform="matrix(1,0,0,1,1485,345.00000000000006) translate(132.9007027374546 50.974153144100455)"/><use xlink:href="#ai" transform="matrix(1,0,0,1,1485,345.00000000000006) translate(29.52658900966233 72.01179794594019)"/><use xlink:href="#o" transform="matrix(1,0,0,1,1485,345.00000000000006) translate(66.58573168138648 72.01179794594019)"/><use xlink:href="#aj" transform="matrix(1,0,0,1,1485,345.00000000000006) translate(98.13842734509949 72.01179794594019)"/></g><path d="M1570.28 518.34v-38.5" stroke="#000" stroke-width="2" fill="none"/><path d="M1571.28 519.34h-2v-1.02h2z"/><path d="M1570.28 464.58l4.63 14.27h-9.26z" stroke="#000" stroke-width="2"/><path d="M297.9 408.83h22.27v-.17h4.78" stroke="#000" stroke-width="2" fill="none"/><path d="M297.92 409.83h-1.3l.54-2h.76z"/><path d="M340.2 408.66l-14.25 4.63V404z" stroke="#000" stroke-width="2"/><path d="M344.45 348.66h130.92v120H344.45z" stroke="#000" stroke-width="2" fill="#fff"/><g><use xlink:href="#ak" transform="matrix(1,0,0,1,349.44784541837976,353.65653057349846) translate(15.03786833248904 29.43650834226072)"/><use xlink:href="#al" transform="matrix(1,0,0,1,349.44784541837976,353.65653057349846) translate(50.8750323531203 29.43650834226072)"/><use xlink:href="#am" transform="matrix(1,0,0,1,349.44784541837976,353.65653057349846) translate(17.11221480810967 50.474153144100455)"/><use xlink:href="#R" transform="matrix(1,0,0,1,349.44784541837976,353.65653057349846) translate(76.34800707374158 50.474153144100455)"/><use xlink:href="#an" transform="matrix(1,0,0,1,349.44784541837976,353.65653057349846) translate(33.73715892544734 71.51179794594019)"/><use xlink:href="#ao" transform="matrix(1,0,0,1,349.44784541837976,353.65653057349846) translate(26.782440923548357 92.54944274777992)"/></g><path d="M508.1 348.66H639v120H508.1z" stroke="#000" stroke-width="2" fill="#fff"/><g><use xlink:href="#ak" transform="matrix(1,0,0,1,513.0948354826753,353.6565305734914) translate(10.651568421313058 29.43650834226072)"/><use xlink:href="#ap" transform="matrix(1,0,0,1,513.0948354826753,353.6565305734914) translate(46.488732441944315 29.43650834226072)"/><use xlink:href="#aq" transform="matrix(1,0,0,1,513.0948354826753,353.6565305734914) translate(34.57066905474217 50.474153144100455)"/><use xlink:href="#ar" transform="matrix(1,0,0,1,513.0948354826753,353.6565305734914) translate(21.71726398398745 71.51179794594019)"/><use xlink:href="#as" transform="matrix(1,0,0,1,513.0948354826753,353.6565305734914) translate(30.086309128355033 92.54944274777992)"/></g><path d="M477.37 408.66h11.22" stroke="#000" stroke-width="2" fill="none"/><path d="M477.4 409.66h-1.03v-2h1.02z"/><path d="M503.86 408.66l-14.27 4.63V404z" stroke="#000" stroke-width="2"/><path d="M1570.28 338v-33.5" stroke="#000" stroke-width="2" fill="none"/><path d="M1571.28 339h-2v-1.03h2z"/><path d="M1570.28 289.24l4.63 14.26h-9.26z" stroke="#000" stroke-width="2"/><path d="M1473.14 175h194.28v110h-194.28z" stroke="#000" stroke-width="2" fill="#fff"/><path d="M1492.57 175v110M1648 175v110" stroke="#000" stroke-width="2" fill="none"/><g><use xlink:href="#at" transform="matrix(1,0,0,1,1502.4244516057222,180) translate(10.197392572069603 45.474153144100455)"/><use xlink:href="#au" transform="matrix(1,0,0,1,1502.4244516057222,180) translate(63.443980831727785 45.474153144100455)"/><use xlink:href="#q" transform="matrix(1,0,0,1,1502.4244516057222,180) translate(28.28946537852805 66.51179794594019)"/><use xlink:href="#r" transform="matrix(1,0,0,1,1502.4244516057222,180) translate(61.38849205134008 66.51179794594019)"/><use xlink:href="#av" transform="matrix(1,0,0,1,1502.4244516057222,180) translate(80.18584265950955 66.51179794594019)"/></g><path d="M641 408.66h19.68" stroke="#000" stroke-width="2" fill="none"/><path d="M641.04 409.66H640v-2h1.04z"/><path d="M675.94 408.66l-14.26 4.63V404z" stroke="#000" stroke-width="2"/><path d="M664.22 348.66h155l-32 120h-91z" stroke="#000" stroke-width="2" fill="#fff"/><g><use xlink:href="#aw" transform="matrix(1,0,0,1,669.2158581725945,353.6565305734914) translate(11.259905807436994 50.474153144100455)"/><use xlink:href="#o" transform="matrix(1,0,0,1,669.2158581725945,353.6565305734914) translate(65.20045725166644 50.474153144100455)"/><use xlink:href="#P" transform="matrix(1,0,0,1,669.2158581725945,353.6565305734914) translate(96.75315291537946 50.474153144100455)"/><use xlink:href="#ax" transform="matrix(1,0,0,1,669.2158581725945,353.6565305734914) translate(53.116446146414646 71.51179794594019)"/></g><path d="M100 860H60V680h40z" stroke="#000" stroke-width="2" fill="#fff"/><path d="M100 680h1866.33v180H100z" stroke="#000" stroke-width="2" fill="none"/><g><use xlink:href="#ay" transform="matrix(-1.8369701987210297e-16,-1,1,-1.8369701987210297e-16,60,860) translate(46.4726678633861 25.992975545020318)"/></g><path d="M955 652.34v28.55" stroke="#000" stroke-width="2" fill="none"/><path d="M956 652.37h-2v-1.03h2z"/><path d="M955 696.16l-4.63-14.27h9.27z" stroke="#000" stroke-width="2"/><path d="M955 700.63l96.25 69.37L955 839.37 858.75 770z" stroke="#000" stroke-width="2" fill="#fff"/><g><use xlink:href="#az" transform="matrix(1,0,0,1,863.7514853470257,705.6262650678613) translate(2.838660092927853 70.49297554502031)"/><use xlink:href="#L" transform="matrix(1,0,0,1,863.7514853470257,705.6262650678613) translate(71.40523995980601 70.49297554502031)"/><use xlink:href="#aA" transform="matrix(1,0,0,1,863.7514853470257,705.6262650678613) translate(86.69505925465332 70.49297554502031)"/><use xlink:href="#aB" transform="matrix(1,0,0,1,863.7514853470257,705.6262650678613) translate(137.5957502273369 70.49297554502031)"/></g><path d="M956 949.48h4.5v2H954v-33.42h2zm0-52.45h-2V841.6h2z"/><path d="M956 841.63h-2v-1.74l1 .7 1-.7zM975.76 950.48l-14.26 4.64v-9.27z"/><path d="M979 950.48l-18.5 6.02v-12.03zm-16.5 3.26l10.03-3.26-10.03-3.25z"/><g><use xlink:href="#aC" transform="matrix(1,0,0,1,943.0431526418013,897.0254296843909) translate(0 16.511797945940184)"/></g><path d="M1093.96 771h-40v-2h38v-89.74h2zm0-112.78h-2v-67.05h-43.2v-2h45.2z"/><path d="M1054 771h-2.42l1.38-1-1.38-1h2.4zM1047.77 594.8l-14.26-4.63 14.27-4.63z"/><path d="M1048.77 596.18l-18.5-6 18.5-6.02zm-12.03-6l10.03 3.25v-6.52z"/><g><use xlink:href="#aD" transform="matrix(1,0,0,1,1082.4755223793038,658.2201793678869) translate(0 16.511797945940184)"/></g><defs><path fill="#999" d="M1477 0h-168c-114-383-232-756-342-1143-19-66-26-106-27-119-15 88-39 184-70 289L584 0H416L27-1462h180l231 903c32 127 55 241 70 344 18-122 46-241 80-358l262-889h180l275 897c32 103 59 220 81 350 13-95 37-210 72-346l230-901h180" id="aE"/><path fill="#999" d="M1311 0h-170v-688H371V0H201v-1462h170v622h770v-622h170V0" id="aF"/><path fill="#999" d="M801-1485c433 0 669 306 669 752S1232 20 799 20c-445 0-674-297-674-755 0-456 232-750 676-750zm0 152c-345 0-496 236-496 600 0 367 148 604 494 604 348 0 491-235 491-604 0-366-143-600-489-600" id="aG"/><g id="a"><use transform="matrix(0.017600515550720466,0,0,0.017600515550720466,0,0)" xlink:href="#aE"/><use transform="matrix(0.017600515550720466,0,0,0.017600515550720466,33.370577484166006,0)" xlink:href="#aF"/><use transform="matrix(0.017600515550720466,0,0,0.017600515550720466,59.964956481304625,0)" xlink:href="#aG"/></g><path fill="#999" d="M125-733c6-459 248-750 704-750 153 0 287 28 402 84l-72 146c-111-52-221-78-332-78-334-1-520 251-520 600 0 361 171 600 518 600 102 0 218-18 349-55v149C1073 1 948 20 799 20c-445 1-680-294-674-753" id="aH"/><path fill="#999" d="M1036-1462h183L692 0H524L0-1462h180l336 946c39 109 69 214 92 317 24-108 55-216 94-323" id="aI"/><path fill="#999" d="M201 0v-1462h170V0H201" id="aJ"/><path fill="#999" d="M649-1462c450-4 719 268 719 717 0 484-276 748-762 745H201v-1462h448zM578-147c400 1 610-197 610-592 1-379-192-576-570-576H371v1168h207" id="aK"/><path fill="#999" d="M84-473v-152h491v152H84" id="aL"/><path fill="#999" d="M715 0H553c4-427-9-874 8-1288-79 77-94 81-285 239l-88-114 387-299h140V0" id="aM"/><path fill="#999" d="M106-991c0-291 181-498 463-492 348 8 492 281 492 645 0 572-221 858-664 858-77 0-139-7-184-20v-143c53 17 114 26 182 26 356 0 482-232 496-604h-12c-67 103-189 169-351 170-262 2-422-172-422-440zm787 35c0-214-113-380-324-385-199-4-300 142-299 348 1 191 96 313 291 309 180-3 332-102 332-272" id="aN"/><g id="b"><use transform="matrix(0.017600515550720466,0,0,0.017600515550720466,0,0)" xlink:href="#aH"/><use transform="matrix(0.017600515550720466,0,0,0.017600515550720466,22.018244953951303,0)" xlink:href="#aG"/><use transform="matrix(0.017600515550720466,0,0,0.017600515550720466,49.739056946336035,0)" xlink:href="#aI"/><use transform="matrix(0.017600515550720466,0,0,0.017600515550720466,71.19408540266429,0)" xlink:href="#aJ"/><use transform="matrix(0.017600515550720466,0,0,0.017600515550720466,81.24397978212568,0)" xlink:href="#aK"/><use transform="matrix(0.017600515550720466,0,0,0.017600515550720466,107.52154949935135,0)" xlink:href="#aL"/><use transform="matrix(0.017600515550720466,0,0,0.017600515550720466,119.12028924727612,0)" xlink:href="#aM"/><use transform="matrix(0.017600515550720466,0,0,0.017600515550720466,139.7304929571698,0)" xlink:href="#aN"/></g><path fill="#999" d="M1120 0L938-465H352L172 0H0l578-1468h143L1296 0h-176zM885-618c-81-228-168-420-238-664-57 230-159 449-235 664h473" id="aO"/><path fill="#999" d="M1128-1036c0 321-241 464-585 461H371V0H201v-1462h379c365 0 548 142 548 426zm-176 8c0-218-150-286-391-287H371v594h153c270-3 428-62 428-307" id="aP"/><g id="c"><use transform="matrix(0.017600515550720466,0,0,0.017600515550720466,0,0)" xlink:href="#aO"/><use transform="matrix(0.017600515550720466,0,0,0.017600515550720466,22.810268153733723,0)" xlink:href="#aP"/><use transform="matrix(0.017600515550720466,0,0,0.017600515550720466,44.51170382777206,0)" xlink:href="#aP"/></g><path fill="#999" d="M201 0v-1462h170v1308h645V0H201" id="aQ"/><path fill="#999" d="M1087 0H82v-133l776-1176H106v-153h959v133L289-154h798V0" id="aR"/><path fill="#999" d="M651 0H481v-1311H18v-151h1096v151H651V0" id="aS"/><path fill="#999" d="M1198-240c-25-390-10-810-14-1222h159V0h-194L350-1227h-8c30 405 10 805 16 1227H201v-1462h192l797 1222h8" id="aT"/><g id="d"><use transform="matrix(0.017600515550720466,0,0,0.017600515550720466,0,0)" xlink:href="#aQ"/><use transform="matrix(0.017600515550720466,0,0,0.017600515550720466,17.987726892836317,0)" xlink:href="#aG"/><use transform="matrix(0.017600515550720466,0,0,0.017600515550720466,46.06054919623545,0)" xlink:href="#aH"/><use transform="matrix(0.017600515550720466,0,0,0.017600515550720466,68.8004152877663,0)" xlink:href="#aO"/><use transform="matrix(0.017600515550720466,0,0,0.017600515550720466,91.61068344150002,0)" xlink:href="#aQ"/><use transform="matrix(0.017600515550720466,0,0,0.017600515550720466,110.32003147191587,0)" xlink:href="#aJ"/><use transform="matrix(0.017600515550720466,0,0,0.017600515550720466,120.36992585137726,0)" xlink:href="#aR"/><use transform="matrix(0.017600515550720466,0,0,0.017600515550720466,140.94492853016948,0)" xlink:href="#aO"/><use transform="matrix(0.017600515550720466,0,0,0.017600515550720466,161.23832296015016,0)" xlink:href="#aS"/><use transform="matrix(0.017600515550720466,0,0,0.017600515550720466,181.17970707911644,0)" xlink:href="#aJ"/><use transform="matrix(0.017600515550720466,0,0,0.017600515550720466,191.22960145857783,0)" xlink:href="#aG"/><use transform="matrix(0.017600515550720466,0,0,0.017600515550720466,219.30242376197697,0)" xlink:href="#aT"/></g><path fill="#999" d="M602-1462c329 0 526 109 526 413 0 193-98 324-294 392L1231 0h-201L676-608H371V0H201v-1462h401zm350 422c0-215-129-271-360-273H371v559h233c223 0 348-78 348-286" id="aU"/><path fill="#999" d="M1016 0H201v-1462h815v151H371v471h606v150H371v538h645V0" id="aV"/><path fill="#999" d="M584-1331c-162 0-287 69-287 219 0 118 43 164 123 214 44 28 112 56 203 89 153 55 259 113 317 176s86 144 86 244c-1 276-228 409-520 409-173 0-307-22-400-67v-164c109 46 257 81 406 82 199 1 342-68 342-244 0-120-47-164-132-214-47-28-121-58-218-93-136-49-234-106-292-173s-87-154-87-261c-1-239 209-369 463-369 145 0 279 27 401 80l-53 148c-121-51-238-76-352-76" id="aW"/><g id="e"><use transform="matrix(0.017600515550720466,0,0,0.017600515550720466,0,0)" xlink:href="#aP"/><use transform="matrix(0.017600515550720466,0,0,0.017600515550720466,21.701435674038336,0)" xlink:href="#aU"/><use transform="matrix(0.017600515550720466,0,0,0.017600515550720466,43.983688361250444,0)" xlink:href="#aG"/><use transform="matrix(0.017600515550720466,0,0,0.017600515550720466,72.05651066464958,0)" xlink:href="#aH"/><use transform="matrix(0.017600515550720466,0,0,0.017600515550720466,94.79637675618042,0)" xlink:href="#aV"/><use transform="matrix(0.017600515550720466,0,0,0.017600515550720466,114.84336396845103,0)" xlink:href="#aW"/><use transform="matrix(0.017600515550720466,0,0,0.017600515550720466,134.62634344746084,0)" xlink:href="#aW"/></g><path fill="#333" d="M602-1462c329 0 526 109 526 413 0 193-98 324-294 392L1231 0h-201L676-608H371V0H201v-1462h401zm350 422c0-215-129-271-360-273H371v559h233c223 0 348-78 348-286" id="aX"/><path fill="#333" d="M995-51C878-2 799 19 639 20c-329 2-524-221-524-559 0-326 172-577 481-577 278 0 451 210 446 493v105H287c4 242 121 392 358 393 118 0 235-25 350-74v148zM864-653c2-195-85-324-270-324-190 0-288 139-303 324h573" id="aY"/><path fill="#333" d="M342 0H176v-1556h166V0" id="aZ"/><path fill="#333" d="M588-1114c260 0 384 106 385 366V0H850l-33-156h-8C708-34 639 17 442 20 231 23 94-94 94-303c0-221 177-337 531-348l186-6c11-203-40-320-233-320-91 0-195 28-310 84l-51-127c97-53 229-94 371-94zM268-301c-1 123 81 184 207 184 203 0 334-120 332-323v-99c-257 14-539-7-539 238" id="ba"/><path fill="#333" d="M502-977c-130 0-238 32-238 139 0 75 39 101 95 134 33 19 97 46 192 81 130 48 217 95 263 143s69 108 69 181C883-73 695 20 449 20 304 20 190-3 109-49v-154c91 47 216 86 344 86 149 0 270-36 270-168 0-43-21-76-55-109-56-55-367-158-434-208-74-55-128-109-128-225 0-327 490-342 754-217l-59 135c-110-45-210-68-299-68" id="bb"/><g id="f"><use transform="matrix(0.007543078093165914,0,0,0.007543078093165914,0,0)" xlink:href="#aX"/><use transform="matrix(0.007543078093165914,0,0,0.007543078093165914,9.549536865948047,0)" xlink:href="#aY"/><use transform="matrix(0.007543078093165914,0,0,0.007543078093165914,18.21653359499568,0)" xlink:href="#aZ"/><use transform="matrix(0.007543078093165914,0,0,0.007543078093165914,22.123848047255624,0)" xlink:href="#aY"/><use transform="matrix(0.007543078093165914,0,0,0.007543078093165914,30.79084477630326,0)" xlink:href="#ba"/><use transform="matrix(0.007543078093165914,0,0,0.007543078093165914,39.38241072441924,0)" xlink:href="#bb"/><use transform="matrix(0.007543078093165914,0,0,0.007543078093165914,46.75199802144233,0)" xlink:href="#aY"/></g><path fill="#333" d="M287-543c-1 247 91 418 323 418 91 0 185-20 281-59v147C818 1 725 20 614 20c-329 0-499-221-499-561 0-349 172-575 510-575 96 0 221 26 282 57l-51 141c-61-25-157-50-235-51-223 0-334 142-334 426" id="bc"/><path fill="#333" d="M563 20c-271 0-399-123-399-399v-717h168v711c1 177 76 266 252 266 250 0 331-135 331-401v-576h166V0H944l-24-147h-9C848-44 724 20 563 20" id="bd"/><path fill="#333" d="M354-322c-2 123 60 204 176 205 51 1 114-10 150-20v127C647 7 557 20 506 20 294 20 188-92 188-315v-652H31v-80l157-69 70-234h96v254h318v129H354v645" id="be"/><g id="g"><use transform="matrix(0.007543078093165914,0,0,0.007543078093165914,0,0)" xlink:href="#bc"/><use transform="matrix(0.007543078093165914,0,0,0.007543078093165914,7.354501140836766,0)" xlink:href="#bd"/><use transform="matrix(0.007543078093165914,0,0,0.007543078093165914,16.83615030394632,0)" xlink:href="#be"/></g><path fill="#333" d="M621-1116c316 0 501 239 501 567 0 339-180 575-508 569S119-212 115-549c-4-339 178-567 506-567zm-5 141c-239 0-329 168-329 426 0 255 93 430 331 430s332-174 332-430-95-426-334-426" id="bf"/><path fill="#333" d="M575-1430c-169 0-190 146-184 334h279v129H391V0H225v-967H29v-75l196-60c-15-299 97-465 353-465 58 0 126 12 204 35l-43 133c-64-21-119-31-164-31" id="bg"/><g id="h"><use transform="matrix(0.007543078093165914,0,0,0.007543078093165914,0,0)" xlink:href="#bf"/><use transform="matrix(0.007543078093165914,0,0,0.007543078093165914,9.330787601246236,0)" xlink:href="#bg"/></g><path fill="#333" d="M690-1114c271 2 402 123 402 399V0H926v-709c-1-177-76-266-252-266-251 0-332 135-332 402V0H176v-1556h166c-4 200 8 426-8 612h10c61-100 187-171 346-170" id="bh"/><g id="i"><use transform="matrix(0.007543078093165914,0,0,0.007543078093165914,0,0)" xlink:href="#be"/><use transform="matrix(0.007543078093165914,0,0,0.007543078093165914,5.453645461358956,0)" xlink:href="#bh"/><use transform="matrix(0.007543078093165914,0,0,0.007543078093165914,14.93529462446851,0)" xlink:href="#aY"/></g><path fill="#333" d="M1016 0H201v-1462h815v151H371v471h606v150H371v538h645V0" id="bi"/><path fill="#333" d="M694-1116c270 0 399 125 398 401V0H926v-709c-1-177-76-266-252-266-250 0-332 133-332 400V0H176v-1096h135l27 150h8c62-101 190-170 348-170" id="bj"/><path fill="#333" d="M125-741c0-247 161-377 414-375 57 0 109 7 155 20h379v105l-203 24c37 48 72 129 72 219 0 255-227 390-504 345-71 37-106 84-106 141 0 78 66 88 164 88h194c219-1 369 87 369 293 0 121-49 213-146 277s-239 96-426 96c-250 0-448-83-448-306C39 36 147-58 283-86c-52-23-102-79-99-152 4-104 57-143 133-192-107-42-192-164-192-311zM438-25c-143-1-242 70-239 209s131 181 290 181c139 0 242-21 309-63s101-98 101-169c0-147-88-158-262-158H438zm94-970c-158 0-243 88-243 250 0 153 93 233 246 233 162 0 243-79 243-236 0-165-82-247-246-247" id="bk"/><path fill="#333" d="M342 0H176v-1096h166V0zm-82-1282c-61 0-98-43-98-111 0-69 36-110 98-110 59 0 98 43 98 110s-39 111-98 111" id="bl"/><g id="j"><use transform="matrix(0.007543078093165914,0,0,0.007543078093165914,0,0)" xlink:href="#bi"/><use transform="matrix(0.007543078093165914,0,0,0.007543078093165914,8.591565948115976,0)" xlink:href="#bj"/><use transform="matrix(0.007543078093165914,0,0,0.007543078093165914,18.07321511122553,0)" xlink:href="#bk"/><use transform="matrix(0.007543078093165914,0,0,0.007543078093165914,26.536548731757684,0)" xlink:href="#aZ"/><use transform="matrix(0.007543078093165914,0,0,0.007543078093165914,30.443863184017626,0)" xlink:href="#bl"/><use transform="matrix(0.007543078093165914,0,0,0.007543078093165914,34.35117763627757,0)" xlink:href="#bb"/><use transform="matrix(0.007543078093165914,0,0,0.007543078093165914,41.720764933300664,0)" xlink:href="#bh"/></g><g id="k"><use transform="matrix(0.007543078093165914,0,0,0.007543078093165914,0,0)" xlink:href="#bc"/><use transform="matrix(0.007543078093165914,0,0,0.007543078093165914,7.354501140836766,0)" xlink:href="#bf"/><use transform="matrix(0.007543078093165914,0,0,0.007543078093165914,16.685288742083003,0)" xlink:href="#bj"/><use transform="matrix(0.007543078093165914,0,0,0.007543078093165914,26.166937905192555,0)" xlink:href="#be"/><use transform="matrix(0.007543078093165914,0,0,0.007543078093165914,31.62058336655151,0)" xlink:href="#aY"/><use transform="matrix(0.007543078093165914,0,0,0.007543078093165914,40.28758009559915,0)" xlink:href="#bj"/><use transform="matrix(0.007543078093165914,0,0,0.007543078093165914,49.7692292587087,0)" xlink:href="#be"/></g><path fill="#333" d="M877 0H82v-113l598-854H119v-129h743v129L272-129h605V0" id="bm"/><path fill="#333" d="M115-545c0-330 146-571 454-571 149 0 263 54 342 162h13c-20-185-8-401-11-602h166V0H944l-22-147h-9C836-36 722 20 569 20c-309 0-454-234-454-565zm172 2c0 249 78 424 303 424 257 0 327-150 323-426-4-282-68-432-325-432-220 0-301 191-301 434" id="bn"/><g id="l"><use transform="matrix(0.007543078093165914,0,0,0.007543078093165914,0,0)" xlink:href="#bg"/><use transform="matrix(0.007543078093165914,0,0,0.007543078093165914,5.234896196657145,0)" xlink:href="#bl"/><use transform="matrix(0.007543078093165914,0,0,0.007543078093165914,9.14221064891709,0)" xlink:href="#bj"/><use transform="matrix(0.007543078093165914,0,0,0.007543078093165914,18.623859812026645,0)" xlink:href="#ba"/><use transform="matrix(0.007543078093165914,0,0,0.007543078093165914,27.215425760142622,0)" xlink:href="#aZ"/><use transform="matrix(0.007543078093165914,0,0,0.007543078093165914,31.12274021240256,0)" xlink:href="#bl"/><use transform="matrix(0.007543078093165914,0,0,0.007543078093165914,35.03005466466251,0)" xlink:href="#bm"/><use transform="matrix(0.007543078093165914,0,0,0.007543078093165914,42.25632347791545,0)" xlink:href="#aY"/><use transform="matrix(0.007543078093165914,0,0,0.007543078093165914,50.92332020696308,0)" xlink:href="#bn"/></g><path d="M1120 0L938-465H352L172 0H0l578-1468h143L1296 0h-176zM885-618c-81-228-168-420-238-664-57 230-159 449-235 664h473" id="bo"/><path d="M115-545c0-330 146-571 454-571 149 0 263 54 342 162h13c-20-185-8-401-11-602h166V0H944l-22-147h-9C836-36 722 20 569 20c-309 0-454-234-454-565zm172 2c0 249 78 424 303 424 257 0 327-150 323-426-4-282-68-432-325-432-220 0-301 191-301 434" id="bp"/><g id="m"><use transform="matrix(0.007543078093165914,0,0,0.007543078093165914,0,0)" xlink:href="#bo"/><use transform="matrix(0.007543078093165914,0,0,0.007543078093165914,9.775829208743025,0)" xlink:href="#bp"/><use transform="matrix(0.007543078093165914,0,0,0.007543078093165914,19.242392215666246,0)" xlink:href="#bp"/></g><path d="M270 29c-76 0-118-48-118-135 0-84 38-135 118-136 81 0 123 51 123 136 0 82-44 135-123 135" id="bq"/><path d="M588-1114c260 0 384 106 385 366V0H850l-33-156h-8C708-34 639 17 442 20 231 23 94-94 94-303c0-221 177-337 531-348l186-6c11-203-40-320-233-320-91 0-195 28-310 84l-51-127c97-53 229-94 371-94zM268-301c-1 123 81 184 207 184 203 0 334-120 332-323v-99c-257 14-539-7-539 238" id="br"/><path d="M340-893c80-153 237-262 467-211l-23 154c-45-10-85-15-120-15-184-3-322 182-322 377V0H176v-1096h137l19 203h8" id="bs"/><path d="M686 20c-159 0-273-61-344-161h-12L295 0H176v-1556h166c-2 198 6 423-8 606h8c77-109 192-164 344-164 310 0 455 234 455 565 0 329-147 569-455 569zm283-571c0-257-72-424-307-424-256 0-320 146-320 426s68 430 324 430c228 0 303-184 303-432" id="bt"/><g id="n"><use transform="matrix(0.007543078093165914,0,0,0.007543078093165914,0,0)" xlink:href="#bq"/><use transform="matrix(0.007543078093165914,0,0,0.007543078093165914,4.1109775607754235,0)" xlink:href="#br"/><use transform="matrix(0.007543078093165914,0,0,0.007543078093165914,12.702543508891399,0)" xlink:href="#bs"/><use transform="matrix(0.007543078093165914,0,0,0.007543078093165914,19.0085567947781,0)" xlink:href="#bt"/></g><path d="M694-1116c270 0 399 125 398 401V0H926v-709c-1-177-76-266-252-266-250 0-332 133-332 400V0H176v-1096h135l27 150h8c62-101 190-170 348-170" id="bu"/><g id="o"><use transform="matrix(0.007543078093165914,0,0,0.007543078093165914,0,0)" xlink:href="#br"/><use transform="matrix(0.007543078093165914,0,0,0.007543078093165914,8.591565948115976,0)" xlink:href="#bu"/><use transform="matrix(0.007543078093165914,0,0,0.007543078093165914,18.07321511122553,0)" xlink:href="#bp"/></g><path d="M526-162c88-293 120-356 326-934h178L559 152c-47 123-102 209-163 262-93 80-237 94-380 61V342c184 39 305-9 367-180L444 6 2-1096h178c103 283 263 645 338 934h8" id="bv"/><path d="M1368-1116c259 2 372 131 371 401V0h-166v-713c0-168-66-262-230-262-221 0-303 131-303 363V0H874v-713c-1-169-66-262-231-262-235 0-301 142-301 400V0H176v-1096h135l27 150h8c56-99 174-170 324-170 171 0 283 62 336 186h8c60-108 189-187 354-186" id="bw"/><path d="M342 0H176v-1556h166V0" id="bx"/><g id="p"><use transform="matrix(0.007543078093165914,0,0,0.007543078093165914,0,0)" xlink:href="#bq"/><use transform="matrix(0.007543078093165914,0,0,0.007543078093165914,4.1109775607754235,0)" xlink:href="#bv"/><use transform="matrix(0.007543078093165914,0,0,0.007543078093165914,11.895434152922647,0)" xlink:href="#br"/><use transform="matrix(0.007543078093165914,0,0,0.007543078093165914,20.487000101038625,0)" xlink:href="#bw"/><use transform="matrix(0.007543078093165914,0,0,0.007543078093165914,34.85656386851969,0)" xlink:href="#bx"/></g><path d="M575-1430c-169 0-190 146-184 334h279v129H391V0H225v-967H29v-75l196-60c-15-299 97-465 353-465 58 0 126 12 204 35l-43 133c-64-21-119-31-164-31" id="by"/><path d="M342 0H176v-1096h166V0zm-82-1282c-61 0-98-43-98-111 0-69 36-110 98-110 59 0 98 43 98 110s-39 111-98 111" id="bz"/><path d="M995-51C878-2 799 19 639 20c-329 2-524-221-524-559 0-326 172-577 481-577 278 0 451 210 446 493v105H287c4 242 121 392 358 393 118 0 235-25 350-74v148zM864-653c2-195-85-324-270-324-190 0-288 139-303 324h573" id="bA"/><path d="M502-977c-130 0-238 32-238 139 0 75 39 101 95 134 33 19 97 46 192 81 130 48 217 95 263 143s69 108 69 181C883-73 695 20 449 20 304 20 190-3 109-49v-154c91 47 216 86 344 86 149 0 270-36 270-168 0-43-21-76-55-109-56-55-367-158-434-208-74-55-128-109-128-225 0-327 490-342 754-217l-59 135c-110-45-210-68-299-68" id="bB"/><g id="q"><use transform="matrix(0.007543078093165914,0,0,0.007543078093165914,0,0)" xlink:href="#by"/><use transform="matrix(0.007543078093165914,0,0,0.007543078093165914,5.234896196657145,0)" xlink:href="#bz"/><use transform="matrix(0.007543078093165914,0,0,0.007543078093165914,9.14221064891709,0)" xlink:href="#bx"/><use transform="matrix(0.007543078093165914,0,0,0.007543078093165914,13.049525101177032,0)" xlink:href="#bA"/><use transform="matrix(0.007543078093165914,0,0,0.007543078093165914,21.716521830224668,0)" xlink:href="#bB"/></g><path d="M354-322c-2 123 60 204 176 205 51 1 114-10 150-20v127C647 7 557 20 506 20 294 20 188-92 188-315v-652H31v-80l157-69 70-234h96v254h318v129H354v645" id="bC"/><path d="M621-1116c316 0 501 239 501 567 0 339-180 575-508 569S119-212 115-549c-4-339 178-567 506-567zm-5 141c-239 0-329 168-329 426 0 255 93 430 331 430s332-174 332-430-95-426-334-426" id="bD"/><g id="r"><use transform="matrix(0.007543078093165914,0,0,0.007543078093165914,0,0)" xlink:href="#bC"/><use transform="matrix(0.007543078093165914,0,0,0.007543078093165914,5.453645461358956,0)" xlink:href="#bD"/></g><path d="M1016 0H201v-1462h815v151H371v471h606v150H371v538h645V0" id="bE"/><g id="s"><use transform="matrix(0.007543078093165914,0,0,0.007543078093165914,0,0)" xlink:href="#bE"/><use transform="matrix(0.007543078093165914,0,0,0.007543078093165914,8.591565948115976,0)" xlink:href="#br"/><use transform="matrix(0.007543078093165914,0,0,0.007543078093165914,17.183131896231952,0)" xlink:href="#bB"/><use transform="matrix(0.007543078093165914,0,0,0.007543078093165914,24.55271919325505,0)" xlink:href="#bA"/></g><path d="M614-1348c-112 0-206 67-200 177 7 140 70 184 159 282 86-50 145-97 179-139s51-91 51-146c1-105-80-174-189-174zM285-383c-2 159 121 254 284 254 161 0 294-51 400-154L532-707c-119 77-173 104-225 208-16 33-22 73-22 116zM565 20c-271 4-452-139-452-399 0-87 23-163 69-230s130-134 250-202c-92-107-127-131-164-246-81-253 95-428 353-428 207 0 350 113 348 316 0 71-23 137-68 197S781-850 676-788l407 391c77-83 114-198 146-328h168c-45 191-114 335-205 434L1491 0h-229l-185-178C936-53 803 16 565 20" id="bF"/><use transform="matrix(0.007543078093165914,0,0,0.007543078093165914,0,0)" xlink:href="#bF" id="t"/><path d="M287-543c-1 247 91 418 323 418 91 0 185-20 281-59v147C818 1 725 20 614 20c-329 0-499-221-499-561 0-349 172-575 510-575 96 0 221 26 282 57l-51 141c-61-25-157-50-235-51-223 0-334 142-334 426" id="bG"/><g id="u"><use transform="matrix(0.007543078093165914,0,0,0.007543078093165914,0,0)" xlink:href="#bB"/><use transform="matrix(0.007543078093165914,0,0,0.007543078093165914,7.369587297023098,0)" xlink:href="#bA"/><use transform="matrix(0.007543078093165914,0,0,0.007543078093165914,16.036584026070734,0)" xlink:href="#bx"/><use transform="matrix(0.007543078093165914,0,0,0.007543078093165914,19.943898478330677,0)" xlink:href="#bA"/><use transform="matrix(0.007543078093165914,0,0,0.007543078093165914,28.610895207378313,0)" xlink:href="#bG"/><use transform="matrix(0.007543078093165914,0,0,0.007543078093165914,35.96539634821508,0)" xlink:href="#bC"/></g><path d="M125-741c0-247 161-377 414-375 57 0 109 7 155 20h379v105l-203 24c37 48 72 129 72 219 0 255-227 390-504 345-71 37-106 84-106 141 0 78 66 88 164 88h194c219-1 369 87 369 293 0 121-49 213-146 277s-239 96-426 96c-250 0-448-83-448-306C39 36 147-58 283-86c-52-23-102-79-99-152 4-104 57-143 133-192-107-42-192-164-192-311zM438-25c-143-1-242 70-239 209s131 181 290 181c139 0 242-21 309-63s101-98 101-169c0-147-88-158-262-158H438zm94-970c-158 0-243 88-243 250 0 153 93 233 246 233 162 0 243-79 243-236 0-165-82-247-246-247" id="bH"/><g id="v"><use transform="matrix(0.007543078093165914,0,0,0.007543078093165914,0,0)" xlink:href="#bC"/><use transform="matrix(0.007543078093165914,0,0,0.007543078093165914,5.453645461358956,0)" xlink:href="#br"/><use transform="matrix(0.007543078093165914,0,0,0.007543078093165914,14.045211409474932,0)" xlink:href="#bs"/><use transform="matrix(0.007543078093165914,0,0,0.007543078093165914,20.20036313349832,0)" xlink:href="#bH"/><use transform="matrix(0.007543078093165914,0,0,0.007543078093165914,28.663696754030475,0)" xlink:href="#bA"/><use transform="matrix(0.007543078093165914,0,0,0.007543078093165914,37.33069348307811,0)" xlink:href="#bC"/></g><path d="M563 20c-271 0-399-123-399-399v-717h168v711c1 177 76 266 252 266 250 0 331-135 331-401v-576h166V0H944l-24-147h-9C848-44 724 20 563 20" id="bI"/><g id="w"><use transform="matrix(0.007543078093165914,0,0,0.007543078093165914,0,0)" xlink:href="#bx"/><use transform="matrix(0.007543078093165914,0,0,0.007543078093165914,3.9073144522599437,0)" xlink:href="#br"/><use transform="matrix(0.007543078093165914,0,0,0.007543078093165914,12.49888040037592,0)" xlink:href="#bu"/><use transform="matrix(0.007543078093165914,0,0,0.007543078093165914,21.980529563485476,0)" xlink:href="#bH"/><use transform="matrix(0.007543078093165914,0,0,0.007543078093165914,30.44386318401763,0)" xlink:href="#bI"/><use transform="matrix(0.007543078093165914,0,0,0.007543078093165914,39.92551234712718,0)" xlink:href="#br"/><use transform="matrix(0.007543078093165914,0,0,0.007543078093165914,48.51707829524316,0)" xlink:href="#bH"/><use transform="matrix(0.007543078093165914,0,0,0.007543078093165914,56.98041191577531,0)" xlink:href="#bA"/><use transform="matrix(0.007543078093165914,0,0,0.007543078093165914,65.64740864482295,0)" xlink:href="#bB"/></g><path d="M584-1331c-162 0-287 69-287 219 0 118 43 164 123 214 44 28 112 56 203 89 153 55 259 113 317 176s86 144 86 244c-1 276-228 409-520 409-173 0-307-22-400-67v-164c109 46 257 81 406 82 199 1 342-68 342-244 0-120-47-164-132-214-47-28-121-58-218-93-136-49-234-106-292-173s-87-154-87-261c-1-239 209-369 463-369 145 0 279 27 401 80l-53 148c-121-51-238-76-352-76" id="bJ"/><path d="M1169-178c39-215 75-309 230-918h172L1268 0h-197c-99-332-184-548-272-911h-8C712-564 610-319 514 0H322L23-1096h174c71 275 124 485 161 629s59 241 64 291h8c76-328 186-611 279-920h180l196 629c37 115 63 211 76 289h8" id="bK"/><g id="y"><use transform="matrix(0.007543078093165914,0,0,0.007543078093165914,0,0)" xlink:href="#bJ"/><use transform="matrix(0.007543078093165914,0,0,0.007543078093165914,8.478419776718487,0)" xlink:href="#bK"/><use transform="matrix(0.007543078093165914,0,0,0.007543078093165914,20.49454317913179,0)" xlink:href="#bz"/><use transform="matrix(0.007543078093165914,0,0,0.007543078093165914,24.40185763139173,0)" xlink:href="#bw"/></g><path d="M201 0v-1462h170v1308h645V0H201" id="bL"/><g id="z"><use transform="matrix(0.007543078093165914,0,0,0.007543078093165914,0,0)" xlink:href="#bL"/><use transform="matrix(0.007543078093165914,0,0,0.007543078093165914,8.018292013035367,0)" xlink:href="#br"/><use transform="matrix(0.007543078093165914,0,0,0.007543078093165914,16.60985796115134,0)" xlink:href="#bu"/><use transform="matrix(0.007543078093165914,0,0,0.007543078093165914,26.091507124260893,0)" xlink:href="#bA"/></g><path d="M184 0v-1462h310v1206h593V0H184" id="bM"/><path d="M633-893c-183 0-230 133-230 332s48 336 232 336c183 0 229-137 229-336s-47-332-231-332zm4-246c347 5 535 225 539 578S978 25 631 20C283 15 96-208 92-561c-4-355 196-583 545-578" id="bN"/><path d="M954-63C853 0 774 20 614 20 266 20 92-171 92-553c0-369 188-586 549-586 129 0 245 25 348 76l-90 236c-84-31-156-66-258-66-159 0-238 113-238 338 0 219 79 328 238 328 137 0 223-38 313-97v261" id="bO"/><path d="M618-1141c286 0 465 117 465 396V0H870l-59-152h-8C704-33 632 18 432 20 216 22 86-113 86-334c0-119 44-202 124-262 109-82 356-99 570-100 11-142-39-219-174-219-89 0-194 27-315 81l-101-206c129-67 271-101 428-101zm-71 938c137 0 235-88 233-223v-92c-190 3-382 4-381 186 0 86 49 129 148 129" id="bP"/><path d="M465 0H160v-1556h305V0" id="bQ"/><path d="M479-1407c-1 99-61 150-166 150-111 0-166-50-166-150 0-99 55-149 166-149s166 50 166 149zM465 0H160v-1118h305V0" id="bR"/><path d="M938 0H55v-180l518-705H86v-233h834v198L416-233h522V0" id="bS"/><path d="M498-350c-2 85 52 126 133 127 53 0 117-12 192-35v227C747 3 654 20 543 20c-247 0-350-124-350-370v-539H47v-129l168-102 88-236h195v238h313v229H498v539" id="bT"/><path d="M795-1139c261-1 398 148 397 410V0H887v-653c-1-148-42-242-180-242-202 0-242 139-242 369V0H160v-1118h233l41 143h17c62-102 185-163 344-164" id="bU"/><g id="A"><use transform="matrix(0.007543078093165914,0,0,0.007543078093165914,0,0)" xlink:href="#bM"/><use transform="matrix(0.007543078093165914,0,0,0.007543078093165914,8.727341353792962,0)" xlink:href="#bN"/><use transform="matrix(0.007543078093165914,0,0,0.007543078093165914,18.291964375927343,0)" xlink:href="#bO"/><use transform="matrix(0.007543078093165914,0,0,0.007543078093165914,26.234825608031052,0)" xlink:href="#bP"/><use transform="matrix(0.007543078093165914,0,0,0.007543078093165914,35.56561320927729,0)" xlink:href="#bQ"/><use transform="matrix(0.007543078093165914,0,0,0.007543078093165914,40.28003701750598,0)" xlink:href="#bR"/><use transform="matrix(0.007543078093165914,0,0,0.007543078093165914,44.99446082573468,0)" xlink:href="#bS"/><use transform="matrix(0.007543078093165914,0,0,0.007543078093165914,52.52999584080742,0)" xlink:href="#bP"/><use transform="matrix(0.007543078093165914,0,0,0.007543078093165914,61.86078344205366,0)" xlink:href="#bT"/><use transform="matrix(0.007543078093165914,0,0,0.007543078093165914,68.56657986687816,0)" xlink:href="#bR"/><use transform="matrix(0.007543078093165914,0,0,0.007543078093165914,73.28100367510686,0)" xlink:href="#bN"/><use transform="matrix(0.007543078093165914,0,0,0.007543078093165914,82.84562669724124,0)" xlink:href="#bU"/></g><path d="M836-686c0-141-77-236-213-236-140 0-206 98-215 236h428zm223 627C946-4 838 19 666 20 308 22 92-191 92-551c0-356 187-588 529-588 314 0 504 195 501 508v148H401c5 169 104 277 279 276 158-2 261-33 379-88v236" id="bV"/><path d="M92-557c0-327 132-582 430-582 141 0 248 55 322 164h10c-38-188-18-371-23-581h306V0H903l-59-145h-13C762-35 656 20 514 20 222 20 92-237 92-557zm309 4c0 190 54 330 220 330 191 0 231-123 231-332 0-214-44-336-236-336-161 0-215 151-215 338" id="bW"/><g id="B"><use transform="matrix(0.007543078093165914,0,0,0.007543078093165914,0,0)" xlink:href="#bQ"/><use transform="matrix(0.007543078093165914,0,0,0.007543078093165914,4.7144238082286964,0)" xlink:href="#bV"/><use transform="matrix(0.007543078093165914,0,0,0.007543078093165914,13.841548300959452,0)" xlink:href="#bP"/><use transform="matrix(0.007543078093165914,0,0,0.007543078093165914,23.17233590220569,0)" xlink:href="#bW"/></g><path d="M549-1139c43 0 163 15 194 21h390v155l-175 45c32 50 48 106 48 168 2 289-261 415-574 373-89 78-53 146 121 146h190c229-1 375 93 377 311 0 131-55 232-164 304S691 492 487 492c-156 0-275-28-357-82S6 280 6 182C6 26 113-51 254-84c-55-22-119-89-117-162 3-107 68-140 144-190C169-483 89-600 90-756c1-259 185-383 459-383zM467 14c-100-2-199 51-197 144 3 184 368 146 487 90 62-30 93-71 93-123 0-42-19-70-55-87-64-30-222-23-328-24zm82-569c118 0 165-80 166-197 0-135-55-202-166-202-112 0-168 67-168 202 0 117 52 197 168 197" id="bX"/><path d="M600-1483c268 0 463 136 463 396 0 168-62 262-145 371-76 99-325 321-451 442v14h637V0H82v-215c165-170 448-439 580-603 57-71 91-127 94-233 3-114-68-174-178-174-148 0-233 73-332 150L78-1274c156-133 262-209 522-209" id="bY"/><path d="M1137-303H961V0H659v-303H35v-215l641-944h285v919h176v240zM659-543c-1-180-1-393 13-565h-8c-25 55-54 108-89 160L307-543h352" id="bZ"/><g id="C"><use transform="matrix(0.007543078093165914,0,0,0.007543078093165914,0,0)" xlink:href="#bM"/><use transform="matrix(0.007543078093165914,0,0,0.007543078093165914,8.727341353792962,0)" xlink:href="#bR"/><use transform="matrix(0.007543078093165914,0,0,0.007543078093165914,13.441765162021658,0)" xlink:href="#bU"/><use transform="matrix(0.007543078093165914,0,0,0.007543078093165914,23.59474827542298,0)" xlink:href="#bX"/><use transform="matrix(0.007543078093165914,0,0,0.007543078093165914,32.32208962921594,0)" xlink:href="#bN"/><use transform="matrix(0.007543078093165914,0,0,0.007543078093165914,41.886712651350315,0)" xlink:href="#bY"/><use transform="matrix(0.007543078093165914,0,0,0.007543078093165914,50.70457094226127,0)" xlink:href="#bZ"/></g><path d="M881-995c0-154-85-213-246-213H494v434h102c173 1 285-62 285-221zm-230-467c334-1 543 136 543 456 0 330-225 489-567 486H494V0H184v-1462h467" id="ca"/><path d="M1458 0c3-430-10-709 15-1145h-9L1087 0H803L451-1147h-9c31 483 15 690 19 1147H184v-1462h422L952-344h6l367-1118h422V0h-289" id="cb"/><g id="D"><use transform="matrix(0.007543078093165914,0,0,0.007543078093165914,0,0)" xlink:href="#ca"/><use transform="matrix(0.007543078093165914,0,0,0.007543078093165914,9.700398427811365,0)" xlink:href="#cb"/></g><path d="M1026 0H184v-1462h842v254H494v321h495v254H494v377h532V0" id="cc"/><path d="M451-930c71-134 228-244 436-200l-23 286c-220-45-399 61-399 275V0H160v-1118h231l45 188h15" id="cd"/><g id="E"><use transform="matrix(0.007543078093165914,0,0,0.007543078093165914,0,0)" xlink:href="#cc"/><use transform="matrix(0.007543078093165914,0,0,0.007543078093165914,8.651910572861304,0)" xlink:href="#bU"/><use transform="matrix(0.007543078093165914,0,0,0.007543078093165914,18.804893686262623,0)" xlink:href="#bX"/><use transform="matrix(0.007543078093165914,0,0,0.007543078093165914,27.532235040055586,0)" xlink:href="#bR"/><use transform="matrix(0.007543078093165914,0,0,0.007543078093165914,32.246658848284284,0)" xlink:href="#bU"/><use transform="matrix(0.007543078093165914,0,0,0.007543078093165914,42.3996419616856,0)" xlink:href="#bV"/><use transform="matrix(0.007543078093165914,0,0,0.007543078093165914,51.52676645441636,0)" xlink:href="#bV"/><use transform="matrix(0.007543078093165914,0,0,0.007543078093165914,60.65389094714712,0)" xlink:href="#cd"/><use transform="matrix(0.007543078093165914,0,0,0.007543078093165914,67.66895357379141,0)" xlink:href="#bR"/><use transform="matrix(0.007543078093165914,0,0,0.007543078093165914,72.38337738202011,0)" xlink:href="#bU"/><use transform="matrix(0.007543078093165914,0,0,0.007543078093165914,82.53636049542143,0)" xlink:href="#bX"/></g><g id="F"><use transform="matrix(0.007543078093165914,0,0,0.007543078093165914,0,0)" xlink:href="#bQ"/><use transform="matrix(0.007543078093165914,0,0,0.007543078093165914,4.7144238082286964,0)" xlink:href="#bY"/><use transform="matrix(0.007543078093165914,0,0,0.007543078093165914,13.53228209913965,0)" xlink:href="#bZ"/></g><path d="M748 0H438v-1204H41v-258h1104v258H748V0" id="ce"/><path d="M836-831c-99-39-182-77-306-82-139-6-173 83-92 144 51 39 327 139 383 188 71 62 119 126 119 249C940-74 747 21 463 20 305 20 202 0 94-45v-252c93 45 253 94 379 94 111 0 166-32 166-96 0-68-41-76-98-109-79-46-276-119-333-167-74-61-116-125-116-252 0-368 555-367 836-224" id="cf"/><g id="G"><use transform="matrix(0.007543078093165914,0,0,0.007543078093165914,0,0)" xlink:href="#ce"/><use transform="matrix(0.007543078093165914,0,0,0.007543078093165914,8.17669665299185,0)" xlink:href="#cd"/><use transform="matrix(0.007543078093165914,0,0,0.007543078093165914,14.88249307781635,0)" xlink:href="#bP"/><use transform="matrix(0.007543078093165914,0,0,0.007543078093165914,24.213280679062585,0)" xlink:href="#bU"/><use transform="matrix(0.007543078093165914,0,0,0.007543078093165914,34.366263792463904,0)" xlink:href="#cf"/><use transform="matrix(0.007543078093165914,0,0,0.007543078093165914,42.0451172913068,0)" xlink:href="#bQ"/><use transform="matrix(0.007543078093165914,0,0,0.007543078093165914,46.7595410995355,0)" xlink:href="#bP"/><use transform="matrix(0.007543078093165914,0,0,0.007543078093165914,56.09032870078173,0)" xlink:href="#bT"/><use transform="matrix(0.007543078093165914,0,0,0.007543078093165914,62.79612512560624,0)" xlink:href="#bR"/><use transform="matrix(0.007543078093165914,0,0,0.007543078093165914,67.51054893383493,0)" xlink:href="#bN"/><use transform="matrix(0.007543078093165914,0,0,0.007543078093165914,77.07517195596931,0)" xlink:href="#bU"/></g><path d="M1036-1462h183L692 0H524L0-1462h180l336 946c39 109 69 214 92 317 24-108 55-216 94-323" id="cg"/><g id="H"><use transform="matrix(0.007543078093165914,0,0,0.007543078093165914,0,0)" xlink:href="#cg"/><use transform="matrix(0.007543078093165914,0,0,0.007543078093165914,8.885745993749447,0)" xlink:href="#br"/><use transform="matrix(0.007543078093165914,0,0,0.007543078093165914,17.477311941865423,0)" xlink:href="#bx"/><use transform="matrix(0.007543078093165914,0,0,0.007543078093165914,21.384626394125366,0)" xlink:href="#bz"/><use transform="matrix(0.007543078093165914,0,0,0.007543078093165914,25.29194084638531,0)" xlink:href="#bp"/><use transform="matrix(0.007543078093165914,0,0,0.007543078093165914,34.75850385330853,0)" xlink:href="#br"/><use transform="matrix(0.007543078093165914,0,0,0.007543078093165914,43.35006980142451,0)" xlink:href="#bC"/><use transform="matrix(0.007543078093165914,0,0,0.007543078093165914,48.80371526278347,0)" xlink:href="#bA"/></g><path d="M1141-549c0 329-147 569-455 569-159 0-273-61-344-161h-12c23 199 7 418 12 633H176v-1588h135l23 150h8c77-108 175-170 344-170 311 0 455 237 455 567zm-172-2c0-242-88-424-307-424-256 0-323 154-320 426 3 280 68 430 324 430 213 0 303-196 303-432" id="ch"/><path d="M25 352c109-1 151-60 151-172v-1276h166V168c0 216-100 324-299 324-63 0-115-8-154-25V332c46 13 91 20 136 20zm235-1634c-61 0-98-43-98-111 0-69 36-110 98-110 59 0 98 43 98 110s-39 111-98 111" id="ci"/><g id="I"><use transform="matrix(0.007543078093165914,0,0,0.007543078093165914,0,0)" xlink:href="#ch"/><use transform="matrix(0.007543078093165914,0,0,0.007543078093165914,9.466563006923222,0)" xlink:href="#bs"/><use transform="matrix(0.007543078093165914,0,0,0.007543078093165914,15.463310090990124,0)" xlink:href="#bD"/><use transform="matrix(0.007543078093165914,0,0,0.007543078093165914,24.79409769223636,0)" xlink:href="#ci"/><use transform="matrix(0.007543078093165914,0,0,0.007543078093165914,28.701412144496302,0)" xlink:href="#bA"/><use transform="matrix(0.007543078093165914,0,0,0.007543078093165914,37.36840887354394,0)" xlink:href="#bG"/><use transform="matrix(0.007543078093165914,0,0,0.007543078093165914,44.72291001438071,0)" xlink:href="#bC"/></g><path d="M63 264c30-115 88-378 105-502h182l15 23C327-69 250 132 188 264H63" id="cj"/><g id="J"><use transform="matrix(0.007543078093165914,0,0,0.007543078093165914,0,0)" xlink:href="#by"/><use transform="matrix(0.007543078093165914,0,0,0.007543078093165914,5.234896196657145,0)" xlink:href="#bz"/><use transform="matrix(0.007543078093165914,0,0,0.007543078093165914,9.14221064891709,0)" xlink:href="#bx"/><use transform="matrix(0.007543078093165914,0,0,0.007543078093165914,13.049525101177032,0)" xlink:href="#bA"/><use transform="matrix(0.007543078093165914,0,0,0.007543078093165914,21.716521830224668,0)" xlink:href="#bB"/><use transform="matrix(0.007543078093165914,0,0,0.007543078093165914,29.086109127247767,0)" xlink:href="#cj"/></g><g id="K"><use transform="matrix(0.007543078093165914,0,0,0.007543078093165914,0,0)" xlink:href="#bx"/><use transform="matrix(0.007543078093165914,0,0,0.007543078093165914,3.9073144522599437,0)" xlink:href="#br"/><use transform="matrix(0.007543078093165914,0,0,0.007543078093165914,12.49888040037592,0)" xlink:href="#bu"/><use transform="matrix(0.007543078093165914,0,0,0.007543078093165914,21.980529563485476,0)" xlink:href="#bH"/><use transform="matrix(0.007543078093165914,0,0,0.007543078093165914,30.44386318401763,0)" xlink:href="#bI"/><use transform="matrix(0.007543078093165914,0,0,0.007543078093165914,39.92551234712718,0)" xlink:href="#br"/><use transform="matrix(0.007543078093165914,0,0,0.007543078093165914,48.51707829524316,0)" xlink:href="#bH"/><use transform="matrix(0.007543078093165914,0,0,0.007543078093165914,56.98041191577531,0)" xlink:href="#bA"/></g><use transform="matrix(0.007543078093165914,0,0,0.007543078093165914,0,0)" xlink:href="#bF" id="L"/><g id="M"><use transform="matrix(0.007543078093165914,0,0,0.007543078093165914,0,0)" xlink:href="#bI"/><use transform="matrix(0.007543078093165914,0,0,0.007543078093165914,9.481649163109553,0)" xlink:href="#ch"/><use transform="matrix(0.007543078093165914,0,0,0.007543078093165914,18.948212170032775,0)" xlink:href="#bp"/><use transform="matrix(0.007543078093165914,0,0,0.007543078093165914,28.414775176956,0)" xlink:href="#br"/><use transform="matrix(0.007543078093165914,0,0,0.007543078093165914,37.00634112507198,0)" xlink:href="#bC"/><use transform="matrix(0.007543078093165914,0,0,0.007543078093165914,42.45998658643093,0)" xlink:href="#bA"/></g><g id="N"><use transform="matrix(0.007543078093165914,0,0,0.007543078093165914,0,0)" xlink:href="#bp"/><use transform="matrix(0.007543078093165914,0,0,0.007543078093165914,9.466563006923222,0)" xlink:href="#bA"/><use transform="matrix(0.007543078093165914,0,0,0.007543078093165914,18.133559735970856,0)" xlink:href="#br"/><use transform="matrix(0.007543078093165914,0,0,0.007543078093165914,26.725125684086834,0)" xlink:href="#bp"/><use transform="matrix(0.007543078093165914,0,0,0.007543078093165914,36.19168869101006,0)" xlink:href="#bx"/><use transform="matrix(0.007543078093165914,0,0,0.007543078093165914,40.099003143270004,0)" xlink:href="#bz"/><use transform="matrix(0.007543078093165914,0,0,0.007543078093165914,44.00631759552995,0)" xlink:href="#bu"/><use transform="matrix(0.007543078093165914,0,0,0.007543078093165914,53.4879667586395,0)" xlink:href="#bA"/></g><path d="M125-733c6-459 248-750 704-750 153 0 287 28 402 84l-72 146c-111-52-221-78-332-78-334-1-520 251-520 600 0 361 171 600 518 600 102 0 218-18 349-55v149C1073 1 948 20 799 20c-445 1-680-294-674-753" id="ck"/><g id="O"><use transform="matrix(0.007543078093165914,0,0,0.007543078093165914,0,0)" xlink:href="#ck"/><use transform="matrix(0.007543078093165914,0,0,0.007543078093165914,9.745656896370361,0)" xlink:href="#bD"/><use transform="matrix(0.007543078093165914,0,0,0.007543078093165914,19.0764444976166,0)" xlink:href="#bu"/><use transform="matrix(0.007543078093165914,0,0,0.007543078093165914,28.55809366072615,0)" xlink:href="#bC"/><use transform="matrix(0.007543078093165914,0,0,0.007543078093165914,34.0117391220851,0)" xlink:href="#br"/><use transform="matrix(0.007543078093165914,0,0,0.007543078093165914,42.60330507020108,0)" xlink:href="#bG"/><use transform="matrix(0.007543078093165914,0,0,0.007543078093165914,49.95780621103785,0)" xlink:href="#bC"/></g><g id="P"><use transform="matrix(0.007543078093165914,0,0,0.007543078093165914,0,0)" xlink:href="#ch"/><use transform="matrix(0.007543078093165914,0,0,0.007543078093165914,9.466563006923222,0)" xlink:href="#bx"/><use transform="matrix(0.007543078093165914,0,0,0.007543078093165914,13.373877459183166,0)" xlink:href="#br"/><use transform="matrix(0.007543078093165914,0,0,0.007543078093165914,21.96544340729914,0)" xlink:href="#bG"/><use transform="matrix(0.007543078093165914,0,0,0.007543078093165914,29.319944548135908,0)" xlink:href="#bA"/></g><g id="Q"><use transform="matrix(0.007543078093165914,0,0,0.007543078093165914,0,0)" xlink:href="#bC"/><use transform="matrix(0.007543078093165914,0,0,0.007543078093165914,5.453645461358956,0)" xlink:href="#bs"/><use transform="matrix(0.007543078093165914,0,0,0.007543078093165914,11.450392545425858,0)" xlink:href="#br"/><use transform="matrix(0.007543078093165914,0,0,0.007543078093165914,20.041958493541834,0)" xlink:href="#bu"/><use transform="matrix(0.007543078093165914,0,0,0.007543078093165914,29.523607656651386,0)" xlink:href="#bB"/><use transform="matrix(0.007543078093165914,0,0,0.007543078093165914,36.89319495367448,0)" xlink:href="#bx"/><use transform="matrix(0.007543078093165914,0,0,0.007543078093165914,40.80050940593443,0)" xlink:href="#br"/><use transform="matrix(0.007543078093165914,0,0,0.007543078093165914,49.392075354050405,0)" xlink:href="#bC"/><use transform="matrix(0.007543078093165914,0,0,0.007543078093165914,54.845720815409365,0)" xlink:href="#bD"/><use transform="matrix(0.007543078093165914,0,0,0.007543078093165914,64.1765084166556,0)" xlink:href="#bs"/><use transform="matrix(0.007543078093165914,0,0,0.007543078093165914,70.4825217025423,0)" xlink:href="#bB"/></g><g id="R"><use transform="matrix(0.007543078093165914,0,0,0.007543078093165914,0,0)" xlink:href="#br"/><use transform="matrix(0.007543078093165914,0,0,0.007543078093165914,8.591565948115976,0)" xlink:href="#bu"/><use transform="matrix(0.007543078093165914,0,0,0.007543078093165914,18.07321511122553,0)" xlink:href="#bp"/></g><path d="M84-473v-152h491v152H84" id="cl"/><g id="S"><use transform="matrix(0.007543078093165914,0,0,0.007543078093165914,0,0)" xlink:href="#bz"/><use transform="matrix(0.007543078093165914,0,0,0.007543078093165914,3.9073144522599437,0)" xlink:href="#bu"/><use transform="matrix(0.007543078093165914,0,0,0.007543078093165914,13.388963615369498,0)" xlink:href="#cl"/><use transform="matrix(0.007543078093165914,0,0,0.007543078093165914,18.359852078765837,0)" xlink:href="#bG"/><use transform="matrix(0.007543078093165914,0,0,0.007543078093165914,25.714353219602604,0)" xlink:href="#bD"/><use transform="matrix(0.007543078093165914,0,0,0.007543078093165914,35.04514082084884,0)" xlink:href="#bI"/><use transform="matrix(0.007543078093165914,0,0,0.007543078093165914,44.526789983958395,0)" xlink:href="#bu"/><use transform="matrix(0.007543078093165914,0,0,0.007543078093165914,54.008439147067946,0)" xlink:href="#bC"/><use transform="matrix(0.007543078093165914,0,0,0.007543078093165914,59.462084608426906,0)" xlink:href="#bs"/><use transform="matrix(0.007543078093165914,0,0,0.007543078093165914,65.76809789431361,0)" xlink:href="#bv"/></g><path d="M516-150c94-315 146-423 332-946h178L610 0H416L0-1096h178c98 281 253 670 330 946h8" id="cm"/><g id="T"><use transform="matrix(0.007543078093165914,0,0,0.007543078093165914,0,0)" xlink:href="#bs"/><use transform="matrix(0.007543078093165914,0,0,0.007543078093165914,5.996747084066902,0)" xlink:href="#bA"/><use transform="matrix(0.007543078093165914,0,0,0.007543078093165914,14.354477611294735,0)" xlink:href="#cm"/><use transform="matrix(0.007543078093165914,0,0,0.007543078093165914,22.093675734882964,0)" xlink:href="#bz"/><use transform="matrix(0.007543078093165914,0,0,0.007543078093165914,26.000990187142907,0)" xlink:href="#bA"/><use transform="matrix(0.007543078093165914,0,0,0.007543078093165914,34.35872071437074,0)" xlink:href="#bK"/><use transform="matrix(0.007543078093165914,0,0,0.007543078093165914,46.37484411678404,0)" xlink:href="#bA"/><use transform="matrix(0.007543078093165914,0,0,0.007543078093165914,55.04184084583167,0)" xlink:href="#bs"/></g><path d="M651 0H481v-1311H18v-151h1096v151H651V0" id="cn"/><g id="U"><use transform="matrix(0.007543078093165914,0,0,0.007543078093165914,0,0)" xlink:href="#cn"/><use transform="matrix(0.007543078093165914,0,0,0.007543078093165914,7.776913514054059,0)" xlink:href="#bs"/><use transform="matrix(0.007543078093165914,0,0,0.007543078093165914,13.77366059812096,0)" xlink:href="#br"/><use transform="matrix(0.007543078093165914,0,0,0.007543078093165914,22.365226546236936,0)" xlink:href="#bu"/><use transform="matrix(0.007543078093165914,0,0,0.007543078093165914,31.846875709346488,0)" xlink:href="#bB"/><use transform="matrix(0.007543078093165914,0,0,0.007543078093165914,39.21646300636959,0)" xlink:href="#bx"/><use transform="matrix(0.007543078093165914,0,0,0.007543078093165914,43.12377745862953,0)" xlink:href="#br"/><use transform="matrix(0.007543078093165914,0,0,0.007543078093165914,51.71534340674551,0)" xlink:href="#bC"/><use transform="matrix(0.007543078093165914,0,0,0.007543078093165914,57.168988868104464,0)" xlink:href="#bA"/></g><path d="M602-1462c329 0 526 109 526 413 0 193-98 324-294 392L1231 0h-201L676-608H371V0H201v-1462h401zm350 422c0-215-129-271-360-273H371v559h233c223 0 348-78 348-286" id="co"/><g id="V"><use transform="matrix(0.007543078093165914,0,0,0.007543078093165914,0,0)" xlink:href="#co"/><use transform="matrix(0.007543078093165914,0,0,0.007543078093165914,9.549536865948047,0)" xlink:href="#bA"/><use transform="matrix(0.007543078093165914,0,0,0.007543078093165914,17.90726739317588,0)" xlink:href="#cm"/><use transform="matrix(0.007543078093165914,0,0,0.007543078093165914,25.646465516764106,0)" xlink:href="#bz"/><use transform="matrix(0.007543078093165914,0,0,0.007543078093165914,29.55377996902405,0)" xlink:href="#bA"/><use transform="matrix(0.007543078093165914,0,0,0.007543078093165914,37.91151049625188,0)" xlink:href="#bK"/></g><path d="M201 0v-1462h170V0H201" id="cp"/><g id="W"><use transform="matrix(0.007543078093165914,0,0,0.007543078093165914,0,0)" xlink:href="#cp"/><use transform="matrix(0.007543078093165914,0,0,0.007543078093165914,4.307097591197737,0)" xlink:href="#bu"/><use transform="matrix(0.007543078093165914,0,0,0.007543078093165914,13.78874675430729,0)" xlink:href="#cl"/><use transform="matrix(0.007543078093165914,0,0,0.007543078093165914,18.75963521770363,0)" xlink:href="#bG"/><use transform="matrix(0.007543078093165914,0,0,0.007543078093165914,26.114136358540396,0)" xlink:href="#bD"/><use transform="matrix(0.007543078093165914,0,0,0.007543078093165914,35.444923959786635,0)" xlink:href="#bI"/><use transform="matrix(0.007543078093165914,0,0,0.007543078093165914,44.92657312289619,0)" xlink:href="#bu"/><use transform="matrix(0.007543078093165914,0,0,0.007543078093165914,54.40822228600574,0)" xlink:href="#bC"/><use transform="matrix(0.007543078093165914,0,0,0.007543078093165914,59.8618677473647,0)" xlink:href="#bs"/><use transform="matrix(0.007543078093165914,0,0,0.007543078093165914,66.1678810332514,0)" xlink:href="#bv"/></g><g id="X"><use transform="matrix(0.007543078093165914,0,0,0.007543078093165914,0,0)" xlink:href="#bs"/><use transform="matrix(0.007543078093165914,0,0,0.007543078093165914,5.996747084066902,0)" xlink:href="#bA"/><use transform="matrix(0.007543078093165914,0,0,0.007543078093165914,14.354477611294735,0)" xlink:href="#cm"/><use transform="matrix(0.007543078093165914,0,0,0.007543078093165914,22.093675734882964,0)" xlink:href="#bz"/><use transform="matrix(0.007543078093165914,0,0,0.007543078093165914,26.000990187142907,0)" xlink:href="#bA"/><use transform="matrix(0.007543078093165914,0,0,0.007543078093165914,34.35872071437074,0)" xlink:href="#bK"/></g><path d="M1608 0h-353c-89-370-200-713-266-1110C925-709 814-372 725 0H373L0-1462h305c83 378 199 789 258 1181 8-76 51-295 68-362l213-819h293l213 819c19 75 56 275 67 362 65-419 172-785 258-1181h305" id="cq"/><path d="M1382 0h-309v-631H494V0H184v-1462h310v573h579v-573h309V0" id="cr"/><path d="M817-1485c460 0 694 282 694 752 0 468-238 753-696 753-459 0-696-285-696-755 0-471 238-750 698-750zm0 258c-273 0-374 198-373 494 0 296 98 493 371 493 247 0 371-164 371-493s-123-494-369-494" id="cs"/><g id="Y"><use transform="matrix(0.007543078093165914,0,0,0.007543078093165914,0,0)" xlink:href="#cq"/><use transform="matrix(0.007543078093165914,0,0,0.007543078093165914,14.93529462446851,0)" xlink:href="#cr"/><use transform="matrix(0.007543078093165914,0,0,0.007543078093165914,26.755297996459497,0)" xlink:href="#cs"/></g><path d="M881-1016c0-191-181-195-387-192v395c210 7 387-9 387-203zm313-8c0 197-121 322-272 387 220 329 363 541 430 637h-344L659-561H494V0H184v-1462h426c360 1 584 108 584 438" id="ct"/><path d="M426 0L0-1118h319l216 637c24 81 39 157 45 229h6c3-64 15-141 45-229l215-637h319L739 0H426" id="cu"/><path d="M1079 0c-64-298-133-592-202-885h-7L666 0H338L20-1118h304c74 305 149 505 192 862h6c25-292 125-597 189-862h336c64 284 150 545 182 862h6c7-69 49-308 65-367l134-495h299L1411 0h-332" id="cv"/><g id="Z"><use transform="matrix(0.007543078093165914,0,0,0.007543078093165914,0,0)" xlink:href="#ct"/><use transform="matrix(0.007543078093165914,0,0,0.007543078093165914,10.198241581960316,0)" xlink:href="#bV"/><use transform="matrix(0.007543078093165914,0,0,0.007543078093165914,19.01609987287127,0)" xlink:href="#cu"/><use transform="matrix(0.007543078093165914,0,0,0.007543078093165914,27.803785851409557,0)" xlink:href="#bR"/><use transform="matrix(0.007543078093165914,0,0,0.007543078093165914,32.51820965963825,0)" xlink:href="#bV"/><use transform="matrix(0.007543078093165914,0,0,0.007543078093165914,41.33606795054921,0)" xlink:href="#cv"/></g><g id="aa"><use transform="matrix(0.007543078093165914,0,0,0.007543078093165914,0,0)" xlink:href="#bo"/><use transform="matrix(0.007543078093165914,0,0,0.007543078093165914,9.775829208743025,0)" xlink:href="#ch"/><use transform="matrix(0.007543078093165914,0,0,0.007543078093165914,19.242392215666246,0)" xlink:href="#ch"/><use transform="matrix(0.007543078093165914,0,0,0.007543078093165914,28.708955222589466,0)" xlink:href="#bs"/><use transform="matrix(0.007543078093165914,0,0,0.007543078093165914,34.70570230665637,0)" xlink:href="#bD"/><use transform="matrix(0.007543078093165914,0,0,0.007543078093165914,43.7272237060828,0)" xlink:href="#cm"/><use transform="matrix(0.007543078093165914,0,0,0.007543078093165914,51.466421829671035,0)" xlink:href="#bA"/></g><g id="ab"><use transform="matrix(0.007543078093165914,0,0,0.007543078093165914,0,0)" xlink:href="#cn"/><use transform="matrix(0.007543078093165914,0,0,0.007543078093165914,7.3092426722777715,0)" xlink:href="#br"/><use transform="matrix(0.007543078093165914,0,0,0.007543078093165914,15.900808620393747,0)" xlink:href="#bs"/><use transform="matrix(0.007543078093165914,0,0,0.007543078093165914,22.055960344417134,0)" xlink:href="#bH"/><use transform="matrix(0.007543078093165914,0,0,0.007543078093165914,30.51929396494929,0)" xlink:href="#bA"/><use transform="matrix(0.007543078093165914,0,0,0.007543078093165914,39.18629069399692,0)" xlink:href="#bC"/></g><g id="ac"><use transform="matrix(0.007543078093165914,0,0,0.007543078093165914,0,0)" xlink:href="#by"/><use transform="matrix(0.007543078093165914,0,0,0.007543078093165914,5.234896196657145,0)" xlink:href="#bz"/><use transform="matrix(0.007543078093165914,0,0,0.007543078093165914,9.14221064891709,0)" xlink:href="#bx"/><use transform="matrix(0.007543078093165914,0,0,0.007543078093165914,13.049525101177032,0)" xlink:href="#bA"/><use transform="matrix(0.007543078093165914,0,0,0.007543078093165914,21.716521830224668,0)" xlink:href="#bB"/></g><g id="ad"><use transform="matrix(0.007543078093165914,0,0,0.007543078093165914,0,0)" xlink:href="#bH"/><use transform="matrix(0.007543078093165914,0,0,0.007543078093165914,8.463333620532156,0)" xlink:href="#bA"/><use transform="matrix(0.007543078093165914,0,0,0.007543078093165914,17.130330349579793,0)" xlink:href="#bu"/><use transform="matrix(0.007543078093165914,0,0,0.007543078093165914,26.611979512689345,0)" xlink:href="#bA"/><use transform="matrix(0.007543078093165914,0,0,0.007543078093165914,35.278976241736984,0)" xlink:href="#bs"/><use transform="matrix(0.007543078093165914,0,0,0.007543078093165914,41.27572332580389,0)" xlink:href="#br"/><use transform="matrix(0.007543078093165914,0,0,0.007543078093165914,49.867289273919866,0)" xlink:href="#bC"/><use transform="matrix(0.007543078093165914,0,0,0.007543078093165914,55.320934735278826,0)" xlink:href="#bA"/><use transform="matrix(0.007543078093165914,0,0,0.007543078093165914,63.987931464326465,0)" xlink:href="#bp"/></g><g id="ae"><use transform="matrix(0.007543078093165914,0,0,0.007543078093165914,0,0)" xlink:href="#bB"/><use transform="matrix(0.007543078093165914,0,0,0.007543078093165914,7.369587297023098,0)" xlink:href="#bA"/><use transform="matrix(0.007543078093165914,0,0,0.007543078093165914,16.036584026070734,0)" xlink:href="#bu"/><use transform="matrix(0.007543078093165914,0,0,0.007543078093165914,25.518233189180286,0)" xlink:href="#bC"/></g><g id="af"><use transform="matrix(0.007543078093165914,0,0,0.007543078093165914,0,0)" xlink:href="#bE"/><use transform="matrix(0.007543078093165914,0,0,0.007543078093165914,8.591565948115976,0)" xlink:href="#br"/><use transform="matrix(0.007543078093165914,0,0,0.007543078093165914,17.183131896231952,0)" xlink:href="#bB"/><use transform="matrix(0.007543078093165914,0,0,0.007543078093165914,24.55271919325505,0)" xlink:href="#bA"/></g><path d="M649-1462c450-4 719 268 719 717 0 484-276 748-762 745H201v-1462h448zM578-147c400 1 610-197 610-592 1-379-192-576-570-576H371v1168h207" id="cw"/><g id="ag"><use transform="matrix(0.007543078093165914,0,0,0.007543078093165914,0,0)" xlink:href="#cw"/><use transform="matrix(0.007543078093165914,0,0,0.007543078093165914,11.26181559309671,0)" xlink:href="#bD"/><use transform="matrix(0.007543078093165914,0,0,0.007543078093165914,20.283336992523143,0)" xlink:href="#bK"/><use transform="matrix(0.007543078093165914,0,0,0.007543078093165914,32.299460394936446,0)" xlink:href="#bu"/><use transform="matrix(0.007543078093165914,0,0,0.007543078093165914,41.781109558046,0)" xlink:href="#bx"/><use transform="matrix(0.007543078093165914,0,0,0.007543078093165914,45.688424010305944,0)" xlink:href="#bD"/><use transform="matrix(0.007543078093165914,0,0,0.007543078093165914,55.01921161155218,0)" xlink:href="#br"/><use transform="matrix(0.007543078093165914,0,0,0.007543078093165914,63.61077755966815,0)" xlink:href="#bp"/></g><g id="ah"><use transform="matrix(0.007543078093165914,0,0,0.007543078093165914,0,0)" xlink:href="#bC"/><use transform="matrix(0.007543078093165914,0,0,0.007543078093165914,5.453645461358956,0)" xlink:href="#br"/><use transform="matrix(0.007543078093165914,0,0,0.007543078093165914,14.045211409474932,0)" xlink:href="#bs"/><use transform="matrix(0.007543078093165914,0,0,0.007543078093165914,20.20036313349832,0)" xlink:href="#bH"/><use transform="matrix(0.007543078093165914,0,0,0.007543078093165914,28.663696754030475,0)" xlink:href="#bA"/><use transform="matrix(0.007543078093165914,0,0,0.007543078093165914,37.33069348307811,0)" xlink:href="#bC"/></g><path d="M383 324C201 116 82-188 82-561c0-378 120-688 301-901h162c-172 227-289 529-289 899 0 361 122 665 287 887H383" id="cx"/><g id="ai"><use transform="matrix(0.007543078093165914,0,0,0.007543078093165914,0,0)" xlink:href="#cx"/><use transform="matrix(0.007543078093165914,0,0,0.007543078093165914,4.571105324458544,0)" xlink:href="#bq"/><use transform="matrix(0.007543078093165914,0,0,0.007543078093165914,8.682082885233967,0)" xlink:href="#br"/><use transform="matrix(0.007543078093165914,0,0,0.007543078093165914,17.273648833349945,0)" xlink:href="#bs"/><use transform="matrix(0.007543078093165914,0,0,0.007543078093165914,23.57966211923665,0)" xlink:href="#bt"/></g><path d="M223-1462c182 213 301 524 301 901 0 373-119 679-301 885H63c166-222 287-526 287-887 0-369-117-672-289-899h162" id="cy"/><g id="aj"><use transform="matrix(0.007543078093165914,0,0,0.007543078093165914,0,0)" xlink:href="#bq"/><use transform="matrix(0.007543078093165914,0,0,0.007543078093165914,4.1109775607754235,0)" xlink:href="#bv"/><use transform="matrix(0.007543078093165914,0,0,0.007543078093165914,11.895434152922647,0)" xlink:href="#br"/><use transform="matrix(0.007543078093165914,0,0,0.007543078093165914,20.487000101038625,0)" xlink:href="#bw"/><use transform="matrix(0.007543078093165914,0,0,0.007543078093165914,34.85656386851969,0)" xlink:href="#bx"/><use transform="matrix(0.007543078093165914,0,0,0.007543078093165914,38.76387832077964,0)" xlink:href="#cy"/></g><path d="M371 0H201v-1462h815v151H371v535h606v151H371V0" id="cz"/><g id="ak"><use transform="matrix(0.007543078093165914,0,0,0.007543078093165914,0,0)" xlink:href="#cz"/><use transform="matrix(0.007543078093165914,0,0,0.007543078093165914,7.973033544476372,0)" xlink:href="#bz"/><use transform="matrix(0.007543078093165914,0,0,0.007543078093165914,11.880347996736315,0)" xlink:href="#bx"/><use transform="matrix(0.007543078093165914,0,0,0.007543078093165914,15.787662448996258,0)" xlink:href="#bA"/><use transform="matrix(0.007543078093165914,0,0,0.007543078093165914,24.454659178043894,0)" xlink:href="#bB"/></g><g id="al"><use transform="matrix(0.007543078093165914,0,0,0.007543078093165914,0,0)" xlink:href="#by"/><use transform="matrix(0.007543078093165914,0,0,0.007543078093165914,5.234896196657145,0)" xlink:href="#bz"/><use transform="matrix(0.007543078093165914,0,0,0.007543078093165914,9.14221064891709,0)" xlink:href="#bx"/><use transform="matrix(0.007543078093165914,0,0,0.007543078093165914,13.049525101177032,0)" xlink:href="#bC"/><use transform="matrix(0.007543078093165914,0,0,0.007543078093165914,18.50317056253599,0)" xlink:href="#bA"/><use transform="matrix(0.007543078093165914,0,0,0.007543078093165914,27.170167291583624,0)" xlink:href="#bs"/><use transform="matrix(0.007543078093165914,0,0,0.007543078093165914,33.16691437565053,0)" xlink:href="#bA"/><use transform="matrix(0.007543078093165914,0,0,0.007543078093165914,41.83391110469816,0)" xlink:href="#bp"/><use transform="matrix(0.007543078093165914,0,0,0.007543078093165914,51.300474111621384,0)" xlink:href="#cj"/></g><g id="am"><use transform="matrix(0.007543078093165914,0,0,0.007543078093165914,0,0)" xlink:href="#bG"/><use transform="matrix(0.007543078093165914,0,0,0.007543078093165914,7.354501140836766,0)" xlink:href="#bD"/><use transform="matrix(0.007543078093165914,0,0,0.007543078093165914,16.685288742083003,0)" xlink:href="#bu"/><use transform="matrix(0.007543078093165914,0,0,0.007543078093165914,26.166937905192555,0)" xlink:href="#bC"/><use transform="matrix(0.007543078093165914,0,0,0.007543078093165914,31.62058336655151,0)" xlink:href="#bA"/><use transform="matrix(0.007543078093165914,0,0,0.007543078093165914,40.28758009559915,0)" xlink:href="#bu"/><use transform="matrix(0.007543078093165914,0,0,0.007543078093165914,49.7692292587087,0)" xlink:href="#bC"/></g><path d="M440-561L59-1096h189l289 420 288-420h187L631-561 1032 0H844L537-444 227 0H39" id="cA"/><g id="an"><use transform="matrix(0.007543078093165914,0,0,0.007543078093165914,0,0)" xlink:href="#bG"/><use transform="matrix(0.007543078093165914,0,0,0.007543078093165914,7.354501140836766,0)" xlink:href="#bD"/><use transform="matrix(0.007543078093165914,0,0,0.007543078093165914,16.685288742083003,0)" xlink:href="#bu"/><use transform="matrix(0.007543078093165914,0,0,0.007543078093165914,26.166937905192555,0)" xlink:href="#bC"/><use transform="matrix(0.007543078093165914,0,0,0.007543078093165914,31.62058336655151,0)" xlink:href="#bA"/><use transform="matrix(0.007543078093165914,0,0,0.007543078093165914,39.978313893779344,0)" xlink:href="#cA"/><use transform="matrix(0.007543078093165914,0,0,0.007543078093165914,48.07203668774637,0)" xlink:href="#bC"/></g><g id="ao"><use transform="matrix(0.007543078093165914,0,0,0.007543078093165914,0,0)" xlink:href="#bA"/><use transform="matrix(0.007543078093165914,0,0,0.007543078093165914,8.357730527227833,0)" xlink:href="#cA"/><use transform="matrix(0.007543078093165914,0,0,0.007543078093165914,16.451453321194858,0)" xlink:href="#bC"/><use transform="matrix(0.007543078093165914,0,0,0.007543078093165914,21.905098782553814,0)" xlink:href="#bs"/><use transform="matrix(0.007543078093165914,0,0,0.007543078093165914,27.901845866620718,0)" xlink:href="#br"/><use transform="matrix(0.007543078093165914,0,0,0.007543078093165914,36.493411814736696,0)" xlink:href="#bG"/><use transform="matrix(0.007543078093165914,0,0,0.007543078093165914,43.84791295557346,0)" xlink:href="#bC"/><use transform="matrix(0.007543078093165914,0,0,0.007543078093165914,49.30155841693242,0)" xlink:href="#bA"/><use transform="matrix(0.007543078093165914,0,0,0.007543078093165914,57.96855514598006,0)" xlink:href="#bp"/></g><g id="ap"><use transform="matrix(0.007543078093165914,0,0,0.007543078093165914,0,0)" xlink:href="#br"/><use transform="matrix(0.007543078093165914,0,0,0.007543078093165914,8.591565948115976,0)" xlink:href="#bu"/><use transform="matrix(0.007543078093165914,0,0,0.007543078093165914,18.07321511122553,0)" xlink:href="#br"/><use transform="matrix(0.007543078093165914,0,0,0.007543078093165914,26.664781059341507,0)" xlink:href="#bx"/><use transform="matrix(0.007543078093165914,0,0,0.007543078093165914,30.57209551160145,0)" xlink:href="#bv"/><use transform="matrix(0.007543078093165914,0,0,0.007543078093165914,38.356552103748676,0)" xlink:href="#bB"/><use transform="matrix(0.007543078093165914,0,0,0.007543078093165914,45.72613940077177,0)" xlink:href="#bA"/><use transform="matrix(0.007543078093165914,0,0,0.007543078093165914,54.39313612981941,0)" xlink:href="#bp"/></g><g id="aq"><use transform="matrix(0.007543078093165914,0,0,0.007543078093165914,0,0)" xlink:href="#br"/><use transform="matrix(0.007543078093165914,0,0,0.007543078093165914,8.591565948115976,0)" xlink:href="#bH"/><use transform="matrix(0.007543078093165914,0,0,0.007543078093165914,17.054899568648132,0)" xlink:href="#br"/><use transform="matrix(0.007543078093165914,0,0,0.007543078093165914,25.64646551676411,0)" xlink:href="#bz"/><use transform="matrix(0.007543078093165914,0,0,0.007543078093165914,29.553779969024053,0)" xlink:href="#bu"/><use transform="matrix(0.007543078093165914,0,0,0.007543078093165914,39.03542913213361,0)" xlink:href="#bB"/><use transform="matrix(0.007543078093165914,0,0,0.007543078093165914,46.4050164291567,0)" xlink:href="#bC"/></g><g id="ar"><use transform="matrix(0.007543078093165914,0,0,0.007543078093165914,0,0)" xlink:href="#bC"/><use transform="matrix(0.007543078093165914,0,0,0.007543078093165914,5.453645461358956,0)" xlink:href="#bs"/><use transform="matrix(0.007543078093165914,0,0,0.007543078093165914,11.450392545425858,0)" xlink:href="#br"/><use transform="matrix(0.007543078093165914,0,0,0.007543078093165914,20.041958493541834,0)" xlink:href="#bu"/><use transform="matrix(0.007543078093165914,0,0,0.007543078093165914,29.523607656651386,0)" xlink:href="#bB"/><use transform="matrix(0.007543078093165914,0,0,0.007543078093165914,36.89319495367448,0)" xlink:href="#bx"/><use transform="matrix(0.007543078093165914,0,0,0.007543078093165914,40.80050940593443,0)" xlink:href="#br"/><use transform="matrix(0.007543078093165914,0,0,0.007543078093165914,49.392075354050405,0)" xlink:href="#bC"/><use transform="matrix(0.007543078093165914,0,0,0.007543078093165914,54.845720815409365,0)" xlink:href="#bz"/><use transform="matrix(0.007543078093165914,0,0,0.007543078093165914,58.75303526766931,0)" xlink:href="#bD"/><use transform="matrix(0.007543078093165914,0,0,0.007543078093165914,68.08382286891555,0)" xlink:href="#bu"/></g><g id="as"><use transform="matrix(0.007543078093165914,0,0,0.007543078093165914,0,0)" xlink:href="#bw"/><use transform="matrix(0.007543078093165914,0,0,0.007543078093165914,14.369563767481067,0)" xlink:href="#bA"/><use transform="matrix(0.007543078093165914,0,0,0.007543078093165914,23.0365604965287,0)" xlink:href="#bw"/><use transform="matrix(0.007543078093165914,0,0,0.007543078093165914,37.40612426400977,0)" xlink:href="#bD"/><use transform="matrix(0.007543078093165914,0,0,0.007543078093165914,46.736911865256005,0)" xlink:href="#bs"/><use transform="matrix(0.007543078093165914,0,0,0.007543078093165914,53.04292515114271,0)" xlink:href="#bv"/></g><g id="at"><use transform="matrix(0.007543078093165914,0,0,0.007543078093165914,0,0)" xlink:href="#cp"/><use transform="matrix(0.007543078093165914,0,0,0.007543078093165914,4.307097591197737,0)" xlink:href="#bw"/><use transform="matrix(0.007543078093165914,0,0,0.007543078093165914,18.676661358678803,0)" xlink:href="#ch"/><use transform="matrix(0.007543078093165914,0,0,0.007543078093165914,28.143224365602023,0)" xlink:href="#bD"/><use transform="matrix(0.007543078093165914,0,0,0.007543078093165914,37.47401196684826,0)" xlink:href="#bs"/><use transform="matrix(0.007543078093165914,0,0,0.007543078093165914,43.780025252734966,0)" xlink:href="#bC"/></g><path d="M877 0H82v-113l598-854H119v-129h743v129L272-129h605V0" id="cB"/><g id="au"><use transform="matrix(0.007543078093165914,0,0,0.007543078093165914,0,0)" xlink:href="#bx"/><use transform="matrix(0.007543078093165914,0,0,0.007543078093165914,3.9073144522599437,0)" xlink:href="#bD"/><use transform="matrix(0.007543078093165914,0,0,0.007543078093165914,13.238102053506179,0)" xlink:href="#bG"/><use transform="matrix(0.007543078093165914,0,0,0.007543078093165914,20.592603194342946,0)" xlink:href="#br"/><use transform="matrix(0.007543078093165914,0,0,0.007543078093165914,29.18416914245892,0)" xlink:href="#bx"/><use transform="matrix(0.007543078093165914,0,0,0.007543078093165914,33.091483594718866,0)" xlink:href="#bz"/><use transform="matrix(0.007543078093165914,0,0,0.007543078093165914,36.99879804697881,0)" xlink:href="#cB"/><use transform="matrix(0.007543078093165914,0,0,0.007543078093165914,44.225066860231756,0)" xlink:href="#bA"/><use transform="matrix(0.007543078093165914,0,0,0.007543078093165914,52.89206358927939,0)" xlink:href="#bp"/></g><g id="av"><use transform="matrix(0.007543078093165914,0,0,0.007543078093165914,0,0)" xlink:href="#br"/><use transform="matrix(0.007543078093165914,0,0,0.007543078093165914,8.591565948115976,0)" xlink:href="#ch"/><use transform="matrix(0.007543078093165914,0,0,0.007543078093165914,18.058128955039198,0)" xlink:href="#ch"/></g><g id="aw"><use transform="matrix(0.007543078093165914,0,0,0.007543078093165914,0,0)" xlink:href="#co"/><use transform="matrix(0.007543078093165914,0,0,0.007543078093165914,9.549536865948047,0)" xlink:href="#bA"/><use transform="matrix(0.007543078093165914,0,0,0.007543078093165914,17.90726739317588,0)" xlink:href="#cm"/><use transform="matrix(0.007543078093165914,0,0,0.007543078093165914,25.646465516764106,0)" xlink:href="#bz"/><use transform="matrix(0.007543078093165914,0,0,0.007543078093165914,29.55377996902405,0)" xlink:href="#bA"/><use transform="matrix(0.007543078093165914,0,0,0.007543078093165914,37.91151049625188,0)" xlink:href="#bK"/></g><g id="ax"><use transform="matrix(0.007543078093165914,0,0,0.007543078093165914,0,0)" xlink:href="#bD"/><use transform="matrix(0.007543078093165914,0,0,0.007543078093165914,9.330787601246236,0)" xlink:href="#bs"/><use transform="matrix(0.007543078093165914,0,0,0.007543078093165914,15.327534685313138,0)" xlink:href="#bp"/><use transform="matrix(0.007543078093165914,0,0,0.007543078093165914,24.79409769223636,0)" xlink:href="#bA"/><use transform="matrix(0.007543078093165914,0,0,0.007543078093165914,33.461094421283995,0)" xlink:href="#bs"/></g><g id="ay"><use transform="matrix(0.007543078093165914,0,0,0.007543078093165914,0,0)" xlink:href="#ce"/><use transform="matrix(0.007543078093165914,0,0,0.007543078093165914,8.17669665299185,0)" xlink:href="#cd"/><use transform="matrix(0.007543078093165914,0,0,0.007543078093165914,14.88249307781635,0)" xlink:href="#bP"/><use transform="matrix(0.007543078093165914,0,0,0.007543078093165914,24.213280679062585,0)" xlink:href="#bU"/><use transform="matrix(0.007543078093165914,0,0,0.007543078093165914,34.366263792463904,0)" xlink:href="#cf"/><use transform="matrix(0.007543078093165914,0,0,0.007543078093165914,42.0451172913068,0)" xlink:href="#bQ"/><use transform="matrix(0.007543078093165914,0,0,0.007543078093165914,46.7595410995355,0)" xlink:href="#bP"/><use transform="matrix(0.007543078093165914,0,0,0.007543078093165914,56.09032870078173,0)" xlink:href="#bT"/><use transform="matrix(0.007543078093165914,0,0,0.007543078093165914,62.79612512560624,0)" xlink:href="#bN"/><use transform="matrix(0.007543078093165914,0,0,0.007543078093165914,72.36074814774061,0)" xlink:href="#cd"/><use transform="matrix(0.007543078093165914,0,0,0.007543078093165914,79.3758107743849,0)" xlink:href="#cf"/></g><g id="az"><use transform="matrix(0.007543078093165914,0,0,0.007543078093165914,0,0)" xlink:href="#bo"/><use transform="matrix(0.007543078093165914,0,0,0.007543078093165914,9.775829208743025,0)" xlink:href="#cm"/><use transform="matrix(0.007543078093165914,0,0,0.007543078093165914,17.51502733233125,0)" xlink:href="#br"/><use transform="matrix(0.007543078093165914,0,0,0.007543078093165914,26.10659328044723,0)" xlink:href="#bz"/><use transform="matrix(0.007543078093165914,0,0,0.007543078093165914,30.01390773270717,0)" xlink:href="#bx"/><use transform="matrix(0.007543078093165914,0,0,0.007543078093165914,33.921222184967114,0)" xlink:href="#br"/><use transform="matrix(0.007543078093165914,0,0,0.007543078093165914,42.51278813308309,0)" xlink:href="#bt"/><use transform="matrix(0.007543078093165914,0,0,0.007543078093165914,51.979351140006315,0)" xlink:href="#bx"/><use transform="matrix(0.007543078093165914,0,0,0.007543078093165914,55.88666559226626,0)" xlink:href="#bA"/></g><g id="aA"><use transform="matrix(0.007543078093165914,0,0,0.007543078093165914,0,0)" xlink:href="#br"/><use transform="matrix(0.007543078093165914,0,0,0.007543078093165914,8.591565948115976,0)" xlink:href="#bG"/><use transform="matrix(0.007543078093165914,0,0,0.007543078093165914,15.946067088952743,0)" xlink:href="#bG"/><use transform="matrix(0.007543078093165914,0,0,0.007543078093165914,23.30056822978951,0)" xlink:href="#bA"/><use transform="matrix(0.007543078093165914,0,0,0.007543078093165914,31.967564958837144,0)" xlink:href="#ch"/><use transform="matrix(0.007543078093165914,0,0,0.007543078093165914,41.43412796576037,0)" xlink:href="#bC"/></g><path d="M340-561c134-179 332-366 485-535h197L578-629 1053 0H852L465-518 340-410V0H176v-1556h164c-4 336 9 669-8 995h8" id="cC"/><path d="M731-1462L186 0H20l545-1462h166" id="cD"/><g id="aB"><use transform="matrix(0.007543078093165914,0,0,0.007543078093165914,0,0)" xlink:href="#bC"/><use transform="matrix(0.007543078093165914,0,0,0.007543078093165914,5.453645461358956,0)" xlink:href="#br"/><use transform="matrix(0.007543078093165914,0,0,0.007543078093165914,14.045211409474932,0)" xlink:href="#bB"/><use transform="matrix(0.007543078093165914,0,0,0.007543078093165914,21.41479870649803,0)" xlink:href="#cC"/><use transform="matrix(0.007543078093165914,0,0,0.007543078093165914,29.523607656651386,0)" xlink:href="#cD"/><use transform="matrix(0.007543078093165914,0,0,0.007543078093165914,35.19600238271215,0)" xlink:href="#bB"/></g><path d="M573-731l390-731h184L659-567V0H487v-559L0-1462h186" id="cE"/><g id="aC"><use transform="matrix(0.007543078093165914,0,0,0.007543078093165914,0,0)" xlink:href="#cE"/><use transform="matrix(0.007543078093165914,0,0,0.007543078093165914,7.882516607358382,0)" xlink:href="#bA"/><use transform="matrix(0.007543078093165914,0,0,0.007543078093165914,16.549513336406015,0)" xlink:href="#bB"/></g><path d="M1198-240c-25-390-10-810-14-1222h159V0h-194L350-1227h-8c30 405 10 805 16 1227H201v-1462h192l797 1222h8" id="cF"/><g id="aD"><use transform="matrix(0.007543078093165914,0,0,0.007543078093165914,0,0)" xlink:href="#cF"/><use transform="matrix(0.007543078093165914,0,0,0.007543078093165914,11.646512575848172,0)" xlink:href="#bD"/></g></defs></g></svg>