<svg width="24" height="24" viewBox="0 0 24 24" fill="none" xmlns="http://www.w3.org/2000/svg">
<path d="M11 16.985C15.1421 16.985 18.5 13.6271 18.5 9.48498C18.5 5.34285 15.1421 1.98499 11 1.98499C6.85786 1.98499 3.5 5.34285 3.5 9.48498C3.5 13.6271 6.85786 16.985 11 16.985Z" stroke="black" stroke-width="1.5" stroke-linecap="round" stroke-linejoin="round"/>
<path d="M18.425 2.061C20.3941 4.03024 21.5003 6.70104 21.5002 9.48586C21.5001 12.2707 20.3937 14.9414 18.4245 16.9105C16.4553 18.8796 13.7845 19.9858 10.9996 19.9857C8.21483 19.9856 5.5441 18.8792 3.575 16.91" stroke="black" stroke-width="1.5" stroke-linecap="round" stroke-linejoin="round"/>
<path d="M19.485 1L18.425 2.061" stroke="black" stroke-width="1.5" stroke-linecap="round" stroke-linejoin="round"/>
<path d="M3.575 16.91L2.515 17.971" stroke="black" stroke-width="1.5" stroke-linecap="round" stroke-linejoin="round"/>
<path d="M11 19.985V22.985" stroke="black" stroke-width="1.5" stroke-linecap="round" stroke-linejoin="round"/>
<path d="M5 22.985H17" stroke="black" stroke-width="1.5" stroke-linecap="round" stroke-linejoin="round"/>
<path d="M4.124 6.48499H5.75C6.14783 6.48499 6.52936 6.64302 6.81066 6.92432C7.09197 7.20563 7.25 7.58716 7.25 7.98499V9.61399C7.24991 9.811 7.28863 10.0061 7.36396 10.1882C7.43928 10.3702 7.54973 10.5356 7.689 10.675L8.844 11.83C9.04109 12.0269 9.17944 12.2748 9.24355 12.5459C9.30767 12.817 9.29501 13.1007 9.207 13.365L8.898 14.291C8.80141 14.5802 8.61897 14.8331 8.375 15.016L7.159 15.928" stroke="black" stroke-width="1.5" stroke-linecap="round" stroke-linejoin="round"/>
<path d="M13.4 2.379C12.993 2.704 12.559 3.041 12.174 3.338C11.8615 3.57867 11.6564 3.93273 11.6031 4.32352C11.5497 4.71431 11.6524 5.11039 11.889 5.426L12.8 6.635C12.9397 6.82129 13.1209 6.9725 13.3292 7.07664C13.5375 7.18078 13.7671 7.235 14 7.235H14.879C15.2767 7.23535 15.658 7.39361 15.939 7.675L17.094 8.83C17.2742 9.01006 17.4973 9.14127 17.7422 9.21126C17.9871 9.28124 18.2459 9.28769 18.494 9.23" stroke="black" stroke-width="1.5" stroke-linecap="round" stroke-linejoin="round"/>
</svg>
